<?xml version="1.0" encoding="utf-8"?>
<!-- Generator: Adobe Illustrator 16.0.0, SVG Export Plug-In . SVG Version: 6.00 Build 0)  -->
<!DOCTYPE svg PUBLIC "-//W3C//DTD SVG 1.1//EN" "http://www.w3.org/Graphics/SVG/1.1/DTD/svg11.dtd">
<svg version="1.1" id="Layer_1" xmlns="http://www.w3.org/2000/svg" xmlns:xlink="http://www.w3.org/1999/xlink" x="0px" y="0px"
	 width="64px" height="64px" viewBox="30 30 64 64" enable-background="new 30 30 64 64" xml:space="preserve">
<title>Dogecoin (DOGE)</title>
<g id="Layer_2">
	<g id="Layer_1-2">
		<g id="Layer_1-3">
			<circle fill="#988430" cx="61.821" cy="62.501" r="30.95"/>
			<circle fill="#7A6A2A" cx="61.821" cy="62.501" r="29.958"/>
			<circle fill="#BA9F33" cx="61.821" cy="62.501" r="29.327"/>
			<path fill="#CFB66C" d="M44.403,59.195c-0.175-0.159-0.36-0.321-0.531-0.481c-0.17-0.159-0.347-0.32-0.521-0.48l-0.521-0.495
				c-0.085-0.085-0.174-0.161-0.26-0.245c-0.087-0.075-0.185-0.162-0.271-0.237c-0.692-0.655-1.387-1.311-2.068-1.967
				c0.706,0.645,1.398,1.287,2.104,1.944l0.244,0.244c0.087,0.084,0.177,0.162,0.263,0.246l0.521,0.48
				c0.174,0.162,0.345,0.321,0.519,0.497C44.056,58.875,44.228,59.035,44.403,59.195L44.403,59.195z M35.228,59.097
				c0,0,2.514,0.261,3.741,0.436c1.137,0.16,4.694,0.707,4.694,0.707L35.228,59.097z M35.228,59.097
				c0.707,0.061,1.413,0.135,2.119,0.212c0.36,0.034,0.705,0.074,1.051,0.107l0.529,0.062c0.177,0.024,0.347,0.05,0.523,0.075
				l2.102,0.336l1.053,0.174c0.345,0.06,0.691,0.124,1.052,0.185c-0.345-0.035-0.707-0.085-1.052-0.135l-1.053-0.15l-2.102-0.31
				c-0.176-0.025-0.346-0.06-0.523-0.085l-0.529-0.062c-0.346-0.035-0.707-0.085-1.051-0.125c-0.706-0.083-1.414-0.175-2.12-0.287
				L35.228,59.097z M43.412,60.894c0,0-2.684,0.682-3.592,0.941c-0.891,0.247-3.591,1.067-3.591,1.067l7.183-2.007V60.894z"/>
			<path fill="#CFB66C" d="M43.412,60.894c-0.597,0.176-1.191,0.345-1.795,0.505l-1.792,0.481c-0.595,0.177-1.188,0.347-1.782,0.521
				l-0.891,0.247c-0.296,0.085-0.596,0.158-0.903,0.244c0.296-0.101,0.597-0.199,0.892-0.285l0.891-0.285
				c0.597-0.185,1.188-0.361,1.784-0.546c0.606-0.151,1.201-0.312,1.808-0.458c0.577-0.144,1.183-0.289,1.789-0.423l0,0V60.894z
				 M36.605,64.554c0.295-0.108,3.702-1.696,4.493-2.068c0.395-0.184,1.546-0.591,1.546-0.591L36.605,64.554z"/>
			<path fill="#CFB66C" d="M36.605,64.554c0.259-0.1,0.507-0.219,0.756-0.336l0.741-0.345l1.488-0.716
				c0.494-0.234,0.977-0.494,1.486-0.716c0.261-0.109,0.522-0.2,0.781-0.286l0.397-0.124c0.136-0.037,0.261-0.077,0.395-0.11
				c-0.495,0.234-1.016,0.434-1.512,0.667c-0.496,0.245-1.001,0.445-1.512,0.666l-1.512,0.664
				C37.606,64.125,37.11,64.344,36.605,64.554L36.605,64.554L36.605,64.554z M36.935,65.94c0,0,3.084-1.807,4.146-2.389
				c0.556-0.31,2.355-1.201,2.355-1.201L36.935,65.94z"/>
			<path fill="#CFB66C" d="M36.935,65.942c0.52-0.318,1.051-0.647,1.583-0.979l0.791-0.479c0.272-0.159,0.532-0.309,0.807-0.472
				c0.271-0.159,0.531-0.319,0.808-0.47c0.13-0.08,0.269-0.151,0.41-0.21l0.421-0.211c0.555-0.272,1.111-0.545,1.696-0.782
				c-0.531,0.339-1.076,0.622-1.623,0.918c-0.271,0.15-0.546,0.285-0.817,0.436c-0.27,0.15-0.528,0.31-0.807,0.456
				c-0.27,0.159-0.53,0.309-0.805,0.453l-0.817,0.449l-1.646,0.891l0,0H36.935z M43.412,62.746c0,0-1.919,1.472-2.541,1.943
				c-0.622,0.473-2.448,1.791-2.448,1.791L43.412,62.746z"/>
			<polygon fill="#E2CC85" points="54.419,74.622 53.437,72.764 54.008,70.438 58.079,68.868 56.348,65.311 57.203,61.721 
				58.813,58.506 63.777,57.723 67.43,54.243 75.313,54.839 76.858,63.269 73.88,73.878 72.183,79.373 65.302,79.634 62.107,77.423 
				58.366,75.86 			"/>
			<path fill="#F1D789" d="M66.486,74.561c0,0-0.949,0.434-2.573,0.335c-0.469-0.631-3.759-0.927-3.759-0.927
				s-0.41-0.124-1.137,0.177c-0.731,0.296-1.423,0.26-2.068,0.42c-0.646,0.159-1.288-0.681-1.783-0.855
				c-0.496-0.188-1.151-0.632-1.151-0.632l-1.387-0.136l-2.784-1.174l-4.424-4.409l-1.202,1.88l-0.372,2.331l1.338,2.759l3.6,3.279
				l7.022,1.782l4.163-1.225l5.211-2.203L66.486,74.561L66.486,74.561z"/>
			<polygon fill="#F4ECB4" points="41.542,58.986 42.434,56.287 43.496,54.543 46.917,54.256 45.89,57.253 43.03,62.34 
				44.217,66.883 42.114,67.935 41.468,66.944 40.948,64.67 40.913,62.116 			"/>
			<path fill="#F3E19D" d="M45.379,74.378l-0.656-0.92c0,0-0.176-0.434-0.075-0.813c0.098-0.386,0.084-0.411,0.035-0.557
				c-0.05-0.147-0.471-0.646-0.447-1.078c0.025-0.435-0.035-0.581,0.286-0.925c0.334-0.336,0.236-0.918,0.236-0.918l0.435,0.271
				l0.099-0.153c0,0,0.161,0.127,0.161,0.325c0.035-0.272-0.11-1.524,0.22-1.809c0.33-0.286,0.917,1.336,0.917,1.336l-0.36-2.353
				l-0.929-2.413l-1.646-2.204l-0.099-2.429v-0.212c0,0-0.757,1.162-0.968,2.081c-0.15,0.63,0.21,1.396,0.136,2.304
				c-0.06,0.899-0.136,0.829,0.084,1.188s0.756,1.092,0.545,1.623c-0.184,0.455-0.814,0.134-0.814,0.134s-0.126,0.374-0.297,0.508
				c-0.059-0.222-0.124-0.361-0.244-0.496c-0.011,0.085-0.035,0.199-0.035,0.199s-0.11-0.345-0.221-0.781
				c-0.15-0.58-0.311-1.347-0.454-1.757c-0.062,0.235-0.212,0.952-0.212,0.952l0.086,1.101l0.41,1.513l0.396,0.99l0.386,1.213
				l0.336,0.813l0.27,0.622l0.234,1.397l1.138,1.203l0.605,0.269L45.379,74.378L45.379,74.378L45.379,74.378z"/>
			<path fill="#F2E8B0" d="M42.14,56.782c0,0-0.818,1.387-1.053,2.785c-0.234,1.396-0.446,2.875-0.298,4.777
				c0.151,1.92,0.436,3.097,0.667,3.935c0.395,1.399,1.422,3.345,1.422,3.345l0.036-0.078c-0.175-0.325-0.312-0.669-0.412-1.026
				c-0.135-0.528-0.186-1.161-0.312-1.447c-0.11-0.284-0.294-0.529-0.385-0.88c-0.085-0.337-0.1-0.867-0.361-1.262
				c-0.11-0.162-0.245-0.58-0.285-1.003c-0.051-0.632,0.026-1.337-0.035-1.917c-0.11-0.969-0.186-1.625-0.085-2.13
				c0.101-0.505,0.621-1.944,0.943-3.084c0.208-0.731,0.083-1.348,0.469-1.984c0.385-0.629,0.622-1.186,0.706-1.572
				c0.099-0.351-1.022,1.542-1.022,1.542l0,0H42.14z"/>
			<path fill="#F5EEC0" d="M46.01,56.225c0,0-0.421,0.127-0.622,0.346c-0.2,0.21-0.285,0.386-0.556,0.741
				c-0.271,0.357-0.285,0.648-0.504,1.093c-0.222,0.436-0.707,1.091-0.766,1.327c-0.062,0.234-0.161,1.337-0.287,1.858
				c-0.111,0.521,0.126,1.161,0.126,1.161l0.285-0.061c0,0,0,0.371,0.285,0.623c0.286,0.245,0.337-0.833,0.337-0.833l1.066-3.601
				l1.606-1.092l0.177-0.88L46.01,56.225L46.01,56.225L46.01,56.225z"/>
			<path fill="#E6DB9D" d="M46.791,57.859c0,0-0.756,0.049-1.127,0.321c-0.149,0.109-0.21,0.201-0.371,0.335
				c-0.295,0.244-0.596,0.471-0.74,0.793c-0.161,0.319-0.336,0.804-0.457,1.721c-0.048,0.386-0.048,0.742-0.085,1.053
				c-0.05,0.421-0.124,0.756-0.084,0.991c0.049,0.479,0.546,0.731,0.595,1.275l1.026-0.522l0.966-3.809l2.054-1.288l-1.162-1.302
				l-0.616,0.43l0,0L46.791,57.859z"/>
			<path fill="#E5CB7A" d="M41.375,83.525c0.004-0.039,0.009-0.076,0.012-0.116c0.15-1.285,0.176-2.263,0.287-2.873
				c0.159-0.866,0.269-1.19,0.245-1.513c-0.037-0.521-0.074-0.901-0.026-1.3c0.076-0.531,0.597-1.165,0.582-1.599
				c-0.009-0.346-0.187-0.573-0.334-0.782c-0.152-0.212-0.272-0.384-0.272-0.384s1.027-0.71,1.017-3.556
				c0.021,0.008,0.042,0.017,0.06,0.029l0.506,1.434l0.346,0.424l1.325,2.473l1.709,1.66l2.523,1.697l1.583,1.721l0.161,4.592
				l-2.069,2.686l-0.338,0.612c-2.69-1.351-5.159-3.108-7.318-5.208L41.375,83.525z"/>
			<path fill="#D8C173" d="M47.693,87.919c0,0,0.034-0.571,0.505-0.943c0.075,0.128,0.125,0.247,0.11,0.336
				c0.087-0.15,0.681-1.111,2.029-1.361c1.346-0.244,1.671-1.226,1.671-1.226l2.861-2.601l3.27-3.011l3.976-1.396l1.861-0.458
				c0,0,0.032,0.138-0.038,0.437c0.346-0.024,1.113-0.199,1.908-0.481c0.321-0.123,0.62-0.174,0.781-0.009
				c0.235,0.221,0.271,0.742,0.286,1.052c0.386-0.086,0.833-0.455,1.189-0.42c0.571,0.059,1.076,0.73,1.657,0.73
				c0.768,0,1.111-0.473,1.646-0.841c0.32-0.222,0.783-0.496,1.044-0.681c0.621-0.459,7.193-2.464,7.193-2.464l2.303,0.149
				l0.371,2.474l-0.199,6.468c-0.025,0.021-0.05,0.049-0.074,0.07l-10.474,5.47l-14.52,2.229c-3.253-0.532-6.392-1.613-9.282-3.195
				L47.693,87.919L47.693,87.919L47.693,87.919z"/>
			<path fill="#F1D789" d="M42.255,84.346c0.206-0.428,0.393-0.792,0.424-0.918c0.026,0.258,0.075,0.828,0.169,1.435
				C42.649,84.693,42.452,84.521,42.255,84.346L42.255,84.346z"/>
			<path fill="#E0CD81" d="M52.861,90.434l1.878-0.521l0.161,0.05c0,0,0.085,0.049,0.085,0.22c0.234-0.135,0.434-0.11,0.58-0.201
				c0.075,0.161,0.152,0.693,0.481,0.756c0.346,0.077,0.717-0.15,1.092-0.434c0.371-0.297,0.793-0.667,1.112-0.817
				c0.117,0.215,0.221,0.437,0.311,0.665c0.421-0.335,1.152-1.696,2.194-1.672c0.299-0.711,0.803-1.317,1.446-1.746
				c0.966-0.658,1.571-0.711,2.327-0.646c0.301-0.39,0.672-0.722,1.096-0.979c0.123,0.051,0.467,0.265,0.899,0.062
				c0.434-0.199,0.925-0.976,1.572-1.076c0.348-0.049,0.701,0.026,1.001,0.209c0,0,1.882-1.866,3.178-2.488
				c-0.047-0.152-0.148-0.715,1.375-1.966c0.084,0.073,0.024,0.285,0.084,0.295c0.026,0,0.398-0.16,0.867-0.521
				c0.581-0.438,1.278-0.891,1.698-1.017c0.792-0.236,1.632,0.243,1.632,0.243c0.071-0.049,0.152-0.086,0.235-0.11
				c0.2-0.034,0.346-0.058,0.456-0.096c-0.012,0.259,0.136,0.704,0,1.088c0.158,0.089,0.322,0.162,0.497,0.214
				c-0.086,0.186-0.272,0.653-0.582,0.879c0.261,0.128,0.297,0.271,0.664,0.398c-0.148,0.21-0.395,0.57-0.505,0.791
				c-0.11,0.235-0.507,1.214-0.681,1.584c-0.187,0.371-0.434,1.051-0.558,1.187c-0.119,0.138-0.554,0.717-0.89,1.001
				c0.298-0.108,1.513-0.477,2.028-0.619c-0.154,0.224-0.932,1.378-1.682,2.489c-7.244,4.343-16.01,5.356-24.056,2.785
				L52.861,90.434z"/>
			<path fill="#DFC57C" d="M46.917,57.723c0,0-0.437,0-0.522,0.06c-0.085,0.06,0.435,0.187,0.596,0.246
				c0.16,0.06,0.506,0.337,0.596,0.556c0.084,0.211,3.13,1.439,3.13,1.439l2.153-0.111l0.743-1.028L52.2,57.65l0.991-2.92
				l-1.312,0.211l-3.157,1.88l-1.582,0.606L46.917,57.723L46.917,57.723z"/>
			<path fill="#E5CC7C" d="M51.644,58.69c0.065,0.102,0.177,0.163,0.297,0.161c0.446,0,0.856,0.109,1.027,0.335
				c0.287,0.36,1.078,1.512,1.078,1.512l1.893,0.682l0.123-2.23l-2.07-1.435l-2.354,0.866v0.109L51.644,58.69L51.644,58.69z"/>
			<path fill="#D2C281" d="M51.274,59.517c0,0,0.346,0.026,0.779-0.136c0.437-0.16,1.153-0.506,1.464-0.37
				c0.436,0.184,0.346,0.766,0.816,1.287c0.284,0.322,0.807,0.311,1.101,0.657c0.295,0.346,1.313,0.186,1.313,0.186l0.386,2.079
				l-1.546,1.984l-0.508,2.462h-2.091l-1.912-0.758l-0.941-2.278l0.471-2.304L51.274,59.517L51.274,59.517z"/>
			<path fill="#E2C270" d="M55.321,59.618c0.051,0.015,0.106,0.023,0.161,0.023c-0.062,0.051-0.187,0.16-0.137,0.446
				c0.051,0.286,0.212,0.647,0.075,0.868c0.108,0.119,0.189,0.259,0.236,0.41c0.086,0.246,0.11,0.471,0.666,0.506
				c-0.08,0.049-0.154,0.108-0.22,0.175c0,0,0.385,0.336,0.58,0.645c0.201-0.006,0.732-0.174,0.732-0.174l0.109,0.076l0.236-0.099
				c0,0-0.22-0.084-0.059-0.622c0.149-0.47,0.284-0.445,0.297-0.48c0.011-0.035,0.109-0.531,0.109-0.732
				c0.075-0.259,0.135-1.051,0.135-1.051l-0.16-1.747l-0.9-0.545l-0.733-0.708l-0.691,1.301L55.3,58.365l-0.034,1.125L55.321,59.618
				L55.321,59.618z"/>
			<path fill="#CCB360" d="M57.489,58.154c0,0,0.159,0.456,0.22,0.806c0.021-0.068,0.032-0.139,0.036-0.209
				c0,0,0.125,0.689,0.149,0.977c0.05-0.009,0.099-0.024,0.111,0.024c0.01,0.05,0.125,0.606,0.098,0.918
				c0.209-0.345,0.498-0.633,0.842-0.843c0.199-0.125,0.436-0.26,0.682-0.27c0.384-0.01,0.666,0.246,1.127,0.246
				c1.111,0,2.117-0.816,2.857-1.067c0.546-0.185,1.019-0.322,1.349-0.62c0.16-0.135,0.446-0.435,0.707-0.882
				c0.346-0.594,0.704-1.112,1.066-1.177c-0.163,0.029-0.328,0.042-0.496,0.035c0,0,0.112-0.112,0.296-0.261
				c0.189-0.149,0.413-0.334,0.731-0.334c0.57,0,0.856,0.084,1.177,0.084c0.322-0.009,0.507-0.084,0.507-0.084
				s0.335,0.234,1.092,0.234c0.758,0.01,1.263,0.075,1.655,0.11c0.398,0.037,1.726-0.11,2.105-0.1
				c0.248,0.011,0.492,0.07,0.717,0.178l-1.227-3.567l-4.408-3.854l-2.624,1.86l-4.038,4.036l-3.906,1.446L57.5,56.755v1.399H57.489
				z"/>
			<path fill="#D5B457" d="M66.254,56.111c0,0,0.11-0.11,0.295-0.261c0.186-0.15,0.41-0.336,0.73-0.336
				c0.572,0,0.857,0.085,1.177,0.085c0.322-0.009,0.509-0.085,0.509-0.085s0.333,0.234,1.089,0.234
				c0.757,0.01,1.262,0.075,1.66,0.111c0.395,0.035,1.721-0.111,2.101-0.099c0.251,0.01,0.495,0.067,0.72,0.174l-0.558-1.608
				l-0.647-1.227l-1.842-2.017c0,0-2.214-1.303-2.229-1.311c-0.009-0.012-0.766-0.212-0.766-0.212l-2.006,1.211l-1.816,4.704
				l-0.034,0.99l1.178,0.557c0.295-0.497,0.619-0.891,0.927-0.942C66.464,56.111,66.254,56.111,66.254,56.111L66.254,56.111
				L66.254,56.111z"/>
			<path fill="#D2B257" d="M66.228,56.446c-0.173,0.011-0.318-0.024-0.359-0.149c-0.148-0.42-0.271-0.48-0.395-0.48
				c-0.127,0-0.297,0.268-0.398,0.294c-0.102,0.024-0.221-0.311-0.221-0.311l-0.11-0.05c0,0-0.645,0.419-1.101,0.916
				c-0.456,0.496-1.202,1.337-1.538,1.488c-0.335,0.149-1.488,0.2-1.881,0.286c-0.395,0.085-0.831,0.371-0.891,0.435
				c-0.061,0.066,0.174,0.136,0.21,0.201c0.035,0.06-0.386,0.034-0.422,0.099c-0.024,0.051,0.099,0.336,0.161,0.481
				c0.106-0.054,0.225-0.083,0.345-0.084c0.387-0.012,0.667,0.245,1.127,0.245c1.112,0,2.119-0.817,2.86-1.068
				c0.544-0.184,1.017-0.319,1.346-0.62c0.161-0.136,0.445-0.437,0.708-0.882c0.188-0.305,0.375-0.59,0.561-0.8l0,0H66.228z"/>
			<path fill="#D2B159" d="M50.283,81.231c0,0-0.098-0.369-1.017-1.327c-0.261-0.271-0.42-0.493-0.597-0.656
				c-0.435-0.411-0.692-0.518-1.001-0.757c-0.68-0.504-1.421-0.504-1.993-1.127c-0.57-0.619-1.236-1.805-1.699-3.02
				c-0.455-1.213-0.58-1.597-0.58-1.63c0-0.038,0.125-0.272,0.285-0.239c0.16,0.038,0.16,0.35,0.2,0.422
				c0.08,0.12,0.169,0.24,0.27,0.348c0.237,0.269,0.572,0.591,0.742,1.076c-0.035-0.411-0.174-0.865-0.174-0.865
				s0.88,0.555,1.631,1.135c0.755,0.581,1.066,0.782,1.288,1.151s0.742,1.349,0.991,1.636c0.249,0.283,3.664,1.359,3.664,1.359
				l1.624,1.212l0.808,1.769l-0.631,0.99l-1.212,0.261l-1.968-0.881L50.283,81.231L50.283,81.231L50.283,81.231z"/>
			<path fill="#C2A44D" d="M45.909,75.141c0,0,0.412,0.658,1.414,1.278c0.9,0.547,2.33,1.04,3.6,1.338
				c0.732,0.174,1.462,0.31,2.119,0.32c1.768,0.026,2.983-0.481,4.493-0.646c0.817-0.085,1.817-0.15,2.859-0.395
				c1.336-0.322,2.129-0.682,3.205-1.19c0.781-0.362,1.498-0.63,2.077-0.976c0.818-0.479,1.414-1.015,2.104-1.178
				c-0.086,0.234-0.175,0.656-0.855,1.093c0.36-0.012,0.855-0.036,0.855-0.036s-0.479,0.285-1.326,0.926
				c-0.521,0.398-1.211,1.07-1.918,1.516c-0.454,0.284-0.954,0.493-1.278,0.664c-0.792,0.435-1.111,0.655-1.631,1.189
				c0.186-0.009,0.2,0,0.2,0s-0.657,0.086-1.126,0.337c-0.099,0-0.271-0.036-0.571,0.046c-0.237,0.077-0.546,0.246-0.867,0.338
				c-0.456,0.136-0.606,0.075-0.606,0.075l0.075,0.152c0,0-0.593-0.013-0.793,0.009c0.037,0.008,0.025,0.023,0.025,0.023
				c-0.033,0.006-0.068,0.018-0.099,0.037c-0.096,0.062-0.2,0.106-0.31,0.133c-0.06,0.01-0.11,0.01-0.186,0.023
				c0.024,0.064,0.222,0.4,0.311,0.598c-0.075,0.051-1.203,0.898-1.203,0.898c0.036,0.056,0.065,0.114,0.087,0.177
				c0.036,0.11,0.051,0.271,0.085,0.345c0.085,0.149,0.135,0.179,0.135,0.179s-0.135,0.023-0.37,0.081
				c-0.2,0.054-0.446,0.136-0.792,0.187c-0.108,0.014-0.214,0.022-0.322,0.026c0.049,0.109,0.271,0.53-0.135,1.016
				c-0.407,0.487-0.531,0.556-0.656,0.867c-0.063-0.047-0.13-0.091-0.2-0.127c-0.135-0.06-0.321-0.15-0.386-0.27
				c-0.037,0.16-0.087,0.318-0.15,0.47c-0.125,0.338-0.31,0.667-0.346,0.917c-0.135-0.15-0.385-0.445-0.731-0.387
				c-0.346,0.06-0.621,0.533-0.682,0.668c0-0.086-0.059-0.151-0.074-0.049c-0.011,0.108-0.2,1.259-1.263,2.191
				c-0.009-0.234-0.009-0.755-0.035-0.926c-0.098,0.099-0.219,0.245-0.94,0.559c-0.707,0.31-0.595,0.617-0.595,0.617
				s-0.061-0.495,0.32-1.017c0.385-0.52,0.621-0.764,0.621-0.806c-0.007-0.041-0.024-0.079-0.051-0.11
				c-0.049-0.049-0.15-0.11-0.15-0.15c0.06-0.022,0.656-0.31,0.62-0.9c-0.034-0.53-0.259-0.808-0.419-1.003
				c-0.024-0.021,0.235-0.208,0.2-0.27c-0.026-0.035-0.346-0.27-0.385-0.395c0.009-0.074,0.027-0.15,0.051-0.221
				c0.035-0.11,0.06-0.187,0.049-0.262c-0.026-0.124-0.161-0.471-0.202-0.506c0.036,0.011,0.287,0,0.287,0s-0.201-0.321-0.236-0.471
				c-0.036-0.151-0.11-0.545-0.15-0.623c0.086,0.013,0.295,0.026,0.295,0c0.011-0.074-0.184-0.198-0.1-0.294
				c0.063,0.011,0.178,0.06,0.287,0.2c-0.059-0.16-0.161-0.473-0.371-0.597c0.098-0.036,0.437-0.127,0.731,0.05
				c0.295,0.176,0.396,0.42,0.396,0.42s0.175,0.136,0.447,0.337c0.312,0.245,0.705,0.593,1.338,0.842
				c0.135,0.076,0.479,0.076,0.729,0.026c0.11-0.028,0.214-0.069,0.31-0.128c0.035-0.018,0.073-0.038,0.111-0.051
				c-0.054-0.105-0.116-0.21-0.185-0.31c0.085,0,0.185,0.009,0.185,0.009s0.06-0.134-0.211-0.395
				c0.061-0.059,0.136-0.099,0.136-0.202c-0.085-0.01-0.236-0.133-0.271-0.183c0.049-0.035,0.125-0.15,0.21-0.185
				c-0.076-0.063-0.26-0.313-0.345-0.337c0.08-0.031,0.16-0.065,0.235-0.108c0,0-0.421-0.112-0.556-0.202
				c-0.135-0.098-0.335-0.271-0.457-0.321c-0.125-0.049-0.343-0.076-0.435-0.175c0.084,0.027,0.221,0,0.321,0
				c0.075,0,0.111,0.009,0.135,0.009c-0.009-0.034-0.009-0.11,0.184-0.135c0.094-0.014,0.187-0.042,0.271-0.082
				c0,0-0.184-0.012-0.396-0.211c-0.211-0.202-0.385-0.363-0.506-0.388c-0.125-0.024-0.36,0.086-0.506,0.074
				c-0.2-0.021-0.286-0.124-0.286-0.124s-0.665,0.062-2.143-0.842c-1.278-0.779-1.833-1.472-1.833-1.472
				c-0.12-0.045-0.236-0.095-0.345-0.16c-0.48-0.251-1.148-0.771-1.127-1.451l0,0L45.909,75.141z"/>
			<path fill="#CAA13E" d="M64.335,45.083c0.116,0.037,0.221,0.106,0.297,0.2c0.237,0.271,0.386,0.782-0.148,1.328
				c0.208,0.074,0.295,0.1,0.479,0.074c-0.187,0.221-0.606,0.692-0.632,1.102c-0.025,0.336,0.187,0.437,0.187,0.437
				s-0.322,0.372-0.334,0.989c0.149-0.17,0.314-0.327,0.493-0.47c0.371-0.295,0.88-0.63,1.226-0.842
				c-0.004,0.089,0.011,0.178,0.036,0.261c0,0,0.645-0.531,1.191-0.295c0.244,0.109,0.133,0.456,0.133,0.456s0.334-0.126,0.57,0.11
				c0.236,0.234,0.568,0.843,0.74,1.077c0.073,0.11,0.269,0.321,0.47,0.645c0.272,0.456,0.502,0.939,0.682,1.438
				c0.011-0.261,0.074-0.666,0.814-0.412c0.742,0.262,1.586,0.808,2.292,1.884c0.704,1.073,0.88,2.289,1.235,2.751
				c0.359,0.445,0.729,1.186,0.757,1.496c0.024,0.312-0.108,1.313,0.629,4.022c0.211-0.841,0.533-2.709,0.533-2.709l0.172-1.648
				l0.203-5.098l-5.325-4.421l-4.162-3.021l-2.708,0.261L64.335,45.083L64.335,45.083L64.335,45.083z"/>
			<path fill="#B59544" d="M74.229,52.67c0,0-0.078-0.495-1.331-1.338c-1.251-0.832-2.228-0.832-3.129-1.537
				c-0.692-0.556-1.412-1.834-1.883-2.255c-0.456-0.415-0.532-1.618-0.532-1.618l1.539-1.287l2.289-3.305l1.93-2.126l0.928,1.286
				l1.289,1.511l0.715,3.036l0.26,4.441l-2.078,3.191H74.229z"/>
			<path fill="#C89D3A" d="M75.774,57.995c0.036-0.673-0.045-1.349-0.245-1.994c-0.331-1.026-1.052-2.849-1.385-3.53
				c-0.14-0.758-0.038-0.818,0.106-0.902c0.146-0.086,0.691-0.398,0.992-1.488c0.299-1.092,1.227-1.127,1.227-1.127l0.57-0.421
				l0.869,2.168l0.754,1.958l0.236,1.498l0.174,1.276l-0.41,2.701l-2.028,1.833L75.774,57.995L75.774,57.995L75.774,57.995z"/>
			<path fill="#CEB052" d="M47.473,88.083v-0.056c0.042-0.029,0.08-0.058,0.11-0.097c0.034-0.052,0.061-0.111,0.085-0.128
				c0.05-0.022,0.287-0.099,0.411-0.074c0.126,0.022,0.456,0.162,0.631,0.15c0.361-0.009,0.782-0.285,1.449-0.163
				c1,0.188,1.236,0.867,1.818,1.252c0.395,0.273,0.806,0.153,0.866,0.153h0.134c0.024,0,0.211-0.212,0.312-0.202
				c0.198,0.015,0.219,0.177,0.345,0.188c0.295,0.036,0.866-0.15,1.152-0.074c0.171,0.054,0.306,0.187,0.359,0.358
				c0.06,0.187,0.011,0.421-0.135,0.558c-0.311,0.282-0.605,0.556-0.666,0.792c0.077,0.057,0.15,0.12,0.219,0.187
				c-2.478-0.631-4.862-1.589-7.091-2.841V88.083z"/>
			<path fill="#CCA847" d="M74.143,78.077c0,0,0.778-1.041,1.052-1.557c0.27-0.532-0.858-7.269-0.858-7.269l2.265-7.417
				l-0.061-2.413c0,0,0.11-2.229,0.371-3.197c0.31,0.557,1.276,1.227,1.486,1.583c0.1-0.681,0.437-2.118,0.388-3.649
				c0.184,0.286,0.629,3.154,0.629,3.154l0.446,1.934l0.58,2.054l0.646,2.167l0.388,1.498l0.219,0.359l0.186,0.631l0.175,0.682
				l0.506,1.598l0.3,1.313l0.234,2.376c0.049,0.187,0.089,0.371,0.11,0.558c0.008,0.261-0.038,0.411-0.038,0.456
				c0,0.047,0.086,0.572,0.052,0.967c-0.052,0.396-0.052,0.705-0.358,0.99c-0.313,0.285-0.508,1.983-0.508,1.983l-0.558-0.369
				c0,0,0.111-0.509-0.147-0.967c-0.261-0.461-0.77-0.558-1.053-0.481c-0.287,0.061-0.856,0.148-1.042,0.31
				c-0.175,0.161-0.606,0.658-1.004,0.882c-0.492,0.294-1.3,0.321-1.731,0.42c-0.436,0.1-0.916,0.396-1.422,0.741
				c-0.398,0.26-0.814,0.478-1.25,0.661l0,0L74.143,78.077z"/>
			<path fill="#C39D3C" d="M74.143,89.02c0,0,0.033,0.021,0.095,0.058c3.558-1.667,6.747-4.03,9.377-6.949
				c-0.029-1.016-0.068-2.054-0.107-2.438c-0.085-0.82-0.023-1.648-0.051-2.129c-0.024-0.48-0.295-2.438-0.417-2.943
				c-0.137-0.508-0.397-0.759-0.437-0.759c-0.039,0.011-0.248,0.955-0.248,1.188c0,0.238-0.049,0.808-0.049,0.952
				c-0.036-0.011-0.049-0.099-0.049-0.135c-0.053,0.124-0.11,0.345-0.138,0.371c-0.025,0.022,0.036-0.211,0-0.26
				c-0.034-0.05-0.097-0.025-0.083-0.15c0.006-0.074,0.018-0.15,0.033-0.221c0,0-0.147,0.221-0.26,0.782
				c-0.11,0.558-0.11,0.57-0.15,0.619c-0.037,0.062-0.237,0.261-0.246,0.336c-0.012,0.138,0.186,0.274,0.2,0.346
				c0.009,0.127-0.175,0.708-0.235,0.992c-0.059,0.282-0.034,0.842-0.099,1.126c-0.049,0.258-0.101,0.411-0.27,0.521
				c0.123,0.023,0.245,0.059,0.245,0.059s0.175,0.739-0.271,1.371c-0.161,0.222-0.199,0.322-0.372,0.522
				c-0.335,0.371-0.596,0.791-0.618,1.066c-0.02-0.081-0.031-0.161-0.036-0.246c0,0-0.521,0.606-0.742,0.953
				c-0.284,0.445-0.681,0.419-0.794,0.53c-0.11,0.109-0.133,0.31-0.098,0.469c-0.101,0.027-0.285,0.062-0.408,0.447
				c-0.061,0.199-0.214,0.396-0.447,0.533c-0.232,0.131-0.521,0.175-0.665,0.209c0.123,0.035,0.173,0.035,0.234,0.074
				c-0.075,0.126-0.421,0.32-0.808,0.572c-0.385,0.234-0.57,0.579-0.665,0.805c-0.101,0.211-0.247,0.346-0.481,0.371
				c0.099,0.062,0.246,0.199,0.322,0.244c-0.11,0.024-0.3,0.024-0.632,0.313c-0.351,0.289-0.473,0.376-0.63,0.399l0,0H74.143z"/>
			<path fill="#D2BA6B" d="M67.175,91.34c0.189-0.132,0.397-0.245,0.615-0.324c0.782-0.313,1.607-0.373,1.933-0.475
				c0.313-0.095,0.556-0.234,0.943-0.311c-0.011,0.089-0.021,0.172-0.027,0.252c-1.139,0.355-2.295,0.642-3.468,0.857H67.175z"/>
			<path fill="#C0993A" d="M81.581,70.795c0,0-0.163,0.865-0.448,1.411s-0.592,1.305-0.592,1.305
				c0.001-0.172,0.022-0.343,0.058-0.507c-0.358,0.208-1.233,0.715-1.484,0.941c-0.235,0.209-0.63,0.58-0.731,0.757
				c0.235-0.691,0.481-1.313,0.52-1.597c-0.358,0.258-2.044,1.645-2.917,2.561l-2.731,2.21c-0.313,0.173-0.639,0.323-0.972,0.454
				c-0.469,0.201-1.026,0.371-1.436,0.533c0.11-0.297,0.286-0.557,0.532-0.809c0.259-0.244,1.039-1.093,1.16-1.485
				c0.11-0.412,0.134-0.656-0.011-1.002c-0.134,0.037-0.446,0.053-0.655,0.11c-0.21,0.061-0.436,0.285-0.436,0.285
				s0.16-0.916,0.506-1.78c-0.261,0.009-0.705,0.082-0.705,0.082s0.62-1.041,1.683-1.766c-0.326,0.069-0.646,0.167-0.952,0.295
				c-0.621,0.261-1.301,0.646-1.809,0.858c0.285-0.398,2.291-3.258,3.481-5.922c1.189-2.659,1.632-3.342,1.893-4.769
				c0.137-0.705,0.1-1.749,0.137-2.682c0.033-0.929,0.147-1.76,0.073-2.315c0.31,0.386,1.472,1.473,1.513,3.901
				c0.035,2.429-1.112,5.71-2.328,7.476c0.296,0.085,1.067,0.186,1.858-1.187c0.792-1.375,0.783-1.757,1.064-2.329
				c0.036,0.286,0.026,0.388,0.026,0.388s1.155-1.4,1.696-3.158c0.11,0.758,0.438,1.424-0.072,2.813
				c-0.456,1.248-1.052,1.557-1.052,1.557s0.295-0.052,0.73-0.313c0.077,0.186,0.058,0.397,0.188,0.472
				c0.122,0.075,0.293,0.199,0.316,0.322c0.137-0.201,0.348-0.458,0.412-0.648c-0.049,0.398-0.085,2.131,0.1,3.009
				c0.386-0.033,0.78-0.062,1.052-0.754c-0.185,0.681-0.185,1.093-0.062,1.673C81.393,71.044,81.58,70.795,81.581,70.795
				L81.581,70.795L81.581,70.795z"/>
			<path fill="#A88F33" d="M68.568,43.19c0,0-0.386,0.161-1.043,0.161c-0.571,0-0.412-0.22-1.303-0.22
				c-1.37,0-6.165,0.792-7.006,0.78c-0.545-0.01,1.844,0.235,1.844,0.235l6.104,0.086l1.227-0.1l0.457-0.926L68.568,43.19z"/>
			<path fill="#E3C571" d="M52.736,55.125c0,0-0.781,0.595-1.113,1.051c-0.33,0.455-0.505,0.756-0.88,1.127
				c0.088,0.003,0.175-0.008,0.26-0.035c0,0,0,0.1-0.061,0.125c0.104-0.013,0.21,0.025,0.287,0.099
				c-0.111,0.061-0.412,0.361-0.177,0.718c0.177,0.268,0.546,0.294,0.546,0.294s-0.085,0.246,0.27,0.219
				c0.768-0.035,1.624-0.371,2.019-0.286c0.396,0.099,0.621,0.135,0.901,0.622c0.297,0.482,0.556,0.557,0.556,0.557
				s0.176-0.446,0.137-1.112c0.143-0.359,0.223-0.742,0.236-1.128l-0.261-1.917l-1.136-1.438l-1.472,0.816l-0.112,0.286V55.125z"/>
			<path fill="#D8B65B" d="M54.134,54.839c0,0,0.11,0.259,0.571,0.284c-0.05,0.11-0.05,0.124-0.036,0.212
				c0.01,0.084,0.024,0.209,0.024,0.209c0.051-0.025,0.097-0.059,0.137-0.098c0.025,0.109-0.026,0.283,0,0.408
				c0.015,0.077,0.04,0.152,0.075,0.219c0.006-0.016,0.015-0.031,0.024-0.047c0.009-0.026,0.099,0.27,0.345,0.494
				c0-0.034,0.008-0.067,0.024-0.098c0.004,0.063,0.023,0.124,0.061,0.175c-0.019-0.01-0.035-0.022-0.049-0.035
				c0,0,0.024,0.791,0.159,1.202c0.023-0.026,0.043-0.057,0.061-0.085c0-0.023-0.011,0.221-0.035,0.396
				c-0.035,0.174-0.011,0.421-0.011,0.421c0.092-0.071,0.19-0.13,0.295-0.175c0.152-0.061,0.397-0.246,0.546-0.658
				c0.088-0.23,0.155-0.471,0.201-0.716c0.049,0.094,0.082,0.194,0.1,0.297c0.01,0.125,0.246,0.061,0.246,0.061l0.05-0.546
				l0.297-1.235l0.271-0.769l1.301-2.026l2.353-1.813l2.054,0.47l1.731-2.353l-2.985-1.793l-2.824,0.294l-2.563,3.552l-2.052,3.22
				L54.134,54.839L54.134,54.839L54.134,54.839z"/>
			<path fill="#D3AE4D" d="M68.929,49.701c0,0-0.178,0.034-0.683,0.296c-0.507,0.263-0.855,0.345-1.052,0.731
				c-0.195,0.385-0.21,0.692-0.21,0.692s0.346-0.151,0.547-0.201c0.208-0.05,0.445-0.035,0.42,0.049
				c-0.023,0.059-0.057,0.114-0.098,0.161c0,0,0.395-0.009,0.385,0.186c-0.012,0.195-0.077,0.411-0.151,0.507
				c-0.074,0.098-0.384,0.245-0.42,0.359c-0.085,0.234,0.036,0.246-0.009,0.436c-0.037,0.185-0.201,0.545-0.742,1.176
				c-0.556,0.633-0.791,1.078-0.791,1.078s-0.273-0.506-0.413-0.942c-0.1,0.05-0.632,0.346-0.632,0.346l-1.23-4.291l0.024-0.287
				c0,0,0.111-0.135,0.135-0.385c-0.185-0.061-0.21-0.111-0.455-0.345c-0.245-0.235-0.446-0.522-0.855-0.717
				c-0.061-0.111-0.135-0.261-0.436-0.321c-0.302-0.06-0.481-0.111-0.481-0.111s0.159-0.059,0.237-0.185
				c-0.188,0.026-0.337,0.086-0.744,0.077c-0.409-0.012-0.453-0.026-0.681,0.009c-0.224,0.036-0.495,0.136-0.593-0.21
				c-0.112-0.084-0.347-0.01-0.548,0.285c-0.199,0.295-0.27,0.531-0.656,0.646c-0.027,0.17-0.087,0.333-0.174,0.481
				c-0.112,0.185-0.285,0.369-0.523,0.647c-0.369,0.435-0.311,1.15-0.9,1.696c-0.597,0.546,0.098-1.512,0.098-1.512l0.953-2.278
				l2.708-2.649l4.208-0.285l0.412,2.179l2.053,0.706l1.296,1.979l0,0L68.929,49.701z"/>
			<path fill="#CAA13E" d="M69.594,50.181l-1.768-2.549l-1.236-0.95c0,0-0.883-1.624-0.943-1.672
				c-0.05-0.036-0.881-0.126-1.411-0.161l0.1,0.245c0.116,0.038,0.217,0.107,0.295,0.2c0.237,0.27,0.388,0.782-0.148,1.328
				c0.21,0.074,0.297,0.098,0.479,0.074c-0.185,0.222-0.606,0.691-0.631,1.104c-0.026,0.334,0.186,0.435,0.186,0.435
				s-0.32,0.37-0.334,0.99c0.149-0.169,0.314-0.33,0.493-0.471c0.373-0.297,0.882-0.63,1.228-0.841
				c-0.005,0.088,0.009,0.177,0.036,0.26c0,0,0.645-0.53,1.188-0.295c0.246,0.111,0.137,0.457,0.137,0.457s0.334-0.126,0.568,0.109
				c0.238,0.236,0.572,0.842,0.744,1.077c0.072,0.111,0.269,0.32,0.469,0.646c0.273,0.456,0.503,0.938,0.681,1.438
				c0.011-0.201,0.049-0.48,0.396-0.48l-0.525-0.942L69.594,50.181z"/>
			<path fill="#F4EFC8" d="M43.09,57.423c0,0-0.125-0.312,0-0.915c0.127-0.609,0.322-0.893,0.386-1.785
				c0.065-0.892,0.646-2.002,0.646-2.002l1.607-0.732l1.138,0.311l0.335,1.521l-1.437,0.795c0,0-0.075,0.334-0.482,0.605
				c-0.404,0.268-0.966,0.48-1.101,0.755c-0.081,0.169-0.14,0.349-0.176,0.532c0,0-0.41-0.085-0.656,0.185
				C43.09,56.97,43.101,57.214,43.09,57.423L43.09,57.423z"/>
			<path fill="#EBCC73" d="M46.336,57.016c0,0-0.136,0.086-0.237,0.299c-0.098-0.16-0.334-1.113-0.344-1.969
				c-0.011-0.857-0.063-1.069,0.136-1.365c0.198-0.296,0.976-0.604,0.865-1.137c-0.111-0.504-0.571-0.716-1.137-0.571
				c-0.396,0.099-0.69,0.941-1.103,1.362c-0.31,0.322-0.68,0.271-0.78,0.445c-0.135,0.235-0.011,0.47-0.051,0.622
				c-0.009,0.05-0.135,0.321-0.361,0.646c-0.455,0.654-1.227,1.583-1.327,2.414c0.036-0.47,0.01-0.482,0.136-1.001l-0.075-0.126
				l0.495-1.622l0.32-1.336l0.717-2.24l1.261-2.287l1.229-1.374l1.276,0.085l0.15,1.918l0.73,3.601l1.538,1.894l-2.463,1.658
				L46.336,57.016L46.336,57.016L46.336,57.016z"/>
			<path fill="#E5C66B" d="M47.103,57.697c0,0-0.211,0.05-0.286,0.012c-0.076-0.04-0.15-0.086-0.126-0.136
				c0.026-0.049,0.161-0.136,0.161-0.176c0.006-0.075-0.049-0.142-0.125-0.15c-0.116-0.014-0.15,0.06-0.15,0.06
				s-0.111-0.084-0.201-0.099c0.054-0.006,0.107-0.009,0.16-0.01c-0.139-0.062-0.285-0.104-0.437-0.124
				c0.126-0.075,0.371-0.297,0.532-0.297c0.159,0,0.26-0.024,0.235-0.109c-0.027-0.085-0.15-0.21-0.285-0.26
				c0.05-0.059,0.084-0.149-0.036-0.396c-0.125-0.246-0.075-0.411-0.035-0.471c0.035-0.074,0.161-0.21,0.221-0.294
				c0.059-0.086,0.112-0.199,0.21-0.261c0.05-0.034,0.209-0.099,0.371-0.159c0.175-0.061,0.321-0.136,0.42-0.061
				c0.11,0.075,0.06,0.175,0.06,0.175s0.346-0.125,0.655,0.035c0.312,0.15,1.068,0.244,1.068,0.244l0.271,0.546l-1.794,1.538
				l-0.74,0.371l-0.151,0.025l0,0V57.697z"/>
			<path fill="#E6BD62" d="M49.591,55.185c0,0-0.557,0.371-0.681,0.505c0.074,0.01,0.2,0.061,0.151,0.134
				c-0.061,0.075-0.42,0.338-0.622,0.583c-0.209,0.244-0.409,0.555-0.479,0.706c-0.076,0.136-0.647,0.53-0.841,0.58
				c0.41,0,1.235-0.504,1.546-0.504c-0.01,0.149,0.084,0.32,0.26,0.334c0.176,0.014,0.682,0.112,1.362-0.311
				c0.68-0.411,0.457-0.716,0.742-0.916c0.544-0.361,0.765-0.682,1.067-0.882c0.3-0.199,0.454-0.245,0.454-0.245
				s0.011-0.15,0.099-0.137c0.051,0.006,0.091,0.041,0.111,0.087c0,0,0.52-0.371,1.188-0.472c-0.016-0.007-0.029-0.019-0.035-0.035
				c0,0,0.051-0.025,0.059-0.049c0,0,0.035-0.052,0.06-0.026c0.026,0.026,0.061,0.21,0.112,0.287
				c0.11-0.052,0.319-0.522,0.319-0.522l0.507-1.447v-1.324l-0.397,0.077l-2.971,1.262l-1.802,1.868l-0.212,0.446H49.591z"/>
			<path fill="#B6933F" d="M58.146,48.698c0.161-0.039,0.313-0.101,0.457-0.184c-0.061,0.16-0.061,0.334-0.32,0.715
				c-0.261,0.381-0.272,0.437-0.482,0.832c-0.21,0.41-0.234,1.001-0.436,1.261c0.091-0.042,0.187-0.071,0.287-0.084
				c0,0-0.201,0.176-0.287,0.361c-0.084,0.186-0.234,0.571-0.605,0.807c-0.371,0.236-0.84,0.385-1.347,0.94
				c-0.505,0.547-1.025,1.238-1.288,1.487c0.137-0.237,0.322-0.706,0.371-1.018c0.051-0.309-0.01-0.681,0.076-1.091
				c0.085-0.41,0.085-0.708,0.494-1.422c0.412-0.717,1.112-3.206,1.112-3.206l1.513-0.481l0.456,1.082l0,0V48.698z"/>
			<path fill="#C49937" d="M57.054,47.783c0,0-0.456,0.654-0.582,1.237c-0.124,0.581-0.01,0.53-0.084,0.815
				c-0.046,0.175-0.046,0.358,0,0.531c0.159-0.252,0.374-0.467,0.63-0.622c0.432-0.259,0.781-0.444,0.991-0.664
				c0.21-0.237,0.387-0.623,0.841-0.917c-0.185-0.024-0.446-0.112-0.495-0.098c0.185-0.212,0.74-0.533,1.302-0.918
				c0.555-0.396,0.521-0.555,1.423-0.951c-0.295,0.05-0.436-0.026-0.682,0c0.1-0.21,0.447-0.312,0.794-0.656
				c0.345-0.346-0.221-0.857-0.221-0.857l-2.641,1.597l-1.278,1.502L57.054,47.783z"/>
			<polygon fill="#DFC068" points="49.886,46.589 49.947,46.109 50.704,44.897 51.495,42.769 51.495,39.859 51.436,38.178 
				51.559,37.075 51.655,36.724 51.756,36.588 52.4,36.924 53.293,38.135 53.378,40.476 52.51,44.167 50.036,46.866 			"/>
			<path fill="#A88F33" d="M51.854,36.454c0,0-0.396,0.009-0.48,1.658c-0.085,1.647-0.126,2.513-0.187,3.33
				c-0.06,0.817-0.199,1.312-0.27,1.793c-0.071,0.48-0.11,1.137-0.336,1.538c-0.1,0.184-0.312,0.766-0.807,1.2
				c-0.554,0.48-1.385,0.817-1.512,0.843c-0.22,0.049-1.337,0.161-1.793,0.41c-0.159,0.086-0.436,0.186-0.741,0.471
				c-0.607,0.546-1.413,1.523-1.993,2.698c-0.893,1.76-1.784,6.723-1.784,6.723l0.201-0.336c0,0,0.025-0.446,0.471-1.226
				c0.435-0.783,0.31-1.658,0.916-3.156c0.236-0.571,0.531-1.311,0.893-1.944c0.569-1.027,1.261-1.908,1.958-2.389
				c1.136-0.781,2.39-0.95,2.39-0.95l1.345-0.892c0,0,0.237-0.456,0.546-0.978c0.437-0.73,0.992-1.545,1.112-2.733
				c0.186-1.758-0.26-2.911-0.236-3.952c0.026-1.042,0.036-1.808,0.246-1.993c0.212-0.187,0.06-0.115,0.06-0.115l0,0V36.454z"/>
			<path fill="#C99E3D" d="M51.854,44.317c0,0,0.594-1.463,0.868-2.76c0.049-0.26,0.149-0.521,0.173-0.731
				c0.126-1.228,0.161-1.732,0-2.405c-0.125-0.495-0.605-0.94-0.856-1.286c-0.245-0.362-0.36-0.497-0.308-0.572
				c0.049-0.075,0.245-0.199,0.433-0.185c0.411,0.011,0.796,0.191,1.069,0.495c0.385,0.446,0.688,1.958,0.688,1.958l0.322,1.997
				l0.816,2.514L51.854,44.317L51.854,44.317L51.854,44.317z"/>
			<path fill="#B58634" d="M57.44,42.794c0,0-0.111,0.05-0.313,0c0.018,0.167-0.06,0.33-0.2,0.422
				C56.717,43.13,54.75,43.3,54.75,43.3s-0.917-0.161-1.203-1.372c-0.2-0.807,0.15-1.917,0.034-2.649
				c-0.175-1.078-0.419-1.289-0.444-1.625c-0.026-0.334-0.052-0.419-0.052-0.63c-0.109-0.024-0.174-0.06-0.285-0.06
				c-0.024-0.098,0.025-0.186-0.085-0.36c0.061,0.025,0.472,0.074,0.952,0.532c0.396,0.37,0.396,0.504,0.455,0.581
				c0.076,0.074,0.682,0.593,0.942,1.111c0.261,0.518,0.765,2.169,0.881,2.439c0.034,0.109,0.112,0.221,0.297,0.469
				C56.534,42.098,56.96,42.695,57.44,42.794L57.44,42.794L57.44,42.794z"/>
			<path fill="#A88F33" d="M54.195,37.741c0.304,0.49,0.575,0.999,0.815,1.523c0.296,0.667,0.472,1.212,0.842,1.658
				c-0.2-0.58-0.555-1.723-0.767-2.129C54.851,38.364,54.369,37.902,54.195,37.741L54.195,37.741L54.195,37.741z"/>
			<path fill="#E6C367" d="M50.788,45.974c0,0-0.505,0.126-1.448,0.621c-0.311,0.161-0.604,0.295-0.891,0.422
				c-0.741,0.335-1.538,0.644-2.168,0.814c0.051,0.062,0.074,0.086,0.074,0.086s0,0.246,0.136,0.385
				c-0.075,0.075-1.076,0.758-0.78,3.036c0.197-0.075,0.435-0.176,0.468-0.176c0.061,0.011,0.075,0.176,0.152,0.176
				c0.074,0,0.32-0.099,0.58-0.437c-0.009,0.137-0.16,1.497,0.646,2.415c0.152-0.175,0.532-0.757,0.532-0.757l0.008-0.184
				c0,0,0.037-0.648,0.248-1.237c0.209-0.591,0.621-1.027,0.621-1.027l2.143-3.06L50.788,45.974L50.788,45.974L50.788,45.974z"/>
			<path fill="#DCBA5A" d="M48.784,50.468c-0.097,0.069-0.206,0.124-0.32,0.161c-0.035-0.125-0.084-0.558,0.21-0.978
				c0.347-0.506,1.102-1.162,1.313-1.683c0.134-0.336,0.074-1.178,1.277-2.254c1.201-1.078,1.673-1.448,1.673-1.448l1.942-0.977
				l2.389,0.942l-1.186,4.651l-0.923,2.179l-3.664-0.691L48.784,50.468L48.784,50.468L48.784,50.468z"/>
			<path fill="#E9CE77" d="M50.186,49.205l0.454-0.57v-0.406c0,0,0.505-0.136,1.051-0.691c0.546-0.558,1.303-1.624,1.968-1.558
				c0.667,0.074,0.732,1.447,0.757,1.833c0.024,0.386,0.111,1.264,0.246,1.733c0.149,0.471-1.622,2.253-1.622,2.253l-1.206,0.917
				L50.186,49.205L50.186,49.205z"/>
			<path fill="#CDAE50" d="M51.593,53.958c0,0,0.371-0.581,0.101-0.708c0.16-0.361,0.456-0.74,0.456-0.74s0.21-0.52,0.891-1.162
				c0.68-0.642,1.102-1.066,1.212-1.498c0.068-0.281,0.104-0.568,0.111-0.856c0.072,0.06,0.152,0.114,0.233,0.16
				c0.112,0.05,0.633,0.48,0.558,1.347c-0.075,0.869-0.397,1.227-0.397,1.227s-0.31,0.311-0.531,0.472
				c-0.235,0.16-0.319,0.345-0.716,0.36c0.041-0.033,0.087-0.058,0.136-0.074c0,0-0.412-0.049-0.632,0.15
				c-0.22,0.2-0.69,0.815-0.925,1c-0.236,0.151-0.496,0.323-0.496,0.323l0,0L51.593,53.958z"/>
			<path fill="#D2A83E" d="M68.246,44.217c-0.59-0.217-1.212-0.338-1.841-0.361c-1.055-0.036-2.59,0.024-4.098,0.035
				c-1.624,0.01-3.096-0.557-5.139-0.657c-0.334-0.2-1.188-1.077-3.852,0.78c0.161-0.009,1.934-0.409,2.549,0.362
				c0.621,0.767,0.446,2.069,0.362,2.379c-0.161,0.691-0.684,1.697-0.892,2.404c-0.21,0.705-0.161,1.079-0.312,1.574
				c-0.149,0.496-0.48,0.741-0.286,1.312c0.261-0.161,0.397-0.161,0.832-1.137c0.436-0.978,0.346-1.674,1.066-2.5
				c0.708-0.831,1.881-1.968,2.328-2.253c0.446-0.286,3.995-2.128,7.713-0.371c0.897-0.094,1.569-1.568,1.569-1.568l0,0
				L68.246,44.217z"/>
			<path fill="#C29637" d="M54.814,43.535c-0.004-0.038-0.012-0.076-0.024-0.109c-0.034-0.073-0.081-0.143-0.135-0.202
				c0,0-0.882-0.16-1.327-0.109c-0.783,0.086-1.49,1.052-1.818,1.547c-0.331,0.497-0.743,1.262-1.189,1.658
				c0.006-0.038-0.004-0.078-0.024-0.11c0,0,0.024,0.035-0.026,0.086c-0.049,0.048-0.049,0.075-0.024,0.098l0.075,0.075
				c0.026,0,0.717-0.312,1.658-1.19c1.001-0.916,1.767-1.386,2.17-1.547C54.364,43.642,54.586,43.575,54.814,43.535L54.814,43.535
				L54.814,43.535z"/>
			<path fill="#AC8132" d="M71.913,39.769c0,0-0.163,0.201-0.36,0.42c-0.445,0.473-1.03,1.002-1.523,1.547
				c-0.471,0.523-1.002,0.93-1.597,1.61c-0.598,0.68-1.289,1.436-1.464,1.657c-0.161,0.22-0.283,0.58-0.283,0.766
				c-0.087-0.061-0.186-0.125-0.186-0.125c0.041,0.078,0.092,0.152,0.149,0.22c0.124,0.175,0.319,0.395,0.42,0.53
				c0.124,0.172,0.212,0.367,0.261,0.572c0.059,0.009,0.445,0.085,0.927-0.707c0.479-0.792,1.111-1.657,1.111-1.657l1.002-1.488
				l0.631-1.261l0.792-1.412l0.122-0.672l0,0H71.913z"/>
			<path fill="#A88F33" d="M72.941,38.758c0,0-0.607,0.493-0.847,0.792c-0.232,0.297-0.79,1.076-0.79,1.076l0.199-0.024l1.018-0.901
				l0.396-0.707l0.021-0.234L72.941,38.758z"/>
			<path fill="#A67A2E" d="M72.753,78.556c0,0-0.01-0.405,0.222-0.653c0.234-0.245,0.834-0.607,1.414-1.959
				c0.577-1.353,0.643-1.656,0.643-1.656s-1.041,0.893-1.686,1.099c0.153-0.31,0.239-0.53,0.313-0.691
				c-0.085-0.072-0.445-0.157-0.481-0.199c0.2-0.2,0.31-0.691,0.717-1.018c0.521-0.395,1.472-1.072,2.212-1.685
				c0.739-0.604,2.193-2.018,2.38-2.427c0.11,0.161,0.133,0.261,0.133,0.261s-0.73,0.949-1.11,1.559
				c-0.337,0.518-0.312,0.815-0.312,0.815l0.691-0.298c0,0,0.199,0.743-0.704,1.867c0.397-0.147,0.554-0.058,0.781-0.184
				c-0.371,0.234-0.883,0.556-1.364,1.438c-0.469,0.881-1.11,1.907-2.191,2.547C73.357,78.049,72.753,78.555,72.753,78.556
				L72.753,78.556L72.753,78.556z"/>
			<path fill="#8C6228" d="M70.04,44.736c0,0-0.411,0.858-0.471,1.523c-0.011,0.161-0.051,0.286-0.051,0.472
				c-0.011,0.594,0.036,1.261-0.1,1.571c-0.049-0.125-0.074-0.21-0.125-0.259c-0.076,0.209-0.21,0.866-0.32,1.111
				c-0.051-0.16-0.159-0.717-0.148-1.372c0.007-0.657,0.022-0.782,0.022-0.917c-0.022,0.201-0.16,0.472-0.209,0.631
				c-0.076-0.135-0.159-0.311-0.259-0.457c-0.062,0.101-0.138,0.247-0.202,0.322c-0.011-0.06-0.035-0.221-0.051-0.446
				c-0.009-0.261-0.025-0.596-0.009-0.668c0.024-0.135,0.234-0.664,0.68-1.151c0.53-0.581,1.079-1.696,1.238-2.042
				c0.159-0.346,0.84-1.784,0.84-1.784h0.521l-0.756,1.722c0,0-0.456,0.943-0.689,1.288c-0.237,0.346-0.733,1.336-0.952,1.722
				c0.161-0.209,0.295-0.319,0.454-0.52c0.156-0.141,0.587-0.747,0.587-0.747l0,0V44.736z"/>
			<path fill="#CBA94C" d="M72.95,38.693c-0.087,0.261-0.22,0.503-0.396,0.717c-0.309,0.371-0.977,0.867-1.302,1.26
				c-0.299,0.386-0.891,1.438-0.623,2.684c0.1-0.269,0.285-0.806,0.782-1.412c0.496-0.605,1.028-1.301,1.287-1.842
				c0.261-0.547,0.295-0.977,0.295-0.977l0.102-0.125l-0.063-0.287l-0.083-0.019H72.95z"/>
			<path fill="#A88F33" d="M83.093,71.912c0,0-0.201-0.546-0.264-1.04c-0.059-0.497,0.102-0.598-0.083-1.164
				c-0.111-0.346-0.311-0.297-0.361-0.346c-0.051-0.047-0.086-0.571-0.075-0.856c0.01-0.287-0.011-0.654-0.061-0.815
				c-0.074-0.061-0.123-0.11-0.233-0.484c-0.126-0.368-0.187-0.553-0.248-0.664c-0.058-0.11-0.232-0.209-0.232-0.319
				c0-0.221,0.2-0.335,0.2-0.396c-0.012-0.125-0.166-0.026-0.2-0.059c-0.052-0.063,0.122-0.421,0.058-0.473
				c-0.024-0.024-0.2,0.188-0.245,0.126c-0.049-0.061-0.112-0.656-0.199-1.05c-0.085-0.388-0.175-0.666-0.184-0.784
				c-0.012-0.107-0.692-2.051-0.859-2.523c-0.134-0.398-0.245-0.802-0.334-1.212c-0.053-0.234-0.087-0.717-0.11-0.666
				c-0.025,0.049-0.012,0.295-0.049,0.285c-0.038-0.01-0.162-0.866-0.2-1.002c-0.039-0.134-0.245-0.593-0.298-0.925
				c-0.055-0.336-0.161-1.212-0.235-1.81c-0.077-0.593-0.112-0.841-0.112-0.99c0.014-0.364-0.009-0.729-0.06-1.092
				c-0.1-0.631-0.298-1.397-0.473-1.842c-0.33-0.841-1.227-2.995-1.385-3.531c0-0.135,0.175-0.061,0.175-0.061
				s0.436,1.092,0.756,1.933c0.312,0.842,0.606,1.583,0.683,1.659c0.061,0.076,0.529,0.9,0.739,2.253
				c0.212,1.352,0.287,2.598,0.411,3.431c0.061,0.394,0.11,0.816,0.235,1.236c0.136,0.458,0.347,0.926,0.623,1.649
				c0.235,0.605,0.411,1.11,0.505,1.546c0.11,0.557,0.11,0.976,0.176,1.253c0.059,0.234,0.15,0.706,0.359,1.386
				c0.212,0.68,0.521,1.56,0.732,2.103c0.41,1.093,0.595,2.005,0.654,2.49c0.055,0.501,0.24,2.233,0.19,2.754l0,0H83.093z"/>
			<path fill="#BE9C44" d="M72.975,38.633l-0.024,0.06c0,0,0.073,0.024,0.058,0.126c0.002,0.136-0.007,0.274-0.023,0.41
				c-0.023,0.175-0.076,0.31-0.085,0.42c0,0.236,0.034,0.506-0.297,1.177c-0.098,0.184-0.159,0.345-0.211,0.456
				c-0.124,0.27-0.151,0.311-0.262,0.435c0.177-0.1,0.809-0.495,1.131-0.435c-0.222,0.127-0.557,0.372-0.768,0.691
				c0.049,0.01,0.26,0.049,0.595,0c0.554-0.084,1.174-0.285,1.721-0.246c0.598,0.034,0.362-0.718,0.362-0.718l-0.689-1.511
				l-1.303-0.916L72.975,38.633L72.975,38.633z"/>
			<path fill="#A17C34" d="M76.37,49.96c0,0-0.58-0.58-0.817-2.574c-0.234-2.003-0.187-4.952-0.187-4.952l-0.469-1.152
				c0,0-0.102-0.766-0.346-1.051c-0.246-0.285-0.731-0.768-0.95-1.002c-0.224-0.235-0.47-0.556-0.623-0.607
				c0.074-0.125,0.411-0.83,1.699-0.842c1.286-0.009,1.683,0.708,1.816,0.968c0.134,0.26,0.743,1.387,0.966,3.533
				c0.212,2.142,0.222,2.304,0.188,3.045c-0.026,0.41-0.162,1.362-0.397,2.377c-0.213,0.864-0.449,1.824-0.881,2.261L76.37,49.96z"
				/>
			<path fill="#8C6228" d="M74.548,51.669c0.194,0.014,0.387-0.031,0.557-0.125c0.186-0.012,0.854,0.074,1.371-0.581
				c0.036,0.149,0.126,0.556-0.108,0.916c0.123-0.125,0.31-0.176,0.335-0.21c0.01,0.185,0.186,0.755-0.558,2.144
				c0.2-0.221,0.436-0.211,0.647-0.237c0.009,0.261,0.148,1.138-0.223,1.609c-0.244,0.321-0.645,0.219-0.645,0.219
				c0.007-0.069,0.007-0.139,0-0.21c-0.013-0.134-0.059-0.268-0.024-0.36c-0.194-0.089-0.371-0.21-0.52-0.361
				c-0.438-0.41-1.004-1.112-1.042-1.631c-0.05-0.583,0.47-0.709,0.47-0.709c-0.043-0.038-0.082-0.083-0.111-0.133
				C74.673,51.913,74.648,51.779,74.548,51.669L74.548,51.669L74.548,51.669z"/>
			<path fill="#92723A" d="M70.686,45.368c0,0-0.023-0.034-0.163,0.126c0.029-0.16,0.053-0.312,0.063-0.456
				c0.065-0.136,0.145-0.259,0.244-0.371c-0.073,0.15-0.122,0.285-0.122,0.285s0.184-0.346,0.452-0.556
				c0.187-0.15,0.421-0.22,0.522-0.36c0.109-0.15,0.085-0.176,0.109-0.2c0,0,0.245-0.16,0.623-0.631
				c0.049-0.06,0.124-0.125,0.173-0.186c0.085-0.035,0.288-0.125,0.521-0.245c0.244-0.135,0.521-0.321,0.691-0.397
				c0.336-0.15,0.69-0.135,0.855-0.371c0.126-0.035,0.261-0.412,0.236-0.73c0.184,0.074,1.138,0.665,1.464,1.958
				c0.232,0.916-0.188,2.328-0.363,3.01c-0.175,0.683-0.198,1.187-0.442,1.498c-0.313,0.411-1.313,0.99-1.561,1.277
				c-0.21,0.235-0.841,0.832-0.813,1.261c0.021,0.32,0.421,0.494,0.502,0.557c0.087,0.06,0.087,0.135,0.246,0.098
				c0.163-0.036,0.222-0.111,0.287-0.111c0.075,0.011,0.075,0.026,0.111,0.026c0.023,0,0.049-0.005,0.073-0.011
				c0,0-0.028,0.458-1.092,0.595c-0.074,0.009-0.15,0.035-0.248,0.048c0.129-0.059,0.204-0.059,0.338-0.243
				c-0.15-0.026-0.58-0.052-0.69-0.085c0.036-0.061,0.15-0.221,0.246-0.297c0.085-0.075-0.012-0.1-0.087-0.059
				c-0.129,0.087-0.251,0.182-0.37,0.285c-0.124,0.109-0.235,0.26-0.434,0.396c-0.063-0.2-0.053-0.583,0.186-0.857
				c-0.063,0.01-0.177,0.185-0.287,0.15c-0.022-0.182-0.01-0.366,0.034-0.546c0.061-0.225,0.384-0.621,0.384-0.621l1.576-2.81
				l0.335-2.128L70.686,45.368L70.686,45.368L70.686,45.368z"/>
			<path fill="#B18E3E" d="M70.601,45.489c0,0-0.085,0.061,0.085,0.175c-0.023,0.036-0.085,0.16-0.163,0.245
				c-0.083,0.1-0.173,0.161-0.206,0.247c-0.075,0.175-0.136,0.295-0.136,0.371c0,0.075-0.027,0.557-0.237,0.866
				c-0.074,0.111-0.159,0.295-0.221,0.421c-0.125,0.221-0.233,0.396-0.26,0.495c-0.049,0.176-0.086,0.657-0.086,0.657
				s0.112-0.137,0.15-0.187c-0.06,0.126-0.125,0.261-0.219,0.361c0.06-0.051,0.235-0.174,0.532-0.435
				c0.409-0.345,1.051-0.926,1.832-1.385c-0.235,0.084-0.435,0.084-0.596,0.109c0.124-0.125,1.25-1.447,1.844-1.572
				c0.032-0.046,0.053-0.104,0.05-0.161l-0.507-0.049l-1.026,0.22l-0.15-0.793l-0.687,0.416V45.489z"/>
			<path fill="#543E26" d="M72.232,49.996c0,0-0.138,0.134-0.26,0.47c-0.099-0.1-0.18-0.213-0.246-0.336
				c-0.185-0.31-0.471-0.706-1.139-0.479c-0.009-0.21-0.021-0.322,0-0.47c0.112-0.026,0.449-0.296,0.782-0.691
				c0.235-0.271,0.455-0.583,0.608-0.978c0.099-0.075,0.271-0.2,0.494-0.345c0.321-0.22,0.705-0.521,0.767-0.857
				c-0.15,0.061-0.47,0.21-0.954,0.187c0.188-0.085,0.473-0.176,0.437-0.547c0.076-0.05,0.138-0.084,0.138-0.084
				c-0.057-0.019-0.117-0.028-0.176-0.025c-0.011-0.038-0.024-0.085-0.112-0.061c-0.083,0.023-0.098,0.023-0.11,0.061
				c-0.034,0.008-0.147,0-0.233,0.06s-0.32,0.26-0.411,0.295c0.035-0.06,0.086-0.15,0.086-0.15s-0.246,0.024-0.42,0.099
				c-0.322,0.11-0.693,0.31-1.066,0.506c0.033-0.061,0.049-0.1,0.07-0.11c0.029-0.012,0.089-0.024,0.089-0.036
				c0-0.011-0.023-0.099-0.011-0.134c0.112-0.238,0.246-0.466,0.395-0.681c0.178-0.236,0.21-0.572,0.21-0.572l0.767-0.386
				l2.156-0.494l1.396,0.085l-0.175,0.966l-0.823,1.687l-0.709,1.539l-0.806,0.941L72.232,49.996L72.232,49.996L72.232,49.996z"/>
			<path fill="#806031" d="M75.722,45.813c0,0-0.84,1.042-1.073,1.204c0.147-0.322,1.073-2.229,1.409-2.761
				c-0.072-0.06-0.173-0.06,0.063-0.991c-0.2,0.471-0.271,0.716-0.436,0.841c-0.167,0.125-0.187,0.085-0.297,0.085
				c0.02-0.038,0.028-0.082,0.023-0.125c0,0-0.705-0.085-1.189-0.085c-0.481,0-1.435,0.262-1.969,0.471
				c-0.417,0.176-0.653,0.176-0.806,0.285c-0.148,0.127-0.235,0.261-0.31,0.296c-0.061,0.035-0.347,0.126-0.41,0.221
				c-0.06,0.098-0.161,0.209-0.161,0.235c0,0.023-0.025,0.061,0.053,0.034c0.021-0.011,0.206-0.111,0.421-0.236
				c0.283-0.16,0.629-0.344,0.878-0.455c0.719-0.287,0.942-0.234,1.261-0.295c0.34-0.059,0.821-0.201,1.137-0.201
				c0.322-0.009,0.929,0,1.068,0.026c-0.059,0.051-0.11,0.11-0.084,0.319c0,0.062-0.049,0.125-0.097,0.271
				c-0.151,0.412-0.438,1.092-0.599,1.437c-0.22,0.471-0.468,0.868-0.592,1.113c-0.123,0.246-0.398,0.89-0.668,1.236
				c-0.269,0.346-0.407,0.556-0.493,0.631c-0.086,0.075-0.691,0.521-0.645,0.681c0.109-0.034,0.803-0.297,1.312-0.866
				c0.503-0.568,0.604-0.917,1-1.228c0.396-0.309,0.706-0.83,0.892-1.261c0.155-0.399,0.119-0.524,0.318-0.88l0,0L75.722,45.813z"/>
			<path fill="#B6903C" d="M57.59,53.587c0,0-0.11,0.455-0.361,0.681c-0.246,0.221-0.68,0.411-0.731,0.782
				c-0.061,0.37,0.436,0.556,0.436,0.556s-0.271,0.445-0.271,0.78c0,0.346-0.009,0.412,0.026,0.742
				c-0.04,0.026-0.073,0.058-0.099,0.101c0,0,0.025,0.318,0.27,0.519c0.246,0.201,0.456,0.321,0.582,0.272
				c0.019,0.039,0.034,0.082,0.05,0.125c0,0,0.186-0.471,0.31-0.883c0.125-0.419,0.235-0.36,0.286-0.925
				c0.051-0.565,0.594-1.539,0.594-1.539l0.372-0.828l-0.606-0.472L57.59,53.587L57.59,53.587z"/>
			<path fill="#685026" d="M58.717,54.403c-0.126,0.127-0.24,0.266-0.346,0.411c-0.159,0.219-0.284,0.42-0.52,0.506
				c-0.236,0.084-0.386,0.084-0.371,0.318c0.015,0.238,0.236,0.338,0.361,0.458c0.135,0.124,0.246,0.334,0.186,0.571
				c0.074-0.036,0.21-0.075,0.336-0.347c0.124-0.269,0.999-1.916,0.999-1.916h-0.644V54.403z"/>
			<path fill="#D4B968" d="M62.168,50.601c0,0,0.074-0.2,0-0.345c-0.076-0.149-0.532-0.201-0.756-0.37
				c-0.236-0.176-0.521-0.297-0.757-0.22c0.035-0.085,0.175-0.271,0.059-0.311c-0.108-0.034-0.52,0.151-0.629,0.235
				c-0.11,0.086-0.362,0.186-0.411,0.245c-0.05,0.063-0.136,0.177-0.185,0.125c-0.052-0.034-0.077-0.125-0.161-0.074
				c-0.086,0.05-0.496,0.385-0.571,0.581c-0.075,0.196-0.247,0.631-0.755,1.127c-0.512,0.495-0.732,0.818-0.583,1.002
				c0.15,0.184,0.221,0.048,0.246,0.209c0.021,0.157,0.011,0.316-0.024,0.473c-0.061,0.259-0.161,0.503-0.026,0.554
				c0.346,0.111,0.681-0.1,0.756-0.035c0.152,0.137-0.085,0.622,0.271,0.717c0.36,0.099,0.717-0.085,0.717-0.085l1.312-0.706
				l1.262-0.667l0.646-1.277l-0.344-1.067l-0.067-0.111H62.168z"/>
			<path fill="#CCA849" d="M60.929,53.652c0,0-0.22-0.336,0.05-0.632c0.272-0.295,0.656-0.421,0.808-0.606
				c-0.031-0.036-0.067-0.061-0.112-0.074c0.1-0.179,0.251-0.324,0.438-0.413c-0.079-0.074-0.176-0.135-0.287-0.135
				c-0.245,0-0.396,0.151-0.621,0.151c-0.221,0-0.245-0.11-0.245-0.11s0.37-0.035,0.334-0.201c-0.034-0.175-0.098-0.175-0.098-0.175
				s0.715-0.297,0.839-0.457c0.127-0.156,0.112-0.344,0.136-0.419c0.085,0,0.581-0.261,0.782-0.15
				c0.201,0.109,0.06,0.409,0.06,0.409s0.606-0.455,0.916-0.902c0.27,0.026,0.398-0.186,0.594-0.186
				c0.246,0,0.632,0.338,0.705,1.053c0.053,0.411,0.127,0.646,0.053,1.372c-0.036,0.412-0.027,1.288,0.098,1.723
				c0.084,0.347,0.284,0.311,0.284,0.311c-0.03,0.105-0.09,0.199-0.174,0.271c-0.136,0.125-0.15,0.455-0.136,0.581
				c0.019,0.091,0.046,0.183,0.076,0.271c0,0-0.162,0.186-0.202,0.311c-0.033,0.127-0.199,0.211-0.318,0.211
				c-0.124,0-0.061-0.01-0.222,0c-0.159,0.011-0.211,0.035-0.309,0c-0.102-0.037-0.178-0.075-0.138-0.395
				c0.036-0.322-1.236-1.068-1.236-1.068l-2.079-0.741l0,0L60.929,53.652z"/>
			<path fill="#585136" d="M58.54,56.817c0,0,0.457,0.606,2.329,0.606c0.893,0,1.204-0.085,1.389-0.135
				c0.199-0.05,0.952-0.346,1.707-1.237c0.681-0.806,0.53-1.138,0.53-1.138L64.1,54.854l-1.289,0.176l-3.809,1.622L58.54,56.817
				L58.54,56.817z"/>
			<path fill="#252211" d="M59.937,56.967c0,0-1.622,0.361-1.622-0.664c0-1.004,1-2.054,1.252-2.24
				c0.261-0.187,0.88-0.398,0.88-0.398h1.499l0.287,0.757l-0.127,1.632L59.937,56.967L59.937,56.967z"/>
			<path fill="#C3B378" d="M61.436,53.973c0,0-0.311-0.287-1.017,0.098c-0.706,0.385-1.277,1.189-1.313,1.92
				c-0.035,0.645,0.532,1.127,1.413,1.149c0.656,0.026,1.052-0.047,1.252-0.098c-0.05-0.059-0.311-0.385-0.311-0.385L61.436,53.973
				L61.436,53.973L61.436,53.973z"/>
			<path fill="#E6D89C" d="M61.129,54.131c0,0-0.075-0.06-0.296,0.061c-0.186,0.1-0.456,0.362-0.666,0.547
				c-0.136,0.109-0.22,0.159-0.298,0.245c-0.311,0.371-0.57,0.978-0.421,1.277c0.152,0.3,0.647,0.648,1.909,0.411l-0.23-2.539l0,0
				L61.129,54.131z"/>
			<path fill="#252211" d="M60.718,54.754c0,0-0.199,0.31-0.199,0.806c0,0.506,0.285,1.313,1.336,1.373
				c0.808,0.051,1.349-1.161,1.935-1.633c0.445-0.36,0.717-0.37,0.717-0.37s-0.458-0.496-1.674-1.137
				c-1.202-0.646-2.55-0.73-3.281,0.261c0.345-0.026,1.464-0.311,1.464-0.311l0.545,0.174L60.718,54.754L60.718,54.754
				L60.718,54.754z"/>
			<path fill="#6F674D" d="M62.293,55.409c-0.036-0.074-0.059-0.175,0.082-0.2c0.149-0.024,0.212-0.01,0.261,0.1
				c0.051,0.109,0.102,0.201,0.027,0.246c-0.076,0.039-0.272,0-0.372-0.146H62.293z M62.056,54.703c0,0-0.051,0.036-0.023-0.034
				c0.009-0.085,0.074-0.236,0.233-0.201c0.161,0.036,0.125,0.21,0.1,0.261c-0.027,0.05-0.161,0.135-0.26,0.099
				c-0.045-0.012-0.073-0.057-0.06-0.101c0-0.01,0.005-0.019,0.009-0.025H62.056z"/>
			<path fill="#AC924C" d="M48.5,55.023c0,0,0.396,0.297,0.857,0.286c0.455-0.01,1.041-0.481,1.311-0.781
				c0.161-0.177,0.296-0.361,0.446-0.506c0.125-0.125,0.21-0.186,0.271-0.271c0.084-0.099,0.176-0.285,0.219-0.345
				c-0.109,0.084-0.27,0.236-0.435,0.336c-0.16,0.099-0.505,0.284-0.646,0.334c-0.135,0.051-1.538,0.792-1.538,0.792L48.5,55.023
				L48.5,55.023z"/>
			<path fill="#9F8E57" d="M49.105,51.324c0,0,0.22-0.151,0.646-0.246c0.409-0.1,1.237-0.176,1.237-0.176l0.681,0.298l0.27,1.026
				l-0.495,1.068l-0.63,0.396l-0.717-1.152l-0.991-1.211l0,0L49.105,51.324z"/>
			<path fill="#EAC970" d="M48.213,52.239l-0.236,0.175c0,0,0.061-0.111,0.112-0.445c0.05-0.334,0.311-1.152,0.692-1.624
				c0.379-0.469,0.37-0.444,0.37-0.444c-0.073-0.013-0.146,0.004-0.201,0.05c0.05-0.112,0.371-0.508,0.69-0.707
				c0.323-0.197,0.446-0.26,0.783-0.098c0.334,0.161,0.42,0.245,0.667,0.235c0.245-0.01,0.454-0.271,0.454-0.271
				s0.051,0.16-0.135,0.531c-0.185,0.373-0.916,1.128-0.916,1.128l-1.522,1.04l-0.758,0.431l0,0V52.239z"/>
			<path fill="#D7BC6B" d="M49.34,51.199c0,0,1.104,0.149,1.438-0.161c0.01,0.035,0.049,0.035,0.049,0.059
				c-0.003,0.02-0.011,0.037-0.025,0.049c0.037-0.005,0.074-0.008,0.11-0.008c0.044,0.013,0.089,0.021,0.135,0.025
				c0.038-0.001,0.075-0.004,0.111-0.01c-0.007,0.05-0.033,0.095-0.075,0.125c0.05,0,0.099,0.009,0.099,0.049
				c0,0.041,0.009,0.162-0.049,0.186c-0.052,0.014-0.105,0.011-0.152-0.01c0.004,0.095,0.03,0.187,0.076,0.271
				c0.099,0.183,0.312,0.395,0.595,0.335c0,0,0.149,0.36-0.481,1.161c-0.084,0.111-0.175,0.259-0.286,0.385
				c-0.043,0.095-0.076,0.192-0.099,0.295c0,0,1.068-0.41,1.371-1.346c0.312-0.941,0.373-1.868,0.312-2.734
				c-0.009-0.247-0.049-0.421-0.109-0.547c-0.152-0.31-0.572-0.26-0.743-0.084c-0.246,0.246-0.654,0.857-1.228,1.276
				C49.81,50.938,49.786,51.012,49.34,51.199L49.34,51.199L49.34,51.199z"/>
			<path fill="#585136" d="M48.018,52.549c0,0-0.209,0.126-0.32,0.595c-0.109,0.481,0.1,1.066,0.22,1.251
				c0.122,0.186,0.397,0.692,0.968,0.717c0.141-0.001,0.281-0.029,0.41-0.085c0.199-0.092,0.385-0.208,0.558-0.345
				c0.245-0.185,0.445-0.346,0.418-0.361c-0.059-0.024-1.511-1.227-1.511-1.227l-0.547-0.609l-0.195,0.067V52.549z"/>
			<path fill="#453A25" d="M49.391,54.543c0,0,0.295-0.025,0.472-0.135c0.175-0.109-1.027-1.302-1.027-1.302l0.085,1.288
				L49.391,54.543z"/>
			<path fill="#84754B" d="M48.115,52.459c0,0-0.152,0.285-0.152,0.362c-0.024,0.245,0.051,1.015,0.111,1.261
				c0.06,0.261,0.385,0.657,0.807,0.657c0.259,0,0.62-0.16,0.62-0.2c0-0.05-0.371-0.099-0.469-0.285
				c-0.061-0.099-0.086-0.346-0.1-0.597c-0.01-0.159-0.01-0.334,0.05-0.394c0.136-0.152,0.161-0.582,0.161-0.582l0.48-0.893h-0.634
				l-0.754,0.471L48.115,52.459z"/>
			<path fill="#252211" d="M47.928,52.736c0,0,0.495-0.657,0.941-0.809c0.447-0.149,0.646-0.06,0.646-0.06l-0.26,0.667l-0.37,0.41
				l0.024,0.21c0,0-0.06,0.559,0.312,0.943c0.37,0.385,0.646,0.37,0.805,0.37c0.161,0,0.621-0.135,0.858-0.692
				c0.208-0.52,0.385-1.187-0.037-1.858c-0.41-0.666-1.135-0.69-1.276-0.69c-0.141,0-1.242,0.053-1.643,1.505l0,0V52.736z"/>
			<path fill="#F7F7E7" d="M60.644,54.963c-0.185-0.084-0.01-0.604,0.177-0.766c0.184-0.16,0.418-0.344,0.83-0.371
				c0.148-0.009,0.295,0.086,0.27,0.187c-0.034,0.184-0.295,0.444-0.531,0.629C61.064,54.899,60.854,55.06,60.644,54.963z"/>
			<path fill="#F8F6DE" d="M50.627,52.125c0.137-0.008,0.311,0.099,0.346,0.245c0.036,0.161-0.084,0.48-0.346,0.48
				c-0.21,0-0.32-0.259-0.32-0.334c0.002-0.063,0.021-0.122,0.051-0.175C50.367,52.325,50.393,52.149,50.627,52.125z"/>
			<path fill="#D4C38B" d="M48.674,52.239c0,0-0.345,0.159-0.505,0.495c-0.114,0.249-0.149,0.524-0.098,0.794
				c0.024,0.124,0.148,0.434,0.234,0.544s0.199,0.187,0.287,0.177c0.084-0.01,0.259-0.236,0.259-0.371
				c0-0.134,0.011-0.706,0.175-1.018c0.146-0.312-0.35-0.619-0.35-0.619l0,0L48.674,52.239z"/>
			<path fill="#E2D59D" d="M48.725,52.215c-0.06,0.036-0.159,0.085-0.135,0.15c0.024,0.06,0.236,0.099,0.31,0.246
				c0.085,0.15,0.085,0.312,0.061,0.386c0.065-0.03,0.124-0.073,0.175-0.125c0.111-0.127,0.246-0.295,0.359-0.295
				c0.077,0,0.152,0.035,0.222,0.035c0.109,0,0.22-0.035,0.235-0.15c0.025-0.15-0.211-0.285-0.346-0.261
				c0.025-0.099,0.06-0.244-0.05-0.346c-0.11-0.1-0.456,0.076-0.531,0.125C48.95,52.029,48.725,52.215,48.725,52.215L48.725,52.215
				L48.725,52.215z"/>
			<path fill="#CBAC5A" d="M56.682,62.736l0.741-0.22l0.212,0.151c0,0,0.148,0.32,0.385,0.36c-0.076,0.161-0.271,0.298-0.261,0.412
				c0.01,0.111,0.111,0.202,0.111,0.202s-0.667,1.098,0.646,2.209c-0.312,0.124-0.707,0.297-0.918,0.396
				c0.15,0.035,0.472,0.099,0.606,0.223c0.135,0.119,0.135,0.156,0.261,0.233c0.125,0.073,0.199,0.175,0.174,0.219
				c-0.085-0.051-0.37-0.199-0.42-0.06c-0.05,0.142-1.237,0.086-1.237,0.086l-2.003,0.385c0,0,0.074-0.199-0.134-0.385
				c-0.246-0.221-0.546,0.011-0.866-0.236c-0.421-0.319-0.437-0.69-0.573-0.831c0.136-0.085,0.412-0.208,1.067-0.296
				c-0.026-0.052-0.109-0.202-0.061-0.336c0.061-0.176,0.312-0.286,0.236-0.495c0.11-0.026,0.161-0.026,0.436-0.369
				c0.259-0.348,0.42-0.422,0.621-0.448c0.201-0.024,0.322,0,0.692-0.344c0.259-0.246,0.175-0.457,0.175-0.457
				S56.743,63.081,56.682,62.736L56.682,62.736L56.682,62.736z"/>
			<path fill="#D6BC6F" d="M54.494,62.849c0.011-0.05,0.05-0.076,0.321-0.05c0.27,0.023,1.983-0.162,2.449-0.186
				c0.47-0.036,2.129-0.01,2.935,0.159c0.807,0.17,1.623,0.372,2.019,0.47c0.395,0.11,0.52,0.15,0.507,0.201
				c-0.012,0.051-0.102,0.1-0.15,0.087c-0.051-0.012-1.365-0.412-1.769-0.497c-0.406-0.085-1.809-0.31-2.578-0.297
				c-0.713,0.01-1-0.009-1.606,0.06c-0.605,0.075-1.607,0.175-1.909,0.136C54.417,62.897,54.479,62.897,54.494,62.849L54.494,62.849
				L54.494,62.849z"/>
			<path fill="#DFC677" d="M58.525,66.772c0,0,1.026,0.558,1.398,1.238c0.271,0.506-0.16,0.756-0.16,0.756s0.58,0,0.505,0.322
				c-0.035,0.195-1.002,0.74-1.648,1.025c-0.654,0.285-0.63,0.27-0.951,0.319c-0.311,0.053-1.161-0.098-1.337,0.15
				c-0.175,0.249-0.1,0.506-0.05,0.547c0.05,0.035,0.457,0.084,0.457,0.084s-0.085,0.234-0.928,0.264
				c-0.839,0.022-1.051,0.082-1.102,0.172c-0.049,0.087,0.161,0.034,0.546,0.1c0.385,0.063,0.927,0.098,0.927,0.098
				s-0.175,0.151-0.631,0.271c-0.521,0.138-1.337,0.262-1.583,0.411c0.125,0.087,0.311,0.212,0.397,0.221
				c-0.211,0.053-0.506,0.159-0.557,0.2c0.077,0.049,0.175,0.109,0.175,0.109s-0.42,0.506-0.666,0.632
				c-0.245,0.126-1.657,0.782-2.143,0.656c-1.211-0.322-1.363-1.649-1.658-1.747c-0.445-0.151-0.657,0.149-1.051-0.062
				c0.175-0.124,0.271-0.2,0.455-0.283c-0.2-0.1-1.238-0.757-1.238-0.757c-0.107-0.235-0.228-0.468-0.36-0.691
				c-0.2-0.346-0.495-0.805-0.716-1.212c-0.48-0.893-0.507-1.303-0.942-1.809c0.077-0.1,0.337-0.085,0.337-0.085l3.651,1.2
				l6.472,0.188l1.685-2.403L58.525,66.772L58.525,66.772z"/>
			<path fill="#C4A859" d="M48.936,70.438c0.039,0.045,0.084,0.081,0.135,0.112c0.125,0.086,0.31,0.185,0.436,0.335
				c0.049-0.076,0.173-0.211,0.396,0c0.22,0.212,0.496,0.062,0.666,0.109c0.175,0.063,0.184,0.084,0.184,0.084
				s0.1-0.084,0.323-0.176c0.133-0.046,0.294-0.081,0.469-0.13c0.161-0.038,0.336-0.088,0.457-0.088
				c0.109,0.077,0.507,0.493,2.092-0.124c1.498-0.583,1.843-0.648,2.093-0.557c0.026-0.061,0.05-0.175,0.436-0.158
				c0-0.164-0.319-0.709-0.319-0.709l-1.767-0.604h-0.968l-2.9,0.53l-1.606,0.915l-0.125,0.464L48.936,70.438z"/>
			<path fill="#927D49" d="M47.968,69.424c0,0,0.037,0.268,0.436,0.554c0.396,0.288,0.521,0.456,0.521,0.456s0.075-0.098,0.136-0.2
				c0.061-0.106,0.11-0.236,0.21-0.272c0.201-0.079,0.656,0.078,0.756,0.053c0.087-0.023,0.061-0.2,0.151-0.2
				c0.21-0.009,0.345,0.135,0.421,0.135c0.075,0,0.261-0.009,0.286-0.05c0.023-0.04,0.034-0.456,0.319-0.655
				c0.31-0.221,0.692-0.127,0.792-0.076c0,0.076,0.011,0.26,0.211,0.271c0.201,0.01,0.22-0.022,0.397,0.035
				c0.174,0.06,0.385-0.011,0.479,0.287c0.085-0.024,0.285-0.052,0.234-0.336c0.1-0.075,0.186-0.124,0.397-0.422
				c0.051-0.076,0.134-0.161,0.2-0.269c0.177,0,0.385-0.037,0.666,0.209c-0.086,0.06-0.135,0.097-0.16,0.161
				c0.073,0.073,0.14,0.148,0.199,0.233c0.075,0.101,0.126,0.221,0.221,0.244c0.211,0.064,0.556-0.023,0.942,0
				c0.371,0.028,0.681,0.162,0.816,0.248c0.05-0.024,0.05-0.033,0.176-0.012c0.126,0.028,0.219,0.036,0.085-0.122
				c0.074,0.031,0.16,0.109,0.235,0.031c0.075-0.075,0.134-0.186,0.346-0.208c0.209-0.026,0.285,0.009,0.37-0.212
				c0.11-0.271-0.271-0.271-0.271-0.271s0.175-0.159,0.37-0.367c0.235-0.222,0.507-0.509,0.57-0.857
				c0.11-0.647-0.521-0.731-0.521-0.731l-3.059,0.941l-3.74-0.186l-3.191,1.588l0,0H47.968z"/>
			<path fill="#6E6342" d="M45.219,60.584c0,0-0.099,0.125-0.159,0.42c-0.063,0.293-0.036,0.261-0.086,0.471
				c-0.051,0.209-0.667,2.302-0.435,3.009c0.231,0.708,0.632,0.968,0.88,1.538c0.052,0.124,0.1,0.2,0.126,0.311
				c0.085,0.369,0.011,0.656,0.11,1.026c0.035,0.127,0.125,0.271,0.26,0.421c0.296,0.31,0.782,0.606,0.991,0.817
				c0.294,0.307,0.715,0.938,1.252,1c0.285,0.032,0.692-0.085,1.025-0.286c0.299-0.187,0.48-0.443,0.794-0.591
				c0.22-0.113,0.455-0.154,0.667-0.203c0.434-0.085,0.831-0.1,1.066-0.051c0.362,0.075,1.212,0.336,1.685,0.336
				c0.368-0.007,0.733-0.056,1.091-0.15c0.716-0.209,1.582-0.57,2.153-0.73c0.337-0.1,0.606-0.123,0.882-0.184
				c0.47-0.112,0.867-0.261,1.091-0.548c-0.15-0.177-0.336-0.445-1.338-0.437c-1.135,0.026-2.448,0.658-3.094,0.757
				c-0.648,0.102-0.929,0.184-1.648-0.076c-0.708-0.261-0.731-0.437-0.731-0.437s-0.742-0.519-1.052-1.842
				c-0.312-1.322,0-2.29,0.805-3.207c0.21-0.233,0.161-0.445,0.161-0.445s0.53-0.715,0.385-1.386
				c-0.161-0.666-1.187-0.53-1.187-0.53L45.219,60.584L45.219,60.584L45.219,60.584z"/>
			<path fill="#39331F" d="M46.075,62.812c-0.044,0.082-0.065,0.177-0.061,0.27c0.011,0.138,0.051,0.312,0.456,0.708
				c0.346,0.345,0.27,0.73,0.27,0.73s0.177,0.034,0.646-0.185c0.37-0.175,0.496,0.133,0.496,0.133
				c0.108-0.055,0.225-0.094,0.345-0.11c0.109-0.009,0.216-0.041,0.312-0.098c0,0,0.437,0.446,0.815,0.655
				c0.347,0.188,0.547,0.313,0.717,0.188c0.161-0.113,0.161-0.338,0.15-0.437c-0.04-0.093-0.091-0.182-0.15-0.262
				c-0.111-0.16-0.286-0.345-0.297-0.495c-0.024-0.346,0.261-0.756,0.2-0.857c-0.061-0.098-0.285-0.123-0.843,0.078
				c-0.574,0.188-3.057-0.316-3.057-0.316l0,0L46.075,62.812z"/>
			<path fill="#292311" d="M47.386,65.052c0,0-0.284-0.271-0.184-1.584c0.121-0.002,0.241,0.012,0.361,0.034
				C47.563,63.502,47.718,64.52,47.386,65.052z"/>
			<path fill="#252211" d="M45.354,59.582c0.041-0.03,0.078-0.063,0.111-0.099c-0.1,0.186-0.556,0.926-0.187,2.094
				c0.371,1.162,1.302,2.027,2.449,2.067c1.147,0.04,1.751-0.519,2.439-1.361c0.271-0.334,0.583-0.757,0.856-1.042
				c0.413-0.446,0.733-0.57,0.733-1c0-0.882-0.904-1.277-2.229-1.673c-1.329-0.396-2.526-0.346-3.147-0.075
				C45.774,58.786,45.515,59.094,45.354,59.582L45.354,59.582L45.354,59.582z"/>
			<path fill="#3F3824" d="M49.616,65.445l0.099-0.05c0,0,0.024-0.395,0.185-0.386c0.161,0.026,0.237,0.235,0.221,0.312
				c-0.009,0.074-0.049,0.199-0.208,0.185C49.7,65.511,49.616,65.445,49.616,65.445L49.616,65.445z"/>
			<path fill="#2D2815" d="M49.17,63.765c0,0,0.1-0.038,0.22,0.086c0.1,0,0.531-0.052,0.667,0.033
				c0.136,0.083,0.175,0.162,0.175,0.162s-0.506,0.107-0.783,0C49.17,63.949,49.17,63.765,49.17,63.765z"/>
			<path fill="#82764F" d="M51.399,63.839c0-0.025-0.27-0.212-0.555-0.271c-0.05-0.009-0.062,0.027-0.099,0.027
				c-0.026-0.013-0.038-0.087-0.038-0.087l-0.159,0.087c0,0-0.026,0.032,0.059,0.098c0.075,0.06,0.201,0.11,0.234,0.209
				c0.035,0.102,0.035,0.137,0.051,0.15c0.01,0.01,0.185,0,0.271-0.049C51.248,63.95,51.408,63.869,51.399,63.839L51.399,63.839
				L51.399,63.839z"/>
			<path fill="#2D2816" d="M48.87,64.856c0,0,0.051-0.345,0.386-0.36c0.347-0.025,0.411,0.31,0.411,0.31l-0.2,0.2
				c0-0.005-0.15-0.215-0.595-0.149H48.87z"/>
			<path fill="#574F35" d="M51.048,63.368c0,0-0.185,0.199-0.594,0.259c-0.037-0.048-0.112-0.147,0-0.31
				c0.109-0.16,0.235-0.21,0.36-0.16C50.925,63.175,51.018,63.258,51.048,63.368z"/>
			<path fill="#82764F" d="M51.805,63.612c0.01-0.049-0.025-0.061,0-0.084c0.024-0.026,0.159-0.075,0.185-0.049
				c0.011,0.007,0,0.049,0,0.098s0,0.099-0.026,0.135c-0.034,0.051-0.134,0.077-0.184,0.061c-0.049-0.015-0.06-0.088-0.06-0.101
				C51.744,63.663,51.805,63.64,51.805,63.612z M52.659,63.073c0-0.026,0.086-0.078,0.136-0.078c0.075,0,0.075,0.061,0.085,0.078
				c0.023,0.008,0.023-0.012,0.05,0.034c0.024,0.045,0.061,0.125,0.036,0.177c-0.026,0.049-0.125,0.084-0.151,0.072
				C52.781,63.333,52.67,63.107,52.659,63.073z"/>
			<path fill="#6E6342" d="M50.938,63.727c0,0,0.11,0.027,0.262,0.15c-0.05,0.036-0.125,0.076-0.125,0.076
				S51.063,63.839,50.938,63.727L50.938,63.727z"/>
			<path fill="#585136" d="M50.693,62.627c-0.025-0.023,0.075-0.085,0.135-0.075c0.061,0.009,0.085,0.052,0.152,0.062
				c0.065,0.009,0.074-0.025,0.098-0.053c0.025-0.023,0.11-0.009,0.125,0c0.009,0.013,0.018,0.022,0.026,0.036
				c0.001-0.039,0.02-0.075,0.048-0.099c0.04-0.029,0.09-0.038,0.137-0.026c0.008,0.035,0.059,0.16,0.049,0.186
				c-0.01,0.027-0.16,0.06-0.186,0.036c0.026,0.058,0.137,0.185,0.151,0.209c0.015,0.026-0.11,0.086-0.159,0.075
				c-0.072-0.003-0.503-0.254-0.578-0.351H50.693z M51.349,61.796c-0.008-0.026-0.028-0.047-0.051-0.061
				c-0.034-0.01-0.149,0-0.149,0.061c0,0.059,0.099,0.395,0.209,0.57c0.125,0.176,0.212,0.321,0.296,0.361
				c0.055,0.023,0.122,0.001,0.15-0.052c0.01-0.023,0.033-0.209,0.024-0.646c-0.009-0.434-0.024-0.855-0.051-0.88
				c-0.024-0.025-0.124-0.025-0.159,0.025C51.584,61.223,51.358,61.721,51.349,61.796L51.349,61.796L51.349,61.796z"/>
			<path fill="#574F35" d="M50.903,64.357c0,0-0.175-0.11-0.345-0.032c-0.16,0.075-0.15,0.37-0.15,0.37
				c0.074,0.028,0.155,0.02,0.22-0.025C50.738,64.596,50.878,64.471,50.903,64.357L50.903,64.357z"/>
			<path fill="#82764F" d="M51.232,64.756c-0.008-0.099-0.098-0.099-0.098-0.153c0.014-0.049,0.058-0.083,0.111-0.083
				c0.05,0,0.098,0.061,0.159,0.099c0.061,0.037,0.149,0.101,0.16,0.175c0.01,0.077-0.099,0.288-0.219,0.288
				c-0.123,0-0.087-0.227-0.112-0.326L51.232,64.756z M52.201,64.618c0,0-0.2,0.062-0.186,0c0.015-0.059,0.06-0.073,0.126-0.073
				c0.031-0.033,0.078-0.057,0.124-0.061c0.028-0.001,0.054,0.008,0.075,0.027c0,0,0.135-0.063,0.175-0.027
				c0.04,0.035,0.011,0.035,0.035,0.075c0.033,0.043,0.053,0.098,0.06,0.151c0,0.038-0.15,0.126-0.27,0.109
				C52.201,64.791,52.225,64.645,52.201,64.618z M53.367,64.395c0,0,0.061,0.036,0.011,0.076c-0.036,0.034-0.211,0.099-0.362,0.109
				c-0.149,0-0.285,0.022-0.285-0.026s0.125-0.149,0.2-0.174c0.031-0.038,0.078-0.06,0.125-0.06c0.06,0,0.295-0.027,0.361-0.036
				c0.06-0.009,0.111,0.023,0.075,0.073C53.478,64.395,53.367,64.395,53.367,64.395z M53.714,62.849c0,0-0.077,0.16-0.161,0.16
				c-0.085-0.011-0.085-0.034-0.085-0.061c0-0.035,0.085-0.126,0.075-0.149c-0.024,0-0.086,0-0.075-0.061
				c0-0.051,0.085-0.111,0.16-0.1c0.058-0.047,0.125-0.073,0.199-0.074c0.087,0,0.161,0.023,0.161,0.074
				c0,0.049-0.1,0.16-0.133,0.187C53.813,62.864,53.763,62.891,53.714,62.849L53.714,62.849z M52.57,65.807
				c0,0-0.099,0.013-0.099,0.063c0,0.023,0.025,0.023,0.061,0.009c0.021-0.001,0.039-0.003,0.06-0.009
				c0.01,0.009,0.01,0.058,0.086,0.058c0.061-0.006,0.121-0.028,0.175-0.058c0.059-0.026,0.11-0.05,0.11-0.099
				c-0.024-0.087-0.075-0.127-0.151-0.127c-0.036-0.004-0.075,0.008-0.108,0.022c0,0-0.025-0.048-0.111,0
				c-0.084,0.053-0.074,0.053-0.05,0.076C52.586,65.784,52.571,65.808,52.57,65.807L52.57,65.807z M52.005,66.329
				c0-0.025,0.125-0.076,0.159-0.061c0.036,0.011,0.136,0.202,0.136,0.22c0,0.027-0.125,0.085-0.175,0.085s-0.135-0.085-0.135-0.099
				c0-0.01,0.06-0.023,0.06-0.035C52.065,66.414,52.005,66.354,52.005,66.329L52.005,66.329z M51.609,65.599
				c0.024-0.012,0.024-0.036,0.059-0.061c0.022-0.016,0.05-0.02,0.076-0.011c0.019-0.033,0.05-0.054,0.086-0.062
				c0.06-0.009,0.11,0,0.099,0.024c0,0.077,0.05,0.126,0.05,0.186c0,0.063-0.035,0.136-0.161,0.188
				c-0.123,0.032-0.293,0.032-0.319,0.025c-0.025-0.012-0.049-0.11-0.025-0.161C51.498,65.676,51.569,65.624,51.609,65.599
				L51.609,65.599L51.609,65.599z"/>
			<path fill="#6E6342" d="M51.768,65.631c0,0-0.085,0.053-0.085,0.075c-0.008,0.025-0.011,0.049-0.01,0.077
				c0,0.014,0.11-0.012,0.126-0.028C51.803,65.746,51.768,65.657,51.768,65.631z"/>
			<path fill="#585136" d="M51.023,65.396c0.051,0.012,0.136,0,0.201,0.025c0.05,0.024,0.085,0.076,0.035,0.135
				c-0.051,0.061-0.1,0.15-0.212,0.135c-0.124-0.007-0.244-0.074-0.244-0.124c-0.004-0.064,0.019-0.127,0.061-0.175
				C50.913,65.351,50.938,65.375,51.023,65.396L51.023,65.396L51.023,65.396z"/>
			<path fill="#574F35" d="M50.964,65.445c0,0-0.161,0.126-0.2,0.186c-0.051,0.06-0.297,0.371-0.371,0.438
				c0.024-0.045,0.054-0.089,0.085-0.126c-0.1,0.063-0.173,0.158-0.211,0.271c-0.059,0.186,0.337,0.283,0.597,0.359
				c0.261,0.077,0.361,0.098,0.361,0.098c-0.096-0.145-0.178-0.294-0.245-0.453c-0.099-0.238-0.152-0.261-0.087-0.372
				c0.051-0.11,0.126-0.186,0.126-0.27C50.989,65.497,50.964,65.445,50.964,65.445z"/>
			<path fill="#252211" d="M45.254,65.843c0.035,0.005,0.073,0.005,0.11,0c0.075-0.011,0.856-0.3,1.672-0.247
				c0.612,0.037,1.218,0.138,1.809,0.299c1.025,0.271,2.303,0.806,3.13,1.111c0.219,0.084,0.436,0.235,0.593,0.296
				c0.63,0.243,0.655,0.243,1.027,0.311c0.436,0.061,0.882-0.086,1.347-0.187c0.57-0.124,1.548-0.185,2.404-0.311
				c0.276-0.036,0.55-0.102,0.815-0.186c0,0-0.681,0.683-2.313,0.927c-0.661,0.1-1.331,0.109-1.995,0.024
				c-0.52-0.049-0.866-0.125-1.125-0.199c-0.295-0.085-0.901-0.313-1.648-0.496c-0.522-0.135-1.102-0.236-1.767-0.36
				C47.671,66.524,45.889,66.179,45.254,65.843L45.254,65.843z"/>
			<line fill="none" x1="44.403" y1="59.493" x2="40.231" y2="55.594"/>
			<path fill="#CFB66C" d="M43.412,62.746c-0.398,0.335-0.818,0.658-1.227,0.968l-1.237,0.949c-0.421,0.31-0.833,0.632-1.253,0.941
				c-0.421,0.313-0.842,0.609-1.288,0.893c0.396-0.336,0.816-0.647,1.236-0.951c0.42-0.306,0.856-0.606,1.263-0.916l1.236-0.953
				C42.569,63.368,42.979,63.05,43.412,62.746L43.412,62.746z M41.222,66.253c0,0,0.446-0.371,1.002-0.893
				c0.69-0.646,1.537-1.472,1.807-1.62L41.222,66.253L41.222,66.253z"/>
			<path fill="#CFB66C" d="M41.222,66.253c0.222-0.222,0.456-0.437,0.691-0.648l0.362-0.31c0.11-0.098,0.235-0.212,0.345-0.319
				c0.219-0.22,0.436-0.456,0.655-0.683c0.11-0.11,0.225-0.219,0.346-0.32c0.06-0.053,0.128-0.098,0.2-0.134
				c0.06-0.034,0.126-0.099,0.21-0.112c-0.049,0.078-0.109,0.112-0.16,0.178c-0.061,0.049-0.111,0.108-0.161,0.157
				c-0.109,0.112-0.235,0.214-0.345,0.313c-0.235,0.199-0.48,0.397-0.716,0.605c-0.236,0.209-0.457,0.436-0.691,0.646
				C41.705,65.843,41.468,66.052,41.222,66.253L41.222,66.253z M44.217,64.247c0,0-1.633,1.599-1.969,1.861L44.217,64.247z"/>
			<path fill="#CFB66C" d="M44.217,64.247c-0.146,0.174-0.304,0.333-0.471,0.481L43.251,65.2c-0.161,0.16-0.312,0.32-0.48,0.483
				c-0.177,0.148-0.336,0.295-0.522,0.434l0.483-0.473c0.159-0.159,0.334-0.294,0.504-0.452l0.48-0.473
				C43.881,64.554,44.042,64.395,44.217,64.247z M44.292,65.116c-0.148,0.418-0.326,0.829-0.531,1.226
				c-0.42,0.844-1.05,1.894-1.327,2.432L44.292,65.116z"/>
			<path fill="#CFB66C" d="M44.292,65.116c0,0.183-0.049,0.345-0.109,0.508c-0.059,0.159-0.126,0.316-0.2,0.469
				c-0.075,0.15-0.161,0.311-0.246,0.456c-0.085,0.146-0.186,0.294-0.261,0.444l-0.506,0.892c-0.176,0.298-0.345,0.597-0.532,0.882
				c0.126-0.319,0.295-0.62,0.457-0.915c0.177-0.299,0.335-0.597,0.497-0.903c0.076-0.151,0.147-0.31,0.208-0.472
				c0.076-0.16,0.153-0.308,0.211-0.454c0.075-0.162,0.135-0.313,0.21-0.455C44.106,65.409,44.177,65.262,44.292,65.116
				L44.292,65.116z"/>
			<path fill="#DEC270" d="M46.075,69.223c0,0-0.496,0.652-0.446,1.486C45.765,70.274,45.935,69.609,46.075,69.223z M46.546,69.882
				c0,0-0.175,1.778-0.32,2.658C46.432,71.527,46.471,71.611,46.546,69.882z M49.826,72.645c0,0-0.74,2.181-0.755,2.783
				C49.229,74.805,49.541,73.534,49.826,72.645L49.826,72.645z"/>
			<path fill="#CBAF59" d="M51.559,69.089c0,0,1.202,1.98,2.104,3.675C53.419,71.912,52.858,70.349,51.559,69.089z"/>
			<path fill="#E3C677" d="M54.79,72.007c0.658,1.168,1.255,2.371,1.783,3.602C56.472,74.756,56.202,73.299,54.79,72.007z"/>
			<path fill="#ECD592" d="M64.284,74.929c0.201-0.124,0.597-0.805,0.943-0.972c0.346-0.179,0.604-0.212,0.914-0.559
				c0.313-0.36,0.397-0.581,1.078-0.868c0.952-0.407,0.297-0.939,0.297-0.939c0.104-0.104,0.215-0.199,0.337-0.286
				c0.244-0.185,0.53-0.408,0.505-0.808c-0.036-0.666-0.161-1.629-0.706-2.191c0.532-0.11,1.55-0.185,2.18-0.346
				c0.73-0.185,1.067-0.445,1.067-0.445s-0.422-0.717,0.259-1.438c0.68-0.721,1.237-1.152,1.648-1.959
				c-0.473-0.058-1.189-0.31-3.021,0.388c0.1,0.045,0.196,0.098,0.286,0.158c0,0-1.127,0.31-1.536,0.656
				c-0.719,0.606-0.808,1.103-1.584,1.474c-0.776,0.368-1.559,0.27-2.202,0.571c-0.648,0.301-0.743,0.556-0.979,0.664
				c0.051,0.062-0.009,0.162,0.085,0.246c-0.06,0.085-0.409,0.658-0.764,0.658c0.032,0.135,0.332,0.234,0.332,0.234
				s-0.218,0.159-0.779,0.199c0.286,0.297,0.558,0.621,1.301,1.095c-0.06,0.123-0.31,0.308-0.208,0.543
				c0.108,0.239,0.396,0.557,1.535,0.818c-0.581,0.021-1.262,0.159-2.179,0.034c-0.917-0.11-1.066-0.176-1.632-0.034
				c0.061,0.058,0.22,0.058,0.36,0.22c-0.149,0.009-1.09-0.113-1.412,0.311c-0.334,0.436-0.48,1.149-0.454,1.633
				c-0.176,0.085-0.346,0.234-0.261,0.544c0.084,0.313,0.529,0.411,0.815,0.606c0.285,0.212,0.312,0.286,0.582,0.235
				c0.285-0.058,0.706-0.346,0.952-0.346c0.246,0,0.42,0.185,0.42,0.185s0.668-0.318,0.731-0.261
				c0.061,0.063,0.011,0.447,0.075,0.508c0.065,0.046,0.814-0.398,1.016-0.528H64.284z"/>
			<path fill="#FFFFFF" fill-opacity="0.8" d="M78.845,54.889c-3.133-8.083-10.868-9.581-10.868-9.581H45.9l0.085,8.233h4.396
				v18.383H45.9v8.221h21.466c5.173,0,9.317-5.2,9.317-5.2c6.645-9.425,2.159-20.056,2.159-20.056H78.845z M67.48,69.406
				c0,0-1.684,2.43-3.517,2.43h-3.665l-0.085-18.274h4.702c0,0,2.179,0.456,3.703,4.767C68.619,58.328,70.633,64.503,67.48,69.406z"
				/>
		</g>
	</g>
</g>
</svg>
