<?xml version="1.0" encoding="utf-8"?>
<!-- Generator: Adobe Illustrator 16.0.0, SVG Export Plug-In . SVG Version: 6.00 Build 0)  -->
<!DOCTYPE svg PUBLIC "-//W3C//DTD SVG 1.1//EN" "http://www.w3.org/Graphics/SVG/1.1/DTD/svg11.dtd">
<svg version="1.1" id="Layer_1" xmlns="http://www.w3.org/2000/svg" xmlns:xlink="http://www.w3.org/1999/xlink" x="0px" y="0px"
	 width="124px" height="124px" viewBox="0 0 124 124" enable-background="new 0 0 124 124" xml:space="preserve">
<g>
	<g>
		<g>
			<g>
				<defs>
					<circle id="SVGID_1_" cx="62.834" cy="62.5" r="60"/>
				</defs>
				<clipPath id="SVGID_2_">
					<use xlink:href="#SVGID_1_"  overflow="visible"/>
				</clipPath>
				<g clip-path="url(#SVGID_2_)">
					<path fill="#FFFFFF" d="M1,1h124v124H1V1z"/>
					<path d="M1,1h124v37.2H1V1z"/>
					<path fill="#006600" d="M1,87.8h124V125H1V87.8z"/>
					<g id="b" transform="matrix(3.2 0 0 3.2 255.8 256)">
						<g>
							<path id="a" stroke="#000000" stroke-miterlimit="10" d="M-67.192-48.809l0.436,0.242l11.31-19.617
								c0.654-0.145,1.017-0.775,1.38-1.405c0.242-0.436,1.211-2.107,1.623-4.287c-1.149,1.021-2.123,2.224-2.882,3.56
								c-0.363,0.63-0.727,1.259-0.557,1.913L-67.192-48.809z"/>
						</g>
						<g>
							<path id="a_1_" fill="#FFFFFF" d="M-67.192-48.809l0.436,0.242l11.31-19.617c0.654-0.145,1.017-0.775,1.38-1.405
								c0.242-0.436,1.211-2.107,1.623-4.287c-1.149,1.021-2.123,2.224-2.882,3.56c-0.363,0.63-0.727,1.259-0.557,1.913
								L-67.192-48.809z"/>
						</g>
					</g>
					<g>
						<g>
							<path id="a_2_" fill="#FFFFFF" stroke="#000000" stroke-miterlimit="10" d="M85.141,99.811l-1.395,0.775L47.554,37.811
								c-2.093-0.464-3.254-2.48-4.416-4.496c-0.774-1.396-3.875-6.743-5.194-13.719c3.677,3.268,6.794,7.117,9.223,11.392
								c1.162,2.016,2.323,4.029,1.782,6.122L85.141,99.811z"/>
						</g>
						<path fill="#BB0000" d="M62.951,25.8c-4.649,0-12.399,12.4-14.725,18.6H1v37.2h47.227c2.349,6.2,10.099,18.603,14.75,18.603
							c4.649,0,12.399-12.4,14.727-18.603H125V44.4H77.677C75.352,38.2,67.602,25.8,62.951,25.8z"/>
						<path id="c" d="M77.677,81.6c2.396-5.918,3.708-12.218,3.875-18.6c-0.167-6.382-1.479-12.682-3.875-18.6
							c-2.396,5.918-3.708,12.218-3.875,18.6C73.969,69.382,75.281,75.682,77.677,81.6"/>
					</g>
				</g>
			</g>
		</g>
	</g>
</g>
<g>
	<path fill-rule="evenodd" clip-rule="evenodd" d="M44.141,59.315c0.619-1.635,0.585-3.393,0.955-5.078
		c0.707-3.226,1.556-6.401,2.879-9.539c4.753,11.344,5.508,23.456,0.143,36.956c-0.482-0.198-0.476-0.687-0.621-1.064
		c-1.593-4.156-2.569-8.463-3.106-12.875c-0.03-0.248,0.12-0.582-0.25-0.72C44.141,64.436,44.141,61.875,44.141,59.315z"/>
	<path fill-rule="evenodd" clip-rule="evenodd" fill="#FFFFFF" d="M66.701,43.475c0,0.88,0,1.76,0,2.64
		c-0.271,0.051-0.23,0.271-0.246,0.459c-0.344,3.985-1.203,7.854-2.617,11.598c-0.607-0.056-0.336-0.539-0.337-0.81
		c-0.018-9.943-0.018-19.887-0.003-29.831c0.001-0.288-0.238-0.741,0.32-0.85c1.043,2.869,1.846,5.798,2.313,8.821
		c0.188,1.217,0.095,2.48,0.57,3.652c0,0.8,0,1.6,0,2.4C66.336,42.195,66.336,42.835,66.701,43.475z"/>
	<path fill-rule="evenodd" clip-rule="evenodd" fill="#FFFFFF" d="M66.701,84.995c0,0.88,0,1.76,0,2.64
		c-0.508,0.758-0.336,1.648-0.461,2.475c-0.513,3.422-1.16,6.802-2.676,9.951c-0.023-0.158-0.065-0.316-0.066-0.475
		c-0.006-10.252-0.01-20.504-0.004-30.756c0-0.232-0.145-0.602,0.32-0.62c1.043,2.868,1.838,5.798,2.317,8.816
		c0.193,1.216,0.065,2.482,0.569,3.649c0,0.799,0,1.6,0,2.399C66.337,83.715,66.337,84.355,66.701,84.995z"/>
	<path fill-rule="evenodd" clip-rule="evenodd" fill="#444444" d="M66.701,43.475c-0.365-0.64-0.365-1.28,0-1.92
		C66.701,42.195,66.701,42.835,66.701,43.475z"/>
	<path fill-rule="evenodd" clip-rule="evenodd" fill="#444444" d="M66.701,84.995c-0.364-0.64-0.364-1.28,0-1.92
		C66.701,83.715,66.701,84.355,66.701,84.995z"/>
	<path fill-rule="evenodd" clip-rule="evenodd" fill="#FFFFFF" d="M61.648,68.158c0.55,0.217,0.264,0.688,0.264,1.022
		c0.018,9.896,0.018,19.79,0,29.687c0,0.34,0.271,0.804-0.26,1.031c-3.085-8.219-3.578-16.635-1.92-25.215
		C60.165,72.447,60.867,70.291,61.648,68.158z"/>
	<path fill-rule="evenodd" clip-rule="evenodd" fill="#FFFFFF" d="M61.647,26.626c0.504,0.172,0.267,0.6,0.268,0.898
		c0.015,9.972,0.015,19.943,0.001,29.915c-0.001,0.308,0.214,0.725-0.256,0.921c-2.509-6.574-3.271-13.374-2.644-20.356
		C59.367,34.089,60.244,30.298,61.647,26.626z"/>
	<path fill-rule="evenodd" clip-rule="evenodd" fill="#FFFFFF" d="M63.825,58.799c2.749,2.307,2.743,6.671-0.012,8.896
		c-0.708,0.309-1.435,0.227-2.162,0.096c-2.028-1.957-2.626-4.535-1.628-6.995c0.354-0.868,0.929-1.549,1.703-2.07
		C62.434,58.538,63.137,58.469,63.825,58.799z"/>
</g>
</svg>
