<?xml version="1.0" encoding="utf-8"?>
<!-- Generator: Adobe Illustrator 16.0.0, SVG Export Plug-In . SVG Version: 6.00 Build 0)  -->
<!DOCTYPE svg PUBLIC "-//W3C//DTD SVG 1.1//EN" "http://www.w3.org/Graphics/SVG/1.1/DTD/svg11.dtd">
<svg version="1.1" id="Layer_1" xmlns="http://www.w3.org/2000/svg" xmlns:xlink="http://www.w3.org/1999/xlink" x="0px" y="0px"
	 width="35px" height="35px" viewBox="0 0 35 35" enable-background="new 0 0 35 35" xml:space="preserve">
<g>
	<circle fill="#9346E9" cx="17.366" cy="17.333" r="16.333"/>
</g>
<path fill-rule="evenodd" clip-rule="evenodd" fill="#FFFFFF" d="M10.748,18.095c1.029,0.872,1.981,0.732,3.105,0.027
	c2.49-1.56,5.069-2.978,7.604-4.468c0.639-0.375,1.22-0.376,1.862,0.011c1.451,0.874,2.92,1.721,4.401,2.542
	c0.633,0.351,0.888,0.85,0.883,1.543c-0.01,1.681-0.014,3.361-0.009,5.042c0.003,0.694-0.261,1.196-0.885,1.545
	c-1.435,0.804-2.856,1.631-4.273,2.467c-0.696,0.411-1.348,0.426-2.056,0.002c-1.426-0.854-2.87-1.676-4.32-2.487
	c-0.569-0.317-0.859-0.758-0.823-1.409c0.004-0.067-0.002-0.134,0.001-0.2c0.025-0.528-0.234-1.214,0.088-1.55
	c0.5-0.519,1.239-0.811,1.884-1.187c0.253-0.146,0.224,0.072,0.225,0.214c0.005,0.498,0.016,0.998,0.001,1.497
	c-0.018,0.579,0.256,0.992,0.727,1.274c0.797,0.479,1.608,0.934,2.416,1.395c0.532,0.304,1.051,0.325,1.594-0.015
	c0.789-0.492,1.599-0.95,2.401-1.421c0.522-0.306,0.759-0.762,0.754-1.363c-0.01-0.866-0.011-1.731-0.006-2.597
	c0.004-0.681-0.289-1.168-0.888-1.496c-0.728-0.4-1.449-0.813-2.159-1.244c-0.599-0.363-1.161-0.378-1.775-0.019
	c-2.739,1.601-5.495,3.174-8.23,4.781c-0.673,0.395-1.273,0.414-1.952,0.007c-1.439-0.861-2.902-1.684-4.363-2.508
	c-0.578-0.326-0.841-0.769-0.826-1.457c0.035-1.747,0.028-3.496-0.001-5.243c-0.011-0.647,0.25-1.07,0.79-1.377
	c1.515-0.863,3.029-1.73,4.537-2.606c0.573-0.333,1.116-0.332,1.69,0.01c1.456,0.867,2.92,1.72,4.39,2.564
	c0.575,0.33,0.899,0.773,0.819,1.458c-0.01,0.083-0.02,0.17-0.002,0.249c0.272,1.21-0.271,1.929-1.373,2.337
	c-0.256,0.095-0.487,0.26-0.815,0.44c0-0.652-0.024-1.228,0.006-1.802c0.032-0.607-0.245-1.029-0.731-1.319
	c-0.856-0.51-1.722-1.005-2.597-1.481c-0.345-0.188-0.727-0.199-1.095-0.018c-0.37,0.139-0.708,0.332-1.016,0.58
	c0,0-0.002-0.006-0.002-0.005c-0.596,0.328-1.205,0.634-1.783,0.99c-0.436,0.269-0.643,0.681-0.628,1.221
	c0.025,0.914,0.03,1.831,0,2.745c-0.021,0.645,0.259,1.079,0.789,1.387C9.651,17.471,10.2,17.782,10.748,18.095z"/>
</svg>
