<?xml version="1.0" encoding="utf-8"?>
<!-- Generator: Adobe Illustrator 16.0.0, SVG Export Plug-In . SVG Version: 6.00 Build 0)  -->
<!DOCTYPE svg PUBLIC "-//W3C//DTD SVG 1.1//EN" "http://www.w3.org/Graphics/SVG/1.1/DTD/svg11.dtd">
<svg version="1.1" id="Layer_1" xmlns="http://www.w3.org/2000/svg" xmlns:xlink="http://www.w3.org/1999/xlink" x="0px" y="0px"
	 width="64px" height="64px" viewBox="30 30 64 64" enable-background="new 30 30 64 64" xml:space="preserve">
<g id="Group_938" transform="translate(-953.348 -232.003)">
	<g id="Group_931">
		<path id="Path_8573" fill="#F00500" d="M1029.003,268.683c-1.591,1.588-3.047,3.311-4.341,5.148l-0.409-0.134
			c-2.36-0.771-4.807-1.246-7.271-1.407c-0.742-0.058-3.51-0.058-4.415,0c-2.73,0.179-4.825,0.59-7.203,1.416
			c-0.096,0.038-0.18,0.067-0.266,0.096c-1.342-1.828-2.834-3.541-4.481-5.11c7.897-4.044,17.138-4.529,25.407-1.341
			c0.886,0.333,1.751,0.723,2.597,1.141L1029.003,268.683z"/>
		<path id="Path_8574" fill="#F00500" d="M1043.731,304.774c-1.199,3.417-2.998,6.586-5.33,9.346
			c-1.262,1.484-2.663,2.847-4.168,4.081c-3.519,2.837-7.631,4.863-12.016,5.93c-4.853,1.171-9.917,1.171-14.77,0
			c-4.396-1.066-8.499-3.093-12.018-5.93c-1.503-1.234-2.903-2.597-4.169-4.081c-6.708-7.929-8.746-18.813-5.328-28.623
			c0.647-1.818,1.457-3.57,2.426-5.234c0.448-0.761,1-1.617,1.266-1.97c0.915,3.93,2.036,7.385,2.455,8.632
			c-0.028,0.065-0.066,0.141-0.105,0.208c-2.217,4.491-3.417,8.822-3.701,13.427c0,0.057-0.009,0.126-0.009,0.182
			c-0.077,1.379-0.039,2.036,0.189,2.902c0.715,2.709,2.913,5.701,6.357,8.631c5.643,4.795,13.292,8.259,19.089,8.66
			c6.043,0.408,14.958-3.124,20.896-8.279c0.934-0.829,1.808-1.701,2.626-2.636c0.59-0.687,1.467-1.867,1.399-1.867
			c-0.019,0,0-0.02,0.038-0.036c0.029-0.019,0.059-0.049,0.038-0.068c-0.009-0.008,0.009-0.038,0.035-0.044
			c0.03-0.013,0.05-0.032,0.039-0.05c-0.009-0.02,0-0.039,0.04-0.048c0.027-0.009,0.039-0.037,0.027-0.057
			c-0.009-0.02,0-0.04,0.02-0.04s0.038-0.029,0.038-0.047s0.021-0.047,0.04-0.047c0.018,0,0.037-0.019,0.037-0.039
			c0.026-0.075,0.076-0.15,0.124-0.218c0.142-0.22,0.711-1.237,0.788-1.408c0.542-1.228,0.885-2.322,1.048-3.418
			c0.076-0.521,0.124-1.483,0.085-1.713c-0.009-0.037-0.009-0.104-0.019-0.208c-0.021-0.189-0.028-0.474-0.049-0.763
			c-0.018-0.428-0.056-1.026-0.085-1.319c-0.406-4.322-1.513-7.851-3.607-11.591c-0.085-0.143-0.161-0.286-0.21-0.4
			c-0.017-0.029-0.025-0.058-0.037-0.076l0,0c0.298-0.885,1.504-4.587,2.469-8.821l0.017,0.02l0.142,0.189
			c0.247,0.333,0.906,1.324,1.2,1.798c1.342,2.189,2.388,4.54,3.129,6.994C1045.893,292.652,1045.749,298.952,1043.731,304.774z"/>
		<path id="Path_8575" d="M1031.378,293.405c-0.028,0.151-0.475,0.607-0.922,0.941c-1.313,0.962-3.663,1.855-6.051,2.283
			c-1.362,0.25-2.721,0.287-3.132,0.088c-0.265-0.134-0.304-0.238-0.208-0.582c0.198-0.715,0.845-1.494,1.855-2.227
			c0.513-0.371,2.599-1.637,3.567-2.169c1.6-0.876,2.893-1.398,3.771-1.523c0.273-0.039,0.605-0.047,0.711,0
			c0.174,0.067,0.362,0.572,0.439,1.181C1031.448,291.72,1031.427,293.147,1031.378,293.405z"/>
		<path id="Path_8576" d="M1008.961,296.555c-0.058,0.113-0.342,0.236-0.665,0.285c-0.325,0.048-1.314,0.018-1.876-0.049
			c-2.016-0.266-4.156-0.883-5.718-1.645c-0.875-0.43-1.503-0.857-1.97-1.323l-0.266-0.276l-0.029-0.361
			c-0.046-0.627-0.038-1.619,0.039-1.971c0.049-0.295,0.152-0.579,0.295-0.836c0.076-0.096,0.076-0.096,0.418-0.096
			c0.419,0,0.772,0.066,1.342,0.248c1.171,0.362,2.913,1.238,5.035,2.512c1.748,1.047,2.406,1.563,2.911,2.266
			C1008.818,295.744,1009.048,296.361,1008.961,296.555z"/>
		<path id="Path_8577" d="M1022.435,309.801c0,0.028-0.115,0.485-0.257,1.026c-0.142,0.542-0.257,0.98-0.257,0.999
			c-0.105,0.012-0.199,0.02-0.306,0.012h-0.302l-0.422,0.986c-0.227,0.545-0.436,1.051-0.463,1.124l-0.058,0.132l-0.202-0.322
			l-0.198-0.324v-2.633l-0.078,0.019c-0.159,0.037-1.313,0.189-1.816,0.238c-2.084,0.205-4.177,0.161-6.251-0.134
			c-0.333-0.048-0.619-0.087-0.629-0.078c-0.011,0.011,0,0.621,0.019,1.371l0.029,1.35l-0.161,0.248
			c-0.085,0.134-0.171,0.248-0.171,0.258c-0.029,0.026-0.126-0.124-0.344-0.563c-0.237-0.456-0.41-0.94-0.533-1.447l-0.065-0.273
			l-0.294,0.019l-0.295,0.03l-0.076-0.355c-0.039-0.188-0.086-0.484-0.105-0.646l-0.029-0.304l-0.248-0.22
			c-0.143-0.124-0.286-0.248-0.313-0.267c-0.048-0.04-0.067-0.104-0.067-0.161v-0.113l1.189,0.009l1.188,0.009l0.039,0.123
			l0.039,0.126l0.409,0.018c0.228,0.009,0.951,0.026,1.598,0.048l1.189,0.028l0.307-0.477l0.312-0.476h0.4l-0.01-0.989l-0.009-0.987
			l-0.525-0.231c-1.683-0.74-2.672-1.587-3.044-2.615c-0.075-0.209-0.075-0.286-0.094-1.24c-0.009-0.94-0.009-1.025,0.057-1.235
			c0.133-0.473,0.505-0.844,0.979-0.971c0.162-0.047,0.59-0.047,2.837-0.047l2.644,0.01l0.295,0.144
			c0.353,0.168,0.513,0.294,0.717,0.559c0.224,0.306,0.294,0.544,0.294,1.126c0,0.827-0.058,1.54-0.146,1.825
			c-0.122,0.391-0.313,0.761-0.551,1.096c-0.476,0.609-1.342,1.216-2.133,1.494l-0.227,0.087l0.009,0.997l0.011,0.998l0.207,0.02
			l0.211,0.021l0.284,0.429l0.275,0.428h1.277c0.704,0,1.32,0.009,1.379,0.018c0.096,0.02,0.113,0.011,0.21-0.15l0.113-0.173h1.095
			C1022.185,309.753,1022.435,309.773,1022.435,309.801z"/>
		<path id="Path_8578" d="M1017.41,312.531c-0.179,0.105-0.303,0.151-0.331,0.132c-0.03-0.008-0.163-0.123-0.305-0.229l-0.258-0.206
			l-0.267,0.285c-0.58,0.626-0.6,0.656-0.77,0.665c-0.267,0.029-0.324-0.021-0.648-0.503c-0.172-0.247-0.304-0.458-0.304-0.458
			s-0.124-0.02-0.267-0.026l-0.267-0.03l-0.123,0.255l-0.125,0.26l-0.218-0.068c-0.172-0.058-0.342-0.122-0.506-0.199l-0.285-0.141
			v-0.545l2.532,0.011l2.53,0.009l0.011,0.258C1017.82,312.304,1017.83,312.293,1017.41,312.531z"/>
	</g>
	<path id="Path_8579" fill="#FFFFFF" d="M1041.201,300.92c-0.011-0.037-0.011-0.104-0.021-0.208
		c-2.282-0.244-8.801-0.397-14.854,4.596c0,0-1.951-8.946-11.085-8.946c-9.135,0-12.522,8.946-12.522,8.946
		c-5.12-5.508-11.972-5.107-14.445-4.748c0,0.057-0.009,0.126-0.009,0.182c-0.077,1.379-0.039,2.036,0.189,2.902
		c0.715,2.709,2.913,5.701,6.357,8.631c5.643,4.795,13.292,8.259,19.089,8.66c6.043,0.408,14.958-3.124,20.896-8.279
		c0.934-0.829,1.808-1.701,2.626-2.636c0.59-0.687,1.467-1.867,1.399-1.867c-0.019,0,0-0.02,0.038-0.036
		c0.029-0.019,0.059-0.049,0.038-0.068c-0.009-0.008,0.009-0.038,0.035-0.044c0.03-0.013,0.05-0.032,0.039-0.05
		c-0.009-0.02,0-0.039,0.04-0.048c0.027-0.009,0.039-0.037,0.027-0.057c-0.009-0.02,0-0.04,0.02-0.04s0.038-0.029,0.038-0.047
		s0.021-0.047,0.04-0.047c0.018,0,0.037-0.019,0.037-0.039c0.026-0.075,0.076-0.15,0.124-0.218c0.142-0.22,0.711-1.237,0.788-1.408
		c0.542-1.228,0.885-2.322,1.048-3.418C1041.19,302.111,1041.239,301.149,1041.201,300.92z M1017.41,312.531
		c-0.179,0.105-0.303,0.151-0.331,0.132c-0.03-0.008-0.163-0.123-0.305-0.229l-0.258-0.206l-0.267,0.285
		c-0.58,0.626-0.6,0.656-0.77,0.665c-0.267,0.029-0.324-0.021-0.648-0.503c-0.172-0.247-0.304-0.458-0.304-0.458
		s-0.124-0.02-0.267-0.026l-0.267-0.03l-0.123,0.255l-0.125,0.26l-0.218-0.068c-0.172-0.058-0.342-0.122-0.506-0.199l-0.285-0.141
		v-0.545l2.532,0.011l2.53,0.009l0.011,0.258C1017.82,312.304,1017.83,312.293,1017.41,312.531z M1022.167,310.819
		c-0.143,0.541-0.257,0.979-0.257,0.997c-0.104,0.01-0.197,0.021-0.302,0.01h-0.308l-0.409,0.998
		c-0.227,0.545-0.436,1.051-0.463,1.124l-0.058,0.132l-0.202-0.322l-0.198-0.324v-2.633l-0.078,0.019
		c-0.159,0.037-1.313,0.189-1.816,0.238c-2.084,0.205-4.177,0.161-6.251-0.134c-0.333-0.048-0.619-0.087-0.629-0.078
		c-0.011,0.011,0,0.621,0.019,1.371l0.029,1.35l-0.161,0.248c-0.085,0.134-0.171,0.248-0.171,0.258
		c-0.029,0.026-0.126-0.124-0.344-0.563c-0.237-0.456-0.41-0.94-0.533-1.447l-0.065-0.273l-0.294,0.019l-0.295,0.03l-0.076-0.355
		c-0.039-0.188-0.086-0.484-0.105-0.646l-0.029-0.304l-0.248-0.22c-0.143-0.124-0.286-0.248-0.313-0.267
		c-0.048-0.04-0.067-0.104-0.067-0.161v-0.113l1.189,0.009l1.188,0.009l0.039,0.123l0.039,0.126l0.409,0.018
		c0.228,0.009,0.951,0.026,1.598,0.048l1.189,0.028l0.307-0.477l0.312-0.476h0.4l-0.01-0.989l-0.009-0.987l-0.525-0.231
		c-1.683-0.74-2.672-1.587-3.044-2.615c-0.075-0.209-0.075-0.286-0.094-1.24c-0.009-0.94-0.009-1.025,0.057-1.235
		c0.133-0.473,0.505-0.844,0.979-0.971c0.162-0.047,0.59-0.047,2.837-0.047l2.644,0.01l0.295,0.144
		c0.353,0.168,0.513,0.294,0.717,0.559c0.224,0.306,0.294,0.544,0.294,1.126c0,0.827-0.058,1.54-0.146,1.825
		c-0.122,0.391-0.313,0.761-0.551,1.096c-0.476,0.609-1.342,1.216-2.133,1.494l-0.227,0.087l0.009,0.997l0.011,0.998l0.207,0.02
		l0.211,0.021l0.284,0.429l0.275,0.428h1.277c0.704,0,1.32,0.009,1.379,0.018c0.096,0.02,0.113,0.011,0.21-0.15l0.113-0.173h1.095
		c0.848,0,1.095,0.011,1.095,0.039C1022.435,309.818,1022.311,310.286,1022.167,310.819z"/>
	<path id="Path_8580" fill="none" d="M988.254,300.56c-0.598,0.087-0.951,0.182-0.951,0.182"/>
	<path id="Path_8581" fill="none" d="M1042.029,300.834c0,0-0.305-0.063-0.849-0.122"/>
	<path id="Path_8582" fill="#FFA409" d="M1041.124,299.949c-0.021-0.428-0.058-1.026-0.085-1.319
		c-0.411-4.322-1.514-7.851-3.607-11.591c-0.087-0.143-0.163-0.286-0.208-0.4c-0.021-0.029-0.029-0.058-0.04-0.076l0,0
		c0.296-0.885,1.504-4.587,2.467-8.821c1.305-5.748,2.129-12.464-0.4-14.484c0,0-4.376-0.323-10.24,5.425
		c-1.589,1.588-3.045,3.311-4.339,5.148l-0.407-0.134c-2.362-0.771-4.807-1.246-7.271-1.407c-0.743-0.058-3.512-0.058-4.417,0
		c-2.731,0.179-4.824,0.59-7.203,1.416c-0.096,0.038-0.181,0.067-0.266,0.096c-1.341-1.828-2.835-3.541-4.483-5.11
		c-6.099-5.777-10.638-5.443-10.638-5.443c-2.684,2.084-1.771,9.107-0.381,15.045c0.913,3.93,2.037,7.385,2.455,8.632
		c-0.028,0.065-0.067,0.141-0.104,0.208c-2.218,4.491-3.416,8.822-3.702,13.427c2.484-0.359,9.326-0.771,14.456,4.748
		c0,0,3.388-8.946,12.522-8.946c9.137,0,11.088,8.946,11.088,8.946c6.049-4.993,12.569-4.833,14.853-4.596
		C1041.161,300.523,1041.143,300.238,1041.124,299.949z M993.859,283.336c0,0-3.559-8.897-2.645-13.979l0,0
		c0.152-0.857,0.437-1.609,0.884-2.18c0,0,4.034,0.4,10.544,7.632c0,0-1.239,0.601-2.894,1.875c0,0-0.01,0.009-0.019,0.009
		C997.931,278.074,995.63,280.263,993.859,283.336L993.859,283.336z M1008.961,296.555c-0.058,0.113-0.342,0.236-0.665,0.285
		c-0.325,0.048-1.314,0.018-1.876-0.049c-2.016-0.266-4.156-0.883-5.718-1.645c-0.875-0.43-1.503-0.857-1.97-1.323l-0.266-0.276
		l-0.029-0.361c-0.046-0.627-0.038-1.619,0.039-1.971c0.049-0.295,0.152-0.579,0.295-0.836c0.076-0.096,0.076-0.096,0.418-0.096
		c0.419,0,0.772,0.066,1.342,0.248c1.171,0.362,2.913,1.238,5.035,2.512c1.748,1.047,2.406,1.563,2.911,2.266
		C1008.818,295.744,1009.048,296.361,1008.961,296.555z M1031.378,293.405c-0.028,0.151-0.475,0.607-0.922,0.941
		c-1.313,0.962-3.663,1.855-6.051,2.283c-1.362,0.25-2.721,0.287-3.132,0.088c-0.265-0.134-0.304-0.238-0.208-0.582
		c0.198-0.715,0.845-1.494,1.855-2.227c0.513-0.371,2.599-1.637,3.567-2.169c1.6-0.876,2.893-1.398,3.771-1.523
		c0.273-0.039,0.605-0.047,0.711,0c0.174,0.067,0.362,0.572,0.439,1.181C1031.448,291.72,1031.427,293.147,1031.378,293.405z
		 M1029.803,276.686l-0.021-0.01c-1.6-1.275-2.801-1.875-2.801-1.875c6.291-7.231,10.183-7.631,10.183-7.631
		c0.431,0.579,0.707,1.322,0.857,2.178l0,0c0.885,5.082-2.552,13.989-2.552,13.989
		C1034.034,280.776,1032.102,278.512,1029.803,276.686L1029.803,276.686z"/>
	<path id="Path_8583" fill="none" d="M1024.662,273.831c-0.021,0.018-0.027,0.047-0.047,0.067"/>
	<path id="Path_8584" fill="none" d="M1037.177,286.554c-0.05,0.131-0.068,0.199-0.068,0.199"/>
	<g id="Group_934">
		<g id="Group_933">
			<g id="Group_932">
				<path id="Path_8585" fill="#FF9300" d="M1038.031,269.348c-0.742-0.094-4.251-0.114-8.228,7.338l-0.021-0.01
					c-1.6-1.275-2.801-1.875-2.801-1.875c6.291-7.231,10.183-7.631,10.183-7.631
					C1037.604,267.749,1037.881,268.491,1038.031,269.348z"/>
			</g>
			<path id="Path_8586" fill="#FF8300" d="M1035.48,283.336c-1.446-2.57-3.367-4.824-5.677-6.651
				c3.977-7.452,7.478-7.432,8.228-7.338l0,0C1038.918,274.439,1035.48,283.336,1035.48,283.336z"/>
			<path id="Path_8587" fill="#FF8300" d="M1038.174,269.377c-0.047-0.01-0.095-0.019-0.144-0.029L1038.174,269.377z"/>
		</g>
	</g>
	<path id="Path_8588" fill="none" d="M1005.392,274.201c-0.095-0.134-0.2-0.266-0.295-0.399"/>
	<path id="Path_8589" fill="none" d="M992.06,286.925c0.105,0.322,0.172,0.495,0.172,0.495"/>
	<g id="Group_937">
		<g id="Group_936">
			<g id="Group_935">
				<path id="Path_8590" fill="#FF9300" d="M1002.643,274.801c0,0-1.239,0.599-2.894,1.875c0,0-0.01,0.01-0.019,0.01
					c-4.121-7.461-7.746-7.432-8.525-7.338c0.151-0.856,0.438-1.608,0.885-2.178C992.099,267.169,996.133,267.569,1002.643,274.801z
					"/>
			</g>
			<path id="Path_8591" fill="#FF8300" d="M999.739,276.686c-1.808,1.388-4.109,3.568-5.88,6.651c0,0-3.559-8.897-2.645-13.989l0,0
				C991.984,269.253,995.62,269.234,999.739,276.686z"/>
			<path id="Path_8592" fill="#FF8300" d="M991.214,269.348c-0.047,0.01-0.105,0.02-0.152,0.029L991.214,269.348z"/>
		</g>
	</g>
	<path id="Path_8593" fill="#FFFFFF" d="M1025.853,288.274c0,0-3.045,0.191-2.665-2.188c0.379-2.378,2.76-2.664,3.426-2.57
		c0.665,0.096,3.33,1.048,2.854,3.046c-0.478,1.998-1.142,1.617-1.523,1.712C1027.565,288.37,1025.853,288.274,1025.853,288.274z"/>
	<path id="Path_8594" fill="#FFFFFF" d="M1003.394,288.274c0,0-3.045,0.191-2.666-2.188c0.381-2.378,2.759-2.664,3.427-2.57
		c0.666,0.096,3.33,1.048,2.854,3.046c-0.477,1.998-1.141,1.617-1.523,1.712C1005.107,288.37,1003.394,288.274,1003.394,288.274z"/>
</g>
</svg>
