<?xml version="1.0" encoding="utf-8"?>
<!-- Generator: Adobe Illustrator 16.0.0, SVG Export Plug-In . SVG Version: 6.00 Build 0)  -->
<!DOCTYPE svg PUBLIC "-//W3C//DTD SVG 1.1//EN" "http://www.w3.org/Graphics/SVG/1.1/DTD/svg11.dtd">
<svg version="1.1" id="Layer_1" xmlns="http://www.w3.org/2000/svg" xmlns:xlink="http://www.w3.org/1999/xlink" x="0px" y="0px"
	 width="35px" height="35px" viewBox="15 15 35 35" enable-background="new 15 15 35 35" xml:space="preserve">
<path fill="#2775CA" d="M32.542,49.334c9.351,0,16.874-7.524,16.874-16.875c0-9.352-7.523-16.874-16.874-16.874
	c-9.352,0-16.875,7.522-16.875,16.874C15.667,41.81,23.19,49.334,32.542,49.334z"/>
<path fill="#FFFFFF" d="M37.183,35.132c0-2.461-1.477-3.306-4.429-3.657c-2.11-0.281-2.533-0.843-2.533-1.829
	c0-0.984,0.703-1.617,2.109-1.617c1.266,0,1.97,0.422,2.321,1.477c0.07,0.21,0.279,0.352,0.491,0.352h1.126
	c0.28,0,0.491-0.212,0.491-0.492v-0.07c-0.279-1.546-1.545-2.742-3.164-2.883v-1.687c0-0.282-0.211-0.492-0.562-0.563h-1.055
	c-0.28,0-0.492,0.211-0.562,0.563v1.617c-2.109,0.281-3.445,1.687-3.445,3.445c0,2.321,1.406,3.235,4.358,3.586
	c1.97,0.353,2.601,0.773,2.601,1.899s-0.983,1.896-2.319,1.896c-1.828,0-2.461-0.771-2.671-1.826
	c-0.07-0.282-0.281-0.423-0.492-0.423h-1.195c-0.281,0-0.492,0.212-0.492,0.491v0.072c0.281,1.757,1.406,3.023,3.727,3.376v1.686
	c0,0.279,0.211,0.493,0.563,0.563h1.055c0.28,0,0.491-0.21,0.563-0.563v-1.686C35.776,38.507,37.183,37.029,37.183,35.132
	L37.183,35.132z"/>
<path fill="#FFFFFF" d="M28.957,42.515c-5.485-1.97-8.297-8.086-6.258-13.501c1.055-2.952,3.375-5.202,6.258-6.257
	c0.281-0.141,0.421-0.351,0.421-0.704V21.07c0-0.282-0.14-0.493-0.421-0.563c-0.07,0-0.212,0-0.282,0.07
	c-6.679,2.109-10.336,9.21-8.227,15.89c1.266,3.938,4.29,6.961,8.227,8.225c0.282,0.142,0.563,0,0.633-0.279
	c0.07-0.071,0.07-0.141,0.07-0.28v-0.985C29.378,42.936,29.167,42.653,28.957,42.515z M36.408,20.577
	c-0.279-0.14-0.562,0-0.632,0.281c-0.07,0.071-0.07,0.141-0.07,0.282v0.984c0,0.281,0.211,0.562,0.422,0.704
	c5.482,1.967,8.295,8.085,6.257,13.499c-1.054,2.953-3.374,5.202-6.257,6.258c-0.281,0.142-0.422,0.351-0.422,0.702v0.986
	c0,0.281,0.141,0.493,0.422,0.563c0.069,0,0.21,0,0.28-0.07c6.68-2.111,10.335-9.212,8.226-15.891
	C43.368,24.866,40.275,21.843,36.408,20.577z"/>
</svg>
