<?xml version="1.0" encoding="utf-8"?>
<!-- Generator: Adobe Illustrator 16.0.0, SVG Export Plug-In . SVG Version: 6.00 Build 0)  -->
<!DOCTYPE svg PUBLIC "-//W3C//DTD SVG 1.1//EN" "http://www.w3.org/Graphics/SVG/1.1/DTD/svg11.dtd">
<svg version="1.1" id="Layer_1" xmlns="http://www.w3.org/2000/svg" xmlns:xlink="http://www.w3.org/1999/xlink" x="0px" y="0px"
	 width="250px" height="96px" viewBox="0 0 250 96" enable-background="new 0 0 250 96" xml:space="preserve">
<path id="path7_1_" fill="#FFFFFF" d="M248.08,77.139c0,5.961-4.834,10.795-10.795,10.795H14.637
	c-5.96,0-10.795-4.834-10.795-10.795V18.86c0-5.96,4.834-10.794,10.795-10.794h222.648c5.961,0,10.795,4.834,10.795,10.794V77.139
	L248.08,77.139z"/>
<g>
	<g>
		<g>
			<g>
				<g>
					<g>
						<g>
							<defs>
								<path id="SVGID_1_" d="M63.113,41.708l-9.47-5.497c0,0-17.219-9.934-18.278-10.529c-0.993-0.597-2.053-0.266-2.053,0.994
									c0,2.053,0,21.258,0,21.258s0,20.795,0,21.722s0.729,1.325,1.59,0.795c0.993-0.53,18.742-10.795,18.742-10.795l9.47-5.431
									c0,0,8.013-4.637,9.073-5.231c1.06-0.597,0.993-1.457,0.066-1.921C71.392,46.477,63.113,41.708,63.113,41.708z"/>
							</defs>
							<clipPath id="SVGID_2_">
								<use xlink:href="#SVGID_1_"  overflow="visible"/>
							</clipPath>
							<polygon id="polygon130_1_" clip-path="url(#SVGID_2_)" fill="#2CAFA2" points="56.821,47.934 33.377,24.688 33.377,47.934 
								33.377,71.18 							"/>
						</g>
					</g>
				</g>
			</g>
		</g>
	</g>
	<g>
		<g>
			<g>
				<g>
					<g>
						<g>
							<defs>
								<path id="SVGID_3_" d="M63.113,41.708l-9.47-5.497c0,0-17.219-9.934-18.278-10.529c-0.993-0.597-2.053-0.266-2.053,0.994
									c0,2.053,0,21.258,0,21.258s0,20.795,0,21.722s0.729,1.325,1.59,0.795c0.993-0.53,18.742-10.795,18.742-10.795l9.47-5.431
									c0,0,8.013-4.637,9.073-5.231c1.06-0.597,0.993-1.457,0.066-1.921C71.392,46.477,63.113,41.708,63.113,41.708z"/>
							</defs>
							<clipPath id="SVGID_4_">
								<use xlink:href="#SVGID_3_"  overflow="visible"/>
							</clipPath>
							<polygon id="polygon137_1_" clip-path="url(#SVGID_4_)" fill="#77E888" points="33.377,24.688 56.821,47.934 63.113,41.708 
								53.644,36.211 33.377,24.49 							"/>
						</g>
					</g>
				</g>
			</g>
		</g>
	</g>
	<g>
		<g>
			<g>
				<g>
					<g>
						<g>
							<defs>
								<path id="SVGID_5_" d="M63.113,41.708l-9.47-5.497c0,0-17.219-9.934-18.278-10.529c-0.993-0.597-2.053-0.266-2.053,0.994
									c0,2.053,0,21.258,0,21.258s0,20.795,0,21.722s0.729,1.325,1.59,0.795c0.993-0.53,18.742-10.795,18.742-10.795l9.47-5.431
									c0,0,8.013-4.637,9.073-5.231c1.06-0.597,0.993-1.457,0.066-1.921C71.392,46.477,63.113,41.708,63.113,41.708z"/>
							</defs>
							<clipPath id="SVGID_6_">
								<use xlink:href="#SVGID_5_"  overflow="visible"/>
							</clipPath>
							<polygon id="polygon150_1_" clip-path="url(#SVGID_6_)" fill="#CC3A72" points="63.113,54.158 56.821,47.934 33.377,71.18 
								33.377,71.377 53.644,59.655 							"/>
						</g>
					</g>
				</g>
			</g>
		</g>
	</g>
	<g>
		<g>
			<g>
				<g>
					<g>
						<g>
							<defs>
								<path id="SVGID_7_" d="M63.113,41.708l-9.47-5.497c0,0-17.219-9.934-18.278-10.529c-0.993-0.597-2.053-0.266-2.053,0.994
									c0,2.053,0,21.258,0,21.258s0,20.795,0,21.722s0.729,1.325,1.59,0.795c0.993-0.53,18.742-10.795,18.742-10.795l9.47-5.431
									c0,0,8.013-4.637,9.073-5.231c1.06-0.597,0.993-1.457,0.066-1.921C71.392,46.477,63.113,41.708,63.113,41.708z"/>
							</defs>
							<clipPath id="SVGID_8_">
								<use xlink:href="#SVGID_7_"  overflow="visible"/>
							</clipPath>
							<polygon id="polygon161_1_" clip-path="url(#SVGID_8_)" fill="#EA9053" points="73.975,47.934 63.113,41.708 56.821,47.934 
								63.113,54.158 							"/>
						</g>
					</g>
				</g>
			</g>
		</g>
	</g>
	<g id="g163_1_">
		<path id="path165_1_" fill="#1E1E1E" d="M181.061,57.006c-0.859,0-1.656-0.132-2.385-0.463c-0.729-0.332-1.324-0.795-1.854-1.523
			h-0.133c0.133,0.796,0.133,1.523,0.133,2.253v5.563h-2.055V43.232h1.656l0.266,1.854h0.066c0.529-0.729,1.125-1.258,1.854-1.59
			c0.729-0.331,1.523-0.463,2.385-0.463c1.787,0,3.178,0.596,4.172,1.854c0.992,1.192,1.457,2.914,1.457,5.166
			c0,2.187-0.465,3.975-1.457,5.166C184.172,56.41,182.781,57.006,181.061,57.006L181.061,57.006z M180.729,44.754
			c-1.391,0-2.385,0.397-2.979,1.127c-0.598,0.795-0.928,1.986-0.928,3.643v0.463c0,1.92,0.33,3.245,0.928,4.105
			c0.662,0.795,1.654,1.258,3.047,1.258c1.189,0,2.053-0.463,2.715-1.391c0.662-0.927,0.994-2.252,0.994-3.906
			c0-1.656-0.332-2.98-0.994-3.908C182.848,45.219,181.92,44.754,180.729,44.754z"/>
		<path id="path167_1_" fill="#1E1E1E" d="M191.391,56.741h-2.053V37.536h2.053V56.741z"/>
		<path id="path169_1_" fill="#1E1E1E" d="M203.18,56.741l-0.396-1.921h-0.135c-0.662,0.861-1.322,1.391-2.053,1.723
			c-0.662,0.331-1.521,0.463-2.516,0.463c-1.324,0-2.385-0.33-3.18-1.059c-0.729-0.663-1.125-1.656-1.125-2.914
			c0-2.716,2.186-4.173,6.557-4.305l2.316-0.066v-0.861c0-1.06-0.197-1.854-0.662-2.317c-0.463-0.53-1.191-0.729-2.186-0.729
			c-1.125,0-2.385,0.332-3.84,1.061l-0.598-1.59c0.662-0.332,1.391-0.662,2.186-0.861s1.59-0.331,2.385-0.331
			c1.59,0,2.781,0.331,3.576,1.06c0.795,0.729,1.191,1.854,1.191,3.444v9.205H203.18L203.18,56.741L203.18,56.741z M198.543,55.35
			c1.258,0,2.252-0.33,2.98-1.06s1.061-1.655,1.061-2.914v-1.19l-2.055,0.065c-1.654,0.065-2.781,0.33-3.51,0.729
			c-0.729,0.463-1.059,1.125-1.059,2.119c0,0.729,0.197,1.324,0.662,1.721C197.086,55.152,197.748,55.35,198.543,55.35z"/>
		<path id="path171_1_" fill="#1E1E1E" d="M205.895,43.231h2.188l2.979,7.683c0.662,1.787,1.061,3.046,1.191,3.84h0.066
			c0.133-0.396,0.33-1.125,0.662-2.185c0.33-0.993,1.457-4.106,3.377-9.338h2.186l-5.828,15.431
			c-0.596,1.523-1.258,2.582-1.986,3.244c-0.795,0.663-1.721,0.928-2.848,0.928c-0.662,0-1.258-0.066-1.854-0.199V60.98
			c0.465,0.133,0.928,0.133,1.523,0.133c1.391,0,2.383-0.795,2.979-2.385l0.729-1.92L205.895,43.231z"/>
	</g>
	<g id="g173_1_">
		<path id="path175_1_" fill="#1E1E1E" d="M143.113,44.49c0.662,0.529,1.986,1.656,1.986,3.841c0,2.12-1.191,3.113-2.385,4.041
			c-0.396,0.396-0.795,0.794-0.795,1.392c0,0.596,0.396,0.992,0.729,1.19l0.994,0.795c1.258,1.06,2.383,1.986,2.383,3.974
			c0,2.649-2.582,5.365-7.416,5.365c-4.105,0-6.094-1.922-6.094-4.041c0-0.992,0.531-2.449,2.188-3.443
			c1.721-1.06,4.105-1.191,5.43-1.324c-0.396-0.529-0.861-1.059-0.861-1.92c0-0.465,0.133-0.729,0.268-1.126
			c-0.332,0-0.598,0.065-0.93,0.065c-2.979,0-4.701-2.252-4.701-4.438c0-1.324,0.598-2.715,1.787-3.773
			c1.592-1.326,3.512-1.591,5.033-1.591h5.828l-1.789,0.994L143.113,44.49L143.113,44.49z M141.061,57.072c-0.199,0-0.396,0-0.662,0
			s-1.789,0.066-2.98,0.464c-0.596,0.198-2.449,0.927-2.449,2.914c0,1.985,1.986,3.442,4.967,3.442c2.715,0,4.172-1.323,4.172-3.045
			C144.172,59.324,143.246,58.596,141.061,57.072L141.061,57.072z M141.92,51.708c0.664-0.661,0.729-1.589,0.729-2.053
			c0-2.054-1.189-5.231-3.574-5.231c-0.73,0-1.523,0.396-1.986,0.926c-0.463,0.597-0.596,1.326-0.596,2.119
			c0,1.922,1.125,5.033,3.51,5.033C140.662,52.503,141.457,52.172,141.92,51.708L141.92,51.708z"/>
		<path id="path177_1_" fill="#1E1E1E" d="M125.298,56.609c-4.503,0-6.887-3.51-6.887-6.689c0-3.707,3.046-6.887,7.284-6.887
			c4.174,0,6.756,3.245,6.756,6.689C132.451,53.1,129.867,56.609,125.298,56.609L125.298,56.609z M128.809,54.291
			c0.662-0.928,0.861-2.053,0.861-3.111c0-2.518-1.193-7.22-4.703-7.22c-0.927,0-1.854,0.397-2.517,0.993
			c-1.125,0.994-1.324,2.252-1.324,3.443c0,2.781,1.391,7.418,4.834,7.418C127.02,55.748,128.146,55.219,128.809,54.291z"/>
		<path id="path179_1_" fill="#1E1E1E" d="M109.935,56.609c-4.503,0-6.887-3.51-6.887-6.689c0-3.707,3.046-6.887,7.285-6.887
			c4.172,0,6.755,3.245,6.755,6.689C117.152,53.1,114.569,56.609,109.935,56.609z M113.51,54.291
			c0.663-0.928,0.861-2.053,0.861-3.111c0-2.518-1.192-7.22-4.702-7.22c-0.927,0-1.854,0.397-2.517,0.993
			c-1.126,0.994-1.325,2.252-1.325,3.443c0,2.781,1.391,7.418,4.834,7.418C111.723,55.748,112.849,55.219,113.51,54.291z"/>
		<path id="path181_1_" fill="#1E1E1E" d="M100.927,56.145l-4.04,0.928c-1.655,0.266-3.112,0.464-4.702,0.464
			c-7.814,0-10.795-5.762-10.795-10.265c0-5.497,4.238-10.596,11.457-10.596c1.523,0,2.98,0.198,4.371,0.596
			c2.119,0.596,3.112,1.324,3.774,1.787l-2.384,2.252l-0.994,0.199l0.729-1.125c-0.993-0.928-2.715-2.649-6.093-2.649
			c-4.503,0-7.88,3.377-7.88,8.344c0,5.364,3.841,10.397,10.066,10.397c1.788,0,2.782-0.397,3.576-0.729v-4.569l-4.305,0.198
			l2.252-1.19h6.026l-0.729,0.729c-0.199,0.198-0.199,0.198-0.265,0.463c0,0.266-0.066,1.061-0.066,1.391v3.377H100.927z"/>
		<path id="path183_1_" fill="#1E1E1E" d="M152.053,55.35c-0.926-0.065-1.125-0.265-1.125-1.391v-0.331V37.934
			c0-0.066,0-0.133,0-0.199c0.133-0.994,0.396-1.192,1.258-1.656h-4.039l-2.119,0.993h2.186l0,0l0,0v16.623v0.927
			c0,0.598-0.131,0.662-0.795,1.523h5.033l1.061-0.598C153.047,55.417,152.518,55.417,152.053,55.35L152.053,55.35z"/>
		<path id="path185_1_" fill="#1E1E1E" d="M163.643,55.615c-0.332,0.199-0.596,0.396-0.928,0.529
			c-0.926,0.397-1.92,0.531-2.715,0.531c-0.928,0-2.318-0.066-3.775-1.127c-1.984-1.392-2.848-3.842-2.848-5.961
			c0-4.371,3.576-6.49,6.424-6.49c0.994,0,2.055,0.266,2.914,0.795c1.391,0.927,1.789,2.119,1.988,2.781l-6.623,2.649l-2.186,0.198
			c0.729,3.576,3.111,5.695,5.826,5.695c1.457,0,2.451-0.529,3.445-0.994L163.643,55.615z M160.994,47.205
			c0.529-0.199,0.795-0.396,0.795-0.795c0-1.126-1.26-2.45-2.781-2.45c-1.127,0-3.246,0.861-3.246,3.907
			c0,0.463,0.066,0.993,0.066,1.523L160.994,47.205z"/>
		<g id="g187_1_">
			<path id="path189_1_" fill="#1E1E1E" d="M166.357,43.299v1.854h-0.197v-1.854h-0.598V43.1h1.457v0.199H166.357z"/>
			<path id="path191_1_" fill="#1E1E1E" d="M168.875,45.152v-1.854l0,0l-0.598,1.854h-0.197l-0.598-1.854l0,0v1.854h-0.197V43.1
				h0.33l0.529,1.654l0,0l0.531-1.654h0.33v2.053H168.875z"/>
		</g>
	</g>
	<g id="g193_1_">
		<path id="path195_1_" fill="#1E1E1E" d="M87.021,31.18h-1.391c0-0.199-0.132-0.729-0.397-1.656H83.18
			c-0.265,0.861-0.397,1.457-0.397,1.656h-1.324c0-0.133,0.331-1.061,1.06-2.849c0.662-1.788,1.06-2.715,1.06-2.914h1.656
			c0,0.199,0.331,1.125,0.927,2.849C86.689,30.053,87.021,30.98,87.021,31.18z M84.967,28.662c-0.53-1.523-0.729-2.318-0.729-2.451
			h-0.132c0,0.133-0.265,0.928-0.795,2.451H84.967z"/>
		<path id="path197_1_" fill="#1E1E1E" d="M92.649,31.18h-1.06c0-0.133-0.397-0.729-1.192-1.922
			c-0.861-1.191-1.325-2.053-1.457-2.517h-0.066c0.066,0.663,0.133,1.258,0.133,1.722c0,0.729,0,1.59,0.066,2.649h-1.06
			c0.066-0.927,0.066-1.92,0.066-2.979c0-1.061,0-1.986-0.066-2.716h1.325c0,0.132,0.397,0.794,1.06,1.854
			c0.794,1.125,1.192,1.921,1.324,2.318h0.066c-0.066-0.662-0.132-1.259-0.132-1.789c0-0.793,0-1.588-0.066-2.449h1.126
			c-0.066,0.729-0.066,1.656-0.066,2.715C92.583,29.258,92.649,30.251,92.649,31.18z"/>
		<path id="path199_1_" fill="#1E1E1E" d="M99.074,28.066c0,0.861-0.265,1.589-0.794,2.186c-0.53,0.596-1.258,0.928-2.252,0.928
			c-0.463,0-1.06,0-1.788-0.066c0.066-0.861,0.066-1.854,0.066-2.98c0-1.06,0-1.986-0.066-2.715h0.795c0.132,0,0.331,0,0.596,0
			c0.265,0,0.397,0,0.464,0c1.06,0,1.854,0.266,2.318,0.795C98.809,26.741,99.074,27.338,99.074,28.066z M97.881,28.264
			c0-0.529-0.132-1.06-0.464-1.457c-0.331-0.396-0.861-0.596-1.523-0.596c-0.132,0-0.331,0-0.53,0.066
			c0,0.596,0.066,1.191,0.066,1.854c0,0.729,0,1.391,0.066,2.12c0.199,0.066,0.397,0.066,0.596,0.066
			c0.662,0,1.126-0.199,1.391-0.597C97.683,29.324,97.881,28.86,97.881,28.264L97.881,28.264z"/>
		<path id="path201_1_" fill="#1E1E1E" d="M104.967,31.18h-1.324c-0.332-1.061-0.596-1.656-0.795-1.922
			c-0.199-0.265-0.463-0.396-0.861-0.396c-0.199,0-0.331,0-0.464,0c0,0.729,0,1.523,0.066,2.318h-1.258
			c0.066-0.861,0.066-1.922,0.066-2.98s0-1.986-0.066-2.715h0.795c0.066,0,0.265,0,0.53,0c0.265,0,0.53,0,0.794,0
			c1.325,0,2.053,0.464,2.053,1.391c0,0.729-0.397,1.258-1.126,1.523v0.066c0.265,0.065,0.53,0.33,0.795,0.661
			C104.306,29.456,104.569,30.118,104.967,31.18z M103.312,27.139c0-0.597-0.397-0.861-1.125-0.861c-0.265,0-0.53,0-0.729,0.066
			c0,0.463,0.066,1.06,0.066,1.787c0.133,0,0.332,0,0.397,0C102.849,28.066,103.312,27.735,103.312,27.139L103.312,27.139z"/>
		<path id="path203_1_" fill="#1E1E1E" d="M111.258,28.198c0,0.927-0.265,1.655-0.861,2.252c-0.53,0.597-1.258,0.86-2.053,0.86
			c-0.794,0-1.457-0.264-1.92-0.795c-0.53-0.529-0.795-1.258-0.795-2.053c0-0.927,0.265-1.656,0.861-2.252
			c0.53-0.596,1.258-0.861,2.053-0.861s1.457,0.266,1.92,0.795C110.994,26.676,111.258,27.338,111.258,28.198z M110.066,28.33
			c0-0.596-0.133-1.125-0.464-1.523c-0.331-0.397-0.729-0.596-1.192-0.596c-0.397,0-0.795,0.199-1.06,0.596
			c-0.331,0.397-0.464,0.861-0.464,1.457c0,0.597,0.133,1.127,0.464,1.523s0.729,0.596,1.192,0.596c0.397,0,0.795-0.199,1.126-0.596
			C109.935,29.391,110.066,28.928,110.066,28.33z"/>
		<path id="path205_1_" fill="#1E1E1E" d="M113.775,31.18h-1.258c0.066-0.928,0.066-1.922,0.066-2.98s0-1.986-0.066-2.715h1.258
			c-0.066,0.729-0.066,1.656-0.066,2.715S113.708,30.251,113.775,31.18z"/>
		<path id="path207_1_" fill="#1E1E1E" d="M120.132,28.066c0,0.861-0.265,1.589-0.794,2.186c-0.53,0.596-1.258,0.928-2.252,0.928
			c-0.463,0-1.06,0-1.788-0.066c0.066-0.861,0.066-1.854,0.066-2.98c0-1.06,0-1.986-0.066-2.715h0.795c0.132,0,0.331,0,0.596,0
			s0.397,0,0.463,0c1.06,0,1.854,0.266,2.318,0.795C119.935,26.741,120.132,27.338,120.132,28.066z M118.94,28.264
			c0-0.529-0.199-1.06-0.463-1.457c-0.332-0.396-0.861-0.596-1.523-0.596c-0.132,0-0.265,0-0.53,0.066
			c0,0.596,0.066,1.191,0.066,1.854c0,0.729,0,1.391,0.066,2.12c0.199,0.066,0.397,0.066,0.596,0.066
			c0.662,0,1.126-0.199,1.391-0.597C118.809,29.324,118.94,28.86,118.94,28.264z"/>
		<path id="path209_1_" fill="#1E1E1E" d="M128.676,31.18h-1.391c0-0.199-0.133-0.729-0.398-1.656h-2.051
			c-0.265,0.861-0.397,1.457-0.397,1.656h-1.324c0-0.133,0.331-1.061,1.06-2.849c0.662-1.788,1.06-2.715,1.06-2.914h1.654
			c0,0.199,0.332,1.125,0.928,2.849C128.344,30.053,128.676,30.98,128.676,31.18z M126.623,28.662
			c-0.529-1.523-0.729-2.318-0.729-2.451h-0.066c0,0.133-0.266,0.928-0.794,2.451H126.623z"/>
		<path id="path211_1_" fill="#1E1E1E" d="M133.775,26.94c0,0.729-0.266,1.192-0.795,1.522c-0.529,0.331-1.127,0.53-1.922,0.53
			c-0.131,0-0.264,0-0.264,0c0,0.53,0,1.258,0.064,2.187h-1.258c0.066-0.861,0.066-1.854,0.066-2.98c0-1.061,0-1.986-0.066-2.715
			h0.795c0.131,0,0.33,0,0.596,0c0.33,0,0.598,0,0.795,0c0.529,0,1.061,0.133,1.391,0.396
			C133.576,26.014,133.775,26.41,133.775,26.94z M132.648,27.139c0-0.597-0.396-0.928-1.258-0.928c-0.199,0-0.396,0-0.662,0.066
			c0,0.529,0.066,1.191,0.066,1.854c0.064,0,0.133,0,0.264,0C132.119,28.198,132.648,27.867,132.648,27.139z"/>
		<path id="path213_1_" fill="#1E1E1E" d="M139.072,26.94c0,0.729-0.264,1.192-0.795,1.522c-0.529,0.331-1.191,0.53-1.92,0.53
			c-0.133,0-0.266,0-0.266,0c0,0.53,0,1.258,0.066,2.187H134.9c0.066-0.861,0.066-1.854,0.066-2.98c0-1.061,0-1.986-0.066-2.715
			h0.795c0.133,0,0.33,0,0.596,0c0.332,0,0.596,0,0.795,0c0.529,0,1.061,0.133,1.391,0.396
			C138.875,26.014,139.072,26.41,139.072,26.94z M137.947,27.139c0-0.597-0.396-0.928-1.258-0.928c-0.199,0-0.465,0-0.664,0.066
			c0.066,0.529,0.066,1.191,0.066,1.854c0.066,0,0.133,0,0.266,0C137.418,28.198,137.947,27.867,137.947,27.139z"/>
		<path id="path215_1_" fill="#1E1E1E" d="M147.748,28.198c0,0.927-0.266,1.655-0.795,2.252s-1.258,0.86-2.053,0.86
			s-1.457-0.264-1.92-0.795c-0.529-0.529-0.795-1.258-0.795-2.053c0-0.927,0.266-1.656,0.861-2.252
			c0.529-0.596,1.258-0.861,2.053-0.861s1.457,0.266,1.92,0.795C147.482,26.676,147.748,27.338,147.748,28.198z M146.49,28.33
			c0-0.596-0.133-1.125-0.465-1.523c-0.33-0.397-0.729-0.596-1.191-0.596c-0.396,0-0.795,0.199-1.125,0.596
			c-0.332,0.397-0.463,0.861-0.463,1.457c0,0.597,0.131,1.127,0.463,1.523c0.33,0.396,0.729,0.596,1.191,0.596
			c0.396,0,0.795-0.199,1.061-0.596C146.357,29.391,146.49,28.928,146.49,28.33z"/>
		<path id="path217_1_" fill="#1E1E1E" d="M153.709,31.18h-1.061c0-0.133-0.396-0.729-1.191-1.922
			c-0.861-1.191-1.324-2.053-1.457-2.517h-0.066c0.066,0.663,0.133,1.258,0.133,1.722c0,0.729,0,1.59,0.066,2.649h-1.061
			c0.066-0.927,0.066-1.92,0.066-2.979c0-1.061,0-1.986-0.066-2.716h1.324c0,0.132,0.332,0.794,1.061,1.854
			c0.795,1.125,1.191,1.921,1.324,2.318h0.066c-0.066-0.662-0.133-1.259-0.133-1.789c0-0.793,0-1.588-0.066-2.449h1.127
			c-0.066,0.729-0.066,1.656-0.066,2.715C153.643,29.258,153.643,30.251,153.709,31.18z"/>
	</g>
</g>
</svg>
