<?xml version="1.0" encoding="utf-8"?>
<!-- Generator: Adobe Illustrator 16.0.0, SVG Export Plug-In . SVG Version: 6.00 Build 0)  -->
<!DOCTYPE svg PUBLIC "-//W3C//DTD SVG 1.1//EN" "http://www.w3.org/Graphics/SVG/1.1/DTD/svg11.dtd">
<svg version="1.1" id="Layer_1" xmlns="http://www.w3.org/2000/svg" xmlns:xlink="http://www.w3.org/1999/xlink" x="0px" y="0px"
	 width="379px" height="152px" viewBox="0 0 379 152" enable-background="new 0 0 379 152" xml:space="preserve">
<path fill="#FFFFFF" d="M189.267,142.773c-57.167,0.004-114.333,0.004-171.499,0.004c-9.111,0-14.731-6.733-14.742-17.885
	C2.992,91.637,2.99,58.382,3.023,25.126C3.034,14.86,8.651,7.968,16.998,7.758c1.191-0.03,2.383-0.021,3.574-0.021
	C133.417,7.735,246.262,7.724,359.106,7.8c2.815,0.002,5.848,0.308,8.401,1.597c5.242,2.65,7.979,8.07,7.998,14.97
	c0.1,33.985,0.11,67.974,0.006,101.957c-0.025,9.64-6.214,16.439-14.446,16.439C303.797,142.775,246.535,142.771,189.267,142.773z"
	/>
<g>
	<g>
		<g>
			<g>
				<path fill="#1E1E1E" d="M98.455,59.346c-4.614,3.541-8.115,7.665-8.809,13.433c-0.986,8.208,1.837,14.805,9.026,19.151
					c1.874,1.133,2.383,2.239,1.283,4.008c-3.307,5.318-6.351,10.842-10.1,15.83c-3.358,4.469-8.363,5.446-13.408,3.086
					c-6.18-2.896-12.034-2.838-18.15,0.092c-4.01,1.914-8.254,1.781-11.481-1.57c-12.398-12.88-18.776-27.938-14.581-45.947
					C35.18,54.794,48.664,47.166,60.437,53.06c4.833,2.419,8.993,1.191,13.501-0.608C83.296,48.718,92.723,51.376,98.455,59.346z"/>
				<path fill="#1E1E1E" d="M65.988,49.677c-1.187-9.394,7.042-18.869,16.536-19.35C84.804,39.382,75.912,49.925,65.988,49.677z"/>
			</g>
		</g>
		<g>
			<path fill="#1E1E1E" d="M143.425,54.49c0,3.266-0.886,5.763-2.659,7.49c-1.774,1.729-4.325,2.592-7.655,2.592h-5.482V44.788
				h6.063c3.079,0,5.469,0.852,7.173,2.556C142.572,49.049,143.425,51.431,143.425,54.49z M140.991,54.572
				c0-2.581-0.649-4.525-1.944-5.833c-1.295-1.309-3.219-1.962-5.773-1.962h-3.341v15.808h2.8c2.743,0,4.804-0.675,6.185-2.022
				C140.3,59.211,140.991,57.214,140.991,54.572z"/>
			<path fill="#1E1E1E" d="M160.303,57.145c0,2.417-0.61,4.306-1.827,5.664c-1.219,1.357-2.901,2.036-5.049,2.036
				c-1.325,0-2.502-0.311-3.531-0.934c-1.028-0.621-1.823-1.516-2.382-2.682c-0.56-1.161-0.84-2.525-0.84-4.084
				c0-2.417,0.605-4.303,1.813-5.651c1.208-1.35,2.888-2.021,5.036-2.021c2.075,0,3.724,0.688,4.947,2.068
				C159.692,52.921,160.303,54.789,160.303,57.145z M149.001,57.145c0,1.895,0.378,3.338,1.138,4.331
				c0.757,0.99,1.871,1.488,3.343,1.488c1.469,0,2.586-0.493,3.35-1.481c0.763-0.988,1.144-2.434,1.144-4.337
				c0-1.887-0.381-3.32-1.144-4.297c-0.764-0.979-1.889-1.469-3.377-1.469c-1.47,0-2.581,0.484-3.328,1.451
				C149.376,53.791,149.001,55.232,149.001,57.145z"/>
			<path fill="#1E1E1E" d="M176.355,64.573l-2.722-8.7c-0.171-0.532-0.492-1.743-0.961-3.627h-0.108
				c-0.363,1.579-0.677,2.797-0.949,3.653l-2.801,8.675h-2.599l-4.046-14.833h2.353c0.958,3.727,1.687,6.563,2.188,8.513
				c0.5,1.948,0.787,3.263,0.859,3.938h0.108c0.101-0.513,0.259-1.178,0.481-1.996c0.222-0.815,0.413-1.463,0.574-1.941l2.72-8.514
				h2.439l2.651,8.514c0.505,1.552,0.849,2.854,1.029,3.912h0.109c0.033-0.325,0.131-0.827,0.291-1.503
				c0.156-0.676,1.097-4.317,2.82-10.923h2.329l-4.1,14.833L176.355,64.573L176.355,64.573L176.355,64.573z"/>
			<path fill="#1E1E1E" d="M195.952,64.573v-9.595c0-1.208-0.274-2.111-0.826-2.707s-1.412-0.894-2.588-0.894
				c-1.552,0-2.686,0.42-3.409,1.259c-0.722,0.839-1.084,2.223-1.084,4.154v7.781h-2.244v-14.83h1.826l0.367,2.03h0.108
				c0.46-0.73,1.107-1.298,1.937-1.7c0.828-0.401,1.754-0.6,2.771-0.6c1.789,0,3.131,0.429,4.032,1.292
				c0.903,0.86,1.354,2.239,1.354,4.134v9.676H195.952L195.952,64.573z"/>
			<path fill="#1E1E1E" d="M205.059,64.573h-2.248v-21.06h2.248V64.573z"/>
			<path fill="#1E1E1E" d="M222.629,57.145c0,2.417-0.613,4.306-1.828,5.664c-1.221,1.357-2.904,2.036-5.051,2.036
				c-1.327,0-2.505-0.311-3.533-0.934c-1.027-0.621-1.818-1.516-2.381-2.682c-0.561-1.161-0.838-2.525-0.838-4.084
				c0-2.417,0.604-4.303,1.811-5.651c1.211-1.35,2.892-2.021,5.037-2.021c2.075,0,3.723,0.688,4.943,2.068
				C222.016,52.921,222.629,54.789,222.629,57.145z M211.325,57.145c0,1.895,0.38,3.338,1.137,4.331
				c0.761,0.99,1.872,1.488,3.345,1.488c1.469,0,2.586-0.493,3.346-1.481c0.767-0.988,1.146-2.434,1.146-4.337
				c0-1.887-0.381-3.32-1.146-4.297c-0.76-0.979-1.885-1.469-3.373-1.469c-1.473,0-2.582,0.484-3.325,1.451
				C211.698,53.791,211.325,55.232,211.325,57.145z"/>
			<path fill="#1E1E1E" d="M235.688,64.573l-0.449-2.111h-0.104c-0.74,0.931-1.479,1.558-2.216,1.89
				c-0.733,0.33-1.653,0.494-2.753,0.494c-1.473,0-2.623-0.378-3.456-1.136c-0.835-0.76-1.253-1.837-1.253-3.235
				c0-2.996,2.396-4.565,7.186-4.71l2.518-0.08v-0.924c0-1.163-0.249-2.021-0.75-2.579c-0.502-0.555-1.307-0.832-2.403-0.832
				c-1.235,0-2.635,0.379-4.192,1.137l-0.692-1.72c0.731-0.396,1.532-0.707,2.403-0.935c0.869-0.226,1.738-0.337,2.617-0.337
				c1.77,0,3.078,0.394,3.931,1.178c0.854,0.785,1.282,2.044,1.282,3.776V64.57h-1.666v0.003H235.688z M230.609,62.991
				c1.396,0,2.498-0.384,3.298-1.151c0.799-0.767,1.196-1.84,1.196-3.22v-1.34l-2.248,0.093c-1.783,0.065-3.072,0.342-3.861,0.833
				c-0.792,0.494-1.184,1.257-1.184,2.294c0,0.812,0.241,1.432,0.737,1.855C229.039,62.778,229.729,62.991,230.609,62.991z"/>
			<path fill="#1E1E1E" d="M252.079,62.584h-0.125c-1.036,1.506-2.588,2.26-4.654,2.26c-1.938,0-3.45-0.664-4.528-1.989
				c-1.076-1.328-1.617-3.211-1.617-5.658c0-2.444,0.543-4.344,1.621-5.698c1.086-1.354,2.594-2.028,4.524-2.028
				c2.013,0,3.556,0.729,4.628,2.19h0.18l-0.099-1.068l-0.055-1.042v-6.036h2.245v21.059h-1.825L252.079,62.584z M247.582,62.963
				c1.533,0,2.648-0.417,3.338-1.252s1.034-2.181,1.034-4.04v-0.474c0-2.102-0.351-3.602-1.052-4.5
				c-0.696-0.898-1.814-1.347-3.352-1.347c-1.313,0-2.324,0.513-3.021,1.535c-0.698,1.024-1.049,2.471-1.049,4.338
				c0,1.895,0.349,3.325,1.043,4.292C245.219,62.481,246.24,62.963,247.582,62.963z"/>
			<path fill="#1E1E1E" d="M278.967,57.145c0,2.417-0.605,4.306-1.824,5.664c-1.218,1.357-2.899,2.036-5.05,2.036
				c-1.323,0-2.504-0.311-3.532-0.934c-1.025-0.621-1.821-1.516-2.381-2.682c-0.561-1.161-0.842-2.525-0.842-4.084
				c0-2.417,0.605-4.303,1.814-5.651c1.211-1.35,2.89-2.021,5.035-2.021c2.076,0,3.726,0.688,4.946,2.068
				C278.357,52.921,278.967,54.789,278.967,57.145z M267.67,57.145c0,1.895,0.377,3.338,1.135,4.331
				c0.76,0.99,1.873,1.488,3.346,1.488c1.471,0,2.586-0.493,3.351-1.481c0.761-0.988,1.144-2.434,1.144-4.337
				c0-1.887-0.381-3.32-1.144-4.297c-0.765-0.979-1.89-1.469-3.379-1.469c-1.472,0-2.579,0.484-3.329,1.451
				C268.041,53.791,267.67,55.232,267.67,57.145z"/>
			<path fill="#1E1E1E" d="M293.061,64.573v-9.595c0-1.208-0.275-2.111-0.826-2.707s-1.414-0.894-2.59-0.894
				c-1.551,0-2.687,0.42-3.405,1.259c-0.728,0.839-1.087,2.223-1.087,4.154v7.781h-2.242v-14.83h1.824l0.369,2.03h0.105
				c0.461-0.73,1.105-1.298,1.936-1.7c0.828-0.401,1.758-0.6,2.777-0.6c1.785,0,3.131,0.429,4.027,1.292
				c0.904,0.86,1.357,2.239,1.357,4.134v9.676H293.061L293.061,64.573z"/>
			<path fill="#1E1E1E" d="M311.911,62.991c0.396,0,0.778-0.028,1.151-0.089c0.367-0.058,0.663-0.119,0.881-0.182v1.717
				c-0.243,0.121-0.604,0.216-1.079,0.292c-0.476,0.077-0.896,0.115-1.275,0.115c-2.87,0-4.307-1.512-4.307-4.533v-8.824h-2.125
				v-1.084l2.125-0.932l0.949-3.169h1.302v3.438h4.299v1.747h-4.299v8.729c0,0.893,0.21,1.58,0.633,2.058
				C310.589,62.751,311.172,62.991,311.911,62.991z"/>
			<path fill="#1E1E1E" d="M327.058,64.573v-9.595c0-1.208-0.275-2.111-0.824-2.707c-0.556-0.596-1.412-0.894-2.585-0.894
				c-1.563,0-2.699,0.423-3.423,1.272c-0.715,0.848-1.074,2.236-1.074,4.168v7.755h-2.243v-21.06h2.243v6.377
				c0,0.767-0.033,1.403-0.106,1.909h0.134c0.444-0.715,1.075-1.277,1.895-1.685c0.816-0.413,1.747-0.617,2.791-0.617
				c1.813,0,3.177,0.431,4.083,1.292c0.909,0.862,1.357,2.231,1.357,4.108v9.676h-2.246L327.058,64.573L327.058,64.573z"/>
			<path fill="#1E1E1E" d="M340.183,64.844c-2.189,0-3.919-0.665-5.188-2.002c-1.269-1.336-1.9-3.191-1.9-5.563
				c0-2.393,0.589-4.291,1.771-5.699c1.174-1.408,2.758-2.109,4.742-2.109c1.855,0,3.329,0.609,4.408,1.833
				c1.083,1.222,1.624,2.834,1.624,4.838v1.42h-10.22c0.048,1.743,0.486,3.063,1.32,3.965c0.836,0.903,2.011,1.354,3.523,1.354
				c1.602,0,3.182-0.334,4.741-1.001v2.002c-0.796,0.344-1.546,0.588-2.256,0.739C342.042,64.77,341.188,64.844,340.183,64.844z
				 M339.574,51.351c-1.19,0-2.141,0.389-2.848,1.165c-0.708,0.774-1.126,1.85-1.254,3.22h7.76c0-1.415-0.318-2.499-0.948-3.253
				C341.647,51.729,340.751,51.351,339.574,51.351z"/>
		</g>
	</g>
	<g>
		<path fill="#1E1E1E" d="M139.686,97.77h-8.663l-1.839,5.442h2.921v3.007h-9.473v-3.007h2.908l6.567-18.323h-2.908v-2.714h12.293
			v2.714h-3.005l6.729,18.323h2.69v3.007h-9.422v-3.007h2.99L139.686,97.77z M138.779,94.951l-3.199-10.063h-0.329l-3.331,10.063
			H138.779z"/>
		<path fill="#1E1E1E" d="M150.932,110.803V92.407h-2.819v-2.923h6.102v2.627c1.639-1.922,3.621-2.885,5.949-2.885
			c2.352,0,4.295,0.808,5.834,2.422c1.54,1.611,2.308,3.711,2.308,6.291c0,2.709-0.835,4.846-2.507,6.414
			c-1.671,1.565-3.574,2.35-5.707,2.35c-2.212,0-4.171-0.852-5.877-2.559v6.656h3.25v2.922h-9.594v-2.922L150.932,110.803
			L150.932,110.803z M154.165,98.096c0,0.922,0.19,1.805,0.569,2.646c0.381,0.841,0.985,1.548,1.816,2.117
			c0.83,0.57,1.805,0.854,2.921,0.854c1.567,0,2.862-0.521,3.881-1.572c1.021-1.048,1.53-2.488,1.53-4.322
			c0-1.783-0.532-3.18-1.599-4.187c-1.065-0.998-2.279-1.504-3.639-1.504c-1.453,0-2.729,0.548-3.829,1.636
			C154.714,94.855,154.165,96.299,154.165,98.096z"/>
		<path fill="#1E1E1E" d="M173.06,110.803V92.407h-2.817v-2.923h6.103v2.627c1.638-1.922,3.62-2.885,5.947-2.885
			c2.35,0,4.297,0.808,5.834,2.422c1.54,1.611,2.311,3.711,2.311,6.291c0,2.709-0.836,4.846-2.506,6.414
			c-1.673,1.565-3.573,2.35-5.705,2.35c-2.215,0-4.173-0.852-5.879-2.559v6.656h3.25v2.922h-9.594v-2.922L173.06,110.803
			L173.06,110.803z M176.293,98.096c0,0.922,0.19,1.805,0.571,2.646c0.381,0.841,0.984,1.548,1.814,2.117
			c0.831,0.57,1.804,0.854,2.921,0.854c1.567,0,2.861-0.521,3.882-1.572c1.02-1.048,1.529-2.488,1.529-4.322
			c0-1.783-0.533-3.18-1.599-4.187c-1.066-0.998-2.279-1.504-3.637-1.504c-1.453,0-2.729,0.548-3.831,1.636
			C176.842,94.855,176.293,96.299,176.293,98.096z"/>
		<path fill="#1E1E1E" d="M201.967,106.221v-8.729h3.006v2.128c1.44,2.615,3.323,3.924,5.654,3.924c1.188,0,2.188-0.359,3.008-1.088
			c0.816-0.727,1.227-1.68,1.227-2.854c0-1.141-0.336-1.959-1.004-2.461c-0.668-0.505-1.928-1-3.781-1.498
			c-2.156-0.574-3.753-1.119-4.791-1.636c-1.038-0.512-1.862-1.245-2.482-2.19c-0.613-0.953-0.921-2.078-0.921-3.383
			c0-2.02,0.667-3.629,2.015-4.832c1.342-1.203,3.025-1.808,5.058-1.808c1.924,0,3.71,0.621,5.358,1.867v-1.604h2.938v7.293h-2.938
			v-1.676c-1.232-1.855-2.936-2.785-5.103-2.785c-1.313,0-2.319,0.303-3.022,0.906c-0.705,0.605-1.056,1.33-1.056,2.17
			c0,0.646,0.177,1.217,0.535,1.704c0.354,0.489,0.812,0.851,1.366,1.081c0.552,0.23,1.642,0.551,3.267,0.965
			c2.12,0.555,3.659,1.064,4.617,1.551c0.957,0.478,1.776,1.273,2.472,2.394c0.692,1.116,1.036,2.401,1.036,3.856
			c0,2.049-0.725,3.744-2.17,5.082c-1.444,1.338-3.233,2.008-5.366,2.008c-2.191,0-4.162-0.791-5.912-2.369v1.983L201.967,106.221
			L201.967,106.221L201.967,106.221z"/>
		<path fill="#1E1E1E" d="M220.6,92.407v-2.923h2.183v-2.572l3.284-3.008v5.582h3.096v2.921h-3.096v8.126
			c0,1.304,0.068,2.107,0.216,2.414c0.146,0.306,0.506,0.455,1.082,0.455c0.61,0,1.21-0.113,1.798-0.346v2.988
			c-0.844,0.301-1.684,0.451-2.523,0.451c-1.002,0-1.813-0.223-2.438-0.666c-0.624-0.439-1.016-1.001-1.178-1.665
			c-0.159-0.672-0.241-1.822-0.241-3.46v-8.301L220.6,92.407L220.6,92.407z"/>
		<path fill="#1E1E1E" d="M231.563,97.854c0-2.582,0.854-4.699,2.558-6.353c1.707-1.655,3.788-2.479,6.239-2.479
			c2.41,0,4.479,0.814,6.209,2.446c1.73,1.632,2.595,3.759,2.595,6.386c0,2.629-0.86,4.762-2.585,6.396
			c-1.725,1.639-3.792,2.453-6.219,2.453c-2.484,0-4.573-0.829-6.266-2.488C232.406,102.559,231.563,100.438,231.563,97.854z
			 M235.037,97.846c0,1.651,0.518,3.006,1.547,4.063c1.034,1.057,2.291,1.584,3.777,1.584c1.51,0,2.771-0.534,3.796-1.603
			c1.021-1.065,1.53-2.414,1.53-4.045c0-1.64-0.521-2.99-1.56-4.054c-1.035-1.062-2.294-1.593-3.771-1.593
			c-1.543,0-2.813,0.545-3.816,1.629S235.037,96.252,235.037,97.846z"/>
		<path fill="#1E1E1E" d="M254.659,103.299V92.407h-3.371v-2.923h5.999v3.771c0.367-0.979,0.882-1.792,1.538-2.438
			c0.657-0.642,1.35-1.068,2.084-1.277c0.729-0.207,1.729-0.313,2.999-0.313h0.865v3.318h-0.66c-1.672,0-2.92,0.169-3.74,0.5
			c-0.826,0.335-1.436,0.944-1.834,1.824c-0.396,0.883-0.598,2.463-0.598,4.747v3.681h3.646v2.919h-10.301v-2.919h3.371
			L254.659,103.299L254.659,103.299z"/>
		<path fill="#1E1E1E" d="M282.494,98.686h-14.072c0.206,1.543,0.816,2.795,1.833,3.75c1.013,0.959,2.308,1.436,3.89,1.436
			c2.293,0,4.105-0.918,5.443-2.768l2.906,1.28c-0.948,1.464-2.172,2.55-3.68,3.259c-1.512,0.709-3.094,1.063-4.739,1.063
			c-2.56,0-4.746-0.796-6.562-2.393c-1.814-1.596-2.726-3.75-2.726-6.459c0-2.568,0.884-4.685,2.653-6.343
			c1.77-1.661,3.802-2.489,6.096-2.489c2.246,0,4.285,0.812,6.109,2.43C281.477,93.066,282.424,95.48,282.494,98.686z
			 M279.104,96.299c-0.229-1.176-0.84-2.238-1.83-3.189c-0.991-0.949-2.209-1.428-3.646-1.428c-1.315,0-2.438,0.428-3.372,1.289
			c-0.936,0.859-1.509,1.969-1.715,3.328H279.104z"/>
	</g>
</g>
</svg>
