<?xml version="1.0" encoding="utf-8"?>
<!-- Generator: Adobe Illustrator 16.0.0, SVG Export Plug-In . SVG Version: 6.00 Build 0)  -->
<!DOCTYPE svg PUBLIC "-//W3C//DTD SVG 1.1//EN" "http://www.w3.org/Graphics/SVG/1.1/DTD/svg11.dtd">
<svg version="1.1" id="OBJECTS" xmlns="http://www.w3.org/2000/svg" xmlns:xlink="http://www.w3.org/1999/xlink" x="0px" y="0px"
	 width="577px" height="577px" viewBox="0 0 577 577" enable-background="new 0 0 577 577" xml:space="preserve">
<g>
	<path fill-rule="evenodd" clip-rule="evenodd" fill="#FF4848" d="M531.655,288.875c0.248,132.69-107.983,241.008-240.995,241.184
		C158,530.236,49.799,421.838,49.85,288.812c0.05-132.432,107.83-240.35,240.378-240.688
		C422.957,47.786,531.406,155.931,531.655,288.875z M290.738,469.867c98.56,0.529,179.788-80.312,180.549-179.691
		c0.762-99.458-79.615-180.936-179.384-181.842c-99.638-0.905-181.198,80.02-181.843,180.425
		C109.424,388.046,190.512,469.326,290.738,469.867z"/>
</g>
<g>
	<path fill-rule="evenodd" clip-rule="evenodd" fill="#FF4848" d="M258.772,289.093c-0.315-0.336-0.577-0.63-0.854-0.908
		c-8.314-8.316-16.622-16.639-24.946-24.945c-14.213-14.182-28.45-28.339-42.646-42.538c-3.635-3.635-6.321-7.854-7.024-13.067
		c-1.622-12.021,4.91-21.99,16.546-25.321c8.399-2.405,15.629-0.31,21.75,5.79c20.085,20.018,40.135,40.071,60.24,60.07
		c3.567,3.548,7.329,6.898,11.088,10.423c1.771-2.474,3.591-4.809,5.178-7.293c1.61-2.521,3.613-4.67,5.703-6.763
		c13.45-13.475,26.896-26.953,40.359-40.414c5.401-5.4,10.754-10.854,16.288-16.117c6.455-6.137,14.11-8.254,22.67-5.465
		c8.594,2.8,13.819,8.855,15.39,17.795c1.41,8.026-1.242,14.804-6.921,20.486c-6.729,6.733-13.487,13.436-20.217,20.168
		c-10.717,10.721-21.372,21.503-32.15,32.162c-5.114,5.058-10.451,9.89-15.69,14.821c-0.172,0.162-0.373,0.293-0.648,0.507
		c1.101,1.202,2.091,2.335,3.137,3.415c5.451,5.629,10.861,11.301,16.388,16.855c13.825,13.892,27.71,27.724,41.562,41.59
		c3.081,3.083,6.198,6.136,9.163,9.329c3.81,4.102,6.138,8.953,5.865,14.635c-0.524,10.897-6.405,21.899-21.992,22.95
		c-6.833,0.461-12.407-2.311-17.091-6.979c-19.779-19.704-39.522-39.443-59.202-59.246c-1.865-1.876-3.196-4.283-4.773-6.445
		c-1.013-1.387-2.023-2.775-3.147-4.318c-1.373,1.282-2.73,2.488-4.021,3.763c-11.24,11.099-22.485,22.194-33.695,33.323
		c-11.125,11.045-22.176,22.165-33.325,33.185c-9.371,9.262-24.459,8.949-32.897-0.684c-6.167-7.041-9.691-20.156,0.5-30.792
		c0.747-0.779,1.491-1.562,2.253-2.326c10.848-10.873,21.693-21.748,32.552-32.609c8.342-8.344,16.727-16.646,25.045-25.014
		C252.443,295.859,255.553,292.473,258.772,289.093z"/>
</g>
</svg>
