<svg xmlns="http://www.w3.org/2000/svg" width="43.999" height="44" viewBox="0 0 43.999 44">
  <g id="eth" transform="translate(0 -0.001)">
    <g id="_1421344023328" transform="translate(0 0.001)">
      <path id="Path_75" data-name="Path 75" d="M43.341,27.326A22,22,0,1,1,27.319.659,22,22,0,0,1,43.341,27.326Z" transform="translate(0 -0.001)" fill="#e8e8e8"/>
      <g id="Layer_x0020_1" transform="translate(14 8)">
        <g id="_1421394342400">
          <g id="Group_103" data-name="Group 103">
            <path id="Path_77" data-name="Path 77" d="M383.685,0,383.5.627v18.2l.185.184,8.45-4.995Z" transform="translate(-375.234)" fill="#343434"/>
            <path id="Path_78" data-name="Path 78" d="M8.45,0,0,14.021l8.45,4.995Z" fill="#8c8c8c"/>
            <path id="Path_79" data-name="Path 79" d="M387.344,729.882l-.1.127v6.485l.1.3,8.456-11.9Z" transform="translate(-378.894 -709.266)" fill="#3c3c3b"/>
            <path id="Path_80" data-name="Path 80" d="M8.45,736.8v-6.916L0,724.89Z" transform="translate(0 -709.266)" fill="#8c8c8c"/>
            <path id="Path_81" data-name="Path 81" d="M392.07,481.166l8.45-4.995-8.45-3.841Z" transform="translate(-383.62 -462.15)" fill="#141414"/>
            <path id="Path_82" data-name="Path 82" d="M0,476.171l8.45,4.995V472.33Z" transform="translate(0 -462.15)" fill="#393939"/>
          </g>
        </g>
      </g>
    </g>
  </g>
</svg>
