<svg xmlns="http://www.w3.org/2000/svg" width="73.505" height="90.218" viewBox="0 0 73.505 90.218">
  <g id="bitcoin-229833" transform="translate(-10 -4.997)">
    <path id="Path_1181" data-name="Path 1181" d="M80.454,12.025a8.254,8.254,0,0,0-6.866-1.732,35.228,35.228,0,0,1-6.789.66A34.94,34.94,0,0,1,47.664,5.269a1.666,1.666,0,0,0-1.824,0,34.94,34.94,0,0,1-19.135,5.683,35.2,35.2,0,0,1-6.787-.66A8.33,8.33,0,0,0,10,18.485v39.98A29.89,29.89,0,0,0,26.612,85.344L46,95.04a1.677,1.677,0,0,0,1.493,0l19.392-9.7A29.89,29.89,0,0,0,83.5,58.463V18.485A8.335,8.335,0,0,0,80.454,12.025Z" transform="translate(0 0)" fill="#367aff"/>
    <path id="Path_1176" data-name="Path 1176" d="M42.729,15A26.729,26.729,0,1,0,69.458,41.731,26.76,26.76,0,0,0,42.729,15Zm0,50.117A23.388,23.388,0,1,1,66.117,41.731,23.413,23.413,0,0,1,42.729,65.119Z" transform="translate(4.023 6.709)" fill="#fff"/>
    <path id="Path_1177" data-name="Path 1177" d="M40.047,19A20.047,20.047,0,1,0,60.093,39.049,20.069,20.069,0,0,0,40.047,19Zm0,38.423A18.376,18.376,0,1,1,58.423,39.049,18.4,18.4,0,0,1,40.047,57.425Z" transform="translate(6.706 9.391)" fill="#fff"/>
    <path id="Path_1178" data-name="Path 1178" d="M40.3,35.1a6.677,6.677,0,0,0-5.533-10.423v-.835a.835.835,0,1,0-1.671,0v.835H29.757v-.835a.835.835,0,0,0-1.671,0v.86a1.659,1.659,0,0,0-.12,3.3V44.739a1.659,1.659,0,0,0,.12,3.3v.86a.835.835,0,1,0,1.671,0v-.835H33.1V48.9a.835.835,0,1,0,1.671,0v-.835H38.11A6.666,6.666,0,0,0,40.3,35.1ZM38.11,31.354A3.344,3.344,0,0,1,34.769,34.7H31.427V28.013h3.341A3.346,3.346,0,0,1,38.11,31.354Zm0,13.364H31.427V38.036H38.11a3.341,3.341,0,0,1,0,6.682Z" transform="translate(11.088 12.074)" fill="#fff"/>
    <path id="Path_1179" data-name="Path 1179" d="M80.454,12.025a8.254,8.254,0,0,0-6.866-1.732,35.228,35.228,0,0,1-6.789.66A34.94,34.94,0,0,1,47.664,5.269a1.666,1.666,0,0,0-1.824,0,34.94,34.94,0,0,1-19.135,5.683,35.2,35.2,0,0,1-6.787-.66A8.33,8.33,0,0,0,10,18.485v39.98A29.89,29.89,0,0,0,26.612,85.344L46,95.04a1.677,1.677,0,0,0,1.493,0l19.392-9.7A29.89,29.89,0,0,0,83.5,58.463V18.485A8.335,8.335,0,0,0,80.454,12.025Zm-.291,46.438A26.566,26.566,0,0,1,65.4,82.354L46.752,91.677,28.107,82.354A26.562,26.562,0,0,1,13.341,58.463V18.485a5,5,0,0,1,1.833-3.879,4.937,4.937,0,0,1,3.139-1.129,5.054,5.054,0,0,1,.959.094,38.419,38.419,0,0,0,7.434.723A38.265,38.265,0,0,0,46.752,8.645,38.265,38.265,0,0,0,66.8,14.293a38.551,38.551,0,0,0,7.434-.723,4.926,4.926,0,0,1,4.1,1.036,5,5,0,0,1,1.833,3.879Z" transform="translate(0 0)"/>
  </g>
</svg>
