<?xml version="1.0" encoding="utf-8"?>
<!-- Generator: Adobe Illustrator 16.0.0, SVG Export Plug-In . SVG Version: 6.00 Build 0)  -->
<!DOCTYPE svg PUBLIC "-//W3C//DTD SVG 1.1//EN" "http://www.w3.org/Graphics/SVG/1.1/DTD/svg11.dtd">
<svg version="1.1" id="Layer_1" xmlns="http://www.w3.org/2000/svg" xmlns:xlink="http://www.w3.org/1999/xlink" x="0px" y="0px"
	 width="100px" height="100px" viewBox="-4.885 -4.891 100 100" enable-background="new -4.885 -4.891 100 100"
	 xml:space="preserve">
<g id="bitcoin-229846" transform="translate(-4.006 -4.019)">
	<path id="Path_1404" fill="#367AFF" d="M83.256,5.065l10.563,11.25l-10.562,11h-2.813l-0.75-1.875l0.25-1.375l4.625-5.437H70.694
		l0.25-5.125h13.625L81.381,10l-1.438-1.935L80.444,6l0.375-0.937l1.375-0.312L83.256,5.065z"/>
	<path id="Path_1405" fill="#367AFF" d="M15.256,71.065L4.694,82.315l10.563,11h2.813l0.75-1.875l-0.25-1.375l-4.625-5.438h13.874
		l-0.25-5.125H13.944L17.131,76l1.438-1.937L18.069,72l-0.375-0.937l-1.375-0.313L15.256,71.065z"/>
	<path id="Path_1393" d="M49.109,18.452c-16.911,0-30.62,13.709-30.62,30.62c0,16.912,13.709,30.621,30.62,30.621
		c16.909,0,30.617-13.707,30.62-30.615C79.713,32.172,66.014,18.471,49.109,18.452z M49.109,76.47
		c-15.133,0-27.399-12.268-27.399-27.401c0-15.132,12.267-27.4,27.399-27.4s27.4,12.268,27.4,27.4
		C76.494,64.195,64.235,76.454,49.109,76.47z"/>
	<path id="Path_1394" d="M49.109,25.704c-12.905,0-23.368,10.462-23.368,23.368c0,12.906,10.463,23.369,23.368,23.369
		c12.906,0,23.368-10.463,23.368-23.369l0,0C72.459,36.173,62.007,25.722,49.109,25.704z M49.109,70.828
		c-12.016,0-21.756-9.741-21.756-21.756s9.74-21.756,21.756-21.756s21.756,9.741,21.756,21.756
		C70.852,61.082,61.12,70.815,49.109,70.828L49.109,70.828z"/>
	<path id="Path_1395" d="M55.574,47.912c1.024-1.269,1.587-2.849,1.595-4.48c-0.005-4.003-3.249-7.247-7.252-7.252H49.11v-0.806
		c0-0.445-0.361-0.806-0.807-0.805c-0.444,0-0.805,0.36-0.805,0.805v0.806h-3.224v-0.806c0-0.445-0.361-0.806-0.807-0.805
		c-0.444,0-0.805,0.36-0.805,0.805v0.806h-1.616c-0.891-0.022-1.63,0.681-1.652,1.571c-0.021,0.89,0.682,1.629,1.572,1.651
		c0.026,0.001,0.053,0.001,0.08,0v19.339c-0.891-0.022-1.63,0.681-1.652,1.571c-0.021,0.891,0.682,1.629,1.572,1.651
		c0.026,0.001,0.053,0.001,0.08,0h1.611v0.806c0,0.445,0.36,0.807,0.806,0.807c0.445,0.001,0.807-0.359,0.807-0.805
		c0,0,0-0.001,0-0.002v-0.806h3.223v0.806c0,0.445,0.36,0.807,0.806,0.807c0.445,0.001,0.807-0.359,0.807-0.805c0,0,0-0.001,0-0.002
		v-0.806h4.029c3.995,0.011,7.243-3.218,7.254-7.214c0.009-3.071-1.924-5.813-4.819-6.839H55.574z M53.947,43.432
		c-0.003,2.224-1.805,4.025-4.028,4.029h-5.644v-8.058h5.642C52.141,39.405,53.945,41.207,53.947,43.432z M53.141,58.742h-8.866
		v-8.058h8.864c2.226-0.002,4.03,1.801,4.031,4.026s-1.802,4.03-4.027,4.031c-0.001,0-0.003,0-0.004,0H53.141z"/>
	<path id="Path_1396" d="M12.736,79.093c-0.314,0.316-0.313,0.827,0.004,1.142c0.15,0.149,0.354,0.234,0.567,0.235h14.048
		c0.445,0,0.807-0.361,0.807-0.807s-0.36-0.806-0.806-0.807c0,0,0,0-0.001,0h-12.1l3.172-3.172c1.282-1.287,1.282-3.369,0-4.656
		c-1.304-1.243-3.354-1.243-4.657,0l-8.799,8.795c-1.286,1.285-1.287,3.369-0.002,4.655c0.001,0.001,0.001,0.001,0.002,0.001
		l8.795,8.797c1.287,1.285,3.373,1.285,4.659-0.002s1.285-3.373-0.002-4.659l0,0l-3.172-3.173h12.1
		c0.445,0.001,0.807-0.359,0.807-0.805s-0.36-0.807-0.806-0.807h-0.001H13.3c-0.446,0-0.807,0.363-0.806,0.809
		c0,0.213,0.084,0.416,0.234,0.567l4.548,4.548c0.656,0.655,0.658,1.719,0.003,2.375c-0.001,0-0.002,0.002-0.003,0.002
		c-0.665,0.637-1.714,0.637-2.379,0l-8.789-8.794c-0.656-0.655-0.657-1.72-0.002-2.377c0.001-0.001,0.002-0.001,0.002-0.002
		l8.791-8.794c0.666-0.636,1.714-0.636,2.379,0c0.656,0.657,0.656,1.722,0,2.379L12.736,79.093z"/>
	<path id="Path_1397" fill="#367AFF" d="M32.189,78.888c-0.445,0-0.806,0.36-0.806,0.805v4.836c-0.001,0.445,0.36,0.807,0.806,0.807
		c0.444,0,0.806-0.361,0.806-0.806c0-0.001,0-0.001,0-0.001v-4.836c0.001-0.443-0.359-0.805-0.804-0.805
		C32.191,78.888,32.19,78.888,32.189,78.888z"/>
	<path id="Path_1402" d="M27.393,78.888c-0.445,0-0.806,0.36-0.806,0.805v4.836c-0.001,0.445,0.36,0.807,0.805,0.807
		c0.445,0,0.807-0.361,0.807-0.806c0-0.001,0-0.001,0-0.001v-4.836c0.001-0.443-0.359-0.805-0.804-0.805
		C27.394,78.888,27.394,78.888,27.393,78.888z"/>
	<path id="Path_1398" fill="#367AFF" d="M37.024,78.888c-0.445,0-0.806,0.36-0.806,0.805v4.836c0,0.445,0.36,0.807,0.806,0.807
		c0.444,0,0.806-0.361,0.807-0.806c0-0.001,0-0.001,0-0.001v-4.836c0-0.443-0.359-0.805-0.805-0.805
		C37.026,78.888,37.025,78.888,37.024,78.888z"/>
	<path id="Path_1399" d="M93.275,13.747l-8.8-8.795c-1.303-1.244-3.354-1.244-4.657,0c-1.282,1.288-1.282,3.369,0,4.657l3.172,3.172
		h-12.1c-0.445,0-0.807,0.36-0.807,0.805s0.36,0.806,0.806,0.807h0.001h14.045c0.445-0.001,0.807-0.363,0.806-0.808
		c0-0.213-0.085-0.417-0.234-0.568l-4.548-4.548c-0.657-0.655-0.658-1.718-0.003-2.375c0.001-0.001,0.002-0.002,0.003-0.002
		c0.665-0.637,1.714-0.637,2.379,0l8.794,8.794c0.656,0.656,0.657,1.72,0.002,2.377c-0.001,0-0.002,0.001-0.002,0.002l-8.794,8.794
		c-0.666,0.636-1.714,0.636-2.379,0c-0.656-0.657-0.656-1.722,0-2.379l4.548-4.548c0.314-0.316,0.313-0.827-0.004-1.141
		c-0.15-0.15-0.354-0.234-0.567-0.235H70.887c-0.445,0-0.807,0.36-0.807,0.806c0,0.445,0.36,0.806,0.806,0.807c0,0,0,0,0.001,0h12.1
		l-3.172,3.172c-1.287,1.287-1.287,3.373,0,4.66c1.287,1.287,3.373,1.287,4.66,0l8.8-8.8c1.286-1.284,1.287-3.367,0.004-4.653
		c-0.002-0.001-0.003-0.002-0.004-0.003V13.747z"/>
	<path id="Path_1400" fill="#367AFF" d="M66.054,19.338c0.445,0,0.806-0.361,0.806-0.806v-4.834c0.001-0.445-0.36-0.807-0.805-0.807
		c-0.445,0-0.807,0.36-0.807,0.805c0,0,0,0.001,0,0.001v4.835C65.248,18.977,65.609,19.338,66.054,19.338L66.054,19.338z"/>
	<path id="Path_1403" d="M70.852,19.338c0.445,0,0.806-0.361,0.806-0.806v-4.834c0.001-0.445-0.359-0.807-0.805-0.807
		c-0.445,0-0.807,0.36-0.807,0.805c0,0,0,0.001,0,0.001v4.835C70.046,18.977,70.407,19.338,70.852,19.338L70.852,19.338z"/>
	<path id="Path_1401" fill="#367AFF" d="M61.219,19.338c0.445,0,0.806-0.361,0.806-0.806v-4.834c0.001-0.445-0.36-0.807-0.806-0.807
		c-0.444,0-0.806,0.36-0.806,0.805c0,0,0,0.001,0,0.001v4.835C60.413,18.977,60.774,19.338,61.219,19.338L61.219,19.338z"/>
</g>
</svg>
