<?xml version="1.0" encoding="utf-8"?>
<!-- Generator: Adobe Illustrator 16.0.0, SVG Export Plug-In . SVG Version: 6.00 Build 0)  -->
<!DOCTYPE svg PUBLIC "-//W3C//DTD SVG 1.1//EN" "http://www.w3.org/Graphics/SVG/1.1/DTD/svg11.dtd">
<svg version="1.1" id="Layer_1" xmlns="http://www.w3.org/2000/svg" xmlns:xlink="http://www.w3.org/1999/xlink" x="0px" y="0px"
	 width="100px" height="100px" viewBox="-25.059 -4.946 100 100" enable-background="new -25.059 -4.946 100 100"
	 xml:space="preserve">
<g id="bitcoin-229829" transform="translate(-16.5 -4)">
	<rect id="Rectangle_162" x="20.331" y="13.686" fill="#367AFF" width="44.857" height="66.218"/>
	<path id="Path_1361" d="M40.114,9.463h8.598c0.473,0,0.859-0.385,0.859-0.858c0-0.475-0.387-0.86-0.859-0.86h-8.598
		c-0.475,0-0.859,0.385-0.859,0.86C39.255,9.077,39.64,9.463,40.114,9.463z"/>
	<path id="Path_1362" d="M36.357,9.394c0.102,0.049,0.213,0.072,0.327,0.068c0.465-0.014,0.84-0.388,0.854-0.854
		c0.002-0.112-0.021-0.224-0.068-0.327c-0.038-0.106-0.103-0.201-0.188-0.274c-0.073-0.088-0.168-0.153-0.275-0.19
		c-0.208-0.085-0.443-0.085-0.652,0c-0.108,0.037-0.202,0.102-0.275,0.19c-0.086,0.071-0.152,0.167-0.187,0.274
		c-0.047,0.099-0.071,0.208-0.069,0.32c-0.002,0.227,0.09,0.445,0.256,0.601C36.152,9.29,36.248,9.357,36.357,9.394z"/>
	<path id="Path_1363" d="M68.475,12.901V9.463c-0.006-4.743-3.851-8.586-8.592-8.592H25.511c-4.744,0.003-8.591,3.848-8.598,8.592
		V12.9c-0.472,0-0.854,0.381-0.854,0.854v5.166c0,0.472,0.382,0.854,0.854,0.854v5.155c-0.472,0-0.854,0.383-0.854,0.855v1.718
		c0,0.472,0.382,0.855,0.854,0.855v1.719c-0.472,0-0.854,0.381-0.854,0.854l0,0v1.718c0,0.472,0.382,0.855,0.854,0.855v55.014
		c0.007,4.741,3.85,8.586,8.593,8.592h34.377c4.741-0.006,8.586-3.851,8.592-8.592V23.211c0.472,0,0.853-0.382,0.853-0.854l0,0
		V13.76c0.003-0.473-0.377-0.856-0.849-0.858C68.477,12.901,68.475,12.901,68.475,12.901z M20.355,14.619h44.682v63.586H20.355
		V14.619z M25.511,4.307h34.373c2.845,0.004,5.15,2.31,5.154,5.156V12.9H20.355V9.463C20.36,6.617,22.666,4.311,25.511,4.307z
		 M59.883,93.673H25.511c-2.845-0.004-5.151-2.311-5.155-5.155v-8.595h44.682v8.594C65.036,91.362,62.728,93.669,59.883,93.673z"/>
	<path id="Path_1366" d="M42.696,83.36c-1.898,0-3.436,1.539-3.436,3.438c0,1.897,1.538,3.437,3.436,3.437
		c1.898,0,3.438-1.539,3.438-3.437l0,0C46.132,84.9,44.594,83.362,42.696,83.36z M42.696,88.516c-0.949,0-1.718-0.77-1.718-1.719
		s0.769-1.719,1.718-1.719c0.95,0,1.72,0.77,1.72,1.719C44.414,87.747,43.646,88.515,42.696,88.516z"/>
	<g id="transfer-229836" transform="translate(-7.5 12.5)">
		<path id="Path_1372" fill="#FFFFFF" d="M50.26,26.819c3.833,0,6.941-3.108,6.941-6.942c0-3.833-3.108-6.942-6.941-6.942
			c-3.834,0-6.943,3.108-6.943,6.942C43.322,23.709,46.428,26.815,50.26,26.819z M50.26,15.071c2.654,0,4.806,2.151,4.806,4.806
			c0,2.655-2.151,4.806-4.806,4.806c-2.655,0-4.807-2.151-4.807-4.806C45.457,17.223,47.606,15.074,50.26,15.071z"/>
		<path id="Path_1373" fill="#FFFFFF" d="M56.667,28.955H43.851c-2.948,0.004-5.335,2.393-5.34,5.34v14.952
			c0,0.591,0.479,1.068,1.068,1.068h21.359c0.591,0,1.067-0.478,1.067-1.068V34.295C62.003,31.348,59.616,28.959,56.667,28.955z
			 M59.871,48.179h-2.136V36.431c0-0.295-0.238-0.534-0.533-0.534s-0.534,0.239-0.534,0.534v11.748H43.851V36.431
			c0-0.295-0.238-0.534-0.534-0.534c-0.295,0-0.534,0.239-0.534,0.534v11.748h-2.136V34.295c0-1.769,1.435-3.204,3.204-3.204h12.816
			c1.77,0,3.203,1.435,3.203,3.204V48.179z"/>
	</g>
</g>
</svg>
