<?xml version="1.0" encoding="utf-8"?>
<!-- Generator: Adobe Illustrator 16.0.0, SVG Export Plug-In . SVG Version: 6.00 Build 0)  -->
<!DOCTYPE svg PUBLIC "-//W3C//DTD SVG 1.1//EN" "http://www.w3.org/Graphics/SVG/1.1/DTD/svg11.dtd">
<svg version="1.1" id="Layer_1" xmlns="http://www.w3.org/2000/svg" xmlns:xlink="http://www.w3.org/1999/xlink" x="0px" y="0px"
	 width="100px" height="100px" viewBox="-0.618 -4.946 100 100" enable-background="new -0.618 -4.946 100 100"
	 xml:space="preserve">
<g id="finger-229838" transform="translate(-4.25 -6.682)">
	<circle id="Ellipse_20" fill="#367AFF" cx="88.973" cy="67.645" r="13.289"/>
	<path id="Path_1374" d="M11.009,33.983c0.848,0.463,1.911,0.151,2.374-0.697c0.001-0.001,0.002-0.001,0.002-0.003
		c7.18-13.319,21.073-21.642,36.204-21.686c1.491,0,2.981,0.082,4.463,0.245c0.962,0.106,1.828-0.588,1.934-1.55
		c0.106-0.962-0.588-1.829-1.55-1.934c-1.609-0.177-3.229-0.266-4.847-0.266c-16.415,0.044-31.489,9.069-39.281,23.517
		C9.844,32.457,10.159,33.522,11.009,33.983L11.009,33.983z"/>
	<path id="Path_1375" d="M8.345,60.903c-0.53-2.682-0.796-5.408-0.797-8.142c-0.003-4.833,0.84-9.63,2.492-14.173
		c0.155-0.459-0.091-0.957-0.55-1.112c-0.445-0.151-0.93,0.076-1.1,0.514c-1.72,4.735-2.598,9.735-2.594,14.771
		c0.001,2.848,0.279,5.688,0.829,8.48c0.082,0.41,0.441,0.706,0.858,0.706c0.058,0,0.114-0.006,0.171-0.018
		C8.129,61.838,8.438,61.377,8.345,60.903z"/>
	<path id="Path_1376" d="M42.534,16.67c-5.459,0.965-10.617,3.194-15.06,6.51c-0.505,0.373-0.997,0.76-1.477,1.159
		c-0.373,0.31-0.424,0.862-0.115,1.234c0.309,0.372,0.862,0.424,1.234,0.114c0.457-0.378,0.924-0.746,1.403-1.102
		c4.226-3.152,9.131-5.271,14.322-6.19c9.338-1.666,18.948,0.61,26.545,6.288c0.387,0.289,0.936,0.21,1.226-0.177
		c0.289-0.387,0.211-0.936-0.177-1.225l0,0C62.45,17.312,52.349,14.918,42.534,16.67z"/>
	<path id="Path_1377" d="M11.635,68.469c2.902-1.948,4.651-5.206,4.674-8.702c0-0.624-0.056-1.246-0.167-1.859
		c-1.74-9.632,0.853-19.542,7.087-27.087c0.604-0.756,0.482-1.858-0.274-2.463c-0.739-0.591-1.815-0.488-2.429,0.233
		c-6.891,8.339-9.758,19.292-7.833,29.938c0.074,0.408,0.111,0.822,0.111,1.236c-0.022,2.337-1.199,4.512-3.144,5.809
		c-0.295,0.202-0.58,0.422-0.86,0.64L8.39,66.53c-0.774,0.58-0.933,1.679-0.352,2.453c0.58,0.774,1.678,0.933,2.453,0.352
		l0.474-0.366C11.184,68.801,11.401,68.629,11.635,68.469z"/>
	<path id="Path_1378" d="M19.596,70.501c0.57-0.781,0.399-1.876-0.382-2.447c-0.744-0.542-1.782-0.416-2.374,0.29
		c-0.916,1.167-2.006,2.188-3.231,3.022c-0.689,0.473-1.391,1-2.198,1.662c-0.75,0.611-0.861,1.715-0.251,2.465
		c0.611,0.749,1.715,0.861,2.464,0.25c0.004-0.003,0.008-0.006,0.012-0.01c0.722-0.595,1.339-1.061,1.943-1.477
		C17.104,73.221,18.459,71.953,19.596,70.501z"/>
	<path id="Path_1379" d="M49.642,29.245c-12.587-0.396-23.113,9.487-23.509,22.075c-0.016,0.502-0.015,1.006,0.002,1.508
		c0.036,0.941,0.809,1.687,1.75,1.688h0.066c0.967-0.037,1.721-0.85,1.686-1.816c-0.369-10.648,7.964-19.581,18.613-19.95
		c0.427-0.015,0.854-0.016,1.281-0.002c0.967,0.005,1.755-0.775,1.761-1.743C51.298,30.072,50.573,29.299,49.642,29.245
		L49.642,29.245z"/>
	<path id="Path_1380" d="M71.485,59.768c-0.001-3.901-0.349-7.795-1.038-11.637c-1.323-7.484-6.452-13.738-13.532-16.5
		c-0.451-0.178-0.959,0.044-1.137,0.494c-0.178,0.451,0.043,0.959,0.494,1.137c6.514,2.542,11.232,8.295,12.448,15.182
		c0.672,3.738,1.01,7.528,1.011,11.326c0,5.497-0.713,10.969-2.121,16.282c-0.126,0.477-0.259,0.954-0.399,1.428
		c-0.132,0.463,0.135,0.947,0.598,1.082c0.079,0.023,0.162,0.035,0.245,0.035c0.389,0,0.73-0.256,0.839-0.63
		c0.144-0.487,0.279-0.979,0.409-1.47C70.751,71.039,71.484,65.415,71.485,59.768z"/>
	<path id="Path_1381" d="M66.542,82.357c-0.895-0.363-1.915,0.067-2.278,0.962c-0.001,0.001-0.002,0.003-0.002,0.004
		c-1.409,3.472-3.122,6.811-5.118,9.98c-0.517,0.817-0.272,1.9,0.547,2.416c0.818,0.517,1.9,0.272,2.417-0.547l0,0
		c2.107-3.344,3.914-6.868,5.399-10.531C67.871,83.744,67.44,82.722,66.542,82.357C66.543,82.357,66.543,82.357,66.542,82.357z"/>
	<path id="Path_1382" d="M29.445,59.768c0-0.483-0.392-0.875-0.876-0.875c-0.483,0-0.875,0.392-0.875,0.875
		c-0.021,7.262-3.632,14.043-9.646,18.112c-0.721,0.496-1.411,1.034-2.067,1.613c-0.365,0.318-0.403,0.872-0.084,1.237
		c0.318,0.364,0.872,0.401,1.237,0.083c0.604-0.532,1.238-1.029,1.901-1.486C25.527,74.932,29.425,67.609,29.445,59.768z"/>
	<path id="Path_1383" d="M60.962,49.837c0.131,0.959,1.014,1.63,1.973,1.5c0.958-0.131,1.631-1.013,1.501-1.972
		c-0.008-0.051-0.017-0.101-0.028-0.151c-1.546-8.566-9.74-14.261-18.308-12.722c-1.17,0.21-2.312,0.551-3.405,1.015
		c-0.89,0.38-1.304,1.411-0.923,2.301c0.38,0.889,1.411,1.302,2.3,0.922c0.853-0.36,1.742-0.625,2.652-0.788
		C53.386,38.748,59.759,43.175,60.962,49.837z"/>
	<path id="Path_1384" d="M64.378,56.273c-0.021-0.475-0.423-0.845-0.897-0.824c-0.01,0.001-0.02,0.001-0.028,0.002
		c-0.482,0.028-0.851,0.442-0.823,0.925c0.065,1.131,0.098,2.263,0.098,3.393c-0.021,12.829-4.366,25.275-12.332,35.333
		c-0.301,0.379-0.236,0.932,0.145,1.231c0.381,0.302,0.933,0.236,1.232-0.145l0,0c8.208-10.366,12.683-23.196,12.703-36.42
		C64.475,58.605,64.442,57.44,64.378,56.273z"/>
	<path id="Path_1385" d="M29.485,79.175c0.307-0.374,0.253-0.926-0.121-1.233c-0.374-0.307-0.927-0.253-1.233,0.121l0,0
		c-1.769,2.154-3.838,4.044-6.143,5.611c-0.377,0.258-0.731,0.534-1.077,0.815c-0.386,0.293-0.461,0.842-0.17,1.228
		c0.292,0.386,0.842,0.462,1.228,0.17c0.018-0.014,0.035-0.027,0.051-0.042c0.306-0.252,0.622-0.492,0.953-0.724
		C25.416,83.462,27.61,81.459,29.485,79.175z"/>
	<path id="Path_1386" d="M39.55,41.418c-0.725-0.64-1.83-0.571-2.47,0.154c0,0-0.001,0.001-0.001,0.002
		c-3.201,3.607-4.564,8.487-3.695,13.231c0.294,1.638,0.443,3.3,0.443,4.964c-0.008,4.214-0.966,8.372-2.802,12.164
		c-0.392,0.885,0.008,1.92,0.892,2.312c0.841,0.373,1.827,0.032,2.258-0.781c2.067-4.271,3.144-8.953,3.15-13.698
		c0-1.872-0.167-3.741-0.499-5.584c-0.671-3.689,0.391-7.482,2.881-10.286C40.347,43.168,40.277,42.06,39.55,41.418
		C39.551,41.418,39.551,41.418,39.55,41.418z"/>
	<path id="Path_1387" d="M55.594,69.83c0.054,0.011,0.107,0.017,0.161,0.017c0.422,0,0.783-0.302,0.858-0.717
		c0.57-3.088,0.857-6.223,0.858-9.363c0-3.069-0.273-6.133-0.818-9.154c-0.771-4.285-4.869-7.132-9.153-6.361
		s-7.131,4.869-6.361,9.153c0.377,2.1,0.567,4.229,0.568,6.361c0,1.04-0.045,2.095-0.14,3.14c-0.042,0.481,0.314,0.906,0.796,0.95
		c0.001,0,0.001,0,0.002,0c0.48,0.036,0.902-0.316,0.95-0.796c0.098-1.095,0.146-2.202,0.146-3.294
		c-0.001-2.236-0.2-4.47-0.596-6.672c-0.614-3.329,1.587-6.525,4.916-7.139c3.329-0.614,6.526,1.587,7.14,4.916
		c0.004,0.02,0.008,0.04,0.01,0.059c0.524,2.919,0.788,5.877,0.788,8.842c0,3.034-0.278,6.061-0.829,9.045
		C54.805,69.29,55.119,69.744,55.594,69.83z"/>
	<path id="Path_1388" d="M54.427,74.533c-0.916-0.313-1.911,0.175-2.226,1.09c-2.365,6.812-6.191,13.023-11.211,18.198
		c-0.672,0.695-0.654,1.804,0.041,2.476c0.694,0.673,1.802,0.654,2.475-0.039c5.378-5.546,9.477-12.202,12.008-19.501
		c0.315-0.912-0.169-1.907-1.082-2.222C54.43,74.534,54.428,74.534,54.427,74.533z"/>
	<path id="Path_1389" d="M42.849,70.339c0.247-0.936-0.311-1.895-1.246-2.142c-0.909-0.241-1.847,0.278-2.123,1.178
		c-2.189,7.514-6.812,14.089-13.14,18.692c-0.783,0.571-0.954,1.668-0.383,2.45c0.571,0.782,1.668,0.954,2.45,0.383
		C35.365,85.835,40.445,78.603,42.849,70.339z"/>
	<path id="Path_1390" d="M50.62,51.699c-0.213-0.943-1.151-1.535-2.095-1.322c-0.885,0.2-1.472,1.044-1.35,1.945
		c0.442,2.457,0.665,4.949,0.665,7.445c-0.02,12.218-5.353,23.822-14.61,31.794c-0.731,0.634-0.811,1.74-0.178,2.472
		c0.632,0.731,1.739,0.812,2.47,0.178c10.026-8.638,15.8-21.209,15.82-34.443C51.341,57.063,51.099,54.362,50.62,51.699z"/>
	<path id="Path_1391" fill="#FFFFFF" d="M94.331,61.942l-7.52,7.521l-3.141-3.143c-0.685-0.684-1.793-0.684-2.476,0
		c-0.685,0.684-0.685,1.793,0,2.477l0,0l4.378,4.38c0.685,0.685,1.793,0.685,2.478,0l0,0l8.76-8.761
		c0.685-0.684,0.685-1.792,0-2.477c-0.684-0.684-1.793-0.684-2.477,0L94.331,61.942z"/>
	<path id="Path_1392" d="M94.203,54.56c0.023-0.599,0.054-1.197,0.054-1.8C94.17,32.72,80.813,15.162,61.521,9.731
		c-0.935-0.25-1.896,0.305-2.146,1.239c-0.246,0.919,0.285,1.866,1.198,2.134c17.782,5.002,30.097,21.184,30.18,39.656
		c0,0.302-0.013,0.605-0.021,0.906c-0.574-0.075-1.152-0.114-1.732-0.119c-0.963,0-1.924,0.099-2.867,0.296
		c-0.199-2.799-0.543-5.586-1.032-8.35c-1.208-6.752-4.286-13.031-8.883-18.123c-0.634-0.731-1.74-0.811-2.472-0.178
		s-0.812,1.74-0.178,2.472c0.017,0.019,0.032,0.037,0.05,0.056c4.159,4.606,6.943,10.286,8.037,16.395
		c0.524,2.959,0.877,5.947,1.053,8.946c-1.613,0.816-3.055,1.936-4.244,3.299c-0.071-3.846-0.446-7.679-1.122-11.466
		c-2.95-15.688-18.058-26.015-33.747-23.065c-15.516,2.917-25.82,17.744-23.146,33.303c0.157,0.87,0.236,1.753,0.236,2.636
		c-0.001,1.09-0.122,2.178-0.362,3.24c-0.107,0.472,0.188,0.94,0.66,1.047c0,0.001,0,0.001,0.001,0.001
		c0.064,0.016,0.13,0.023,0.196,0.022c0.409,0.001,0.764-0.283,0.854-0.683c0.268-1.19,0.404-2.407,0.405-3.627
		c-0.001-0.988-0.088-1.975-0.263-2.948c-2.657-14.757,7.153-28.874,21.91-31.53c14.758-2.657,28.875,7.154,31.531,21.911
		c0.744,4.149,1.117,8.355,1.116,12.57c0,0.349-0.009,0.697-0.015,1.046c-1.495,2.674-2.048,5.773-1.568,8.8
		c-0.067,0.477-0.133,0.953-0.211,1.428c-1.036,6.301-2.928,12.431-5.624,18.219c-0.431,0.866-0.078,1.917,0.788,2.348
		c0.865,0.431,1.917,0.078,2.348-0.788c0.014-0.027,0.027-0.055,0.038-0.083c2.24-4.826,3.947-9.88,5.095-15.075
		c4.472,6.31,13.213,7.8,19.523,3.327c6.31-4.473,7.799-13.214,3.327-19.523C98.874,57.265,96.71,55.561,94.203,54.56z
		 M89.001,79.822c-6.771,0-12.262-5.489-12.262-12.262c0-6.771,5.49-12.262,12.262-12.262c6.772,0,12.263,5.49,12.263,12.262
		c0,0.002,0,0.003,0,0.004C101.253,74.332,95.767,79.815,89.001,79.822z"/>
</g>
</svg>
