<svg xmlns="http://www.w3.org/2000/svg" width="85.608" height="90.218" viewBox="0 0 85.608 90.218">
  <g id="donation-229842" transform="translate(-6.5 -5.142)">
    <circle id="Ellipse_19" data-name="Ellipse 19" cx="25.5" cy="25.5" r="25.5" transform="translate(33.5 6.251)" fill="#367aff"/>
    <path id="Path_1166" data-name="Path 1166" d="M48.655,59.39A27.124,27.124,0,1,0,21.531,32.266,27.156,27.156,0,0,0,48.655,59.39Zm0-50.858A23.734,23.734,0,1,1,24.922,32.266,23.76,23.76,0,0,1,48.655,8.533Z" transform="translate(10.45)" fill="#0e223c"/>
    <path id="Path_1167" data-name="Path 1167" d="M45.874,49.828A20.343,20.343,0,1,0,25.531,29.485,20.366,20.366,0,0,0,45.874,49.828Zm0-38.991A18.648,18.648,0,1,1,27.226,29.485,18.67,18.67,0,0,1,45.874,10.837Z" transform="translate(13.231 2.781)" fill="#fff"/>
    <path id="Path_1168" data-name="Path 1168" d="M32.067,36.876a1.685,1.685,0,0,0,1.575,1.672v.871a.848.848,0,0,0,1.7,0v-.848h3.391v.848a.848.848,0,0,0,1.7,0v-.848h3.391a6.764,6.764,0,0,0,2.226-13.157,6.778,6.778,0,0,0-5.616-10.577V13.99a.848.848,0,0,0-1.7,0v.848H35.337V13.99a.848.848,0,0,0-1.7,0v.871a1.685,1.685,0,0,0-.122,3.35V35.2A1.694,1.694,0,0,0,32.067,36.876ZM47.2,31.79a3.394,3.394,0,0,1-3.391,3.391H37.032V28.4h6.781A3.394,3.394,0,0,1,47.2,31.79ZM43.813,21.618a3.394,3.394,0,0,1-3.391,3.391H37.032V18.228h3.391A3.394,3.394,0,0,1,43.813,21.618Z" transform="translate(17.776 5.562)" fill="#fff"/>
    <path id="Path_1180" data-name="Path 1180" d="M91.793,50.675a4.657,4.657,0,0,0-5.867-2.8l-16.1,7.539a5.017,5.017,0,0,0,.244-1.477,5.092,5.092,0,0,0-5.086-5.086H50.921A11.81,11.81,0,0,0,39.557,40.38H25.148V37.837a1.7,1.7,0,0,0-1.7-1.7H8.2a1.7,1.7,0,0,0-1.7,1.7V66.657a1.7,1.7,0,0,0,1.7,1.7H23.453a1.7,1.7,0,0,0,1.7-1.7V64.165l27.114,9.173a10.692,10.692,0,0,0,3.151.47,10.052,10.052,0,0,0,5.893-1.826l27.816-15.1.554-.376A4.674,4.674,0,0,0,91.793,50.675ZM21.757,64.961H9.891V39.533H21.757Zm67.069-9.919L60.4,70.549a8.8,8.8,0,0,1-7.62,1.173L25.148,62.374v-20.3h14.41A10.127,10.127,0,0,1,49.446,49.9a.845.845,0,0,0,.824.653H64.986a3.391,3.391,0,1,1,0,6.781H48.832a.848.848,0,1,0,0,1.7H64.986a5.014,5.014,0,0,0,2.129-.483c.024-.008.049-.007.073-.017l19.365-9.076a2.952,2.952,0,0,1,3.67,1.861A3.017,3.017,0,0,1,88.827,55.042Z" transform="translate(0 21.553)" fill="#0e223c"/>
  </g>
</svg>
