<svg xmlns="http://www.w3.org/2000/svg" width="90.109" height="90.109" viewBox="0 0 90.109 90.109">
  <g id="block-229843" transform="translate(-4 -4.25)">
    <rect id="Rectangle_10" data-name="Rectangle 10" width="9" height="13" transform="translate(16 54.25)" fill="#367aff"/>
    <rect id="Rectangle_11" data-name="Rectangle 11" width="9" height="27" transform="translate(32 30.25)" fill="#367aff"/>
    <rect id="Rectangle_12" data-name="Rectangle 12" width="9" height="17" transform="translate(48 13.25)" fill="#367aff"/>
    <rect id="Rectangle_13" data-name="Rectangle 13" width="9" height="13" transform="translate(64 23.25)" fill="#367aff"/>
    <rect id="Rectangle_14" data-name="Rectangle 14" width="9" height="25" transform="translate(80 30.25)" fill="#367aff"/>
    <path id="Path_1170" data-name="Path 1170" d="M11.609,52.777h4.023v5.632a.8.8,0,0,0,1.609,0V52.777h4.023a1.608,1.608,0,0,0,1.609-1.609V38.3a1.608,1.608,0,0,0-1.609-1.609H17.241V31.055a.8.8,0,1,0-1.609,0v5.632H11.609A1.608,1.608,0,0,0,10,38.3V51.168A1.608,1.608,0,0,0,11.609,52.777ZM13.218,39.9h6.436v9.655H13.218Z" transform="translate(3.655 15.836)" fill="#0e223c"/>
    <path id="Path_1171" data-name="Path 1171" d="M21.609,52.259h4.023v5.632a.8.8,0,0,0,1.609,0V52.259h4.023a1.608,1.608,0,0,0,1.609-1.609V23.3a1.608,1.608,0,0,0-1.609-1.609H27.241V16.055a.8.8,0,1,0-1.609,0v5.632H21.609A1.608,1.608,0,0,0,20,23.3V50.65A1.608,1.608,0,0,0,21.609,52.259ZM23.218,24.9h6.436V49.041H23.218Z" transform="translate(9.745 6.7)" fill="#0e223c"/>
    <path id="Path_1172" data-name="Path 1172" d="M31.609,31.6h4.023v5.632a.8.8,0,0,0,1.609,0V31.6h4.023A1.608,1.608,0,0,0,42.873,30V12.3a1.608,1.608,0,0,0-1.609-1.609H37.241V5.055a.8.8,0,0,0-1.609,0v5.632H31.609A1.608,1.608,0,0,0,30,12.3V30A1.608,1.608,0,0,0,31.609,31.6Zm1.609-17.7h6.436V28.386H33.218Z" transform="translate(15.836)" fill="#0e223c"/>
    <path id="Path_1173" data-name="Path 1173" d="M41.609,33.777h4.023v5.632a.8.8,0,1,0,1.609,0V33.777h4.023a1.608,1.608,0,0,0,1.609-1.609V19.3a1.608,1.608,0,0,0-1.609-1.609H47.241V12.055a.8.8,0,0,0-1.609,0v5.632H41.609A1.608,1.608,0,0,0,40,19.3V32.168A1.608,1.608,0,0,0,41.609,33.777ZM43.218,20.9h6.436v9.655H43.218Z" transform="translate(21.927 4.264)" fill="#0e223c"/>
    <path id="Path_1174" data-name="Path 1174" d="M51.609,49.041h4.023v5.632a.8.8,0,1,0,1.609,0V49.041h4.023a1.608,1.608,0,0,0,1.609-1.609V23.3a1.608,1.608,0,0,0-1.609-1.609H57.241V16.055a.8.8,0,0,0-1.609,0v5.632H51.609A1.608,1.608,0,0,0,50,23.3V47.432A1.608,1.608,0,0,0,51.609,49.041ZM53.218,24.9h6.436V45.823H53.218Z" transform="translate(28.018 6.7)" fill="#0e223c"/>
    <path id="Path_1175" data-name="Path 1175" d="M92.5,87.923H10.436V5.859a1.609,1.609,0,1,0-3.218,0V87.923H5.609a1.609,1.609,0,1,0,0,3.218H7.218V92.75a1.609,1.609,0,0,0,3.218,0V91.141H92.5a1.609,1.609,0,1,0,0-3.218Z" fill="#0e223c"/>
  </g>
</svg>
