<?xml version="1.0" encoding="utf-8"?>
<!-- Generator: Adobe Illustrator 16.0.0, SVG Export Plug-In . SVG Version: 6.00 Build 0)  -->
<!DOCTYPE svg PUBLIC "-//W3C//DTD SVG 1.1//EN" "http://www.w3.org/Graphics/SVG/1.1/DTD/svg11.dtd">
<svg version="1.1" id="OBJECTS" xmlns="http://www.w3.org/2000/svg" xmlns:xlink="http://www.w3.org/1999/xlink" x="0px" y="0px"
	 width="577px" height="577px" viewBox="0 0 577 577" enable-background="new 0 0 577 577" xml:space="preserve">
<g>
	<path fill-rule="evenodd" clip-rule="evenodd" fill="#6AB528" d="M531.655,288.875c0.248,132.69-107.983,241.008-240.995,241.184
		C158,530.236,49.799,421.838,49.85,288.812c0.05-132.432,107.83-240.35,240.378-240.688
		C422.957,47.786,531.406,155.931,531.655,288.875z M290.738,469.867c98.56,0.529,179.788-80.312,180.549-179.691
		c0.762-99.458-79.615-180.936-179.384-181.842c-99.638-0.905-181.198,80.02-181.843,180.425
		C109.424,388.046,190.512,469.326,290.738,469.867z"/>
	<path fill-rule="evenodd" clip-rule="evenodd" fill="#6AB528" d="M254.152,417.109c-6.787-6.865-13.425-13.631-20.121-20.34
		c-18.011-18.045-36.073-36.039-54.064-54.104c-12.703-12.756-13.08-31.236-0.982-43.346c12.169-12.18,30.634-11.95,43.378,0.632
		c9.486,9.365,18.867,18.837,28.305,28.253c1.158,1.156,2.374,2.256,4.521,4.288c1.229-1.742,2.095-3.434,3.372-4.714
		c39.677-39.741,79.373-79.464,119.116-119.139c12.745-12.722,31.217-13.189,43.364-1.267c10.877,10.676,12.152,27.458,2.94,39.61
		c-1.401,1.85-3.043,3.534-4.688,5.18c-53.836,53.862-107.686,107.71-161.538,161.555
		C256.717,414.756,255.618,415.732,254.152,417.109z"/>
</g>
</svg>
