<?xml version="1.0" encoding="utf-8"?>
<!-- Generator: Adobe Illustrator 16.0.0, SVG Export Plug-In . SVG Version: 6.00 Build 0)  -->
<!DOCTYPE svg PUBLIC "-//W3C//DTD SVG 1.1//EN" "http://www.w3.org/Graphics/SVG/1.1/DTD/svg11.dtd">
<svg version="1.1" id="Layer_1" xmlns="http://www.w3.org/2000/svg" xmlns:xlink="http://www.w3.org/1999/xlink" x="0px" y="0px"
	 width="549px" height="551px" viewBox="0 0 549 551" enable-background="new 0 0 549 551" xml:space="preserve">
<g>
	<g>
		<linearGradient id="SVGID_1_" gradientUnits="userSpaceOnUse" x1="19" y1="275.0693" x2="530.8696" y2="275.0693">
			<stop  offset="0" style="stop-color:#0D945D"/>
			<stop  offset="1" style="stop-color:#2CB77F"/>
		</linearGradient>
		<path fill-rule="evenodd" clip-rule="evenodd" fill="url(#SVGID_1_)" d="M289.966,19c9.537,1.308,19.143,2.241,28.599,3.984
			c67.277,12.403,121.171,46.573,162.119,101.064c27.927,37.163,44.413,79.185,48.882,125.441
			c6.377,66.009-10.652,125.904-50.663,178.705c-38.227,50.446-88.443,83.251-150.48,96.785
			c-62.286,13.587-121.767,4.71-177.081-26.778C84.281,460.028,41.88,402.805,24.697,327.379
			c-2.393-10.504-3.198-21.37-4.758-32.066c-0.261-1.79-0.624-3.564-0.939-5.347c0-9.999,0-19.998,0-29.996
			c0.408-3.442,0.839-6.882,1.22-10.328c5.104-46.145,20.992-88.192,48.861-125.354c40.972-54.632,94.916-88.889,162.317-101.303
			c9.447-1.74,19.043-2.675,28.571-3.984C269.969,19,279.967,19,289.966,19z M275.078,40.279
			C144.521,40.626,41.135,142.548,40.297,274.231c-0.832,130.642,102.674,234.574,234.306,235.435
			c130.14,0.85,234.117-102.754,235.063-234.215C510.602,145.125,407.006,41.271,275.078,40.279z"/>
		<linearGradient id="SVGID_2_" gradientUnits="userSpaceOnUse" x1="189.6665" y1="275.0488" x2="360.4707" y2="275.0488">
			<stop  offset="0" style="stop-color:#0D945D"/>
			<stop  offset="1" style="stop-color:#2CB77F"/>
		</linearGradient>
		<path fill-rule="evenodd" clip-rule="evenodd" fill="url(#SVGID_2_)" d="M253.729,178.842c10.972,0,21.105,0,32.02,0
			c0-7.22-0.027-14.317,0.011-21.415c0.023-4.45,2.076-8.224,6.218-9.259c3.197-0.798,7.666-0.675,10.164,1.062
			c2.512,1.746,4.267,5.887,4.613,9.163c0.696,6.569,0.207,13.264,0.207,20.087c26.146,2.794,43.843,16.276,51.523,41.274
			c4.758,15.485,2.054,36.011-20.153,55.159c19.071,16.961,28.211,37.25,17.635,62.188c-8.875,20.929-25.644,32.058-48.993,34.22
			c0,6.788,0.035,13.73-0.013,20.672c-0.032,4.585-2.126,7.989-6.29,9.947c-4.017,1.887-8.207,1.571-11.063-1.651
			c-2.016-2.276-3.477-5.707-3.73-8.743c-0.551-6.586-0.17-13.251-0.17-20.237c-10.658,0-20.894,0-31.959,0
			c0,3.611,0.004,7.348-0.001,11.084c-0.004,2.999,0.065,5.999-0.043,8.994c-0.25,6.894-4.481,11.465-10.582,11.55
			c-6.312,0.089-10.687-4.551-10.879-11.742c-0.125-4.661-0.027-9.327-0.029-13.991c0-1.826,0-3.652,0-6.25
			c-3.476,0-6.729,0.026-9.982-0.004c-18.811-0.174-32.415-13.703-32.523-32.551c-0.1-17.488,0.012-34.978,0.016-52.466
			c0.006-24.464,0.04-48.928-0.018-73.392c-0.047-19.968,13.494-33.584,33.518-33.564c2.795,0.003,5.59,0,8.992,0
			c0-6.693-0.043-12.964,0.011-19.233c0.067-7.946,4.289-12.841,10.895-12.749c6.428,0.091,10.501,4.849,10.593,12.542
			C253.788,165.828,253.729,172.121,253.729,178.842z M210.976,285.728c0,17.628-0.004,34.432,0.002,51.236
			c0.003,9.31,3.372,12.742,12.56,12.745c22.311,0.007,44.621,0.033,66.931-0.038c7.31-0.023,14.682,0.221,21.916-0.607
			c17.291-1.977,27.706-15.812,26.509-34.421c-1.089-16.927-13.469-28.598-30.464-28.667c-24.314-0.1-48.63-0.173-72.944-0.243
			C227.521,285.708,219.558,285.728,210.976,285.728z M211.231,264.209c2.713,0,5.17,0.005,7.628-0.001
			c29.979-0.078,59.957-0.158,89.936-0.237c16.549-0.044,28.852-11.716,30.09-28.548c1.326-18.035-8.852-32.122-25.393-34.407
			c-5.882-0.813-11.938-0.438-17.916-0.471c-24.471-0.136-48.941-0.268-73.412-0.293c-7.413-0.008-11.172,4.027-11.183,11.616
			c-0.023,15.824-0.012,31.648,0.005,47.472C210.987,260.797,211.129,262.252,211.231,264.209z"/>
		<linearGradient id="SVGID_3_" gradientUnits="userSpaceOnUse" x1="72.2524" y1="178.9761" x2="285.7119" y2="178.9761">
			<stop  offset="0" style="stop-color:#0D945D"/>
			<stop  offset="1" style="stop-color:#2CB77F"/>
		</linearGradient>
		<path fill-rule="evenodd" clip-rule="evenodd" fill="url(#SVGID_3_)" d="M72.256,265.461
			c7.112-77.69,44.587-135.312,113.606-171.817c27.061-14.312,56.377-20.798,86.965-21.365c9.405-0.174,15.213,7.018,11.987,14.709
			c-2.247,5.358-6.789,6.794-12.213,6.805c-23.072,0.043-45.467,4.137-66.662,13.181c-61.825,26.38-98.331,73.076-109.926,139.167
			c-1.545,8.807-1.707,17.876-2.204,26.841c-0.435,7.849-4.614,12.885-11.084,12.69c-6.543-0.198-10.53-5.238-10.473-13.222
			C72.27,270.12,72.256,267.791,72.256,265.461z"/>
		<linearGradient id="SVGID_4_" gradientUnits="userSpaceOnUse" x1="264.2637" y1="370.9941" x2="477.7241" y2="370.9941">
			<stop  offset="0" style="stop-color:#0D945D"/>
			<stop  offset="1" style="stop-color:#2CB77F"/>
		</linearGradient>
		<path fill-rule="evenodd" clip-rule="evenodd" fill="url(#SVGID_4_)" d="M477.656,284.262
			c-3.686,54.691-25.305,101.008-65.233,138.37c-37.608,35.19-82.552,53.392-134.104,55.051c-0.666,0.021-1.333,0.019-1.999,0.003
			c-7.149-0.167-11.983-4.437-12.055-10.642c-0.071-6.176,4.715-10.782,11.859-10.817c19.47-0.098,38.543-2.803,56.901-9.27
			c63.414-22.337,103.087-66.427,118.653-131.709c3.02-12.666,3.291-26.018,4.43-39.087c0.749-8.596,6.927-13.778,14.308-11.213
			c4.618,1.605,6.868,5.128,7.198,9.833C477.834,277.926,477.656,281.101,477.656,284.262z"/>
	</g>
</g>
</svg>
