<?xml version="1.0" encoding="utf-8"?>
<!-- Generator: Adobe Illustrator 16.0.0, SVG Export Plug-In . SVG Version: 6.00 Build 0)  -->
<!DOCTYPE svg PUBLIC "-//W3C//DTD SVG 1.1//EN" "http://www.w3.org/Graphics/SVG/1.1/DTD/svg11.dtd">
<svg version="1.1" id="Layer_1" xmlns="http://www.w3.org/2000/svg" xmlns:xlink="http://www.w3.org/1999/xlink" x="0px" y="0px"
	 width="768px" height="768px" viewBox="0 0 768 768" enable-background="new 0 0 768 768" xml:space="preserve">
<path fill="#2058E5" d="M384.826,1c-211.782,0-384,172.218-384,384c0,211.782,172.218,384,384,384c211.782,0,384-171.442,384-384
	S597.384,1,384.826,1z"/>
<path fill="#FFFFFF" d="M191.663,402.843l21.721-44.994c0-0.776,0.776-0.776,1.551-0.776h44.218c5.431,0,8.533,5.431,6.206,10.085
	l-21.721,44.994c0,0.776-0.776,0.776-1.551,0.776h-44.218C192.438,413.703,189.335,407.497,191.663,402.843z"/>
<path fill="#FFFFFF" d="M578.766,253.121l-21.722,44.994c0,0.776-0.775,0.776-1.551,0.776H388.705c-3.104,0-6.206,1.551-7.758,4.654
	l-75.248,154.375c-3.104,6.206,1.551,12.412,7.757,12.412h172.219c5.431,0,8.533,5.431,6.206,10.085l-21.722,44.994
	c0,0.775-0.775,0.775-1.551,0.775H272.342c-26.376,0-43.443-27.151-31.807-51.199l96.194-197.043
	c10.86-22.497,34.133-37.236,58.957-37.236H572.56C577.214,243.036,581.093,248.467,578.766,253.121z"/>
<path fill="#FFFFFF" d="M491.881,367.157l-22.497,44.994c0,0.776-0.775,0.776-1.552,0.776H366.983c-5.43,0-8.533-5.431-6.206-10.085
	l21.722-44.994c0-0.776,0.775-0.776,1.552-0.776h100.848C490.329,357.072,494.208,362.503,491.881,367.157z"/>
</svg>
