<?xml version="1.0" encoding="utf-8"?>
<!-- Generator: Adobe Illustrator 16.0.0, SVG Export Plug-In . SVG Version: 6.00 Build 0)  -->
<!DOCTYPE svg PUBLIC "-//W3C//DTD SVG 1.1//EN" "http://www.w3.org/Graphics/SVG/1.1/DTD/svg11.dtd">
<svg version="1.1" id="OBJECTS" xmlns="http://www.w3.org/2000/svg" xmlns:xlink="http://www.w3.org/1999/xlink" x="0px" y="0px"
	 width="447px" height="376px" viewBox="0 0 447 376" enable-background="new 0 0 447 376" xml:space="preserve">
<g>
	<g>
		<path fill="#D4E1FF" d="M376.243,190.541c0,0-1.956,14.713,10.937,15.005c12.893,0.293,25.227-13.874,40.227-10.874
			s7.269,41.677-20.615,58.039C378.907,269.072,353.58,216.243,376.243,190.541z"/>
		<path fill="#D4E1FF" d="M82.226,201.77c0,0-64.32-49.868-32.64-97.719c34.79-52.55,92.653,8.214,121.32-13.045
			c28.667-21.259,51-48.865,94.144-46c62.512,4.151,61.472,51.403,53.997,61.952s2.616,11.715,47.811,0.251
			c48.549-12.315,59.715,27.297,29.988,57.63c-70.67,72.111,49.061,51.509,21.639,72.94c-31.839,24.884-242.644-0.827-242.644-0.827
			l-57.058-32.074L82.226,201.77z"/>
	</g>
	<g>
		<path fill="#62C1C5" d="M325.451,165.048c18.571-21.19,56.543-32.921,56.543-32.921s8.289,38.869-1.146,65.419
			c-9.982,28.095-38.188,36.685-53.486,27.71C312.064,216.282,305.799,187.471,325.451,165.048z"/>
		<path fill="#F3F8FF" d="M377.949,139.022c0,0-0.817,1.273-2.248,3.5c-1.398,2.247-3.456,5.42-5.818,9.292
			c-2.356,3.875-5.171,8.358-8.067,13.23c-2.899,4.87-5.993,10.066-9.086,15.261c-3.026,5.235-6.052,10.469-8.889,15.376
			c-2.844,4.904-5.379,9.551-7.612,13.498c-2.229,3.95-3.992,7.296-5.271,9.613c-1.246,2.336-1.958,3.671-1.958,3.671
			s0.818-1.273,2.249-3.501c1.398-2.246,3.459-5.419,5.819-9.291c2.355-3.875,5.174-8.355,8.067-13.23
			c2.899-4.871,5.991-10.066,9.084-15.262c3.026-5.235,6.052-10.47,8.888-15.377c2.84-4.906,5.379-9.55,7.612-13.498
			c2.227-3.951,3.992-7.296,5.271-9.613C377.237,140.356,377.949,139.022,377.949,139.022z"/>
		<path fill="#F3F8FF" d="M333.231,215.252c0,0-0.156-0.415-0.465-1.121c-0.324-0.697-0.744-1.718-1.325-2.897
			c-1.142-2.372-2.789-5.46-4.557-8.478c-1.778-3.013-3.674-5.955-5.193-8.104c-0.748-1.081-1.438-1.943-1.89-2.565
			c-0.468-0.612-0.755-0.95-0.755-0.95s0.155,0.415,0.464,1.121c0.324,0.697,0.742,1.719,1.324,2.898
			c1.14,2.373,2.79,5.459,4.559,8.477c1.779,3.012,3.677,5.953,5.195,8.103c0.749,1.081,1.437,1.944,1.889,2.566
			C332.944,214.914,333.231,215.252,333.231,215.252z"/>
		<path fill="#F3F8FF" d="M341.638,200.922c0,0-0.197-0.482-0.577-1.305c-0.396-0.813-0.918-2-1.621-3.379
			c-1.386-2.771-3.359-6.391-5.453-9.939c-2.104-3.542-4.325-7.015-6.089-9.562c-0.87-1.281-1.661-2.308-2.185-3.046
			c-0.538-0.729-0.866-1.133-0.866-1.133s0.196,0.482,0.577,1.305c0.395,0.813,0.915,2.001,1.619,3.38
			c1.385,2.771,3.361,6.389,5.455,9.937c2.104,3.543,4.328,7.015,6.091,9.563c0.871,1.279,1.66,2.309,2.184,3.046
			C341.31,200.518,341.638,200.922,341.638,200.922z"/>
		<path fill="#F3F8FF" d="M350.044,186.592c0,0-0.156-0.416-0.465-1.122c-0.324-0.697-0.744-1.718-1.325-2.897
			c-1.141-2.372-2.789-5.46-4.557-8.478c-1.778-3.012-3.674-5.954-5.193-8.104c-0.748-1.082-1.438-1.944-1.89-2.565
			c-0.467-0.613-0.755-0.951-0.755-0.951s0.155,0.416,0.465,1.122c0.324,0.697,0.742,1.719,1.323,2.898
			c1.141,2.372,2.791,5.459,4.56,8.477c1.778,3.011,3.676,5.952,5.194,8.102c0.749,1.082,1.438,1.944,1.889,2.566
			C349.757,186.253,350.044,186.592,350.044,186.592z"/>
		<path fill="#F3F8FF" d="M358.45,172.261c0,0-0.436-1.312-1.286-3.164c-0.84-1.858-2.085-4.262-3.45-6.596
			c-1.376-2.328-2.869-4.585-4.087-6.222c-1.205-1.643-2.141-2.661-2.141-2.661s0.435,1.313,1.285,3.165
			c0.838,1.859,2.086,4.262,3.451,6.594c1.377,2.327,2.872,4.584,4.089,6.221C357.516,171.243,358.45,172.261,358.45,172.261z"/>
		<path fill="#F3F8FF" d="M366.857,157.931c0,0-0.194-0.9-0.683-2.134c-0.476-1.242-1.237-2.822-2.119-4.333
			c-0.891-1.504-1.9-2.939-2.755-3.958c-0.842-1.026-1.536-1.632-1.536-1.632s0.192,0.901,0.68,2.136
			c0.476,1.242,1.239,2.821,2.121,4.331c0.893,1.504,1.903,2.938,2.757,3.958C366.164,157.324,366.857,157.931,366.857,157.931z"/>
		<path fill="#F3F8FF" d="M373.751,146.179c0,0-0.085-0.416-0.3-0.988c-0.218-0.571-0.545-1.31-0.956-1.999
			c-0.402-0.695-0.888-1.341-1.282-1.808c-0.395-0.466-0.718-0.741-0.718-0.741s0.083,0.417,0.299,0.988
			c0.216,0.571,0.545,1.309,0.956,1.999c0.403,0.695,0.89,1.34,1.283,1.807C373.428,145.903,373.751,146.179,373.751,146.179z"/>
		<path fill="#F3F8FF" d="M330.758,219.468c0,0,0.436,0.086,1.198,0.193c0.764,0.092,1.853,0.271,3.162,0.396
			c2.617,0.276,6.11,0.498,9.607,0.581c3.496,0.071,6.996,0.006,9.623-0.157c1.313-0.067,2.409-0.201,3.176-0.259
			c0.767-0.074,1.206-0.142,1.206-0.142s-0.436-0.086-1.198-0.194c-0.764-0.091-1.853-0.272-3.162-0.398
			c-2.617-0.277-6.11-0.496-9.607-0.578c-3.496-0.07-6.996-0.002-9.623,0.159c-1.313,0.068-2.409,0.2-3.176,0.258
			C331.197,219.401,330.758,219.468,330.758,219.468z"/>
		<path fill="#F3F8FF" d="M339.165,205.138c0,0,0.513,0.089,1.411,0.202c0.899,0.097,2.183,0.284,3.725,0.42
			c3.084,0.295,7.199,0.542,11.318,0.65c4.119,0.097,8.241,0.056,11.336-0.088c1.547-0.059,2.838-0.184,3.741-0.235
			c0.902-0.069,1.42-0.134,1.42-0.134s-0.514-0.089-1.412-0.203c-0.899-0.097-2.183-0.286-3.725-0.421
			c-3.084-0.296-7.199-0.54-11.317-0.647c-4.119-0.096-8.242-0.054-11.337,0.089c-1.547,0.06-2.838,0.183-3.74,0.234
			C339.682,205.074,339.165,205.138,339.165,205.138z"/>
		<path fill="#F3F8FF" d="M347.571,190.808c0,0,0.436,0.085,1.198,0.193c0.763,0.091,1.853,0.271,3.161,0.396
			c2.618,0.276,6.111,0.498,9.607,0.581c3.497,0.071,6.996,0.006,9.623-0.157c1.313-0.067,2.41-0.201,3.177-0.259
			c0.767-0.075,1.205-0.142,1.205-0.142s-0.436-0.087-1.198-0.195c-0.764-0.091-1.853-0.272-3.161-0.397
			c-2.618-0.277-6.111-0.496-9.607-0.578c-3.497-0.07-6.996-0.003-9.624,0.159c-1.313,0.068-2.409,0.2-3.176,0.257
			C348.01,190.741,347.571,190.808,347.571,190.808z"/>
		<path fill="#F3F8FF" d="M355.978,176.477c0,0,1.345,0.319,3.367,0.568c2.022,0.264,4.722,0.467,7.425,0.533
			c2.703,0.054,5.408-0.029,7.44-0.205c2.031-0.161,3.39-0.422,3.39-0.422s-1.346-0.321-3.368-0.571
			c-2.021-0.264-4.722-0.466-7.424-0.531c-2.703-0.053-5.409,0.033-7.44,0.207C357.335,176.217,355.978,176.477,355.978,176.477z"/>
		<path fill="#F3F8FF" d="M364.384,162.147c0,0,0.868,0.308,2.175,0.542c1.306,0.248,3.051,0.431,4.799,0.476
			c1.749,0.033,3.5-0.071,4.816-0.262c1.315-0.177,2.196-0.449,2.196-0.449s-0.868-0.31-2.175-0.544
			c-1.307-0.249-3.052-0.43-4.8-0.473c-1.748-0.032-3.499,0.074-4.815,0.264C365.265,161.877,364.384,162.147,364.384,162.147z"/>
		<path fill="#F3F8FF" d="M371.277,150.395c0,0,0.398,0.147,0.998,0.265c0.6,0.115,1.4,0.226,2.203,0.238
			c0.803,0.022,1.607-0.05,2.211-0.141c0.604-0.091,1.009-0.221,1.009-0.221s-0.398-0.148-0.998-0.266
			c-0.6-0.117-1.4-0.225-2.203-0.237c-0.802-0.022-1.606,0.052-2.211,0.141C371.682,150.266,371.277,150.395,371.277,150.395z"/>
	</g>
	<g>
		<path fill="#0E4F77" d="M374.287,212.966c28.177,0.149,61.917,21.151,61.917,21.151s-23.937,31.727-50.176,41.993
			c-27.766,10.864-52.734-4.818-55.977-22.255C326.81,236.418,344.473,212.809,374.287,212.966z"/>
		<path fill="#F3F8FF" d="M428.344,235.579c0,0-1.497,0.216-4.117,0.595c-2.613,0.415-6.359,0.939-10.832,1.691
			c-4.472,0.759-9.702,1.569-15.281,2.572c-5.579,1.001-11.53,2.067-17.482,3.134c-5.938,1.144-11.874,2.287-17.44,3.358
			c-5.568,1.064-10.739,2.193-15.185,3.092c-4.444,0.904-8.128,1.765-10.716,2.316c-2.581,0.589-4.056,0.926-4.056,0.926
			s1.497-0.217,4.117-0.595c2.613-0.415,6.36-0.937,10.832-1.69c4.472-0.759,9.703-1.564,15.281-2.573
			c5.579-1,11.53-2.067,17.482-3.135c5.937-1.144,11.874-2.287,17.44-3.359c5.566-1.069,10.739-2.193,15.185-3.092
			c4.443-0.906,8.128-1.764,10.716-2.316C426.869,235.915,428.344,235.579,428.344,235.579z"/>
		<path fill="#F3F8FF" d="M341.455,251.734c0,0,0.212-0.39,0.542-1.086c0.314-0.701,0.811-1.688,1.321-2.899
			c1.045-2.416,2.298-5.684,3.42-8.996c1.11-3.316,2.092-6.677,2.72-9.232c0.327-1.274,0.526-2.36,0.7-3.109
			c0.157-0.754,0.225-1.192,0.225-1.192s-0.212,0.39-0.543,1.086c-0.314,0.701-0.813,1.687-1.323,2.898
			c-1.045,2.416-2.296,5.685-3.417,8.998c-1.11,3.316-2.089,6.677-2.718,9.232c-0.327,1.274-0.528,2.359-0.702,3.108
			C341.522,251.296,341.455,251.734,341.455,251.734z"/>
		<path fill="#F3F8FF" d="M357.789,248.697c0,0,0.235-0.464,0.607-1.29c0.355-0.832,0.91-2.004,1.491-3.438
			c1.186-2.862,2.626-6.726,3.936-10.632c1.299-3.91,2.468-7.863,3.236-10.864c0.397-1.496,0.655-2.768,0.87-3.646
			c0.198-0.884,0.288-1.396,0.288-1.396s-0.235,0.464-0.607,1.29c-0.355,0.832-0.912,2.003-1.493,3.438
			c-1.187,2.861-2.625,6.725-3.934,10.632c-1.298,3.91-2.464,7.865-3.234,10.865c-0.396,1.497-0.656,2.768-0.871,3.646
			C357.88,248.186,357.789,248.697,357.789,248.697z"/>
		<path fill="#F3F8FF" d="M374.123,245.66c0,0,0.211-0.39,0.542-1.086c0.314-0.701,0.811-1.688,1.321-2.899
			c1.045-2.416,2.298-5.684,3.42-8.996c1.111-3.316,2.092-6.677,2.72-9.232c0.327-1.274,0.526-2.36,0.7-3.108
			c0.157-0.755,0.225-1.193,0.225-1.193s-0.212,0.39-0.543,1.086c-0.314,0.701-0.813,1.687-1.323,2.898
			c-1.045,2.416-2.296,5.685-3.417,8.998c-1.11,3.316-2.089,6.677-2.718,9.232c-0.326,1.274-0.528,2.359-0.702,3.108
			C374.19,245.222,374.123,245.66,374.123,245.66z"/>
		<path fill="#F3F8FF" d="M390.457,242.623c0,0,0.705-1.188,1.547-3.045c0.854-1.852,1.854-4.367,2.723-6.927
			c0.857-2.564,1.586-5.172,2.023-7.163c0.452-1.987,0.608-3.361,0.608-3.361s-0.708,1.188-1.55,3.044
			c-0.855,1.852-1.853,4.368-2.721,6.929c-0.856,2.563-1.582,5.172-2.021,7.163C390.614,241.25,390.457,242.623,390.457,242.623z"/>
		<path fill="#F3F8FF" d="M406.791,239.586c0,0,0.553-0.736,1.166-1.913c0.626-1.174,1.321-2.784,1.885-4.439
			c0.554-1.659,0.977-3.362,1.187-4.675c0.224-1.309,0.227-2.23,0.227-2.23s-0.555,0.736-1.168,1.913
			c-0.627,1.173-1.32,2.784-1.884,4.44c-0.552,1.659-0.973,3.362-1.184,4.676C406.796,238.665,406.791,239.586,406.791,239.586z"/>
		<path fill="#F3F8FF" d="M420.186,237.096c0,0,0.26-0.336,0.551-0.874c0.288-0.538,0.633-1.269,0.884-2.031
			c0.261-0.76,0.432-1.549,0.525-2.152c0.094-0.604,0.09-1.029,0.09-1.029s-0.261,0.336-0.551,0.874
			c-0.29,0.537-0.632,1.27-0.884,2.031c-0.261,0.76-0.43,1.55-0.524,2.153C420.184,236.671,420.186,237.096,420.186,237.096z"/>
		<path fill="#F3F8FF" d="M336.649,252.628c0,0,0.221,0.386,0.639,1.032c0.432,0.637,1.01,1.577,1.771,2.648
			c1.507,2.159,3.628,4.943,5.855,7.639c2.237,2.688,4.579,5.29,6.423,7.168c0.912,0.948,1.731,1.688,2.276,2.23
			c0.56,0.53,0.897,0.817,0.897,0.817s-0.22-0.386-0.638-1.032c-0.432-0.637-1.008-1.578-1.771-2.649
			c-1.506-2.159-3.629-4.942-5.857-7.638c-2.237-2.688-4.582-5.287-6.425-7.166c-0.912-0.947-1.729-1.689-2.275-2.231
			C336.987,252.916,336.649,252.628,336.649,252.628z"/>
		<path fill="#F3F8FF" d="M352.983,249.591c0,0,0.27,0.446,0.772,1.199c0.516,0.743,1.215,1.835,2.123,3.089
			c1.797,2.523,4.307,5.794,6.924,8.978c2.625,3.175,5.356,6.263,7.492,8.507c1.058,1.131,1.998,2.023,2.629,2.672
			c0.645,0.637,1.031,0.985,1.031,0.985s-0.269-0.446-0.771-1.199c-0.516-0.743-1.214-1.837-2.122-3.09
			c-1.797-2.524-4.308-5.793-6.926-8.976c-2.626-3.175-5.358-6.262-7.494-8.506c-1.058-1.13-1.997-2.024-2.628-2.673
			C353.37,249.94,352.983,249.591,352.983,249.591z"/>
		<path fill="#F3F8FF" d="M369.317,246.554c0,0,0.221,0.386,0.639,1.032c0.432,0.637,1.01,1.577,1.772,2.648
			c1.506,2.159,3.627,4.943,5.854,7.639c2.237,2.688,4.579,5.29,6.424,7.168c0.911,0.948,1.73,1.688,2.275,2.23
			c0.56,0.53,0.897,0.817,0.897,0.817s-0.22-0.386-0.638-1.032c-0.432-0.637-1.008-1.578-1.771-2.649
			c-1.506-2.159-3.629-4.942-5.857-7.638c-2.237-2.688-4.582-5.287-6.425-7.166c-0.912-0.947-1.729-1.689-2.275-2.231
			C369.655,246.842,369.317,246.554,369.317,246.554z"/>
		<path fill="#F3F8FF" d="M385.651,243.517c0,0,0.641,1.226,1.777,2.917c1.126,1.7,2.74,3.874,4.461,5.959
			c1.73,2.077,3.565,4.066,5.029,5.486c1.453,1.43,2.54,2.284,2.54,2.284s-0.639-1.226-1.775-2.918
			c-1.125-1.701-2.741-3.873-4.463-5.957c-1.73-2.077-3.568-4.065-5.031-5.485C386.737,244.373,385.651,243.517,385.651,243.517z"/>
		<path fill="#F3F8FF" d="M401.985,240.479c0,0,0.336,0.858,1.016,1.999c0.668,1.148,1.673,2.587,2.785,3.938
			c1.12,1.342,2.346,2.597,3.353,3.466c0.996,0.878,1.778,1.365,1.778,1.365s-0.335-0.858-1.014-1.999
			c-0.668-1.15-1.675-2.587-2.787-3.937c-1.121-1.342-2.349-2.596-3.354-3.465C402.767,240.968,401.985,240.479,401.985,240.479z"/>
		<path fill="#F3F8FF" d="M415.381,237.989c0,0,0.149,0.397,0.453,0.927c0.307,0.529,0.748,1.206,1.264,1.821
			c0.509,0.621,1.091,1.181,1.555,1.578c0.465,0.397,0.828,0.617,0.828,0.617s-0.148-0.397-0.453-0.928
			c-0.305-0.529-0.748-1.205-1.264-1.82c-0.509-0.621-1.093-1.18-1.556-1.578C415.743,238.21,415.381,237.989,415.381,237.989z"/>
	</g>
	<g>
		<path fill="#E89234" d="M333.021,195.41c24.566-13.801,64.277-12.226,64.277-12.226s-5.12,39.411-22.854,61.309
			c-18.764,23.171-48.221,21.883-59.659,8.329C303.346,239.269,307.026,210.014,333.021,195.41z"/>
		<path fill="#F3F8FF" d="M391.188,188.341c0,0-1.194,0.929-3.284,2.553c-2.067,1.653-5.064,3.961-8.58,6.825
			c-3.512,2.871-7.658,6.161-12.011,9.791c-4.355,3.628-9.002,7.498-13.647,11.367c-4.596,3.93-9.191,7.858-13.5,11.542
			c-4.313,3.679-8.25,7.216-11.67,10.194c-3.416,2.983-6.193,5.553-8.17,7.312c-1.952,1.788-3.068,2.81-3.068,2.81
			s1.195-0.928,3.285-2.552c2.067-1.653,5.065-3.959,8.581-6.825c3.511-2.87,7.66-6.157,12.01-9.791
			c4.355-3.628,9.001-7.498,13.646-11.368c4.596-3.93,9.191-7.859,13.499-11.543c4.311-3.682,8.251-7.216,11.67-10.194
			c3.415-2.985,6.194-5.552,8.171-7.312C390.072,189.362,391.188,188.341,391.188,188.341z"/>
		<path fill="#F3F8FF" d="M323.648,245.342c0,0-0.009-0.444-0.065-1.213c-0.073-0.765-0.13-1.867-0.285-3.173
			c-0.286-2.616-0.813-6.077-1.476-9.511c-0.674-3.433-1.482-6.838-2.199-9.37c-0.346-1.27-0.71-2.312-0.929-3.049
			c-0.236-0.733-0.396-1.147-0.396-1.147s0.009,0.443,0.065,1.212c0.073,0.766,0.128,1.868,0.283,3.174
			c0.285,2.617,0.814,6.077,1.478,9.511c0.675,3.432,1.486,6.837,2.202,9.369c0.347,1.27,0.708,2.313,0.927,3.049
			C323.49,244.927,323.648,245.342,323.648,245.342z"/>
		<path fill="#F3F8FF" d="M336.345,234.626c0,0-0.025-0.52-0.11-1.422c-0.102-0.898-0.199-2.191-0.403-3.727
			c-0.384-3.073-1.041-7.144-1.835-11.187c-0.804-4.041-1.743-8.056-2.558-11.044c-0.395-1.497-0.799-2.729-1.047-3.6
			c-0.265-0.866-0.439-1.356-0.439-1.356s0.024,0.52,0.109,1.422c0.102,0.898,0.197,2.192,0.402,3.727
			c0.383,3.074,1.043,7.144,1.837,11.187c0.805,4.041,1.746,8.055,2.561,11.044c0.396,1.496,0.797,2.729,1.045,3.6
			C336.171,234.136,336.345,234.626,336.345,234.626z"/>
		<path fill="#F3F8FF" d="M349.042,223.911c0,0-0.009-0.444-0.065-1.213c-0.074-0.765-0.13-1.867-0.285-3.173
			c-0.287-2.617-0.813-6.077-1.476-9.512c-0.674-3.432-1.482-6.837-2.2-9.369c-0.346-1.27-0.709-2.312-0.928-3.049
			c-0.236-0.733-0.396-1.147-0.396-1.147s0.009,0.443,0.064,1.212c0.074,0.766,0.128,1.868,0.284,3.174
			c0.285,2.617,0.814,6.077,1.478,9.511c0.675,3.432,1.485,6.837,2.202,9.369c0.347,1.269,0.708,2.312,0.927,3.049
			C348.884,223.496,349.042,223.911,349.042,223.911z"/>
		<path fill="#F3F8FF" d="M361.738,213.195c0,0,0.025-1.382-0.16-3.411c-0.173-2.032-0.548-4.714-1.059-7.368
			c-0.522-2.652-1.179-5.279-1.782-7.227c-0.59-1.951-1.134-3.223-1.134-3.223s-0.027,1.383,0.158,3.412
			c0.172,2.032,0.549,4.713,1.061,7.367c0.523,2.652,1.182,5.278,1.785,7.227C361.196,211.924,361.738,213.195,361.738,213.195z"/>
		<path fill="#F3F8FF" d="M374.436,202.479c0,0,0.116-0.913,0.067-2.239c-0.036-1.329-0.229-3.073-0.557-4.791
			c-0.34-1.716-0.813-3.405-1.28-4.65c-0.453-1.248-0.905-2.05-0.905-2.05s-0.119,0.913-0.07,2.24
			c0.035,1.329,0.229,3.073,0.559,4.79c0.341,1.716,0.817,3.404,1.283,4.649C373.984,201.677,374.436,202.479,374.436,202.479z"/>
		<path fill="#F3F8FF" d="M384.847,193.692c0,0,0.06-0.42,0.047-1.031c-0.016-0.61-0.078-1.416-0.236-2.203
			c-0.148-0.789-0.391-1.56-0.607-2.131s-0.431-0.938-0.431-0.938s-0.06,0.421-0.047,1.031c0.014,0.611,0.078,1.416,0.236,2.203
			c0.148,0.789,0.394,1.56,0.608,2.131C384.635,193.325,384.847,193.692,384.847,193.692z"/>
		<path fill="#F3F8FF" d="M319.913,248.494c0,0,0.382,0.226,1.065,0.581c0.689,0.34,1.657,0.872,2.85,1.426
			c2.376,1.132,5.597,2.504,8.866,3.746c3.273,1.23,6.596,2.333,9.127,3.055c1.261,0.373,2.339,0.612,3.081,0.813
			c0.748,0.185,1.184,0.268,1.184,0.268s-0.382-0.226-1.064-0.582c-0.689-0.34-1.656-0.874-2.85-1.428
			c-2.375-1.133-5.597-2.502-8.866-3.743c-3.274-1.229-6.597-2.33-9.128-3.053c-1.262-0.372-2.339-0.613-3.081-0.814
			C320.349,248.577,319.913,248.494,319.913,248.494z"/>
		<path fill="#F3F8FF" d="M332.61,237.778c0,0,0.454,0.255,1.264,0.661c0.815,0.39,1.964,0.994,3.372,1.635
			c2.811,1.305,6.608,2.907,10.457,4.38c3.852,1.463,7.752,2.796,10.719,3.691c1.478,0.46,2.737,0.771,3.605,1.022
			c0.875,0.235,1.384,0.347,1.384,0.347s-0.454-0.255-1.264-0.661c-0.815-0.391-1.963-0.996-3.372-1.637
			c-2.81-1.306-6.608-2.906-10.457-4.378c-3.853-1.461-7.754-2.793-10.72-3.688c-1.479-0.459-2.737-0.772-3.605-1.024
			C333.118,237.891,332.61,237.778,332.61,237.778z"/>
		<path fill="#F3F8FF" d="M345.307,227.063c0,0,0.382,0.226,1.065,0.581c0.689,0.34,1.657,0.871,2.85,1.426
			c2.376,1.132,5.597,2.504,8.866,3.746c3.273,1.23,6.596,2.333,9.127,3.055c1.261,0.373,2.339,0.611,3.081,0.813
			c0.748,0.185,1.184,0.268,1.184,0.268s-0.382-0.227-1.064-0.582c-0.69-0.34-1.656-0.874-2.85-1.428
			c-2.376-1.133-5.597-2.502-8.867-3.743c-3.273-1.229-6.597-2.33-9.128-3.053c-1.261-0.372-2.338-0.613-3.08-0.814
			C345.742,227.146,345.307,227.063,345.307,227.063z"/>
		<path fill="#F3F8FF" d="M358.003,216.348c0,0,1.162,0.748,2.986,1.657c1.819,0.921,4.297,2.012,6.824,2.974
			c2.53,0.95,5.11,1.772,7.084,2.283c1.97,0.524,3.337,0.729,3.337,0.729s-1.161-0.75-2.985-1.659
			c-1.819-0.922-4.298-2.011-6.824-2.972c-2.531-0.949-5.111-1.77-7.086-2.281C359.37,216.555,358.003,216.348,358.003,216.348z"/>
		<path fill="#F3F8FF" d="M370.7,205.633c0,0,0.715,0.579,1.869,1.234c1.15,0.669,2.734,1.422,4.368,2.046
			c1.638,0.613,3.324,1.098,4.629,1.355c1.299,0.271,2.22,0.308,2.22,0.308s-0.715-0.581-1.869-1.237
			c-1.149-0.669-2.734-1.42-4.368-2.043c-1.639-0.612-3.325-1.095-4.63-1.354C371.62,205.671,370.7,205.633,370.7,205.633z"/>
		<path fill="#F3F8FF" d="M381.111,196.845c0,0,0.327,0.271,0.854,0.582c0.527,0.309,1.245,0.679,1.998,0.958
			c0.749,0.288,1.532,0.487,2.132,0.604c0.601,0.115,1.025,0.127,1.025,0.127s-0.327-0.272-0.854-0.583
			c-0.526-0.31-1.245-0.678-1.998-0.956c-0.749-0.289-1.533-0.486-2.133-0.604C381.536,196.857,381.111,196.845,381.111,196.845z"/>
	</g>
	<g>
		<path fill="#E89234" d="M325.451,165.048c18.571-21.19,56.543-32.921,56.543-32.921s8.289,38.869-1.146,65.419
			c-9.982,28.095-38.188,36.685-53.486,27.71C312.064,216.282,305.799,187.471,325.451,165.048z"/>
		<path fill="#F3F8FF" d="M377.949,139.022c0,0-0.817,1.273-2.248,3.5c-1.398,2.247-3.456,5.42-5.818,9.292
			c-2.356,3.875-5.171,8.358-8.067,13.23c-2.899,4.87-5.993,10.066-9.086,15.261c-3.026,5.235-6.052,10.469-8.889,15.376
			c-2.844,4.904-5.379,9.551-7.612,13.498c-2.229,3.95-3.992,7.296-5.271,9.613c-1.246,2.336-1.958,3.671-1.958,3.671
			s0.818-1.273,2.249-3.501c1.398-2.246,3.459-5.419,5.819-9.291c2.355-3.875,5.174-8.355,8.067-13.23
			c2.899-4.871,5.991-10.066,9.084-15.262c3.026-5.235,6.052-10.47,8.888-15.377c2.84-4.906,5.379-9.55,7.612-13.498
			c2.227-3.951,3.992-7.296,5.271-9.613C377.237,140.356,377.949,139.022,377.949,139.022z"/>
		<path fill="#F3F8FF" d="M333.231,215.252c0,0-0.156-0.415-0.465-1.121c-0.324-0.697-0.744-1.718-1.325-2.897
			c-1.142-2.372-2.789-5.46-4.557-8.478c-1.778-3.013-3.674-5.955-5.193-8.104c-0.748-1.081-1.438-1.943-1.89-2.565
			c-0.468-0.612-0.755-0.95-0.755-0.95s0.155,0.415,0.464,1.121c0.324,0.697,0.742,1.719,1.324,2.898
			c1.14,2.373,2.79,5.459,4.559,8.477c1.779,3.012,3.677,5.953,5.195,8.103c0.749,1.081,1.437,1.944,1.889,2.566
			C332.944,214.914,333.231,215.252,333.231,215.252z"/>
		<path fill="#F3F8FF" d="M341.638,200.922c0,0-0.197-0.482-0.577-1.305c-0.396-0.813-0.918-2-1.621-3.379
			c-1.386-2.771-3.359-6.391-5.453-9.939c-2.104-3.542-4.325-7.015-6.089-9.562c-0.87-1.281-1.661-2.308-2.185-3.046
			c-0.538-0.729-0.866-1.133-0.866-1.133s0.196,0.482,0.577,1.305c0.395,0.813,0.915,2.001,1.619,3.38
			c1.385,2.771,3.361,6.389,5.455,9.937c2.104,3.543,4.328,7.015,6.091,9.563c0.871,1.279,1.66,2.309,2.184,3.046
			C341.31,200.518,341.638,200.922,341.638,200.922z"/>
		<path fill="#F3F8FF" d="M350.044,186.592c0,0-0.156-0.416-0.465-1.122c-0.324-0.697-0.744-1.718-1.325-2.897
			c-1.141-2.372-2.789-5.46-4.557-8.478c-1.778-3.012-3.674-5.954-5.193-8.104c-0.748-1.082-1.438-1.944-1.89-2.565
			c-0.467-0.613-0.755-0.951-0.755-0.951s0.155,0.416,0.465,1.122c0.324,0.697,0.742,1.719,1.323,2.898
			c1.141,2.372,2.791,5.459,4.56,8.477c1.778,3.011,3.676,5.952,5.194,8.102c0.749,1.082,1.438,1.944,1.889,2.566
			C349.757,186.253,350.044,186.592,350.044,186.592z"/>
		<path fill="#F3F8FF" d="M358.45,172.261c0,0-0.436-1.312-1.286-3.164c-0.84-1.858-2.085-4.262-3.45-6.596
			c-1.376-2.328-2.869-4.585-4.087-6.222c-1.205-1.643-2.141-2.661-2.141-2.661s0.435,1.313,1.285,3.165
			c0.838,1.859,2.086,4.262,3.451,6.594c1.377,2.327,2.872,4.584,4.089,6.221C357.516,171.243,358.45,172.261,358.45,172.261z"/>
		<path fill="#F3F8FF" d="M366.857,157.931c0,0-0.194-0.9-0.683-2.134c-0.476-1.242-1.237-2.822-2.119-4.333
			c-0.891-1.504-1.9-2.939-2.755-3.958c-0.842-1.026-1.536-1.632-1.536-1.632s0.192,0.901,0.68,2.136
			c0.476,1.242,1.239,2.821,2.121,4.331c0.893,1.504,1.903,2.938,2.757,3.958C366.164,157.324,366.857,157.931,366.857,157.931z"/>
		<path fill="#F3F8FF" d="M373.751,146.179c0,0-0.085-0.416-0.3-0.988c-0.218-0.571-0.545-1.31-0.956-1.999
			c-0.402-0.695-0.888-1.341-1.282-1.808c-0.395-0.466-0.718-0.741-0.718-0.741s0.083,0.417,0.299,0.988
			c0.216,0.571,0.545,1.309,0.956,1.999c0.403,0.695,0.89,1.34,1.283,1.807C373.428,145.903,373.751,146.179,373.751,146.179z"/>
		<path fill="#F3F8FF" d="M330.758,219.468c0,0,0.436,0.086,1.198,0.193c0.764,0.092,1.853,0.271,3.162,0.396
			c2.617,0.276,6.11,0.498,9.607,0.581c3.496,0.071,6.996,0.006,9.623-0.157c1.313-0.067,2.409-0.201,3.176-0.259
			c0.767-0.074,1.206-0.142,1.206-0.142s-0.436-0.086-1.198-0.194c-0.764-0.091-1.853-0.272-3.162-0.398
			c-2.617-0.277-6.11-0.496-9.607-0.578c-3.496-0.07-6.996-0.002-9.623,0.159c-1.313,0.068-2.409,0.2-3.176,0.258
			C331.197,219.401,330.758,219.468,330.758,219.468z"/>
		<path fill="#F3F8FF" d="M339.165,205.138c0,0,0.513,0.089,1.411,0.202c0.899,0.097,2.183,0.284,3.725,0.42
			c3.084,0.295,7.199,0.542,11.318,0.65c4.119,0.097,8.241,0.056,11.336-0.088c1.547-0.059,2.838-0.184,3.741-0.235
			c0.902-0.069,1.42-0.134,1.42-0.134s-0.514-0.089-1.412-0.203c-0.899-0.097-2.183-0.286-3.725-0.421
			c-3.084-0.296-7.199-0.54-11.317-0.647c-4.119-0.096-8.242-0.054-11.337,0.089c-1.547,0.06-2.838,0.183-3.74,0.234
			C339.682,205.074,339.165,205.138,339.165,205.138z"/>
		<path fill="#F3F8FF" d="M347.571,190.808c0,0,0.436,0.085,1.198,0.193c0.763,0.091,1.853,0.271,3.161,0.396
			c2.618,0.276,6.111,0.498,9.607,0.581c3.497,0.071,6.996,0.006,9.623-0.157c1.313-0.067,2.41-0.201,3.177-0.259
			c0.767-0.075,1.205-0.142,1.205-0.142s-0.436-0.087-1.198-0.195c-0.764-0.091-1.853-0.272-3.161-0.397
			c-2.618-0.277-6.111-0.496-9.607-0.578c-3.497-0.07-6.996-0.003-9.624,0.159c-1.313,0.068-2.409,0.2-3.176,0.257
			C348.01,190.741,347.571,190.808,347.571,190.808z"/>
		<path fill="#F3F8FF" d="M355.978,176.477c0,0,1.345,0.319,3.367,0.568c2.022,0.264,4.722,0.467,7.425,0.533
			c2.703,0.054,5.408-0.029,7.44-0.205c2.031-0.161,3.39-0.422,3.39-0.422s-1.346-0.321-3.368-0.571
			c-2.021-0.264-4.722-0.466-7.424-0.531c-2.703-0.053-5.409,0.033-7.44,0.207C357.335,176.217,355.978,176.477,355.978,176.477z"/>
		<path fill="#F3F8FF" d="M364.384,162.147c0,0,0.868,0.308,2.175,0.542c1.306,0.248,3.051,0.431,4.799,0.476
			c1.749,0.033,3.5-0.071,4.816-0.262c1.315-0.177,2.196-0.449,2.196-0.449s-0.868-0.31-2.175-0.544
			c-1.307-0.249-3.052-0.43-4.8-0.473c-1.748-0.032-3.499,0.074-4.815,0.264C365.265,161.877,364.384,162.147,364.384,162.147z"/>
		<path fill="#F3F8FF" d="M371.277,150.395c0,0,0.398,0.147,0.998,0.265c0.6,0.115,1.4,0.226,2.203,0.238
			c0.803,0.022,1.607-0.05,2.211-0.141c0.604-0.091,1.009-0.221,1.009-0.221s-0.398-0.148-0.998-0.266
			c-0.6-0.117-1.4-0.225-2.203-0.237c-0.802-0.022-1.606,0.052-2.211,0.141C371.682,150.266,371.277,150.395,371.277,150.395z"/>
	</g>
	<g>
		<path fill="#62C1C5" d="M374.287,212.966c28.177,0.149,61.917,21.151,61.917,21.151s-23.937,31.727-50.176,41.993
			c-27.766,10.864-52.734-4.818-55.977-22.255C326.81,236.418,344.473,212.809,374.287,212.966z"/>
		<path fill="#F3F8FF" d="M428.344,235.579c0,0-1.497,0.216-4.117,0.595c-2.613,0.415-6.359,0.939-10.832,1.691
			c-4.472,0.759-9.702,1.569-15.281,2.572c-5.579,1.001-11.53,2.067-17.482,3.134c-5.938,1.144-11.874,2.287-17.44,3.358
			c-5.568,1.064-10.739,2.193-15.185,3.092c-4.444,0.904-8.128,1.765-10.716,2.316c-2.581,0.589-4.056,0.926-4.056,0.926
			s1.497-0.217,4.117-0.595c2.613-0.415,6.36-0.937,10.832-1.69c4.472-0.759,9.703-1.564,15.281-2.573
			c5.579-1,11.53-2.067,17.482-3.135c5.937-1.144,11.874-2.287,17.44-3.359c5.566-1.069,10.739-2.193,15.185-3.092
			c4.443-0.906,8.128-1.764,10.716-2.316C426.869,235.915,428.344,235.579,428.344,235.579z"/>
		<path fill="#F3F8FF" d="M341.455,251.734c0,0,0.212-0.39,0.542-1.086c0.314-0.701,0.811-1.688,1.321-2.899
			c1.045-2.416,2.298-5.684,3.42-8.996c1.11-3.316,2.092-6.677,2.72-9.232c0.327-1.274,0.526-2.36,0.7-3.109
			c0.157-0.754,0.225-1.192,0.225-1.192s-0.212,0.39-0.543,1.086c-0.314,0.701-0.813,1.687-1.323,2.898
			c-1.045,2.416-2.296,5.685-3.417,8.998c-1.11,3.316-2.089,6.677-2.718,9.232c-0.327,1.274-0.528,2.359-0.702,3.108
			C341.522,251.296,341.455,251.734,341.455,251.734z"/>
		<path fill="#F3F8FF" d="M357.789,248.697c0,0,0.235-0.464,0.607-1.29c0.355-0.832,0.91-2.004,1.491-3.438
			c1.186-2.862,2.626-6.726,3.936-10.632c1.299-3.91,2.468-7.863,3.236-10.864c0.397-1.496,0.655-2.768,0.87-3.646
			c0.198-0.884,0.288-1.396,0.288-1.396s-0.235,0.464-0.607,1.29c-0.355,0.832-0.912,2.003-1.493,3.438
			c-1.187,2.861-2.625,6.725-3.934,10.632c-1.298,3.91-2.464,7.865-3.234,10.865c-0.396,1.497-0.656,2.768-0.871,3.646
			C357.88,248.186,357.789,248.697,357.789,248.697z"/>
		<path fill="#F3F8FF" d="M374.123,245.66c0,0,0.211-0.39,0.542-1.086c0.314-0.701,0.811-1.688,1.321-2.899
			c1.045-2.416,2.298-5.684,3.42-8.996c1.111-3.316,2.092-6.677,2.72-9.232c0.327-1.274,0.526-2.36,0.7-3.108
			c0.157-0.755,0.225-1.193,0.225-1.193s-0.212,0.39-0.543,1.086c-0.314,0.701-0.813,1.687-1.323,2.898
			c-1.045,2.416-2.296,5.685-3.417,8.998c-1.11,3.316-2.089,6.677-2.718,9.232c-0.326,1.274-0.528,2.359-0.702,3.108
			C374.19,245.222,374.123,245.66,374.123,245.66z"/>
		<path fill="#F3F8FF" d="M390.457,242.623c0,0,0.705-1.188,1.547-3.045c0.854-1.852,1.854-4.367,2.723-6.927
			c0.857-2.564,1.586-5.172,2.023-7.163c0.452-1.987,0.608-3.361,0.608-3.361s-0.708,1.188-1.55,3.044
			c-0.855,1.852-1.853,4.368-2.721,6.929c-0.856,2.563-1.582,5.172-2.021,7.163C390.614,241.25,390.457,242.623,390.457,242.623z"/>
		<path fill="#F3F8FF" d="M406.791,239.586c0,0,0.553-0.736,1.166-1.913c0.626-1.174,1.321-2.784,1.885-4.439
			c0.554-1.659,0.977-3.362,1.187-4.675c0.224-1.309,0.227-2.23,0.227-2.23s-0.555,0.736-1.168,1.913
			c-0.627,1.173-1.32,2.784-1.884,4.44c-0.552,1.659-0.973,3.362-1.184,4.676C406.796,238.665,406.791,239.586,406.791,239.586z"/>
		<path fill="#F3F8FF" d="M420.186,237.096c0,0,0.26-0.336,0.551-0.874c0.288-0.538,0.633-1.269,0.884-2.031
			c0.261-0.76,0.432-1.549,0.525-2.152c0.094-0.604,0.09-1.029,0.09-1.029s-0.261,0.336-0.551,0.874
			c-0.29,0.537-0.632,1.27-0.884,2.031c-0.261,0.76-0.43,1.55-0.524,2.153C420.184,236.671,420.186,237.096,420.186,237.096z"/>
		<path fill="#F3F8FF" d="M336.649,252.628c0,0,0.221,0.386,0.639,1.032c0.432,0.637,1.01,1.577,1.771,2.648
			c1.507,2.159,3.628,4.943,5.855,7.639c2.237,2.688,4.579,5.29,6.423,7.168c0.912,0.948,1.731,1.688,2.276,2.23
			c0.56,0.53,0.897,0.817,0.897,0.817s-0.22-0.386-0.638-1.032c-0.432-0.637-1.008-1.578-1.771-2.649
			c-1.506-2.159-3.629-4.942-5.857-7.638c-2.237-2.688-4.582-5.287-6.425-7.166c-0.912-0.947-1.729-1.689-2.275-2.231
			C336.987,252.916,336.649,252.628,336.649,252.628z"/>
		<path fill="#F3F8FF" d="M352.983,249.591c0,0,0.27,0.446,0.772,1.199c0.516,0.743,1.215,1.835,2.123,3.089
			c1.797,2.523,4.307,5.794,6.924,8.978c2.625,3.175,5.356,6.263,7.492,8.507c1.058,1.131,1.998,2.023,2.629,2.672
			c0.645,0.637,1.031,0.985,1.031,0.985s-0.269-0.446-0.771-1.199c-0.516-0.743-1.214-1.837-2.122-3.09
			c-1.797-2.524-4.308-5.793-6.926-8.976c-2.626-3.175-5.358-6.262-7.494-8.506c-1.058-1.13-1.997-2.024-2.628-2.673
			C353.37,249.94,352.983,249.591,352.983,249.591z"/>
		<path fill="#F3F8FF" d="M369.317,246.554c0,0,0.221,0.386,0.639,1.032c0.432,0.637,1.01,1.577,1.772,2.648
			c1.506,2.159,3.627,4.943,5.854,7.639c2.237,2.688,4.579,5.29,6.424,7.168c0.911,0.948,1.73,1.688,2.275,2.23
			c0.56,0.53,0.897,0.817,0.897,0.817s-0.22-0.386-0.638-1.032c-0.432-0.637-1.008-1.578-1.771-2.649
			c-1.506-2.159-3.629-4.942-5.857-7.638c-2.237-2.688-4.582-5.287-6.425-7.166c-0.912-0.947-1.729-1.689-2.275-2.231
			C369.655,246.842,369.317,246.554,369.317,246.554z"/>
		<path fill="#F3F8FF" d="M385.651,243.517c0,0,0.641,1.226,1.777,2.917c1.126,1.7,2.74,3.874,4.461,5.959
			c1.73,2.077,3.565,4.066,5.029,5.486c1.453,1.43,2.54,2.284,2.54,2.284s-0.639-1.226-1.775-2.918
			c-1.125-1.701-2.741-3.873-4.463-5.957c-1.73-2.077-3.568-4.065-5.031-5.485C386.737,244.373,385.651,243.517,385.651,243.517z"/>
		<path fill="#F3F8FF" d="M401.985,240.479c0,0,0.336,0.858,1.016,1.999c0.668,1.148,1.673,2.587,2.785,3.938
			c1.12,1.342,2.346,2.597,3.353,3.466c0.996,0.878,1.778,1.365,1.778,1.365s-0.335-0.858-1.014-1.999
			c-0.668-1.15-1.675-2.587-2.787-3.937c-1.121-1.342-2.349-2.596-3.354-3.465C402.767,240.968,401.985,240.479,401.985,240.479z"/>
		<path fill="#F3F8FF" d="M415.381,237.989c0,0,0.149,0.397,0.453,0.927c0.307,0.529,0.748,1.206,1.264,1.821
			c0.509,0.621,1.091,1.181,1.555,1.578c0.465,0.397,0.828,0.617,0.828,0.617s-0.148-0.397-0.453-0.928
			c-0.305-0.529-0.748-1.205-1.264-1.82c-0.509-0.621-1.093-1.18-1.556-1.578C415.743,238.21,415.381,237.989,415.381,237.989z"/>
	</g>
	<g>
		<path fill="#0E4F77" d="M333.021,195.41c24.566-13.801,64.277-12.226,64.277-12.226s-5.12,39.411-22.854,61.309
			c-18.764,23.171-48.221,21.883-59.659,8.329C303.346,239.269,307.026,210.014,333.021,195.41z"/>
		<path fill="#F3F8FF" d="M391.188,188.341c0,0-1.194,0.929-3.284,2.553c-2.067,1.653-5.064,3.961-8.58,6.825
			c-3.512,2.871-7.658,6.161-12.011,9.791c-4.355,3.628-9.002,7.498-13.647,11.367c-4.596,3.93-9.191,7.858-13.5,11.542
			c-4.313,3.679-8.25,7.216-11.67,10.194c-3.416,2.983-6.193,5.553-8.17,7.312c-1.952,1.788-3.068,2.81-3.068,2.81
			s1.195-0.928,3.285-2.552c2.067-1.653,5.065-3.959,8.581-6.825c3.511-2.87,7.66-6.157,12.01-9.791
			c4.355-3.628,9.001-7.498,13.646-11.368c4.596-3.93,9.191-7.859,13.499-11.543c4.311-3.682,8.251-7.216,11.67-10.194
			c3.415-2.985,6.194-5.552,8.171-7.312C390.072,189.362,391.188,188.341,391.188,188.341z"/>
		<path fill="#F3F8FF" d="M323.648,245.342c0,0-0.009-0.444-0.065-1.213c-0.073-0.765-0.13-1.867-0.285-3.173
			c-0.286-2.616-0.813-6.077-1.476-9.511c-0.674-3.433-1.482-6.838-2.199-9.37c-0.346-1.27-0.71-2.312-0.929-3.049
			c-0.236-0.733-0.396-1.147-0.396-1.147s0.009,0.443,0.065,1.212c0.073,0.766,0.128,1.868,0.283,3.174
			c0.285,2.617,0.814,6.077,1.478,9.511c0.675,3.432,1.486,6.837,2.202,9.369c0.347,1.27,0.708,2.313,0.927,3.049
			C323.49,244.927,323.648,245.342,323.648,245.342z"/>
		<path fill="#F3F8FF" d="M336.345,234.626c0,0-0.025-0.52-0.11-1.422c-0.102-0.898-0.199-2.191-0.403-3.727
			c-0.384-3.073-1.041-7.144-1.835-11.187c-0.804-4.041-1.743-8.056-2.558-11.044c-0.395-1.497-0.799-2.729-1.047-3.6
			c-0.265-0.866-0.439-1.356-0.439-1.356s0.024,0.52,0.109,1.422c0.102,0.898,0.197,2.192,0.402,3.727
			c0.383,3.074,1.043,7.144,1.837,11.187c0.805,4.041,1.746,8.055,2.561,11.044c0.396,1.496,0.797,2.729,1.045,3.6
			C336.171,234.136,336.345,234.626,336.345,234.626z"/>
		<path fill="#F3F8FF" d="M349.042,223.911c0,0-0.009-0.444-0.065-1.213c-0.074-0.765-0.13-1.867-0.285-3.173
			c-0.287-2.617-0.813-6.077-1.476-9.512c-0.674-3.432-1.482-6.837-2.2-9.369c-0.346-1.27-0.709-2.312-0.928-3.049
			c-0.236-0.733-0.396-1.147-0.396-1.147s0.009,0.443,0.064,1.212c0.074,0.766,0.128,1.868,0.284,3.174
			c0.285,2.617,0.814,6.077,1.478,9.511c0.675,3.432,1.485,6.837,2.202,9.369c0.347,1.269,0.708,2.312,0.927,3.049
			C348.884,223.496,349.042,223.911,349.042,223.911z"/>
		<path fill="#F3F8FF" d="M361.738,213.195c0,0,0.025-1.382-0.16-3.411c-0.173-2.032-0.548-4.714-1.059-7.368
			c-0.522-2.652-1.179-5.279-1.782-7.227c-0.59-1.951-1.134-3.223-1.134-3.223s-0.027,1.383,0.158,3.412
			c0.172,2.032,0.549,4.713,1.061,7.367c0.523,2.652,1.182,5.278,1.785,7.227C361.196,211.924,361.738,213.195,361.738,213.195z"/>
		<path fill="#F3F8FF" d="M374.436,202.479c0,0,0.116-0.913,0.067-2.239c-0.036-1.329-0.229-3.073-0.557-4.791
			c-0.34-1.716-0.813-3.405-1.28-4.65c-0.453-1.248-0.905-2.05-0.905-2.05s-0.119,0.913-0.07,2.24
			c0.035,1.329,0.229,3.073,0.559,4.79c0.341,1.716,0.817,3.404,1.283,4.649C373.984,201.677,374.436,202.479,374.436,202.479z"/>
		<path fill="#F3F8FF" d="M384.847,193.692c0,0,0.06-0.42,0.047-1.031c-0.016-0.61-0.078-1.416-0.236-2.203
			c-0.148-0.789-0.391-1.56-0.607-2.131s-0.431-0.938-0.431-0.938s-0.06,0.421-0.047,1.031c0.014,0.611,0.078,1.416,0.236,2.203
			c0.148,0.789,0.394,1.56,0.608,2.131C384.635,193.325,384.847,193.692,384.847,193.692z"/>
		<path fill="#F3F8FF" d="M319.913,248.494c0,0,0.382,0.226,1.065,0.581c0.689,0.34,1.657,0.872,2.85,1.426
			c2.376,1.132,5.597,2.504,8.866,3.746c3.273,1.23,6.596,2.333,9.127,3.055c1.261,0.373,2.339,0.612,3.081,0.813
			c0.748,0.185,1.184,0.268,1.184,0.268s-0.382-0.226-1.064-0.582c-0.689-0.34-1.656-0.874-2.85-1.428
			c-2.375-1.133-5.597-2.502-8.866-3.743c-3.274-1.229-6.597-2.33-9.128-3.053c-1.262-0.372-2.339-0.613-3.081-0.814
			C320.349,248.577,319.913,248.494,319.913,248.494z"/>
		<path fill="#F3F8FF" d="M332.61,237.778c0,0,0.454,0.255,1.264,0.661c0.815,0.39,1.964,0.994,3.372,1.635
			c2.811,1.305,6.608,2.907,10.457,4.38c3.852,1.463,7.752,2.796,10.719,3.691c1.478,0.46,2.737,0.771,3.605,1.022
			c0.875,0.235,1.384,0.347,1.384,0.347s-0.454-0.255-1.264-0.661c-0.815-0.391-1.963-0.996-3.372-1.637
			c-2.81-1.306-6.608-2.906-10.457-4.378c-3.853-1.461-7.754-2.793-10.72-3.688c-1.479-0.459-2.737-0.772-3.605-1.024
			C333.118,237.891,332.61,237.778,332.61,237.778z"/>
		<path fill="#F3F8FF" d="M345.307,227.063c0,0,0.382,0.226,1.065,0.581c0.689,0.34,1.657,0.871,2.85,1.426
			c2.376,1.132,5.597,2.504,8.866,3.746c3.273,1.23,6.596,2.333,9.127,3.055c1.261,0.373,2.339,0.611,3.081,0.813
			c0.748,0.185,1.184,0.268,1.184,0.268s-0.382-0.227-1.064-0.582c-0.69-0.34-1.656-0.874-2.85-1.428
			c-2.376-1.133-5.597-2.502-8.867-3.743c-3.273-1.229-6.597-2.33-9.128-3.053c-1.261-0.372-2.338-0.613-3.08-0.814
			C345.742,227.146,345.307,227.063,345.307,227.063z"/>
		<path fill="#F3F8FF" d="M358.003,216.348c0,0,1.162,0.748,2.986,1.657c1.819,0.921,4.297,2.012,6.824,2.974
			c2.53,0.95,5.11,1.772,7.084,2.283c1.97,0.524,3.337,0.729,3.337,0.729s-1.161-0.75-2.985-1.659
			c-1.819-0.922-4.298-2.011-6.824-2.972c-2.531-0.949-5.111-1.77-7.086-2.281C359.37,216.555,358.003,216.348,358.003,216.348z"/>
		<path fill="#F3F8FF" d="M370.7,205.633c0,0,0.715,0.579,1.869,1.234c1.15,0.669,2.734,1.422,4.368,2.046
			c1.638,0.613,3.324,1.098,4.629,1.355c1.299,0.271,2.22,0.308,2.22,0.308s-0.715-0.581-1.869-1.237
			c-1.149-0.669-2.734-1.42-4.368-2.043c-1.639-0.612-3.325-1.095-4.63-1.354C371.62,205.671,370.7,205.633,370.7,205.633z"/>
		<path fill="#F3F8FF" d="M381.111,196.845c0,0,0.327,0.271,0.854,0.582c0.527,0.309,1.245,0.679,1.998,0.958
			c0.749,0.288,1.532,0.487,2.132,0.604c0.601,0.115,1.025,0.127,1.025,0.127s-0.327-0.272-0.854-0.583
			c-0.526-0.31-1.245-0.678-1.998-0.956c-0.749-0.289-1.533-0.486-2.133-0.604C381.536,196.857,381.111,196.845,381.111,196.845z"/>
	</g>
	<g>
		<path fill="#62C1C5" d="M121.433,165.048c-18.572-21.19-56.543-32.921-56.543-32.921s-8.289,38.869,1.146,65.419
			c9.982,28.095,38.189,36.685,53.486,27.71C134.819,216.282,141.084,187.471,121.433,165.048z"/>
		<path fill="#F3F8FF" d="M68.935,139.022c0,0,0.817,1.273,2.248,3.5c1.398,2.247,3.457,5.42,5.819,9.292
			c2.356,3.875,5.171,8.358,8.067,13.23c2.9,4.87,5.993,10.066,9.086,15.261c3.026,5.235,6.052,10.469,8.889,15.376
			c2.843,4.904,5.379,9.551,7.612,13.498c2.228,3.95,3.992,7.296,5.27,9.613c1.246,2.336,1.958,3.671,1.958,3.671
			s-0.817-1.273-2.249-3.501c-1.398-2.246-3.458-5.419-5.819-9.291c-2.356-3.875-5.174-8.355-8.067-13.23
			c-2.899-4.871-5.992-10.066-9.085-15.262c-3.025-5.235-6.051-10.47-8.888-15.377c-2.839-4.906-5.378-9.55-7.612-13.498
			c-2.227-3.951-3.993-7.296-5.271-9.613C69.646,140.356,68.935,139.022,68.935,139.022z"/>
		<path fill="#F3F8FF" d="M113.652,215.252c0,0,0.156-0.415,0.465-1.121c0.324-0.697,0.744-1.718,1.325-2.897
			c1.141-2.372,2.79-5.46,4.557-8.478c1.778-3.013,3.673-5.955,5.193-8.104c0.748-1.081,1.438-1.943,1.89-2.565
			c0.467-0.612,0.754-0.95,0.754-0.95s-0.155,0.415-0.464,1.121c-0.324,0.697-0.742,1.719-1.324,2.898
			c-1.14,2.373-2.791,5.459-4.559,8.477c-1.778,3.012-3.676,5.953-5.195,8.103c-0.749,1.081-1.437,1.944-1.889,2.566
			C113.939,214.914,113.652,215.252,113.652,215.252z"/>
		<path fill="#F3F8FF" d="M105.246,200.922c0,0,0.197-0.482,0.577-1.305c0.396-0.813,0.917-2,1.621-3.379
			c1.385-2.771,3.36-6.391,5.453-9.939c2.104-3.542,4.325-7.015,6.088-9.562c0.87-1.281,1.662-2.308,2.185-3.046
			c0.538-0.729,0.867-1.133,0.867-1.133s-0.196,0.482-0.577,1.305c-0.396,0.813-0.916,2.001-1.62,3.38
			c-1.385,2.771-3.361,6.389-5.456,9.937c-2.104,3.543-4.328,7.015-6.09,9.563c-0.871,1.279-1.661,2.309-2.183,3.046
			C105.574,200.518,105.246,200.922,105.246,200.922z"/>
		<path fill="#F3F8FF" d="M96.84,186.592c0,0,0.156-0.416,0.465-1.122c0.324-0.697,0.744-1.718,1.325-2.897
			c1.141-2.372,2.789-5.46,4.557-8.478c1.778-3.012,3.674-5.954,5.193-8.104c0.748-1.082,1.438-1.944,1.89-2.565
			c0.467-0.613,0.754-0.951,0.754-0.951s-0.155,0.416-0.464,1.122c-0.324,0.697-0.742,1.719-1.324,2.898
			c-1.14,2.372-2.791,5.459-4.559,8.477c-1.778,3.011-3.676,5.952-5.195,8.102c-0.749,1.082-1.437,1.944-1.889,2.566
			C97.126,186.253,96.84,186.592,96.84,186.592z"/>
		<path fill="#F3F8FF" d="M88.433,172.261c0,0,0.436-1.312,1.287-3.164c0.839-1.858,2.085-4.262,3.45-6.596
			c1.375-2.328,2.868-4.585,4.086-6.222c1.205-1.643,2.141-2.661,2.141-2.661s-0.434,1.313-1.285,3.165
			c-0.838,1.859-2.086,4.262-3.452,6.594c-1.376,2.327-2.872,4.584-4.088,6.221C89.368,171.243,88.433,172.261,88.433,172.261z"/>
		<path fill="#F3F8FF" d="M80.027,157.931c0,0,0.194-0.9,0.682-2.134c0.477-1.242,1.238-2.822,2.119-4.333
			c0.891-1.504,1.9-2.939,2.755-3.958c0.842-1.026,1.536-1.632,1.536-1.632s-0.192,0.901-0.68,2.136
			c-0.475,1.242-1.239,2.821-2.121,4.331c-0.892,1.504-1.903,2.938-2.757,3.958C80.719,157.324,80.027,157.931,80.027,157.931z"/>
		<path fill="#F3F8FF" d="M73.133,146.179c0,0,0.084-0.416,0.3-0.988c0.217-0.571,0.544-1.31,0.956-1.999
			c0.402-0.695,0.887-1.341,1.282-1.808c0.395-0.466,0.719-0.741,0.719-0.741s-0.083,0.417-0.299,0.988
			c-0.216,0.571-0.545,1.309-0.956,1.999c-0.403,0.695-0.89,1.34-1.283,1.807C73.456,145.903,73.133,146.179,73.133,146.179z"/>
		<path fill="#F3F8FF" d="M116.125,219.468c0,0-0.435,0.086-1.198,0.193c-0.763,0.092-1.853,0.271-3.162,0.396
			c-2.618,0.276-6.111,0.498-9.607,0.581c-3.497,0.071-6.997,0.006-9.624-0.157c-1.313-0.067-2.41-0.201-3.176-0.259
			c-0.767-0.074-1.206-0.142-1.206-0.142s0.436-0.086,1.198-0.194c0.764-0.091,1.853-0.272,3.162-0.398
			c2.618-0.277,6.111-0.496,9.607-0.578c3.497-0.07,6.996-0.002,9.624,0.159c1.313,0.068,2.409,0.2,3.176,0.258
			C115.687,219.401,116.125,219.468,116.125,219.468z"/>
		<path fill="#F3F8FF" d="M107.719,205.138c0,0-0.513,0.089-1.412,0.202c-0.899,0.097-2.183,0.284-3.725,0.42
			c-3.083,0.295-7.199,0.542-11.318,0.65c-4.119,0.097-8.241,0.056-11.336-0.088c-1.547-0.059-2.838-0.184-3.741-0.235
			c-0.903-0.069-1.42-0.134-1.42-0.134s0.513-0.089,1.412-0.203c0.899-0.097,2.182-0.286,3.725-0.421
			c3.083-0.296,7.199-0.54,11.318-0.647c4.119-0.096,8.242-0.054,11.336,0.089c1.547,0.06,2.838,0.183,3.741,0.234
			C107.202,205.074,107.719,205.138,107.719,205.138z"/>
		<path fill="#F3F8FF" d="M99.313,190.808c0,0-0.435,0.085-1.198,0.193c-0.763,0.091-1.852,0.271-3.161,0.396
			c-2.618,0.276-6.111,0.498-9.607,0.581c-3.497,0.071-6.996,0.006-9.624-0.157c-1.313-0.067-2.409-0.201-3.176-0.259
			c-0.767-0.075-1.206-0.142-1.206-0.142s0.435-0.087,1.198-0.195c0.763-0.091,1.853-0.272,3.162-0.397
			c2.617-0.277,6.111-0.496,9.607-0.578c3.497-0.07,6.997-0.003,9.624,0.159c1.313,0.068,2.41,0.2,3.176,0.257
			C98.874,190.741,99.313,190.808,99.313,190.808z"/>
		<path fill="#F3F8FF" d="M90.906,176.477c0,0-1.345,0.319-3.368,0.568c-2.022,0.264-4.722,0.467-7.424,0.533
			c-2.703,0.054-5.409-0.029-7.44-0.205c-2.032-0.161-3.39-0.422-3.39-0.422s1.345-0.321,3.368-0.571
			c2.022-0.264,4.722-0.466,7.424-0.531c2.703-0.053,5.409,0.033,7.441,0.207C89.549,176.217,90.906,176.477,90.906,176.477z"/>
		<path fill="#F3F8FF" d="M82.5,162.147c0,0-0.868,0.308-2.175,0.542c-1.306,0.248-3.051,0.431-4.799,0.476
			c-1.749,0.033-3.5-0.071-4.816-0.262c-1.315-0.177-2.196-0.449-2.196-0.449s0.868-0.31,2.175-0.544
			c1.306-0.249,3.051-0.43,4.799-0.473c1.749-0.032,3.5,0.074,4.816,0.264C81.619,161.877,82.5,162.147,82.5,162.147z"/>
		<path fill="#F3F8FF" d="M75.606,150.395c0,0-0.398,0.147-0.998,0.265c-0.6,0.115-1.4,0.226-2.203,0.238
			c-0.803,0.022-1.607-0.05-2.211-0.141c-0.604-0.091-1.009-0.221-1.009-0.221s0.398-0.148,0.998-0.266
			c0.6-0.117,1.4-0.225,2.203-0.237c0.802-0.022,1.607,0.052,2.211,0.141C75.202,150.266,75.606,150.395,75.606,150.395z"/>
	</g>
	<g>
		<path fill="#0E4F77" d="M72.596,212.966c-28.176,0.149-61.916,21.151-61.916,21.151s23.936,31.727,50.175,41.993
			c27.766,10.864,52.734-4.818,55.977-22.255C120.074,236.418,102.411,212.809,72.596,212.966z"/>
		<path fill="#F3F8FF" d="M18.54,235.579c0,0,1.498,0.216,4.118,0.595c2.613,0.415,6.359,0.939,10.832,1.691
			c4.471,0.759,9.702,1.569,15.281,2.572c5.58,1.001,11.531,2.067,17.483,3.134c5.937,1.144,11.875,2.287,17.44,3.358
			c5.568,1.064,10.739,2.193,15.185,3.092c4.444,0.904,8.128,1.765,10.716,2.316c2.581,0.589,4.056,0.926,4.056,0.926
			s-1.498-0.217-4.118-0.595c-2.613-0.415-6.36-0.937-10.833-1.69c-4.471-0.759-9.703-1.564-15.281-2.573
			c-5.579-1-11.531-2.067-17.482-3.135c-5.938-1.144-11.875-2.287-17.441-3.359c-5.567-1.069-10.739-2.193-15.184-3.092
			c-4.444-0.906-8.128-1.764-10.716-2.316C20.015,235.915,18.54,235.579,18.54,235.579z"/>
		<path fill="#F3F8FF" d="M105.429,251.734c0,0-0.211-0.39-0.542-1.086c-0.314-0.701-0.811-1.688-1.321-2.899
			c-1.044-2.416-2.297-5.684-3.419-8.996c-1.111-3.316-2.092-6.677-2.72-9.232c-0.327-1.274-0.526-2.36-0.7-3.109
			c-0.157-0.754-0.224-1.192-0.224-1.192s0.212,0.39,0.543,1.086c0.315,0.701,0.813,1.687,1.323,2.898
			c1.045,2.416,2.296,5.685,3.417,8.998c1.11,3.316,2.089,6.677,2.718,9.232c0.326,1.274,0.527,2.359,0.701,3.108
			C105.361,251.296,105.429,251.734,105.429,251.734z"/>
		<path fill="#F3F8FF" d="M89.095,248.697c0,0-0.235-0.464-0.607-1.29c-0.355-0.832-0.911-2.004-1.492-3.438
			c-1.186-2.862-2.626-6.726-3.936-10.632c-1.298-3.91-2.467-7.863-3.236-10.864c-0.397-1.496-0.655-2.768-0.87-3.646
			c-0.198-0.884-0.289-1.396-0.289-1.396s0.236,0.464,0.608,1.29c0.355,0.832,0.912,2.003,1.493,3.438
			c1.187,2.861,2.625,6.725,3.934,10.632c1.298,3.91,2.464,7.865,3.234,10.865c0.396,1.497,0.656,2.768,0.871,3.646
			C89.004,248.186,89.095,248.697,89.095,248.697z"/>
		<path fill="#F3F8FF" d="M72.761,245.66c0,0-0.211-0.39-0.542-1.086c-0.314-0.701-0.811-1.688-1.321-2.899
			c-1.044-2.416-2.297-5.684-3.419-8.996c-1.111-3.316-2.092-6.677-2.72-9.232c-0.327-1.274-0.526-2.36-0.7-3.108
			c-0.157-0.755-0.224-1.193-0.224-1.193s0.212,0.39,0.543,1.086c0.314,0.701,0.813,1.687,1.323,2.898
			c1.045,2.416,2.296,5.685,3.417,8.998c1.11,3.316,2.089,6.677,2.718,9.232c0.326,1.274,0.527,2.359,0.701,3.108
			C72.693,245.222,72.761,245.66,72.761,245.66z"/>
		<path fill="#F3F8FF" d="M56.427,242.623c0,0-0.706-1.188-1.547-3.045c-0.854-1.852-1.854-4.367-2.723-6.927
			c-0.857-2.564-1.585-5.172-2.023-7.163c-0.452-1.987-0.607-3.361-0.607-3.361s0.707,1.188,1.549,3.044
			c0.855,1.852,1.853,4.368,2.721,6.929c0.857,2.563,1.582,5.172,2.021,7.163C56.27,241.25,56.427,242.623,56.427,242.623z"/>
		<path fill="#F3F8FF" d="M40.093,239.586c0,0-0.553-0.736-1.166-1.913c-0.626-1.174-1.321-2.784-1.885-4.439
			c-0.553-1.659-0.976-3.362-1.186-4.675c-0.224-1.309-0.227-2.23-0.227-2.23s0.555,0.736,1.168,1.913
			c0.627,1.173,1.32,2.784,1.883,4.44c0.552,1.659,0.973,3.362,1.184,4.676C40.088,238.665,40.093,239.586,40.093,239.586z"/>
		<path fill="#F3F8FF" d="M26.698,237.096c0,0-0.259-0.336-0.55-0.874c-0.289-0.538-0.633-1.269-0.884-2.031
			c-0.261-0.76-0.432-1.549-0.525-2.152c-0.094-0.604-0.09-1.029-0.09-1.029s0.26,0.336,0.551,0.874
			c0.29,0.537,0.632,1.27,0.883,2.031c0.261,0.76,0.429,1.55,0.524,2.153C26.701,236.671,26.698,237.096,26.698,237.096z"/>
		<path fill="#F3F8FF" d="M110.234,252.628c0,0-0.22,0.386-0.638,1.032c-0.432,0.637-1.01,1.577-1.772,2.648
			c-1.506,2.159-3.627,4.943-5.855,7.639c-2.237,2.688-4.58,5.29-6.423,7.168c-0.912,0.948-1.731,1.688-2.276,2.23
			c-0.559,0.53-0.897,0.817-0.897,0.817s0.22-0.386,0.638-1.032c0.432-0.637,1.008-1.578,1.771-2.649
			c1.505-2.159,3.628-4.942,5.857-7.638c2.238-2.688,4.582-5.287,6.425-7.166c0.912-0.947,1.729-1.689,2.275-2.231
			C109.896,252.916,110.234,252.628,110.234,252.628z"/>
		<path fill="#F3F8FF" d="M93.9,249.591c0,0-0.269,0.446-0.771,1.199c-0.517,0.743-1.216,1.835-2.124,3.089
			c-1.797,2.523-4.307,5.794-6.923,8.978c-2.625,3.175-5.357,6.263-7.493,8.507c-1.058,1.131-1.998,2.023-2.629,2.672
			c-0.644,0.637-1.031,0.985-1.031,0.985s0.269-0.446,0.771-1.199c0.516-0.743,1.214-1.837,2.122-3.09
			c1.796-2.524,4.308-5.793,6.925-8.976c2.626-3.175,5.359-6.262,7.494-8.506c1.058-1.13,1.998-2.024,2.628-2.673
			C93.514,249.94,93.9,249.591,93.9,249.591z"/>
		<path fill="#F3F8FF" d="M77.566,246.554c0,0-0.221,0.386-0.639,1.032c-0.431,0.637-1.009,1.577-1.771,2.648
			c-1.506,2.159-3.627,4.943-5.855,7.639c-2.237,2.688-4.579,5.29-6.423,7.168c-0.912,0.948-1.731,1.688-2.276,2.23
			c-0.559,0.53-0.897,0.817-0.897,0.817s0.22-0.386,0.638-1.032c0.432-0.637,1.008-1.578,1.771-2.649
			c1.505-2.159,3.628-4.942,5.857-7.638c2.238-2.688,4.582-5.287,6.425-7.166c0.912-0.947,1.729-1.689,2.275-2.231
			C77.229,246.842,77.566,246.554,77.566,246.554z"/>
		<path fill="#F3F8FF" d="M61.232,243.517c0,0-0.64,1.226-1.777,2.917c-1.125,1.7-2.74,3.874-4.461,5.959
			c-1.73,2.077-3.566,4.066-5.029,5.486c-1.453,1.43-2.54,2.284-2.54,2.284s0.639-1.226,1.775-2.918
			c1.125-1.701,2.741-3.873,4.463-5.957c1.73-2.077,3.568-4.065,5.031-5.485C60.146,244.373,61.232,243.517,61.232,243.517z"/>
		<path fill="#F3F8FF" d="M44.898,240.479c0,0-0.335,0.858-1.015,1.999c-0.669,1.148-1.674,2.587-2.786,3.938
			c-1.12,1.342-2.346,2.597-3.353,3.466c-0.996,0.878-1.778,1.365-1.778,1.365s0.334-0.858,1.013-1.999
			c0.668-1.15,1.675-2.587,2.787-3.937c1.121-1.342,2.349-2.596,3.355-3.465C44.117,240.968,44.898,240.479,44.898,240.479z"/>
		<path fill="#F3F8FF" d="M31.503,237.989c0,0-0.15,0.397-0.454,0.927c-0.306,0.529-0.747,1.206-1.263,1.821
			c-0.509,0.621-1.091,1.181-1.555,1.578s-0.828,0.617-0.828,0.617s0.149-0.397,0.453-0.928c0.305-0.529,0.748-1.205,1.264-1.82
			c0.509-0.621,1.092-1.18,1.555-1.578C31.141,238.21,31.503,237.989,31.503,237.989z"/>
	</g>
	<g>
		<path fill="#E89234" d="M113.863,195.41c-24.565-13.801-64.277-12.226-64.277-12.226s5.12,39.411,22.853,61.309
			c18.764,23.171,48.221,21.883,59.66,8.329S139.857,210.014,113.863,195.41z"/>
		<path fill="#F3F8FF" d="M55.695,188.341c0,0,1.194,0.929,3.285,2.553c2.066,1.653,5.063,3.961,8.58,6.825
			c3.512,2.871,7.658,6.161,12.011,9.791c4.355,3.628,9.001,7.498,13.647,11.367c4.596,3.93,9.191,7.858,13.5,11.542
			c4.313,3.679,8.251,7.216,11.671,10.194c3.416,2.983,6.193,5.553,8.169,7.312c1.952,1.788,3.068,2.81,3.068,2.81
			s-1.195-0.928-3.285-2.552c-2.066-1.653-5.065-3.959-8.581-6.825c-3.511-2.87-7.66-6.157-12.01-9.791
			c-4.355-3.628-9.001-7.498-13.646-11.368c-4.595-3.93-9.19-7.859-13.499-11.543c-4.311-3.682-8.25-7.216-11.67-10.194
			c-3.415-2.985-6.193-5.552-8.17-7.312C56.811,189.362,55.695,188.341,55.695,188.341z"/>
		<path fill="#F3F8FF" d="M123.235,245.342c0,0,0.009-0.444,0.065-1.213c0.073-0.765,0.13-1.867,0.285-3.173
			c0.287-2.616,0.813-6.077,1.476-9.511c0.674-3.433,1.482-6.838,2.2-9.37c0.345-1.27,0.709-2.312,0.928-3.049
			c0.236-0.733,0.395-1.147,0.395-1.147s-0.008,0.443-0.064,1.212c-0.074,0.766-0.128,1.868-0.284,3.174
			c-0.286,2.617-0.814,6.077-1.478,9.511c-0.675,3.432-1.486,6.837-2.202,9.369c-0.346,1.27-0.708,2.313-0.927,3.049
			C123.393,244.927,123.235,245.342,123.235,245.342z"/>
		<path fill="#F3F8FF" d="M110.539,234.626c0,0,0.025-0.52,0.11-1.422c0.102-0.898,0.199-2.191,0.403-3.727
			c0.385-3.073,1.042-7.144,1.835-11.187c0.804-4.041,1.743-8.056,2.559-11.044c0.394-1.497,0.798-2.729,1.046-3.6
			c0.265-0.866,0.439-1.356,0.439-1.356s-0.024,0.52-0.109,1.422c-0.102,0.898-0.197,2.192-0.402,3.727
			c-0.384,3.074-1.043,7.144-1.837,11.187c-0.806,4.041-1.747,8.055-2.561,11.044c-0.395,1.496-0.797,2.729-1.045,3.6
			C110.713,234.136,110.539,234.626,110.539,234.626z"/>
		<path fill="#F3F8FF" d="M97.842,223.911c0,0,0.009-0.444,0.065-1.213c0.074-0.765,0.13-1.867,0.285-3.173
			c0.287-2.617,0.813-6.077,1.476-9.512c0.674-3.432,1.482-6.837,2.2-9.369c0.346-1.27,0.709-2.312,0.928-3.049
			c0.236-0.733,0.395-1.147,0.395-1.147s-0.008,0.443-0.064,1.212c-0.073,0.766-0.127,1.868-0.284,3.174
			c-0.286,2.617-0.814,6.077-1.478,9.511c-0.675,3.432-1.486,6.837-2.202,9.369c-0.346,1.269-0.708,2.312-0.927,3.049
			C98,223.496,97.842,223.911,97.842,223.911z"/>
		<path fill="#F3F8FF" d="M85.146,213.195c0,0-0.026-1.382,0.161-3.411c0.172-2.032,0.547-4.714,1.058-7.368
			c0.522-2.652,1.179-5.279,1.782-7.227c0.59-1.951,1.134-3.223,1.134-3.223s0.027,1.383-0.159,3.412
			c-0.172,2.032-0.549,4.713-1.06,7.367c-0.523,2.652-1.182,5.278-1.785,7.227C85.688,211.924,85.146,213.195,85.146,213.195z"/>
		<path fill="#F3F8FF" d="M72.449,202.479c0,0-0.117-0.913-0.067-2.239c0.036-1.329,0.228-3.073,0.556-4.791
			c0.339-1.716,0.813-3.405,1.28-4.65c0.453-1.248,0.905-2.05,0.905-2.05s0.119,0.913,0.07,2.24
			c-0.035,1.329-0.229,3.073-0.559,4.79c-0.34,1.716-0.817,3.404-1.282,4.649C72.9,201.677,72.449,202.479,72.449,202.479z"/>
		<path fill="#F3F8FF" d="M62.037,193.692c0,0-0.059-0.42-0.046-1.031c0.015-0.61,0.077-1.416,0.236-2.203
			c0.148-0.789,0.391-1.56,0.607-2.131c0.217-0.571,0.431-0.938,0.431-0.938s0.06,0.421,0.047,1.031
			c-0.013,0.611-0.078,1.416-0.236,2.203c-0.149,0.789-0.393,1.56-0.608,2.131C62.249,193.325,62.037,193.692,62.037,193.692z"/>
		<path fill="#F3F8FF" d="M126.97,248.494c0,0-0.382,0.226-1.065,0.581c-0.69,0.34-1.657,0.872-2.85,1.426
			c-2.376,1.132-5.597,2.504-8.866,3.746c-3.273,1.23-6.596,2.333-9.127,3.055c-1.261,0.373-2.339,0.612-3.081,0.813
			c-0.748,0.185-1.184,0.268-1.184,0.268s0.382-0.226,1.065-0.582c0.689-0.34,1.656-0.874,2.849-1.428
			c2.376-1.133,5.597-2.502,8.867-3.743c3.274-1.229,6.597-2.33,9.128-3.053c1.261-0.372,2.339-0.613,3.081-0.814
			C126.535,248.577,126.97,248.494,126.97,248.494z"/>
		<path fill="#F3F8FF" d="M114.274,237.778c0,0-0.455,0.255-1.264,0.661c-0.815,0.39-1.963,0.994-3.373,1.635
			c-2.81,1.305-6.608,2.907-10.456,4.38c-3.852,1.463-7.753,2.796-10.719,3.691c-1.479,0.46-2.738,0.771-3.606,1.022
			c-0.875,0.235-1.383,0.347-1.383,0.347s0.454-0.255,1.264-0.661c0.815-0.391,1.963-0.996,3.372-1.637
			c2.809-1.306,6.609-2.906,10.457-4.378c3.853-1.461,7.754-2.793,10.72-3.688c1.479-0.459,2.737-0.772,3.605-1.024
			C113.766,237.891,114.274,237.778,114.274,237.778z"/>
		<path fill="#F3F8FF" d="M101.577,227.063c0,0-0.382,0.226-1.065,0.581c-0.689,0.34-1.657,0.871-2.849,1.426
			c-2.376,1.132-5.597,2.504-8.867,3.746c-3.273,1.23-6.595,2.333-9.127,3.055c-1.261,0.373-2.339,0.611-3.081,0.813
			c-0.748,0.185-1.184,0.268-1.184,0.268s0.382-0.227,1.065-0.582c0.689-0.34,1.656-0.874,2.849-1.428
			c2.376-1.133,5.597-2.502,8.867-3.743c3.274-1.229,6.597-2.33,9.128-3.053c1.261-0.372,2.338-0.613,3.081-0.814
			C101.142,227.146,101.577,227.063,101.577,227.063z"/>
		<path fill="#F3F8FF" d="M88.88,216.348c0,0-1.162,0.748-2.986,1.657c-1.819,0.921-4.297,2.012-6.824,2.974
			c-2.531,0.95-5.11,1.772-7.084,2.283c-1.969,0.524-3.337,0.729-3.337,0.729s1.162-0.75,2.986-1.659
			c1.819-0.922,4.297-2.011,6.825-2.972c2.531-0.949,5.111-1.77,7.085-2.281C87.514,216.555,88.88,216.348,88.88,216.348z"/>
		<path fill="#F3F8FF" d="M76.184,205.633c0,0-0.716,0.579-1.87,1.234c-1.149,0.669-2.734,1.422-4.368,2.046
			c-1.638,0.613-3.324,1.098-4.628,1.355c-1.3,0.271-2.221,0.308-2.221,0.308s0.715-0.581,1.87-1.237
			c1.149-0.669,2.734-1.42,4.368-2.043c1.638-0.612,3.325-1.095,4.629-1.354C75.264,205.671,76.184,205.633,76.184,205.633z"/>
		<path fill="#F3F8FF" d="M65.772,196.845c0,0-0.327,0.271-0.853,0.582c-0.527,0.309-1.246,0.679-1.998,0.958
			c-0.75,0.288-1.532,0.487-2.132,0.604c-0.6,0.115-1.024,0.127-1.024,0.127s0.326-0.272,0.853-0.583
			c0.527-0.31,1.246-0.678,1.999-0.956c0.749-0.289,1.533-0.486,2.132-0.604C65.348,196.857,65.772,196.845,65.772,196.845z"/>
	</g>
	<rect x="117.227" y="240.175" fill="#3459B7" width="212.431" height="7.896"/>
	<g>
		<g>
			<g>
				<path fill="#5472D1" d="M95.655,240.575h255.573c2.37,0,4.291-1.921,4.291-4.291V74.037c0-2.37-1.921-4.291-4.291-4.291H95.655
					c-2.37,0-4.291,1.921-4.291,4.291v162.247C91.364,238.654,93.285,240.575,95.655,240.575z"/>
			</g>
			<g>
				<rect x="99.987" y="78.258" fill="#E9F0FF" width="246.91" height="146.319"/>
			</g>
		</g>
		<polygon fill="#5D7EE8" points="355.52,248.07 223.442,248.07 91.364,248.07 53.468,278.03 223.442,278.03 393.416,278.03 		"/>
		<polygon fill="#3459B7" points="189.781,260.758 246.559,260.758 257.103,260.758 273.081,273.39 379.5,273.39 353.343,252.711 
			223.442,252.711 93.541,252.711 67.383,273.39 173.802,273.39 		"/>
		<polygon fill="#3459B7" points="255.435,265.281 247.652,265.281 191.449,265.281 175.323,278.03 247.652,278.03 271.561,278.03 
					"/>
		<path fill="#3459B7" d="M383.934,287.513H62.95c-5.237,0-9.482-4.245-9.482-9.482l0,0h339.948l0,0
			C393.416,283.268,389.171,287.513,383.934,287.513z"/>
		<g>
			<polygon fill="#5D7EE8" points="221.525,273.794 202.067,273.794 196.708,278.03 221.525,278.03 			"/>
			<polygon fill="#5D7EE8" points="225.358,278.03 250.176,278.03 244.817,273.794 225.358,273.794 			"/>
		</g>
		<g>
			<polygon fill="#5D7EE8" points="96.332,257.452 91.364,261.386 175.494,261.386 180.461,257.452 			"/>
			<polygon fill="#5D7EE8" points="88.611,263.884 83.644,267.818 167.774,267.818 172.742,263.884 			"/>
		</g>
		<g>
			<polygon fill="#5D7EE8" points="350.553,257.452 355.52,261.386 271.39,261.386 266.422,257.452 			"/>
			<polygon fill="#5D7EE8" points="358.272,263.884 363.239,267.818 279.109,267.818 274.143,263.884 			"/>
		</g>
	</g>
	<g>
		<path fill="#A1BCFF" d="M199.577,175.255h-74.283c-1.933,0-3.5-1.567-3.5-3.5l0,0c0-1.933,1.567-3.5,3.5-3.5h74.283
			c1.933,0,3.5,1.567,3.5,3.5l0,0C203.077,173.688,201.51,175.255,199.577,175.255z"/>
		<path fill="#D4E1FF" d="M199.577,168.255h-6.132c1.933,0,3.5,1.567,3.5,3.5s-1.567,3.5-3.5,3.5h6.132c1.933,0,3.5-1.567,3.5-3.5
			S201.51,168.255,199.577,168.255z"/>
	</g>
	<g>
		<path fill="#A1BCFF" d="M199.577,185.755h-74.283c-1.933,0-3.5-1.567-3.5-3.5l0,0c0-1.933,1.567-3.5,3.5-3.5h74.283
			c1.933,0,3.5,1.567,3.5,3.5l0,0C203.077,184.188,201.51,185.755,199.577,185.755z"/>
		<path fill="#D4E1FF" d="M199.577,178.755h-11.125c1.933,0,3.5,1.567,3.5,3.5s-1.567,3.5-3.5,3.5h11.125c1.933,0,3.5-1.567,3.5-3.5
			S201.51,178.755,199.577,178.755z"/>
	</g>
	<g>
		<path fill="#A1BCFF" d="M199.577,196.255h-74.283c-1.933,0-3.5-1.566-3.5-3.5l0,0c0-1.933,1.567-3.5,3.5-3.5h74.283
			c1.933,0,3.5,1.567,3.5,3.5l0,0C203.077,194.688,201.51,196.255,199.577,196.255z"/>
		<path fill="#D4E1FF" d="M199.577,189.255h-40c1.933,0,3.5,1.567,3.5,3.5c0,1.934-1.567,3.5-3.5,3.5h40c1.933,0,3.5-1.566,3.5-3.5
			C203.077,190.822,201.51,189.255,199.577,189.255z"/>
	</g>
	<g>
		<path fill="#A1BCFF" d="M199.577,206.755h-74.283c-1.933,0-3.5-1.566-3.5-3.5l0,0c0-1.933,1.567-3.5,3.5-3.5h74.283
			c1.933,0,3.5,1.567,3.5,3.5l0,0C203.077,205.188,201.51,206.755,199.577,206.755z"/>
		<path fill="#D4E1FF" d="M199.577,199.755h-20.25c1.933,0,3.5,1.567,3.5,3.5c0,1.934-1.567,3.5-3.5,3.5h20.25
			c1.933,0,3.5-1.566,3.5-3.5C203.077,201.322,201.51,199.755,199.577,199.755z"/>
	</g>
	<g>
		<path fill="#D4E1FF" d="M40.041,301.931h366.803c3.981,0,7.209-3.228,7.209-7.209l0,0c0-3.981-3.228-7.209-7.209-7.209H40.041
			c-3.981,0-7.209,3.228-7.209,7.209l0,0C32.832,298.703,36.059,301.931,40.041,301.931z"/>
		<path fill="#D4E1FF" d="M356.697,330.766H87.085c-4.141,0-7.499-3.228-7.499-7.209l0,0c0-3.981,3.357-7.209,7.499-7.209h269.612
			c4.142,0,7.499,3.228,7.499,7.209l0,0C364.196,327.538,360.839,330.766,356.697,330.766z"/>
		<path fill="#D4E1FF" d="M285.872,359.602h31.09c3.981,0,7.209-3.228,7.209-7.209l0,0c0-3.981-3.228-7.209-7.209-7.209h-31.09
			c-3.981,0-7.209,3.228-7.209,7.209l0,0C278.663,356.374,281.891,359.602,285.872,359.602z"/>
		<path fill="#D4E1FF" d="M150.625,309.14c0-3.981-3.228-7.209-7.209-7.209h41.75c-3.981,0-7.209,3.228-7.209,7.209
			s3.228,7.208,7.209,7.208h-41.75C147.398,316.348,150.625,313.121,150.625,309.14z"/>
		<path fill="#D4E1FF" d="M250.168,359.602H103.09c-3.981,0-7.209-3.228-7.209-7.209l0,0c0-3.981,3.228-7.209,7.209-7.209h147.078
			c3.981,0,7.209,3.228,7.209,7.209l0,0C257.377,356.374,254.149,359.602,250.168,359.602z"/>
		<path fill="#D4E1FF" d="M219.707,337.975c0-3.981,3.228-7.209,7.208-7.209h-41.749c3.981,0,7.209,3.228,7.209,7.209
			s-3.228,7.209-7.209,7.209h41.749C222.934,345.184,219.707,341.956,219.707,337.975z"/>
	</g>
	<g>
		<g>
			
				<line fill="none" stroke="#8CB0EA" stroke-width="0.5" stroke-miterlimit="10" stroke-dasharray="2" x1="132.041" y1="96.763" x2="246.432" y2="96.763"/>
			
				<line fill="none" stroke="#8CB0EA" stroke-width="0.5" stroke-miterlimit="10" stroke-dasharray="2" x1="132.041" y1="108.331" x2="246.432" y2="108.331"/>
			
				<line fill="none" stroke="#8CB0EA" stroke-width="0.5" stroke-miterlimit="10" stroke-dasharray="2" x1="132.041" y1="119.899" x2="246.432" y2="119.899"/>
			
				<line fill="none" stroke="#8CB0EA" stroke-width="0.5" stroke-miterlimit="10" stroke-dasharray="2" x1="132.041" y1="131.467" x2="246.432" y2="131.467"/>
			
				<line fill="none" stroke="#8CB0EA" stroke-width="0.5" stroke-miterlimit="10" stroke-dasharray="2" x1="132.041" y1="143.035" x2="246.432" y2="143.035"/>
		</g>
		<g>
			<g>
				<g>
					<rect x="135.349" y="153.7" fill="#5D7EE8" width="0.514" height="3.173"/>
				</g>
			</g>
			<g>
				<g>
					<rect x="123.755" y="91.005" fill="#5D7EE8" width="0.514" height="65.868"/>
				</g>
			</g>
			<g>
				<g>
					<rect x="147.634" y="153.7" fill="#5D7EE8" width="0.514" height="3.173"/>
				</g>
			</g>
			<g>
				<g>
					<rect x="159.919" y="153.7" fill="#5D7EE8" width="0.514" height="3.173"/>
				</g>
			</g>
			<g>
				<g>
					<rect x="172.205" y="153.7" fill="#5D7EE8" width="0.514" height="3.173"/>
				</g>
			</g>
			<g>
				<g>
					<rect x="184.49" y="153.7" fill="#5D7EE8" width="0.514" height="3.173"/>
				</g>
			</g>
			<g>
				<g>
					<rect x="196.775" y="153.7" fill="#5D7EE8" width="0.514" height="3.173"/>
				</g>
			</g>
			<g>
				<g>
					<rect x="209.061" y="153.7" fill="#5D7EE8" width="0.514" height="3.173"/>
				</g>
			</g>
			<g>
				<g>
					<rect x="221.346" y="153.7" fill="#5D7EE8" width="0.514" height="3.173"/>
				</g>
			</g>
			<g>
				<g>
					<rect x="233.632" y="153.7" fill="#5D7EE8" width="0.514" height="3.173"/>
				</g>
			</g>
			<g>
				<g>
					<rect x="245.917" y="153.7" fill="#5D7EE8" width="0.515" height="3.173"/>
				</g>
			</g>
			<rect x="121.793" y="142.778" fill="#5D7EE8" width="3.173" height="0.514"/>
			<rect x="121.793" y="131.21" fill="#5D7EE8" width="3.173" height="0.514"/>
			<rect x="121.793" y="119.642" fill="#5D7EE8" width="3.173" height="0.514"/>
			<rect x="121.793" y="108.074" fill="#5D7EE8" width="3.173" height="0.514"/>
			<rect x="121.793" y="96.505" fill="#5D7EE8" width="3.173" height="0.514"/>
			<rect x="121.793" y="154.347" fill="#5D7EE8" width="126.746" height="0.514"/>
		</g>
		<g>
			<path fill="none" stroke="#A1BCFF" stroke-width="2" stroke-miterlimit="10" d="M235.854,101.177c0,0-6.469,19.676-22.935,11.825
				c-16.466-7.85-19.995,1.277-22.757,12.581c-10.154,41.558-11.079-0.928-16.998-0.515s-7.841,22.572-13.466,23.235
				c-5.625,0.663-8.481-26.613-14.742-26.545S133.68,140.33,133.68,140.33"/>
			<path fill="none" stroke="#5D7EE8" stroke-width="2" stroke-miterlimit="10" d="M237.803,112.745c0,0-6.331,14.266-13.136,5.923
				c-7.256-8.896-8.921,19.015-15.304,20.75c-6.437,1.75-3.633-29.52-12.814-14.679c-9.555,15.444-14.05-2.423-21.034-6.715
				c-6.983-4.292-10.721,2.556-12.272,6.289c-1.27,3.055-2.465,6.646-6.131,1.636c-3.468-4.739-5.489-8.729-12.614,8.155"/>
		</g>
	</g>
	<g>
		<path fill="#5472D1" d="M298.576,100.467c-13.566,0-24.564,10.998-24.564,24.564c0,13.566,10.998,24.563,24.564,24.563
			c13.565,0,24.563-10.998,24.563-24.563C323.14,111.464,312.142,100.467,298.576,100.467z M298.576,143.104
			c-9.982,0-18.074-8.092-18.074-18.073c0-9.982,8.092-18.074,18.074-18.074c9.981,0,18.073,8.092,18.073,18.074
			C316.649,135.012,308.558,143.104,298.576,143.104z"/>
		<path fill="#EFA748" d="M316.649,125.031c0,0.362-0.014,0.721-0.035,1.078h6.498c0.016-0.358,0.027-0.716,0.027-1.078
			c0-13.566-10.998-24.564-24.563-24.564v6.49C308.558,106.957,316.649,115.049,316.649,125.031z"/>
		<text transform="matrix(1 0 0 1 317.6318 102.146)" fill="#5D7EE8" font-family="'Bebas'" font-size="5.8954">25%</text>
		<text transform="matrix(1 0 0 1 269.2393 102.146)" fill="#5D7EE8" font-family="'Bebas'" font-size="5.8954">40%</text>
		<text transform="matrix(1 0 0 1 312.2295 153.3706)" fill="#5D7EE8" font-family="'Bebas'" font-size="5.8954">35%</text>
		<g>
			<polygon fill="#5D7EE8" points="312.737,110.255 312.181,109.699 317.717,104.162 327.323,104.162 327.323,104.948 
				318.043,104.948 			"/>
		</g>
		<path fill="#62C1C5" d="M316.63,125.784c-0.395,9.632-8.325,17.32-18.054,17.32c-3.78,0-7.283-1.167-10.184-3.152l-3.981,5.134
			c4.004,2.834,8.886,4.508,14.165,4.508c13.204,0,23.972-10.42,24.536-23.486L316.63,125.784z"/>
		<g>
			<polygon fill="#5D7EE8" points="322.756,155.969 303.412,155.969 294.894,147.449 295.449,146.894 303.738,155.183 
				322.756,155.183 			"/>
		</g>
		<g>
			<polygon fill="#5D7EE8" points="284.939,110.255 279.521,104.836 269.239,104.836 269.239,104.05 279.848,104.05 
				285.496,109.699 			"/>
		</g>
	</g>
	<g>
		<g>
			<rect x="267.771" y="192.362" fill="#5D7EE8" width="3.489" height="14.393"/>
			<rect x="274.433" y="184.393" fill="#A1BCFF" width="3.489" height="22.362"/>
			<rect x="281.094" y="188.675" fill="#5D7EE8" width="3.489" height="18.08"/>
			<rect x="287.756" y="180.976" fill="#A1BCFF" width="3.488" height="25.779"/>
			<rect x="294.417" y="172.735" fill="#5D7EE8" width="3.489" height="34.02"/>
		</g>
		<g>
			<rect x="301.104" y="192.362" fill="#5D7EE8" width="3.489" height="14.393"/>
			<rect x="307.766" y="184.393" fill="#A1BCFF" width="3.489" height="22.362"/>
			<rect x="314.428" y="188.675" fill="#5D7EE8" width="3.489" height="18.08"/>
			<rect x="321.089" y="180.976" fill="#A1BCFF" width="3.489" height="25.779"/>
			<rect x="327.75" y="172.735" fill="#5D7EE8" width="3.489" height="34.02"/>
		</g>
	</g>
	<g>
		<g>
			<polyline fill="none" stroke="#EFA748" stroke-width="6" stroke-linecap="round" stroke-miterlimit="10" points="53.609,131.467 
				117.136,67.94 144.617,95.421 201.511,38.527 257.878,94.894 331.586,21.186 			"/>
			<g>
				<circle fill="#EFA748" cx="257.878" cy="94.894" r="7.252"/>
				<circle fill="#F3F8FF" cx="257.878" cy="94.894" r="3.613"/>
			</g>
			<g>
				<circle fill="#EFA748" cx="201.511" cy="38.527" r="7.252"/>
				<circle fill="#F3F8FF" cx="201.511" cy="38.527" r="3.614"/>
			</g>
			<g>
				<circle fill="#EFA748" cx="144.569" cy="95.421" r="7.252"/>
				<circle fill="#F3F8FF" cx="144.568" cy="95.421" r="3.613"/>
			</g>
			<g>
				<circle fill="#EFA748" cx="117.172" cy="67.974" r="7.252"/>
				<circle fill="#F3F8FF" cx="117.171" cy="67.974" r="3.613"/>
			</g>
		</g>
		<polygon fill="#EFA748" points="315.93,36.842 302.553,23.465 320.826,18.569 339.1,13.672 334.203,31.946 329.307,50.219 		"/>
	</g>
	<g>
		<g>
			<path fill="#FFA9A8" d="M225.723,219.614c0,0-1.027-0.991-2.341-0.902c-1.315,0.088,0.095,1.211,0.095,1.211
				s-1.916-0.639-3.238-0.33c-1.322,0.308-1.673,4.117,5.166,3.061l1.42-0.241l0.33-2.754L225.723,219.614z"/>
			<g>
				<path fill="#0A3C5F" d="M250.468,288.773l-3.371,0.375c0,0-0.407,2.149-1.656,2.586c-1.249,0.436-3.533,1.277-3.476,2.526
					c0.045,0.958,2.281,0.715,3.729,0.624c0.877-0.314,1.272-0.826,1.272-0.826l2.214-0.843l0.592,1.328
					c0.796-0.174,1.429-0.37,1.404-0.528C251.118,293.639,250.468,288.773,250.468,288.773z"/>
				<g>
					<g>
						<path fill="#FED4D5" d="M246.647,232.224c-4.684,21.162,0.449,56.925,0.449,56.925l3.371-0.375c0,0-1.544-29.939,1.678-48.663
							C254.685,225.353,249.044,222.181,246.647,232.224z"/>
						<path fill="#0A3C5F" d="M259.681,288.773l-3.371,0.375c0,0-0.407,2.149-1.656,2.586c-1.249,0.436-3.534,1.277-3.476,2.526
							c0.045,0.958,2.281,0.715,3.729,0.624c0.877-0.314,1.272-0.826,1.272-0.826l2.214-0.843l0.592,1.328
							c0.796-0.174,1.429-0.37,1.404-0.528C260.331,293.639,259.681,288.773,259.681,288.773z"/>
						<path fill="#FED4D5" d="M255.86,232.224c-4.684,21.162,0.449,56.925,0.449,56.925l3.371-0.375c0,0-1.544-29.939,1.678-48.663
							C260.39,239.758,255.046,236.67,255.86,232.224z"/>
						<rect x="246.011" y="232.225" fill="#FED4D5" width="13.002" height="10.236"/>
						<g>
							<path fill="#0E4F77" d="M248.238,208.778c0,0-4.472,8.14-8.905,12.181c-3.153,2.874-7.271,2.192-13.417,2.059l0.331-3.877
								c0,0,2.624-0.056,6.317-0.488c5.518-0.646,7.311-7.207,7.311-7.207s1.623-4.13,3.092-5.73
								C246.518,201.845,250.449,205.198,248.238,208.778z"/>
							<path fill="#0E4F77" d="M245.082,232.224c0,0,17.42,0.017,15.478,0.017c-1.547-10.416,0.49-15.234,0.997-18.019
								c0.898-4.931,0.384-7.527,0.384-7.527c0.03-1.906-2.415-2.706-4.321-2.706c0,0-10.98,0-11.812,0
								c0.512,4.1-3.104,9.943-0.726,13.218C247.757,220.888,245.082,232.224,245.082,232.224z"/>
						</g>
						<path fill="#FED4D5" d="M251.661,206.338L251.661,206.338c-0.905,0-1.64-0.733-1.64-1.64v-2.918h3.279v2.918
							C253.301,205.604,252.566,206.338,251.661,206.338z"/>
						<path fill="#EFA748" d="M247.934,202.44c0,0-2.264,0.164-3.67-0.172c0,0-0.131-4.758-0.924-9.207s1.439-8.48,6.682-8.48
							s7.416,4.736,7.416,4.736s3.517,0.353,3.807,3.172s-2.882,7.092-2.573,10.44c0,0-2.71,0-5.496-0.353
							C250.472,202.235,247.934,202.44,247.934,202.44z"/>
						<path fill="#FED4D5" d="M257.709,194.518c-0.988,0.298-1.288,1.08-1.357,1.322c-0.007,0.026-0.017,0.051-0.021,0.078
							c-3.877-4.751-11.248-4.373-11.248-4.373s-0.064,4.579,1.034,8.192c0.958,3.151,4.513,4.896,7.435,3.373
							c1.145-0.597,2.163-1.679,2.643-3.582c0,0,2.642-1.212,2.811-3.501C259.097,194.772,258.412,194.378,257.709,194.518z"/>
					</g>
				</g>
				<path fill="#EFA748" d="M243.677,258.739h18.41c0,0,4.065-18.333-1.527-26.499l-15.478-0.017
					C245.082,232.224,240.012,241.277,243.677,258.739z"/>
				
					<rect x="248.366" y="213.686" transform="matrix(-0.979 0.2037 -0.2037 -0.979 549.4474 387.5421)" fill="#FFFFFF" width="12.83" height="16.717"/>
				<path fill="#FED4D5" d="M249.741,290.903c0.463-0.562,0.727-2.13,0.727-2.13h-0.316l-3.055,0.375c0,0-0.407,2.149-1.656,2.586
					c-0.453,0.157-1.042,0.371-1.606,0.636c-0.005,0.019-0.4,1.568,1.986,0.802C248.222,292.401,249.229,291.525,249.741,290.903z"
					/>
				<path fill="#FED4D5" d="M258.954,290.903c0.462-0.562,0.727-2.13,0.727-2.13h-0.316l-3.055,0.375c0,0-0.407,2.149-1.656,2.586
					c-0.453,0.157-1.042,0.371-1.606,0.636c-0.005,0.019-0.4,1.568,1.986,0.802C257.434,292.401,258.441,291.525,258.954,290.903z"
					/>
			</g>
		</g>
		<g>
			<g>
				<path fill="#45ADAD" d="M211.642,201.917c0,0,3.467-0.022,3.005,8.171c-0.462,8.194,0.231,16.817,4.207,23.172l-4.501,1.63
					c0,0-3.208-5.903-5.035-14.691C208.051,214.103,211.642,201.917,211.642,201.917z"/>
				<path fill="#EF9D75" d="M215.238,235.857l4.232-0.441c-0.357-0.601-0.694-1.278-1.011-2.018l-3.928,1.353
					C214.961,235.478,215.238,235.857,215.238,235.857z"/>
				<path fill="#EF9D75" d="M218.513,234.354c0,0,1.816-0.379,2.047,0.513c0.231,0.893-0.231,2.28-0.231,2.28l-1.553-0.231
					l0.099-0.776L218.513,234.354z"/>
				<g>
					<g>
						<g>
							<g>
								<path fill="#EAA707" d="M212.183,239.691h1.207v-2.104c0-0.531,0.433-0.964,0.964-0.964h5.8
									c0.532,0,0.964,0.433,0.964,0.964v2.104h1.207v-2.104c0-1.197-0.974-2.171-2.171-2.171h-5.8
									c-1.197,0-2.171,0.974-2.171,2.171V239.691z"/>
							</g>
							<polygon fill="#0A3C5F" points="217.481,242.772 204.877,242.772 204.877,255.522 217.481,255.522 229.25,255.522 
								229.25,242.772 							"/>
						</g>
					</g>
					<rect x="204.877" y="239.502" fill="#0E4F77" width="24.373" height="8.072"/>
					<rect x="215.712" y="245.981" fill="#EAA707" width="2.702" height="1.977"/>
				</g>
				<g>
					<g>
						<path fill="#0A3C5F" d="M208.869,289.148c0,0,0.407,2.149,1.656,2.586c1.249,0.436,3.534,1.277,3.476,2.526
							s-4.086,0.727-4.841,0.727s-4.428-0.594-4.37-0.972c0.058-0.377,0.127-5.352,0.127-5.352L208.869,289.148z"/>
						<path fill="#0A3C5F" d="M211.726,234.422c3.407,21.467-2.291,54.913-2.291,54.913h-5.02c0,0,1.266-32.247-0.863-47.069
							S210.149,223.395,211.726,234.422z"/>
						<rect x="195.387" y="234.405" fill="#0A3C5F" width="16.339" height="10.237"/>
						<path fill="#0A3C5F" d="M197.401,289.148c0,0,0.407,2.149,1.656,2.586c1.249,0.436,3.534,1.277,3.476,2.526
							s-4.086,0.727-4.841,0.727c-0.755,0-4.428-0.594-4.37-0.972c0.058-0.377,0.126-5.352,0.126-5.352L197.401,289.148z"/>
						<path fill="#0E4F77" d="M202.765,234.422c0.454,20.805-4.798,54.913-4.798,54.913h-5.02c0,0,1.737-26.044-0.499-40.851
							c-1.473-9.754-0.634-14.063-0.634-14.063C194.419,230.149,201.62,226.415,202.765,234.422z"/>
						<g>
							<g>
								<polygon fill="#62C1C5" points="211.726,234.422 191.814,234.422 190.975,201.917 211.642,201.917 								"/>
							</g>
							<path fill="#FED4D5" d="M202.738,204.268L202.738,204.268c0.906,0,1.64-0.734,1.64-1.641v-2.917h-3.28v2.917
								C201.099,203.533,201.833,204.268,202.738,204.268z"/>
						</g>
					</g>
				</g>
				<polygon fill="#FFFFFF" points="202.738,204.268 201.266,205.727 199.729,201.903 201.099,201.161 				"/>
				<polygon fill="#FFFFFF" points="202.738,204.268 204.211,205.727 205.748,201.903 204.378,201.161 				"/>
				<g>
					<path fill="#F8B690" d="M209.317,189.474c0,0,0.064,4.579-1.034,8.192c-0.958,3.152-4.513,4.896-7.435,3.373
						c-1.145-0.596-2.163-1.678-2.643-3.582c0,0-2.642-1.212-2.811-3.501c-0.174-2.357,2.396-1.699,2.674-0.108l1.728-5.959
						l3.457-0.072l2.775,1.519L209.317,189.474z"/>
				</g>
				<path fill="#0E4F77" d="M209.816,183.194c-2.745-1.09-12.711-0.108-14.429,2.205c-1.124,2.428,1.006,7.019,1.006,7.019
					s1.252,0.007,1.677,1.431c0,0,1.943-0.878,2.486-3.338c0,0,4.458,1.571,8.762-1.036
					C210.726,188.62,212.561,184.284,209.816,183.194z"/>
				<path fill="#F8B690" d="M219.016,235.239c1.814-0.256,1.576,1.928,1.033,2.436c-0.467,0.437-4.5,1.728-4.963,0.891
					c-0.463-0.837-1.319-2.27-0.13-2.533C216.146,235.768,217.201,235.494,219.016,235.239z"/>
			</g>
			<path fill="#EF9D75" d="M218.325,219.33c0,0,1.027-0.991,2.341-0.903c1.315,0.089-0.095,1.212-0.095,1.212
				s1.916-0.639,3.238-0.331c1.322,0.309,1.673,4.117-5.166,3.062l-1.42-0.241l-0.331-2.754L218.325,219.33z"/>
			<path fill="#45ADAD" d="M189.178,205.736c0,0,1.02,8.03,4.646,14.765c2.659,4.937,12.983,4.415,24.288,2.155l-0.375-4.114
				c0,0-11.093,1.021-15.229,0.541c-5.113-0.594-5.25-8.553-5.25-8.553s-0.161-4.091-0.956-5.952
				C194.379,200.074,188.942,200.672,189.178,205.736z"/>
		</g>
		<path fill="#0E4F77" d="M258.617,204.06c0,0-1.755,0.505,0.636,5.862c2.392,5.357,5.805,12.063,4.614,12.734
			c-1.191,0.67-8.532-0.104-9.734,0.182c-1.201,0.285-1.935,3.014,1.111,3.569c3.045,0.556,8.74,1.642,12.129,0.646
			s2.125-5.675-0.894-14.113C263.46,204.503,261.455,202.972,258.617,204.06z"/>
		<g>
			<g>
				<path fill="#FED4D5" d="M250.52,225.985c-1.363-0.027-2.535-0.776-1.733-2.89c0.801-2.113,3.432-1.445,5.546-0.644
					c2.111,0.802,2.122,0.22,2.014,2.507C256.224,227.549,252.998,226.035,250.52,225.985z"/>
			</g>
			<path fill="#FED4D5" d="M256.273,223.271c0,0-0.758-1.699-2.307-1.955c-1.329-0.221-0.96,0.69-0.96,0.69l1.079,1.76l1.337,0.244
				L256.273,223.271z"/>
		</g>
		<path fill="#3582A8" d="M196.393,192.417c0,0,1.252,0.007,1.677,1.431c0,0,1.943-0.878,2.486-3.338c0,0-3.35-0.423-5.351-1.86
			C195.551,190.601,196.393,192.417,196.393,192.417z"/>
		<path fill="#EFA748" d="M253.859,193.756c0,0,3.642,2.711,0.725,8.63l2.104-0.987l0.991-0.595l1.333-2.279l0.913-1.916
			l0.231-2.853l-1.586-1.245l-2.181-0.297h-1.288L253.859,193.756z"/>
	</g>
	<g>
		<path fill="#45ADAD" d="M378.093,221.349c0,0,2.719-3.635,0.594-7.177c0,0,2.079-2.333-0.189-4.167c0,0,1.562-4.602-2.626-5.883
			c0,0-1.409-2.65-5.576-2.325c-4.275,0.333-5.192,3-5.192,3s-6.791,2.125-3.041,9.771c0,0-7.25,7.188,2.833,17.424
			C368.708,235.862,378.093,221.349,378.093,221.349z"/>
		<path fill="#FED4D5" d="M373.639,225.457c0,0,1.524,10.821,4.314,15.761c2.791,4.94,10.944,2.16,18.893-2.571l-1.406-3.926
			c0,0-4.45,2.24-8.389,3.067c-5.138,1.079-5.221-7.539-5.221-7.539s-0.1-4.196-0.883-6.095
			C379.052,219.563,373.657,221.04,373.639,225.457z"/>
		<path fill="#3459B7" d="M378.78,251.534c0,0-19.459-0.252-17.622-0.252c4.445-11.215,2.52-17.621,2.039-20.255
			c-0.85-4.663-0.362-7.119-0.362-7.119c-0.029-1.803,2.283-2.56,4.087-2.56c0,0,10.386,0,11.171,0
			c-0.483,3.878,2.938,9.405,0.688,12.502C376.25,237.332,378.78,251.534,378.78,251.534z"/>
		<g>
			<path fill="#FED4D5" d="M361.529,223.313c0,0-4.514,7.611-5.376,13.219c-0.861,5.608,0.771,8.073,9.745,10.066l1.204-2.879
				c0,0-0.856-0.274-4.406-2.172c-4.635-2.477,0.844-10.179,0.844-10.179s2.517-3.359,3.075-5.336
				C367.965,221.251,363.313,219.754,361.529,223.313z"/>
			<g>
				<path fill="#FED4D5" d="M370.813,249.089c0.605,2.051,1.41-1.005,1.424-3.142c0.013-2.139-1.768-2.158-3.906-2.172
					c-2.136-0.012-1.965-0.534-2.631,1.525C364.827,248,370.184,246.96,370.813,249.089z"/>
			</g>
		</g>
		<path fill="#0A3C5F" d="M371.574,252.314c0,0-1.977,12.341,8.58,9.382c10.165-2.849,15.596-3.675,17.355,23.196l4.834-0.385
			c0,0,2.015-26.107-4.275-31.563C391.777,247.488,371.574,252.314,371.574,252.314z"/>
		<path fill="#3459B7" d="M401.78,284.489c0,0,0.939,1.843,2.189,1.907c1.249,0.064,4.743-0.126,5.021,1.023
			s-4.713,2.092-5.398,2.292c-0.686,0.201-2.02-1.327-2.657-1.455c-0.639-0.129-0.848,0.333-1.376,0.287
			c-0.529-0.046-2.149-0.89-2.196-1.247c-0.048-0.358,0.655-2.653,0.655-2.653L401.78,284.489z"/>
		<g>
			<polygon fill="#0A3C5F" points="384.388,260.949 365.937,260.949 362.023,251.268 384.388,251.268 			"/>
		</g>
		<path fill="#0E4F77" d="M361.158,251.282c0,0-4.631,8.729,5.736,10.473c10.411,1.752,15.868,1.786,10.021,28.072l4.748,0.986
			c0,0,9-25.134,4.511-32.147C380.735,250.168,361.158,251.282,361.158,251.282z"/>
		<path fill="#3459B7" d="M381.128,290.637c0,0,0.385,2.033,1.566,2.445c1.181,0.412,4.588,1.209,4.533,2.391
			c-0.056,1.181-5.11,0.687-5.825,0.687c-0.714,0-1.565-1.841-2.143-2.143c-0.577-0.303-0.906,0.082-1.401-0.11
			c-0.494-0.192-1.813-1.456-1.758-1.813c0.055-0.356,1.373-2.362,1.373-2.362L381.128,290.637z"/>
		<path fill="#E89234" d="M377.813,252.315h-12.872c-0.411,0-0.745-0.334-0.745-0.745v-0.072c0-0.412,0.334-0.746,0.745-0.746
			h12.872c0.412,0,0.746,0.334,0.746,0.746v0.072C378.56,251.981,378.226,252.315,377.813,252.315z"/>
		<path fill="#E89234" d="M404.678,252.315H377.53c-0.711,0-1.287-0.576-1.287-1.287v-17.75c0-0.711,0.576-1.287,1.287-1.287h27.147
			c0.711,0,1.287,0.576,1.287,1.287v17.75C405.965,251.739,405.389,252.315,404.678,252.315z"/>
		<path fill="#EFA748" d="M377.53,231.991h14.861c-0.711,0-1.288,0.576-1.288,1.287v17.75c0,0.711,0.577,1.287,1.288,1.287H377.53
			c-0.711,0-1.287-0.576-1.287-1.287v-17.75C376.243,232.567,376.819,231.991,377.53,231.991z"/>
		<path fill="#E89234" d="M377.53,231.991h0.967c-0.711,0-1.287,0.576-1.287,1.287v17.75c0,0.711,0.576,1.287,1.287,1.287h-0.967
			c-0.711,0-1.287-0.576-1.287-1.287v-17.75C376.243,232.567,376.819,231.991,377.53,231.991z"/>
		<path fill="#FED4D5" d="M371.49,222.761L371.49,222.761c0.856,0,1.551-0.694,1.551-1.551v-2.76h-3.102v2.76
			C369.939,222.066,370.634,222.761,371.49,222.761z"/>
		<g>
			<path fill="#FED4D5" d="M377.713,208.77c0,0,0.061,4.33-0.979,7.748c-0.906,2.981-4.268,4.631-7.031,3.19
				c-1.082-0.563-2.046-1.587-2.499-3.388c0,0-2.499-1.146-2.659-3.312c-0.164-2.229,2.267-1.607,2.529-0.104l1.635-5.636
				l3.27-0.068l4.541-0.821L377.713,208.77z"/>
		</g>
	</g>
	<path fill="#45ADAD" d="M377.687,210.1c0,0-1.181-0.236-2.084-1.813c0,0-2.432,4.77-8.528,4.619c0,0-0.409-1.744-0.19-2.807
		s0.938-2.844,1.219-3.125s0.447-1.313,2.192-1.313s3.776-0.125,4.183-0.063s1.844,0.094,1.844,0.094s0.5-0.063,0.656,0.031
		s0.44,0.313,0.735,0.844c0.296,0.531,0.452,1,0.483,1.406s0,1.125,0,1.125L377.687,210.1z"/>
	<g>
		<path fill="none" stroke="#62C1C5" stroke-width="2" stroke-miterlimit="10" stroke-dasharray="5" d="M97.842,131.083
			c0,0-47.981-30.887-30.458-68.732c17.522-37.845,65.356-2.845,92.856-24.512"/>
		<g>
			<g>
				<polygon fill="#A3EFED" points="180.402,39.914 188.403,13.425 155.361,25.756 				"/>
			</g>
			<g>
				<polygon fill="#7CDDDD" points="161.886,29.324 163.384,36.421 163.848,30.397 188.403,13.425 				"/>
			</g>
			<g>
				<polygon fill="#62C1C5" points="163.384,36.421 167.678,32.492 163.848,30.397 				"/>
			</g>
		</g>
	</g>
	<g>
		<path fill="none" stroke="#62C1C5" stroke-width="2" stroke-miterlimit="10" stroke-dasharray="5" d="M384.548,222.284
			c0,0,34.116-9.519,33.116-38.072s-27.203-23.307-24.114-48.887c12.901-106.819-78.978-60.099-134.063-110.401"/>
		<g>
			<g>
				<polygon fill="#A3EFED" points="242.404,30.412 234.403,3.923 267.444,16.254 				"/>
			</g>
			<g>
				<polygon fill="#7CDDDD" points="260.921,19.822 259.423,26.919 258.959,20.895 234.403,3.923 				"/>
			</g>
			<g>
				<polygon fill="#62C1C5" points="259.423,26.919 255.128,22.989 258.959,20.895 				"/>
			</g>
		</g>
	</g>
	<g>
		<g>
			<g>
				<path fill="#0A3C5F" d="M90.349,292.276c0,0-0.385,2.033-1.566,2.445c-1.182,0.412-3.342,1.209-3.288,2.391
					c0.055,1.181,3.864,0.687,4.579,0.687s4.188-0.562,4.133-0.918c-0.055-0.357-0.12-5.063-0.12-5.063L90.349,292.276z"/>
				<path fill="#0A3C5F" d="M87.647,240.515c-3.223,20.304,2.167,51.938,2.167,51.938h4.748c0,0-1.197-30.5,0.816-44.52
					S89.137,230.084,87.647,240.515z"/>
				<rect x="87.647" y="240.499" fill="#0A3C5F" width="15.453" height="9.683"/>
				<path fill="#0A3C5F" d="M101.195,292.276c0,0-0.385,2.033-1.566,2.445c-1.181,0.412-3.342,1.209-3.287,2.391
					c0.055,1.181,3.864,0.687,4.579,0.687s4.188-0.562,4.133-0.918c-0.055-0.357-0.12-5.063-0.12-5.063L101.195,292.276z"/>
				<path fill="#0E4F77" d="M95.374,240.499c-0.264,16.548,5.286,51.954,5.286,51.954h4.749c0,0-1.643-24.634,0.472-38.638
					c1.393-9.226,0.599-13.301,0.599-13.301C104.016,236.474,96.456,232.926,95.374,240.499z"/>
				<g>
					<g>
						<polygon fill="#0E4F77" points="87.647,240.515 106.479,240.515 107.273,209.771 87.726,209.771 						"/>
					</g>
					<path fill="#FED4D5" d="M96.147,211.993L96.147,211.993c-0.857,0-1.551-0.694-1.551-1.551v-2.76h3.102v2.76
						C97.698,211.299,97.003,211.993,96.147,211.993z"/>
				</g>
			</g>
			<path fill="#0A3C5F" d="M107.583,209.733c0,0-4.925-0.043-4.509,6.242c0.416,6.284,2.586,12.32,1.138,12.552
				c-1.449,0.232-8.477-2.405-9.792-2.564c-1.316-0.16-3.963,1.799-1.103,3.491c2.86,1.691,10.235,6.801,14.018,7.059
				s4.64-5.25,4.737-14.869S110.05,209.831,107.583,209.733z"/>
		</g>
		<path fill="#0A3C5F" d="M87.704,219.145c0,0-6.465,4.341-10.59,3.32c-4.989-1.235-0.283-11.954,10.629-20.407l2.413,3.575
			c0,0-7.137,6.905-7.262,9.258s4.833-5.12,4.833-5.12L87.704,219.145z"/>
		<g>
			<path fill="#62C1C5" d="M85.917,207.178l4.134,1.846c0.211,0.094,0.459-0.001,0.554-0.212l3.538-7.926
				c0.094-0.211,0-0.459-0.212-0.554l-4.134-1.846c-0.211-0.094-0.459,0.001-0.554,0.212l-3.538,7.926
				C85.61,206.835,85.705,207.083,85.917,207.178z"/>
			<path fill="#0A3C5F" d="M93.604,200.615l-0.766-0.343c-0.093-0.041-0.202,0.001-0.243,0.094l0,0
				c-0.035,0.077-0.125,0.111-0.203,0.077l-1.65-0.736c-0.078-0.035-0.112-0.125-0.078-0.203l0,0c0.042-0.093,0-0.201-0.093-0.243
				l-0.766-0.342c-0.106-0.048-0.232,0-0.279,0.106l-3.389,7.59c-0.047,0.107,0,0.232,0.107,0.279l3.799,1.696
				c0.106,0.048,0.231,0,0.279-0.106l3.388-7.59C93.758,200.787,93.71,200.662,93.604,200.615z"/>
			<path fill="#45ADAD" d="M93.931,200.332l-2.067-0.923l-3.88,8.691l2.067,0.923c0.211,0.094,0.459-0.001,0.554-0.212l3.538-7.926
				C94.237,200.675,94.142,200.427,93.931,200.332z"/>
			<path fill="#0A3C5F" d="M93.604,200.615l-0.766-0.343c-0.093-0.041-0.202,0.001-0.243,0.094l0,0
				c-0.035,0.077-0.125,0.111-0.203,0.077l-0.825-0.368l-3.423,7.668l1.9,0.848c0.106,0.048,0.231,0,0.279-0.106l3.388-7.59
				C93.758,200.787,93.71,200.662,93.604,200.615z"/>
			<path fill="#0A3C5F" d="M91.855,199.981l-0.807-0.361c-0.034-0.015-0.049-0.055-0.034-0.088l0,0
				c0.015-0.034,0.055-0.049,0.089-0.034l0.807,0.36c0.034,0.016,0.049,0.055,0.034,0.089l0,0
				C91.929,199.98,91.889,199.996,91.855,199.981z"/>
			<circle fill="#0A3C5F" cx="92.122" cy="200.027" r="0.066"/>
			<circle fill="#0A3C5F" cx="92.309" cy="200.11" r="0.066"/>
		</g>
		<g>
			<path fill="#FED4D5" d="M89.924,198.001c0,0-0.061,4.331,0.978,7.748c0.906,2.981,4.268,4.631,7.031,3.191
				c1.083-0.564,2.046-1.588,2.5-3.389c0,0,2.5-1.146,2.659-3.312c0.165-2.229-2.267-1.607-2.53-0.103l-1.634-5.637l-3.27-0.067
				l-2.625,1.437L89.924,198.001z"/>
		</g>
		<path fill="#0A3C5F" d="M98.326,190.971c4.027,0.416,4.774,3.176,4.774,3.176c1.063,2.296-0.951,6.639-0.951,6.639
			s-1.184,0.006-1.586,1.353c0,0-1.837-0.83-2.351-3.157c-0.514-2.326-6.063,0.986-9.729-0.483c0,0-4.456-1.086-4.264-6.148
			c0,0,1.024,1.813,3.262,1.656c0,0-2.618-1.513-0.612-5.256c0,0,0.642,2.742,2.767,3.218c0,0-0.271-1.295,0.896-2.565
			c0,0,0.438,1.875,2.479,1.938C95.052,191.401,96.927,190.826,98.326,190.971z"/>
		<path fill="#FED4D5" d="M88.281,199.492c0,0,0.853-0.045,0.813,1.249c-0.04,1.298-1.086,4.154-2.275,4.442
			c-0.314,0.076-1.087-0.191-0.932-1.813C86.041,201.75,86.956,199.324,88.281,199.492z"/>
		<polygon fill="#FFFFFF" points="96.251,234.23 85.045,233.548 82.226,217.43 93.433,218.113 		"/>
		<path fill="#FED4D5" d="M95.101,225.372c0,0-1.997-0.457-2.271,1.326c-0.274,1.784-0.319,5.441,2.271,5.306
			C96.624,231.924,97.283,225.554,95.101,225.372z"/>
	</g>
	<g>
		<g>
			<path fill="#0E4F77" d="M345.073,323.564h-65.688c-1.743,0-3.155-1.413-3.155-3.155v-89.475c0-1.742,1.412-3.155,3.155-3.155
				h65.688c1.742,0,3.155,1.413,3.155,3.155v89.475C348.229,322.151,346.815,323.564,345.073,323.564z"/>
			<path fill="#E9F0FF" d="M341.378,319.017H283.08c-1.867,0-3.381-1.515-3.381-3.382v-81.792c0-1.867,1.514-3.381,3.381-3.381
				h58.298c1.867,0,3.382,1.514,3.382,3.381v81.792C344.76,317.502,343.245,319.017,341.378,319.017z"/>
			<g>
				<rect x="284.211" y="242.968" fill="#A1BCFF" width="13.202" height="13.201"/>
				<rect x="301.452" y="242.968" fill="#0E4F77" width="16.09" height="2.076"/>
				<rect x="301.452" y="246.676" fill="#0E4F77" width="39.23" height="2.077"/>
				<rect x="301.452" y="250.385" fill="#0E4F77" width="39.23" height="2.076"/>
				<rect x="301.452" y="254.093" fill="#0E4F77" width="39.23" height="2.076"/>
				<g>
					<rect x="319.831" y="294.239" fill="#0E4F77" width="20.852" height="2.076"/>
					<rect x="284.211" y="294.239" fill="#0E4F77" width="20.853" height="2.076"/>
				</g>
				<rect x="292.494" y="262.47" fill="#0E4F77" width="48.188" height="2.077"/>
				<rect x="284.211" y="266.178" fill="#0E4F77" width="56.472" height="2.077"/>
				<rect x="284.211" y="269.887" fill="#0E4F77" width="56.472" height="2.076"/>
				<rect x="284.211" y="273.595" fill="#0E4F77" width="56.472" height="2.077"/>
				<rect x="284.211" y="277.304" fill="#0E4F77" width="56.472" height="2.076"/>
				<rect x="284.211" y="281.012" fill="#0E4F77" width="56.472" height="2.077"/>
				<rect x="284.211" y="284.72" fill="#0E4F77" width="56.472" height="2.077"/>
			</g>
			<path fill="#0A3C5F" d="M325.344,236.492h-25.749c-1.205,0-2.182-0.978-2.182-2.182v-5.995c0-1.205,0.977-2.182,2.182-2.182
				h25.749c1.205,0,2.182,0.977,2.182,2.182v5.995C327.525,235.515,326.549,236.492,325.344,236.492z"/>
			<path fill="#0E4F77" d="M317.851,231.707h-10.762c-1.205,0-2.182-0.977-2.182-2.182v-5.098c0-1.204,0.977-2.182,2.182-2.182
				h10.762c1.204,0,2.182,0.978,2.182,2.182v5.098C320.032,230.73,319.055,231.707,317.851,231.707z"/>
		</g>
		<g>
			<g>
				<g>
					<polygon fill="#E89234" points="294.638,315.904 289.548,315.904 289.548,326.08 294.638,324.557 299.727,326.08 
						299.727,315.904 					"/>
					<g>
						<polygon fill="#EFA748" points="290.638,325.754 290.93,325.666 290.93,315.904 290.638,315.904 						"/>
						<polygon fill="#EFA748" points="298.64,325.754 298.931,325.842 298.931,315.904 298.64,315.904 						"/>
					</g>
				</g>
				<g>
					<circle fill="#FFFFFF" cx="294.637" cy="309.177" r="8.396"/>
					<circle fill="#EFA748" cx="294.637" cy="309.177" r="7.387"/>
					<g id="XMLID_99_">
						<g id="XMLID_103_">
							<path id="XMLID_105_" fill="none" stroke="#2B1B13" stroke-width="0.0835" stroke-miterlimit="10" d="M290.88,315.657"/>
							<path id="XMLID_104_" fill="none" stroke="#2B1B13" stroke-width="0.0835" stroke-miterlimit="10" d="M294.072,317.084"/>
						</g>
						<g id="XMLID_100_">
							<path id="XMLID_102_" fill="none" stroke="#2B1B13" stroke-width="0.0835" stroke-miterlimit="10" d="M298.395,315.657"/>
							<path id="XMLID_101_" fill="none" stroke="#2B1B13" stroke-width="0.0835" stroke-miterlimit="10" d="M295.203,317.084"/>
						</g>
					</g>
					<g>
						<path fill="#EFA748" d="M303.886,309.188c0.25-0.32,0.218-0.816-0.069-1.103c-0.287-0.287-0.391-0.825-0.229-1.197
							s0.008-0.845-0.341-1.05c-0.35-0.206-0.583-0.702-0.519-1.103s-0.202-0.82-0.592-0.933c-0.391-0.112-0.74-0.535-0.777-0.939
							s-0.399-0.744-0.805-0.756s-0.849-0.334-0.985-0.716s-0.572-0.622-0.969-0.532c-0.396,0.089-0.905-0.113-1.132-0.449
							c-0.228-0.336-0.709-0.459-1.07-0.274c-0.361,0.186-0.905,0.116-1.209-0.152c-0.304-0.27-0.801-0.27-1.104,0
							c-0.304,0.269-0.848,0.338-1.209,0.152c-0.361-0.185-0.843-0.062-1.07,0.274c-0.227,0.336-0.736,0.538-1.132,0.449
							c-0.396-0.09-0.832,0.15-0.969,0.532c-0.136,0.382-0.58,0.704-0.985,0.716s-0.768,0.352-0.805,0.756s-0.387,0.827-0.776,0.939
							c-0.391,0.112-0.657,0.532-0.593,0.933s-0.169,0.896-0.519,1.103c-0.349,0.205-0.503,0.678-0.341,1.05s0.059,0.91-0.229,1.197
							c-0.287,0.286-0.318,0.782-0.069,1.103c0.249,0.319,0.283,0.867,0.076,1.216s-0.114,0.837,0.207,1.085s0.49,0.769,0.377,1.158
							c-0.114,0.39,0.098,0.839,0.47,1c0.373,0.16,0.667,0.623,0.653,1.028s0.303,0.789,0.704,0.851
							c0.4,0.063,0.8,0.438,0.888,0.834c0.088,0.396,0.49,0.688,0.894,0.649c0.404-0.039,0.885,0.225,1.068,0.587
							s0.646,0.545,1.026,0.407c0.382-0.139,0.912-0.002,1.181,0.303c0.268,0.305,0.761,0.367,1.096,0.139
							c0.335-0.229,0.883-0.229,1.218,0c0.335,0.229,0.828,0.166,1.096-0.139c0.269-0.305,0.799-0.441,1.181-0.303
							c0.381,0.138,0.843-0.045,1.026-0.407s0.664-0.626,1.068-0.587c0.403,0.039,0.806-0.253,0.894-0.649
							c0.088-0.396,0.487-0.771,0.888-0.834c0.401-0.062,0.718-0.445,0.704-0.851s0.28-0.868,0.653-1.028
							c0.372-0.161,0.584-0.61,0.47-1c-0.113-0.39,0.056-0.91,0.377-1.158c0.32-0.248,0.414-0.736,0.207-1.085
							S303.637,309.507,303.886,309.188z M294.637,317.451c-4.569,0-8.274-3.704-8.274-8.274s3.705-8.274,8.274-8.274
							c4.57,0,8.275,3.704,8.275,8.274S299.207,317.451,294.637,317.451z"/>
					</g>
				</g>
			</g>
			<polygon fill="#3459B7" points="294.752,304.107 295.907,307.664 299.647,307.664 296.622,309.862 297.777,313.418 
				294.752,311.221 291.727,313.418 292.883,309.862 289.857,307.664 293.597,307.664 			"/>
		</g>
	</g>
</g>
</svg>
