<?xml version="1.0" encoding="utf-8"?>
<!-- Generator: Adobe Illustrator 16.0.0, SVG Export Plug-In . SVG Version: 6.00 Build 0)  -->
<!DOCTYPE svg PUBLIC "-//W3C//DTD SVG 1.1//EN" "http://www.w3.org/Graphics/SVG/1.1/DTD/svg11.dtd">
<svg version="1.1" id="Layer_1" xmlns="http://www.w3.org/2000/svg" xmlns:xlink="http://www.w3.org/1999/xlink" x="0px" y="0px"
	 width="78.25px" height="73.25px" viewBox="0 0 78.25 73.25" enable-background="new 0 0 78.25 73.25" xml:space="preserve">
<g>
	<path fill="#A0A0A0" d="M73.855,72.027c-23.703,0-47.263,0-70.896,0c0-23.652,0-47.238,0-70.902c23.644,0,47.23,0,70.896,0
		C73.855,24.756,73.855,48.346,73.855,72.027z M3.656,1.784c0,23.258,0,46.392,0,69.538c23.231,0,46.392,0,69.519,0
		c0-23.246,0-46.379,0-69.538C49.971,1.784,26.864,1.784,3.656,1.784z"/>
	<g>
		<path fill="#A0A0A0" d="M12.323,52.031c0-0.504,0-0.936,0-1.43c17.569,0,35.069,0,52.629,0c0,0.502,0,0.934,0,1.43
			C47.382,52.031,29.879,52.031,12.323,52.031z"/>
		<path fill="#A0A0A0" d="M12.409,63.824c0-0.53,0-0.967,0-1.475c17.533,0,34.993,0,52.532,0c0,0.488,0,0.926,0,1.475
			C47.479,63.824,29.988,63.824,12.409,63.824z"/>
	</g>
</g>
<g>
	<path fill="#A0A0A0" d="M20.693,43.836c0-2.13-0.333-4.186,0.118-6.052c0.296-1.221,1.533-2.517,2.691-3.163
		c2.365-1.32,4.962-2.225,7.464-3.298c0.569-0.244,1.149-0.462,1.711-0.721c0.998-0.46,1.333-1.221,0.858-2.228
		c-0.721-1.53-1.502-3.032-2.237-4.556c-1.079-2.236-2.113-4.49-2.237-7.03c-0.134-2.751,0.851-5.05,2.998-6.746
		c2.135-1.687,4.492-3.055,7.348-2.746c6.346,0.687,10.825,5.217,9.124,11.517c-0.684,2.526-1.891,4.913-2.891,7.349
		c-0.233,0.569-0.625,1.069-0.904,1.623c-0.86,1.719-0.518,2.553,1.265,3.252c2.61,1.025,5.243,2.008,7.813,3.131
		c3.151,1.377,4.703,5.96,3.072,8.98c-0.191,0.354-0.824,0.649-1.259,0.658c-3.06,0.057-6.118,0.029-9.179,0.029
		c-8.063,0-16.126,0-24.19,0C21.775,43.836,21.29,43.836,20.693,43.836z M33.595,32.182c2.568,2.284,6.891,2.712,9.623,0.932
		c0.292-0.19,0.585-0.865,0.466-1.122c-1.074-2.296-0.324-4.338,0.713-6.376c0.86-1.689,1.824-3.343,2.502-5.105
		c2.131-5.531-0.021-9.848-5.683-11.571c-3.131-0.953-5.887-0.168-8.235,2.011c-2.368,2.197-3.05,4.923-2.185,8.022
		c0.254,0.91,0.551,1.819,0.935,2.682c0.987,2.218,2.12,4.375,3.032,6.622C35.521,30.145,35.211,30.9,33.595,32.182z M22.06,42.387
		c11.334,0,22.547,0,33.792,0c0.08-1.15,0.192-2.218,0.227-3.287c0.054-1.699-0.684-2.961-2.27-3.628
		c-2.016-0.847-4.021-1.735-6.098-2.401c-0.704-0.226-1.775-0.089-2.391,0.319c-4.194,2.787-8.342,2.84-12.576-0.015
		c-0.858-0.578-1.72-0.729-2.686-0.31c-1.777,0.773-3.551,1.554-5.35,2.274c-1.941,0.778-2.77,2.248-2.772,4.253
		C21.935,40.496,22.014,41.4,22.06,42.387z"/>
</g>
</svg>
