<?xml version="1.0" encoding="utf-8"?>
<!-- Generator: Adobe Illustrator 16.0.0, SVG Export Plug-In . SVG Version: 6.00 Build 0)  -->
<!DOCTYPE svg PUBLIC "-//W3C//DTD SVG 1.1//EN" "http://www.w3.org/Graphics/SVG/1.1/DTD/svg11.dtd">
<svg version="1.1" id="Layer_1" xmlns="http://www.w3.org/2000/svg" xmlns:xlink="http://www.w3.org/1999/xlink" x="0px" y="0px"
	 width="768px" height="768px" viewBox="0 0 768 768" enable-background="new 0 0 768 768" xml:space="preserve">
<path fill="#2058E5" d="M384,0C172.219,0,0,172.218,0,384c0,211.782,172.219,384,384,384c211.782,0,384-172.218,384-384
	C768,172.218,596.559,0,384,0z"/>
<path fill="#FFFFFF" d="M228.849,401.843l21.722-44.994c0-0.776,0.775-0.776,1.552-0.776h44.218c5.431,0,8.533,5.431,6.206,10.085
	l-21.722,44.994c0,0.776-0.775,0.776-1.551,0.776h-44.219C230.4,412.703,226.521,406.497,228.849,401.843z"/>
<path fill="#FFFFFF" d="M539.152,480.194l-21.722,44.993c0,0.776-0.775,0.776-1.552,0.776H264.534
	c-5.431,0-8.534-5.431-6.206-10.085l115.588-237.382c10.86-22.497,34.133-37.236,58.957-37.236h94.643
	c5.43,0,8.533,5.43,6.206,10.085L512,296.339c0,0.776-0.775,0.776-1.551,0.776h-83.782c-3.103,0-6.206,1.551-7.758,4.654
	L339.007,466.23c-0.776,1.552,0,2.327,1.551,2.327h193.164C538.376,470.109,541.479,475.539,539.152,480.194z"/>
<path fill="#FFFFFF" d="M477.867,366.157l-21.721,44.994c0,0.776-0.776,0.776-1.552,0.776h-49.648
	c-5.431,0-8.533-5.431-6.206-10.085l21.721-44.994c0-0.776,0.776-0.776,1.552-0.776h49.648
	C477.092,356.072,480.194,361.503,477.867,366.157z"/>
</svg>
