<?xml version="1.0" encoding="utf-8"?>
<!-- Generator: Adobe Illustrator 16.0.0, SVG Export Plug-In . SVG Version: 6.00 Build 0)  -->
<!DOCTYPE svg PUBLIC "-//W3C//DTD SVG 1.1//EN" "http://www.w3.org/Graphics/SVG/1.1/DTD/svg11.dtd">
<svg version="1.1" id="Layer_1" xmlns="http://www.w3.org/2000/svg" xmlns:xlink="http://www.w3.org/1999/xlink" x="0px" y="0px"
	 width="768px" height="768px" viewBox="0 0 768 768" enable-background="new 0 0 768 768" xml:space="preserve">
<path fill="#FFFFFF" d="M429.77,203.249l21.722-44.994c0-0.775,0.775-0.775,1.552-0.775h44.218c5.431,0,8.533,5.43,6.206,10.084
	l-21.722,44.994c0,0.776-0.775,0.776-1.551,0.776h-44.219C431.321,213.334,427.442,207.903,429.77,203.249z"/>
<ellipse fill="#2058E5" cx="384.781" cy="384.781" rx="383.119" ry="383.119"/>
<path fill="#FFFFFF" d="M383.929,353.377h26.314h0.774l46.438-40.246c2.322-2.322,0.773-6.192-2.322-6.192h-26.314h-0.774
	l-46.437,40.246C379.285,349.507,380.833,353.377,383.929,353.377z M241.52,306.939h-24.767c-0.774,0-0.774,0-0.774,0.774
	l-73.526,150.147c-1.547,2.321,0.774,5.417,3.096,5.417h24.767c0.774,0,0.774,0,0.774-0.773l73.526-150.148
	C246.165,310.035,243.843,306.939,241.52,306.939z M551.878,291.46h23.992c0,0,0.774,0,0.774-0.774l12.383-24.767
	c1.549-2.322-0.773-5.417-3.87-5.417h-23.992c0,0-0.774,0-0.774,0.774l-12.383,24.767
	C547.234,288.364,549.556,291.46,551.878,291.46z M349.875,306.939h-23.993c-0.774,0-0.774,0-0.774,0.774l-30.184,61.917h-61.917
	c-0.774,0-0.774,0-0.774,0.773l-12.383,25.541c-1.549,2.321,0.774,5.418,3.096,5.418h56.499l-27.862,57.272
	c-1.547,2.322,0.774,5.418,3.096,5.418h24.767c0.774,0,0.774,0,0.774-0.774l73.526-150.147
	C354.519,310.035,352.97,306.939,349.875,306.939z M623.082,306.939H514.728c-13.931,0-26.313,7.739-32.506,20.123l-33.28,67.334
	c-1.548,2.322,0.773,5.418,3.869,5.418h23.993c0,0,0.774,0,0.774-0.774l28.637-59.595c0.773-1.547,2.321-3.096,4.643-3.096h102.937
	c0,0,0.774,0,0.774-0.773l12.384-24.767C627.727,310.035,625.403,306.939,623.082,306.939z M594.445,369.63h-23.992
	c0,0-0.774,0-0.774,0.773l-28.636,59.595c-0.774,1.549-2.323,3.097-4.645,3.097H433.462c0,0-0.773,0-0.773,0.773l-12.383,24.767
	c-1.549,2.322,0.772,5.418,3.869,5.418h108.354c13.932,0,26.315-7.739,32.507-20.122l33.28-67.335
	C599.09,372.726,597.541,369.63,594.445,369.63z M538.72,400.589c0,0,0.774,0,0.774-0.774l12.384-24.767
	c1.548-2.322-0.774-5.417-3.87-5.417h-39.472c0,0-0.774,0-0.774,0.773l-12.383,24.767c-1.548,2.323,0.773,5.419,3.869,5.419H538.72z
	 M479.126,478.758h-23.993c0,0-0.773,0-0.773,0.774l-12.383,24.767c-1.549,2.322,0.772,5.417,3.868,5.417h23.994
	c0,0,0.772,0,0.772-0.773l12.384-24.767C483.77,481.854,482.222,478.758,479.126,478.758z M428.044,369.63h-86.683
	c-0.774,0-0.774,0-0.774,0.773l-12.383,25.541c-1.547,2.321,0.774,5.418,3.096,5.418h54.178c0.774,0,1.547,0.773,0.774,1.548
	l-27.089,55.725c-1.548,2.322,0.774,5.418,3.096,5.418h25.541c0.773,0,0.773,0,0.773-0.774l42.568-88.23
	C432.688,371.952,431.141,369.63,428.044,369.63z"/>
</svg>
