<?xml version="1.0" encoding="utf-8"?>
<!-- Generator: Adobe Illustrator 16.0.0, SVG Export Plug-In . SVG Version: 6.00 Build 0)  -->
<!DOCTYPE svg PUBLIC "-//W3C//DTD SVG 1.1//EN" "http://www.w3.org/Graphics/SVG/1.1/DTD/svg11.dtd">
<svg version="1.1" id="OBJECTS" xmlns="http://www.w3.org/2000/svg" xmlns:xlink="http://www.w3.org/1999/xlink" x="0px" y="0px"
	 width="444px" height="314px" viewBox="0 0 444 314" enable-background="new 0 0 444 314" xml:space="preserve">
<g>
	<path fill="#D4E1FF" d="M300.781,93.183c0,0,6.788-19.317,32.738-8.041s48.281-6.459,54.642,4.577
		c6.192,10.743-18.644,23.277-11.953,41.409c4.785,12.969,42.77,10.828,31.854,34.301c-10.914,23.473-59.019,18.65-63.168,16.495
		c-4.15-2.156-39.619-28.176-39.619-28.176L300.781,93.183z"/>
	<path fill="#D4E1FF" d="M69.64,162.848c0,0-25.018-34.806-7.204-47.146c26.413-18.295,48.298,50.517,90.382,43.209
		c42.084-7.308,57.574-1.734,65.662,19.38c8.088,21.115,7.543,44.438,39.497,47.155c31.955,2.717,41.664,20.649,41.664,20.649
		H71.956L69.64,162.848z"/>
</g>
<g>
	<g>
		<g>
			<path fill="#0E4F77" d="M96.971,213.259c0,0,0.44-30.011-16.851-60.126C64.274,125.532,39.443,123.3,39.443,123.3
				s10.334,4.501,15.035,40.943c2.71,21.007,6.564,40.681,16.386,52.776C83.554,232.648,96.257,227.182,96.971,213.259z"/>
			<path fill="#FFFFFF" d="M86.889,220.368c0,0-0.067-1.625-0.294-4.46c-0.249-2.833-0.574-6.888-1.212-11.725
				c-0.64-4.836-1.423-10.481-2.614-16.472c-1.188-5.988-2.671-12.344-4.585-18.594c-0.992-3.112-2.108-6.191-3.378-9.158
				c-1.236-2.981-2.793-5.792-4.256-8.441c-1.492-2.669-3.083-5.189-4.657-7.506c-1.581-2.321-3.188-4.437-4.735-6.338
				c-1.583-1.873-3.105-3.531-4.577-4.877c-1.435-1.381-2.814-2.447-3.965-3.29c-1.166-0.829-2.156-1.365-2.838-1.707
				c-0.692-0.326-1.081-0.447-1.081-0.447s0.379,0.15,1.041,0.523c0.656,0.383,1.581,1.005,2.693,1.877
				c1.093,0.896,2.394,2.021,3.735,3.462c1.374,1.409,2.779,3.131,4.293,5.018c1.464,1.929,2.981,4.07,4.466,6.416
				c1.488,2.351,2.932,4.878,4.407,7.526c1.45,2.697,2.918,5.417,4.102,8.362c1.213,2.926,2.281,5.973,3.226,9.06
				c1.958,6.154,3.505,12.449,4.752,18.392c1.239,5.945,2.315,11.519,3.083,16.324c0.778,4.803,1.415,8.813,1.792,11.628
				C86.669,218.759,86.889,220.368,86.889,220.368z"/>
		</g>
		<g>
			<path fill="#FFFFFF" d="M83.9,200.785c0,0-0.139-0.436-0.488-1.156c-0.353-0.717-0.901-1.726-1.69-2.852
				c-0.394-0.563-0.836-1.161-1.333-1.773c-0.476-0.63-1.039-1.239-1.61-1.883c-0.605-0.608-1.203-1.269-1.872-1.873
				c-0.673-0.599-1.331-1.24-2.048-1.809c-0.714-0.572-1.416-1.161-2.151-1.68c-0.728-0.53-1.438-1.061-2.164-1.515
				c-0.716-0.47-1.417-0.909-2.089-1.313c-0.684-0.384-1.329-0.747-1.926-1.082c-0.587-0.348-1.149-0.627-1.656-0.855
				c-0.501-0.238-0.938-0.446-1.298-0.617c-0.725-0.329-1.139-0.517-1.139-0.517s0.378,0.254,1.039,0.698
				c0.662,0.439,1.629,1.03,2.745,1.803c0.562,0.379,1.171,0.788,1.815,1.222c0.628,0.454,1.29,0.934,1.975,1.429
				c0.702,0.47,1.363,1.043,2.079,1.564c0.718,0.52,1.396,1.108,2.092,1.678c0.713,0.55,1.363,1.169,2.033,1.746
				c0.658,0.59,1.284,1.193,1.897,1.771c0.573,0.614,1.185,1.158,1.695,1.736c0.534,0.56,1.013,1.11,1.443,1.631
				c0.85,1.045,1.562,1.925,1.986,2.593C83.676,200.387,83.9,200.785,83.9,200.785z"/>
			<path fill="#FFFFFF" d="M80.054,181.924c0,0-0.226-0.305-0.664-0.803c-0.445-0.487-1.079-1.193-1.901-1.978
				c-0.824-0.779-1.809-1.67-2.923-2.549c-1.1-0.897-2.335-1.774-3.579-2.637c-1.265-0.831-2.549-1.632-3.784-2.329
				c-1.242-0.684-2.413-1.301-3.445-1.77c-1.016-0.501-1.908-0.828-2.513-1.089c-0.612-0.249-0.968-0.378-0.968-0.378
				s0.314,0.214,0.875,0.563c0.563,0.342,1.363,0.839,2.315,1.439c0.953,0.596,2.064,1.291,3.255,2.036
				c1.175,0.767,2.436,1.569,3.673,2.408c2.482,1.663,4.904,3.413,6.7,4.767c0.89,0.685,1.646,1.244,2.153,1.665
				C79.761,181.686,80.054,181.924,80.054,181.924z"/>
			<path fill="#FFFFFF" d="M76.02,167.576c0,0-0.247-0.236-0.704-0.62c-0.463-0.374-1.111-0.931-1.932-1.537
				c-1.63-1.23-3.898-2.743-6.269-4.084c-1.188-0.665-2.39-1.307-3.546-1.851c-1.149-0.557-2.245-1.029-3.198-1.398
				c-0.947-0.384-1.763-0.64-2.328-0.828c-0.567-0.185-0.896-0.276-0.896-0.276s0.293,0.179,0.814,0.466
				c0.528,0.271,1.26,0.703,2.15,1.19c1.777,0.981,4.137,2.285,6.48,3.62c2.349,1.334,4.698,2.669,6.459,3.669
				C74.833,166.916,76.02,167.576,76.02,167.576z"/>
			<path fill="#FFFFFF" d="M70.658,153.748c0,0-0.218-0.203-0.628-0.521c-0.414-0.311-1.001-0.767-1.744-1.253
				c-0.737-0.496-1.625-1.029-2.591-1.572c-0.966-0.542-2.022-1.073-3.086-1.584c-2.139-1-4.339-1.863-6.027-2.402
				c-0.837-0.289-1.561-0.46-2.054-0.61c-0.499-0.138-0.789-0.203-0.789-0.203s0.256,0.152,0.713,0.395
				c0.458,0.237,1.112,0.576,1.897,0.982c0.789,0.396,1.71,0.848,2.702,1.321c0.991,0.472,2.048,0.975,3.105,1.478
				C66.408,151.763,70.658,153.748,70.658,153.748z"/>
			<path fill="#FFFFFF" d="M63.055,141.824c0,0-0.646-0.645-1.746-1.433c-1.091-0.8-2.632-1.741-4.253-2.528
				c-0.813-0.385-1.638-0.752-2.431-1.043c-0.791-0.299-1.541-0.545-2.197-0.714c-0.651-0.184-1.206-0.295-1.597-0.362
				c-0.391-0.063-0.615-0.099-0.615-0.099s0.199,0.109,0.547,0.299c0.35,0.177,0.849,0.429,1.449,0.732
				c1.195,0.584,2.789,1.362,4.382,2.141c1.595,0.767,3.193,1.535,4.409,2.096C62.215,141.478,63.055,141.824,63.055,141.824z"/>
			<path fill="#FFFFFF" d="M85.45,204.705c0,0,0.485-0.408,1.11-1.085c0.631-0.673,1.406-1.612,2.131-2.585
				c0.718-0.979,1.389-1.99,1.854-2.785c0.47-0.789,0.731-1.368,0.731-1.368s-0.533,0.348-1.207,0.986
				c-0.681,0.632-1.501,1.552-2.232,2.536c-0.727,0.987-1.362,2.039-1.776,2.869C85.641,204.099,85.45,204.705,85.45,204.705z"/>
			<path fill="#FFFFFF" d="M83.389,193.742c0,0,0.51-0.554,1.167-1.438c0.665-0.882,1.484-2.09,2.263-3.318
				c0.771-1.234,1.504-2.486,2.048-3.435c0.551-0.957,0.918-1.595,0.918-1.595s-0.642,0.408-1.406,1.229
				c-0.775,0.808-1.672,1.989-2.458,3.234c-0.782,1.249-1.455,2.56-1.89,3.579C83.589,193.016,83.389,193.742,83.389,193.742z"/>
			<path fill="#FFFFFF" d="M80.45,177.307c0,0,0.415-0.414,0.928-1.084c0.521-0.667,1.148-1.586,1.733-2.525
				c0.578-0.944,1.117-1.905,1.511-2.643c0.396-0.731,0.651-1.259,0.651-1.259s-0.519,0.284-1.137,0.89
				c-0.625,0.596-1.333,1.494-1.928,2.454c-0.591,0.964-1.074,1.987-1.362,2.79C80.55,176.729,80.45,177.307,80.45,177.307z"/>
			<path fill="#FFFFFF" d="M76.317,164.313c0,0,0.376-0.374,0.832-0.98c0.462-0.604,1.009-1.437,1.516-2.284
				c0.5-0.854,0.961-1.72,1.307-2.377c0.342-0.654,0.604-1.11,0.604-1.11s-0.509,0.193-1.084,0.734
				c-0.585,0.524-1.222,1.34-1.741,2.213c-0.515,0.877-0.915,1.813-1.142,2.546C76.375,163.783,76.317,164.313,76.317,164.313z"/>
			<path fill="#FFFFFF" d="M69.542,150.016c0,0,0.289-0.313,0.603-0.815c0.322-0.5,0.675-1.187,0.97-1.894
				c0.288-0.71,0.523-1.439,0.658-2.013c0.143-0.568,0.183-0.993,0.183-0.993s-0.35,0.247-0.728,0.721
				c-0.385,0.468-0.792,1.154-1.094,1.881c-0.296,0.729-0.489,1.497-0.56,2.093C69.494,149.59,69.542,150.016,69.542,150.016z"/>
			<path fill="#FFFFFF" d="M85.433,210.187c0,0-0.262-0.277-0.751-0.729c-0.496-0.443-1.191-1.096-2.078-1.813
				c-1.76-1.452-4.228-3.242-6.835-4.816c-1.306-0.782-2.632-1.534-3.914-2.165c-0.631-0.334-1.259-0.621-1.857-0.888
				c-0.593-0.275-1.16-0.524-1.694-0.729c-1.054-0.438-1.962-0.732-2.594-0.941c-0.633-0.207-0.998-0.312-0.998-0.312
				s0.331,0.191,0.917,0.502c0.595,0.292,1.419,0.761,2.414,1.302c1.987,1.087,4.605,2.571,7.176,4.138
				c1.297,0.764,2.564,1.578,3.768,2.32c1.193,0.761,2.306,1.471,3.26,2.079C84.159,209.366,85.433,210.187,85.433,210.187z"/>
		</g>
	</g>
	<g>
		<g>
			<path fill="#62C1C5" d="M102.066,234.447c0,0-7.953-28.94-32.96-53.034c-22.919-22.082-47.386-28.392-47.386-28.392
				s11.179,12.535,25.863,46.217c8.464,19.416,17.656,37.232,30.463,46.106C94.594,256.812,105.267,248.017,102.066,234.447z"/>
			<path fill="#FFFFFF" d="M94.369,244.088c0,0-0.518-1.541-1.527-4.2c-1.029-2.651-2.473-6.454-4.436-10.921
				c-1.964-4.465-4.292-9.667-7.107-15.087c-2.813-5.42-6.01-11.108-9.592-16.575c-1.821-2.713-3.752-5.357-5.8-7.853
				c-2.02-2.518-4.299-4.781-6.442-6.917c-2.178-2.146-4.408-4.123-6.566-5.909c-2.166-1.788-4.3-3.371-6.316-4.765
				c-2.043-1.356-3.967-2.524-5.755-3.406c-1.764-0.927-3.385-1.565-4.726-2.053c-1.351-0.471-2.452-0.709-3.202-0.847
				c-0.756-0.119-1.163-0.127-1.163-0.127s0.406,0.038,1.145,0.212c0.737,0.185,1.798,0.523,3.11,1.051
				c1.3,0.556,2.862,1.272,4.553,2.282c1.712,0.97,3.542,2.231,5.522,3.62c1.945,1.443,3.999,3.077,6.079,4.915
				c2.085,1.842,4.177,3.866,6.333,5.997c2.145,2.185,4.313,4.387,6.272,6.885c1.981,2.471,3.856,5.099,5.625,7.799
				c3.598,5.363,6.84,10.977,9.696,16.335c2.849,5.363,5.438,10.415,7.516,14.815c2.087,4.395,3.818,8.067,4.966,10.666
				C93.709,242.604,94.369,244.088,94.369,244.088z"/>
		</g>
		<g>
			<path fill="#FFFFFF" d="M86.034,226.117c0,0-0.255-0.379-0.792-0.974c-0.539-0.59-1.346-1.406-2.419-2.267
				c-0.535-0.431-1.127-0.882-1.774-1.331c-0.632-0.473-1.344-0.9-2.072-1.358c-0.75-0.415-1.509-0.883-2.32-1.276
				c-0.814-0.387-1.624-0.819-2.472-1.166c-0.845-0.35-1.683-0.72-2.535-1.013c-0.846-0.306-1.676-0.617-2.5-0.85
				c-0.818-0.251-1.615-0.478-2.373-0.678c-0.763-0.178-1.485-0.346-2.151-0.501c-0.662-0.17-1.278-0.281-1.829-0.36
				c-0.548-0.089-1.025-0.166-1.418-0.229c-0.788-0.114-1.238-0.179-1.238-0.179s0.434,0.139,1.192,0.38
				c0.759,0.238,1.852,0.536,3.139,0.966c0.645,0.207,1.344,0.43,2.083,0.667c0.73,0.261,1.5,0.536,2.295,0.82
				c0.806,0.256,1.6,0.621,2.433,0.922c0.834,0.299,1.651,0.675,2.477,1.028c0.838,0.328,1.635,0.741,2.439,1.109
				c0.796,0.382,1.565,0.787,2.315,1.17c0.722,0.431,1.461,0.782,2.112,1.195c0.669,0.388,1.282,0.783,1.84,1.162
				c1.107,0.767,2.038,1.413,2.631,1.937C85.708,225.798,86.034,226.117,86.034,226.117z"/>
			<path fill="#FFFFFF" d="M77.077,209.078c0,0-0.302-0.229-0.861-0.585c-0.564-0.344-1.37-0.845-2.377-1.368
				c-1.009-0.52-2.203-1.099-3.518-1.632c-1.307-0.556-2.738-1.052-4.172-1.533c-1.447-0.445-2.903-0.856-4.284-1.181
				c-1.384-0.311-2.68-0.576-3.802-0.738c-1.116-0.197-2.063-0.263-2.717-0.345c-0.657-0.067-1.035-0.092-1.035-0.092
				s0.361,0.117,0.997,0.295c0.637,0.171,1.543,0.426,2.625,0.737c1.081,0.307,2.343,0.663,3.694,1.047
				c1.343,0.408,2.777,0.826,4.199,1.287c2.848,0.904,5.662,1.909,7.764,2.707c1.046,0.41,1.929,0.735,2.532,0.998
				C76.73,208.932,77.077,209.078,77.077,209.078z"/>
			<path fill="#FFFFFF" d="M69.2,196.427c0,0-0.304-0.158-0.849-0.398c-0.549-0.229-1.327-0.584-2.285-0.938
				c-1.909-0.727-4.509-1.546-7.159-2.172c-1.327-0.307-2.66-0.588-3.921-0.787c-1.259-0.215-2.443-0.362-3.461-0.451
				c-1.017-0.104-1.871-0.122-2.466-0.146c-0.596-0.02-0.937-0.016-0.937-0.016s0.331,0.09,0.911,0.221
				c0.583,0.113,1.407,0.323,2.397,0.543c1.98,0.446,4.61,1.04,7.233,1.668c2.628,0.626,5.256,1.251,7.227,1.721
				C67.875,196.125,69.2,196.427,69.2,196.427z"/>
			<path fill="#FFFFFF" d="M60.192,184.645c0,0-0.266-0.134-0.749-0.325c-0.484-0.184-1.175-0.457-2.024-0.717
				c-0.847-0.271-1.847-0.535-2.927-0.786c-1.079-0.251-2.241-0.466-3.406-0.66c-2.333-0.363-4.687-0.578-6.458-0.625
				c-0.884-0.043-1.627-0.006-2.143-0.013c-0.518,0.007-0.814,0.025-0.814,0.025s0.289,0.075,0.794,0.18
				c0.506,0.101,1.229,0.243,2.096,0.414c0.868,0.16,1.879,0.336,2.963,0.515c1.083,0.176,2.239,0.364,3.394,0.553
				C55.556,183.925,60.192,184.645,60.192,184.645z"/>
			<path fill="#FFFFFF" d="M49.563,175.315c0,0-0.801-0.438-2.077-0.889c-1.271-0.463-3.014-0.937-4.79-1.24
				c-0.889-0.143-1.782-0.265-2.626-0.322c-0.842-0.066-1.632-0.094-2.309-0.072c-0.677,0.005-1.241,0.053-1.635,0.098
				c-0.393,0.049-0.618,0.076-0.618,0.076s0.221,0.049,0.608,0.135c0.385,0.072,0.936,0.175,1.596,0.299
				c1.311,0.228,3.058,0.53,4.806,0.833c1.746,0.291,3.495,0.583,4.818,0.783C48.66,175.218,49.563,175.315,49.563,175.315z"/>
			<path fill="#FFFFFF" d="M88.617,229.449c0,0,0.353-0.528,0.763-1.353c0.419-0.821,0.9-1.939,1.325-3.076
				c0.417-1.14,0.778-2.299,1.003-3.191c0.231-0.89,0.32-1.519,0.32-1.519s-0.415,0.483-0.883,1.284
				c-0.478,0.797-1.008,1.909-1.436,3.058c-0.422,1.151-0.739,2.339-0.905,3.251C88.63,228.813,88.617,229.449,88.617,229.449z"/>
			<path fill="#FFFFFF" d="M83.578,219.497c0,0,0.335-0.674,0.72-1.707c0.393-1.031,0.843-2.421,1.247-3.817
				c0.396-1.4,0.751-2.808,1.008-3.87c0.262-1.072,0.436-1.787,0.436-1.787s-0.501,0.571-1.007,1.572
				c-0.519,0.992-1.05,2.378-1.458,3.793c-0.402,1.417-0.683,2.863-0.816,3.964C83.567,218.743,83.578,219.497,83.578,219.497z"/>
			<path fill="#FFFFFF" d="M76.169,204.535c0,0,0.282-0.514,0.588-1.301c0.313-0.786,0.661-1.844,0.96-2.908
				c0.292-1.068,0.542-2.142,0.713-2.96c0.176-0.813,0.274-1.39,0.274-1.39s-0.419,0.417-0.843,1.171
				c-0.435,0.747-0.864,1.807-1.167,2.895c-0.298,1.091-0.477,2.208-0.53,3.06C76.104,203.951,76.169,204.535,76.169,204.535z"/>
			<path fill="#FFFFFF" d="M68.574,193.21c0,0,0.257-0.465,0.525-1.174c0.275-0.708,0.568-1.661,0.818-2.616
				c0.242-0.959,0.443-1.919,0.592-2.646c0.146-0.724,0.27-1.236,0.27-1.236s-0.434,0.329-0.836,1.009
				c-0.415,0.667-0.799,1.627-1.054,2.61c-0.25,0.986-0.373,1.996-0.386,2.763C68.481,192.686,68.574,193.21,68.574,193.21z"/>
			<path fill="#FFFFFF" d="M58.078,181.372c0,0,0.19-0.381,0.352-0.951c0.17-0.569,0.317-1.328,0.403-2.089
				c0.079-0.763,0.101-1.527,0.071-2.116c-0.021-0.586-0.102-1.005-0.102-1.005s-0.267,0.335-0.498,0.896
				c-0.239,0.557-0.438,1.329-0.526,2.111c-0.081,0.783-0.052,1.573,0.046,2.166C57.913,180.977,58.078,181.372,58.078,181.372z"/>
			<path fill="#FFFFFF" d="M90.13,234.718c0,0-0.33-0.193-0.925-0.49c-0.6-0.287-1.449-0.72-2.501-1.16
				c-2.095-0.904-4.965-1.935-7.908-2.719c-1.472-0.386-2.955-0.737-4.362-0.986c-0.699-0.144-1.382-0.245-2.031-0.334
				c-0.646-0.099-1.26-0.18-1.83-0.227c-1.135-0.127-2.088-0.155-2.753-0.18c-0.666-0.022-1.046-0.021-1.046-0.021
				s0.372,0.092,1.021,0.226c0.653,0.114,1.575,0.334,2.681,0.577c2.211,0.488,5.14,1.184,8.045,1.97
				c1.459,0.372,2.903,0.801,4.265,1.177c1.358,0.397,2.625,0.769,3.711,1.087C88.677,234.285,90.13,234.718,90.13,234.718z"/>
		</g>
	</g>
	<g>
		<path fill="#EFA748" d="M95.995,225.382c0,0-15.949-19.203-43.159-28.886C27.898,187.622,11,188.54,11,188.54
			s8.964,8.354,31.639,28.842c13.07,11.81,26.144,22.159,38.891,24.492C98,244.89,103.072,234.566,95.995,225.382z"/>
		<g>
			<path fill="#FFFFFF" d="M80.99,224.566c0,0-0.323-0.2-0.934-0.467c-0.61-0.262-1.502-0.604-2.61-0.888
				c-0.553-0.143-1.157-0.282-1.801-0.4c-0.641-0.142-1.327-0.222-2.036-0.319c-0.711-0.057-1.446-0.151-2.196-0.172
				c-0.749-0.014-1.511-0.063-2.272-0.035c-0.761,0.024-1.522,0.031-2.268,0.102c-0.746,0.058-1.481,0.106-2.186,0.213
				c-0.707,0.091-1.387,0.192-2.03,0.301c-0.64,0.127-1.244,0.246-1.802,0.357c-0.56,0.098-1.065,0.225-1.51,0.354
				c-0.445,0.121-0.834,0.227-1.154,0.313c-0.636,0.185-0.999,0.289-0.999,0.289s0.376-0.044,1.034-0.12
				c0.656-0.08,1.586-0.229,2.709-0.345c0.56-0.065,1.166-0.136,1.808-0.21c0.642-0.052,1.32-0.107,2.021-0.165
				c0.698-0.082,1.425-0.078,2.159-0.136c0.735-0.06,1.483-0.054,2.229-0.07c0.748-0.038,1.494,0.002,2.229,0.005
				c0.734,0.017,1.456,0.06,2.156,0.093c0.694,0.079,1.375,0.092,2.01,0.181c0.64,0.065,1.24,0.154,1.793,0.251
				c1.102,0.2,2.028,0.372,2.657,0.565C80.634,224.437,80.99,224.566,80.99,224.566z"/>
			<path fill="#FFFFFF" d="M68.362,214.726c0,0-0.308-0.069-0.853-0.147c-0.545-0.067-1.328-0.171-2.271-0.222
				c-0.942-0.048-2.046-0.078-3.225-0.03c-1.181,0.027-2.435,0.141-3.688,0.269c-1.249,0.158-2.493,0.347-3.65,0.573
				c-1.155,0.239-2.228,0.483-3.134,0.745c-0.913,0.232-1.653,0.508-2.177,0.671c-0.521,0.173-0.815,0.284-0.815,0.284
				s0.314-0.035,0.856-0.118c0.541-0.088,1.315-0.206,2.242-0.342c0.924-0.139,2.003-0.3,3.158-0.473
				c1.157-0.151,2.388-0.326,3.623-0.465c2.468-0.291,4.945-0.494,6.812-0.61c0.933-0.048,1.713-0.104,2.261-0.111
				C68.048,214.734,68.362,214.726,68.362,214.726z"/>
			<path fill="#FFFFFF" d="M58.055,207.84c0,0-0.284-0.016-0.78-0.011c-0.495,0.015-1.206,0.013-2.053,0.073
				c-1.695,0.104-3.946,0.375-6.17,0.809c-1.11,0.223-2.216,0.467-3.241,0.748c-1.027,0.27-1.975,0.563-2.777,0.846
				c-0.806,0.27-1.459,0.549-1.918,0.734c-0.458,0.19-0.715,0.311-0.715,0.311s0.281-0.046,0.766-0.146
				c0.48-0.113,1.176-0.237,2.002-0.41c1.653-0.341,3.85-0.792,6.053-1.216c2.206-0.427,4.412-0.854,6.066-1.174
				C56.948,208.065,58.055,207.84,58.055,207.84z"/>
			<path fill="#FFFFFF" d="M47.189,202.001c0,0-0.248-0.011-0.679,0.01c-0.43,0.027-1.047,0.057-1.779,0.15
				c-0.734,0.086-1.583,0.229-2.487,0.408c-0.904,0.18-1.858,0.416-2.807,0.668c-1.893,0.524-3.75,1.168-5.107,1.74
				c-0.685,0.271-1.235,0.554-1.628,0.725c-0.39,0.183-0.608,0.299-0.608,0.299s0.245-0.042,0.664-0.136
				c0.417-0.098,1.014-0.238,1.73-0.406c0.712-0.176,1.54-0.389,2.422-0.625c0.881-0.238,1.821-0.492,2.761-0.746
				C43.43,203.045,47.189,202.001,47.189,202.001z"/>
			<path fill="#FFFFFF" d="M35.938,198.576c0,0-0.757-0.058-1.878,0.038c-1.122,0.085-2.605,0.324-4.055,0.702
				c-0.723,0.197-1.441,0.411-2.101,0.656c-0.661,0.238-1.268,0.489-1.774,0.737c-0.511,0.235-0.922,0.465-1.205,0.634
				c-0.281,0.172-0.442,0.271-0.442,0.271s0.185-0.039,0.507-0.107c0.316-0.077,0.769-0.188,1.312-0.32
				c1.071-0.277,2.499-0.646,3.927-1.016c1.422-0.379,2.848-0.757,3.919-1.06C35.219,198.812,35.938,198.576,35.938,198.576z"/>
			<path fill="#FFFFFF" d="M84.09,226.205c0,0,0.086-0.521,0.114-1.286c0.036-0.766,0.017-1.778-0.051-2.785
				c-0.075-1.007-0.198-2.009-0.334-2.763c-0.13-0.753-0.278-1.26-0.278-1.26s-0.148,0.508-0.229,1.276
				c-0.089,0.767-0.11,1.792-0.04,2.809c0.075,1.018,0.242,2.026,0.429,2.773C83.882,225.719,84.09,226.205,84.09,226.205z"/>
			<path fill="#FFFFFF" d="M76.859,220.392c0,0,0.023-0.625-0.04-1.54c-0.056-0.916-0.191-2.123-0.364-3.32
				c-0.18-1.196-0.394-2.385-0.563-3.277c-0.169-0.903-0.282-1.505-0.282-1.505s-0.185,0.605-0.224,1.537
				c-0.053,0.93,0.019,2.162,0.196,3.374c0.181,1.212,0.464,2.403,0.74,3.283C76.593,219.824,76.859,220.392,76.859,220.392z"/>
			<path fill="#FFFFFF" d="M66.116,211.595c0,0,0.038-0.486,0-1.188c-0.032-0.703-0.132-1.623-0.27-2.533
				c-0.146-0.908-0.324-1.808-0.474-2.486c-0.146-0.677-0.269-1.147-0.269-1.147s-0.174,0.46-0.237,1.177
				c-0.073,0.715-0.035,1.665,0.108,2.593c0.148,0.929,0.396,1.837,0.647,2.5C65.866,211.175,66.116,211.595,66.116,211.595z"/>
			<path fill="#FFFFFF" d="M56.478,205.617c0,0,0.035-0.44-0.005-1.069c-0.034-0.631-0.139-1.453-0.277-2.263
				c-0.146-0.81-0.322-1.606-0.459-2.209c-0.138-0.598-0.219-1.028-0.219-1.028s-0.217,0.397-0.288,1.05
				c-0.086,0.648-0.048,1.508,0.097,2.34c0.149,0.833,0.402,1.64,0.655,2.226C56.228,205.252,56.478,205.617,56.478,205.617z"/>
			<path fill="#FFFFFF" d="M44.465,200.246c0,0,0.014-0.354-0.059-0.842c-0.066-0.489-0.215-1.114-0.411-1.721
				c-0.202-0.604-0.447-1.192-0.672-1.628c-0.217-0.437-0.422-0.727-0.422-0.727s-0.087,0.346-0.07,0.85
				c0.01,0.504,0.124,1.157,0.326,1.78c0.208,0.621,0.5,1.21,0.777,1.625C44.206,200.003,44.465,200.246,44.465,200.246z"/>
			<path fill="#FFFFFF" d="M87.043,229.679c0,0-0.315-0.033-0.869-0.055c-0.553-0.012-1.345-0.048-2.293-0.021
				c-1.897,0.034-4.425,0.237-6.924,0.652c-1.248,0.212-2.493,0.454-3.644,0.748c-0.579,0.13-1.132,0.288-1.654,0.442
				c-0.524,0.147-1.016,0.296-1.464,0.456c-0.904,0.293-1.636,0.599-2.148,0.808c-0.512,0.211-0.799,0.343-0.799,0.343
				s0.313-0.058,0.852-0.179c0.534-0.137,1.308-0.287,2.229-0.482c1.843-0.388,4.3-0.865,6.772-1.266
				c1.232-0.218,2.474-0.389,3.635-0.57c1.166-0.164,2.253-0.317,3.185-0.448C85.794,229.85,87.043,229.679,87.043,229.679z"/>
		</g>
	</g>
</g>
<g>
	<g>
		<g>
			<path fill="#EFA748" d="M347.029,213.259c0,0-0.439-30.011,16.851-60.126c15.847-27.601,40.677-29.833,40.677-29.833
				s-10.334,4.501-15.035,40.943c-2.709,21.007-6.563,40.681-16.386,52.776C360.446,232.648,347.743,227.182,347.029,213.259z"/>
			<path fill="#FFFFFF" d="M357.111,220.368c0,0,0.067-1.625,0.294-4.46c0.249-2.833,0.574-6.888,1.212-11.725
				c0.641-4.836,1.423-10.481,2.614-16.472c1.188-5.988,2.672-12.344,4.586-18.594c0.991-3.112,2.107-6.191,3.378-9.158
				c1.236-2.981,2.793-5.792,4.256-8.441c1.492-2.669,3.082-5.189,4.656-7.506c1.581-2.321,3.188-4.437,4.735-6.338
				c1.584-1.873,3.105-3.531,4.576-4.877c1.436-1.381,2.814-2.447,3.966-3.29c1.166-0.829,2.156-1.365,2.838-1.707
				c0.692-0.326,1.081-0.447,1.081-0.447s-0.379,0.15-1.041,0.523c-0.656,0.383-1.58,1.005-2.692,1.877
				c-1.094,0.896-2.395,2.021-3.735,3.462c-1.374,1.409-2.779,3.131-4.294,5.018c-1.464,1.929-2.98,4.07-4.465,6.416
				c-1.488,2.351-2.932,4.878-4.408,7.526c-1.449,2.697-2.917,5.417-4.102,8.362c-1.213,2.926-2.28,5.973-3.226,9.06
				c-1.958,6.154-3.505,12.449-4.752,18.392c-1.239,5.945-2.314,11.519-3.083,16.324c-0.777,4.803-1.415,8.813-1.792,11.628
				C357.33,218.759,357.111,220.368,357.111,220.368z"/>
		</g>
		<g>
			<path fill="#FFFFFF" d="M360.1,200.785c0,0,0.139-0.436,0.489-1.156c0.353-0.717,0.9-1.726,1.69-2.852
				c0.394-0.563,0.836-1.161,1.332-1.773c0.476-0.63,1.039-1.239,1.61-1.883c0.604-0.608,1.203-1.269,1.872-1.873
				c0.673-0.599,1.33-1.24,2.048-1.809c0.714-0.572,1.415-1.161,2.151-1.68c0.727-0.53,1.438-1.061,2.164-1.515
				c0.716-0.47,1.417-0.909,2.089-1.313c0.684-0.384,1.329-0.747,1.926-1.082c0.588-0.348,1.148-0.627,1.656-0.855
				c0.501-0.238,0.938-0.446,1.298-0.617c0.725-0.329,1.139-0.517,1.139-0.517s-0.378,0.254-1.039,0.698
				c-0.662,0.439-1.629,1.03-2.745,1.803c-0.562,0.379-1.171,0.788-1.814,1.222c-0.628,0.454-1.29,0.934-1.976,1.429
				c-0.702,0.47-1.363,1.043-2.079,1.564c-0.718,0.52-1.396,1.108-2.092,1.678c-0.712,0.55-1.363,1.169-2.032,1.746
				c-0.658,0.59-1.283,1.193-1.896,1.771c-0.573,0.614-1.186,1.158-1.695,1.736c-0.534,0.56-1.013,1.11-1.442,1.631
				c-0.85,1.045-1.563,1.925-1.986,2.593C360.324,200.387,360.1,200.785,360.1,200.785z"/>
			<path fill="#FFFFFF" d="M363.945,181.924c0,0,0.227-0.305,0.664-0.803c0.445-0.487,1.079-1.193,1.901-1.978
				c0.824-0.779,1.809-1.67,2.923-2.549c1.1-0.897,2.335-1.774,3.578-2.637c1.266-0.831,2.55-1.632,3.784-2.329
				c1.242-0.684,2.413-1.301,3.445-1.77c1.017-0.501,1.907-0.828,2.514-1.089c0.612-0.249,0.968-0.378,0.968-0.378
				s-0.314,0.214-0.875,0.563c-0.563,0.342-1.363,0.839-2.315,1.439c-0.953,0.596-2.064,1.291-3.255,2.036
				c-1.176,0.767-2.436,1.569-3.673,2.408c-2.482,1.663-4.904,3.413-6.7,4.767c-0.89,0.685-1.646,1.244-2.153,1.665
				C364.238,181.686,363.945,181.924,363.945,181.924z"/>
			<path fill="#FFFFFF" d="M367.979,167.576c0,0,0.248-0.236,0.704-0.62c0.464-0.374,1.111-0.931,1.933-1.537
				c1.63-1.23,3.898-2.743,6.269-4.084c1.188-0.665,2.391-1.307,3.546-1.851c1.149-0.557,2.245-1.029,3.198-1.398
				c0.947-0.384,1.763-0.64,2.328-0.828c0.566-0.185,0.896-0.276,0.896-0.276s-0.293,0.179-0.813,0.466
				c-0.528,0.271-1.261,0.703-2.15,1.19c-1.777,0.981-4.137,2.285-6.48,3.62c-2.35,1.334-4.698,2.669-6.46,3.669
				C369.167,166.916,367.979,167.576,367.979,167.576z"/>
			<path fill="#FFFFFF" d="M373.342,153.748c0,0,0.218-0.203,0.628-0.521c0.414-0.311,1.001-0.767,1.743-1.253
				c0.738-0.496,1.625-1.029,2.591-1.572c0.967-0.542,2.022-1.073,3.087-1.584c2.14-1,4.339-1.863,6.027-2.402
				c0.836-0.289,1.561-0.46,2.054-0.61c0.499-0.138,0.789-0.203,0.789-0.203s-0.257,0.152-0.714,0.395
				c-0.457,0.237-1.111,0.576-1.897,0.982c-0.788,0.396-1.71,0.848-2.701,1.321c-0.991,0.472-2.048,0.975-3.105,1.478
				C377.593,151.763,373.342,153.748,373.342,153.748z"/>
			<path fill="#FFFFFF" d="M380.944,141.824c0,0,0.647-0.645,1.747-1.433c1.091-0.8,2.632-1.741,4.253-2.528
				c0.813-0.385,1.638-0.752,2.432-1.043c0.79-0.299,1.54-0.545,2.197-0.714c0.65-0.184,1.206-0.295,1.597-0.362
				c0.391-0.063,0.614-0.099,0.614-0.099s-0.198,0.109-0.546,0.299c-0.35,0.177-0.85,0.429-1.449,0.732
				c-1.195,0.584-2.789,1.362-4.382,2.141c-1.596,0.767-3.193,1.535-4.409,2.096C381.785,141.478,380.944,141.824,380.944,141.824z"
				/>
			<path fill="#FFFFFF" d="M358.55,204.705c0,0-0.485-0.408-1.11-1.085c-0.631-0.673-1.405-1.612-2.131-2.585
				c-0.718-0.979-1.389-1.99-1.854-2.785c-0.471-0.789-0.73-1.368-0.73-1.368s0.532,0.348,1.206,0.986
				c0.681,0.632,1.501,1.552,2.231,2.536c0.728,0.987,1.363,2.039,1.776,2.869C358.359,204.099,358.55,204.705,358.55,204.705z"/>
			<path fill="#FFFFFF" d="M360.611,193.742c0,0-0.51-0.554-1.168-1.438c-0.665-0.882-1.484-2.09-2.263-3.318
				c-0.771-1.234-1.505-2.486-2.048-3.435c-0.551-0.957-0.918-1.595-0.918-1.595s0.641,0.408,1.405,1.229
				c0.775,0.808,1.673,1.989,2.458,3.234c0.782,1.249,1.456,2.56,1.891,3.579C360.411,193.016,360.611,193.742,360.611,193.742z"/>
			<path fill="#FFFFFF" d="M363.55,177.307c0,0-0.414-0.414-0.928-1.084c-0.521-0.667-1.148-1.586-1.733-2.525
				c-0.578-0.944-1.117-1.905-1.511-2.643c-0.396-0.731-0.651-1.259-0.651-1.259s0.519,0.284,1.137,0.89
				c0.625,0.596,1.333,1.494,1.929,2.454c0.591,0.964,1.073,1.987,1.361,2.79C363.45,176.729,363.55,177.307,363.55,177.307z"/>
			<path fill="#FFFFFF" d="M367.683,164.313c0,0-0.376-0.374-0.831-0.98c-0.463-0.604-1.01-1.437-1.516-2.284
				c-0.5-0.854-0.962-1.72-1.307-2.377c-0.343-0.654-0.605-1.11-0.605-1.11s0.51,0.193,1.085,0.734
				c0.585,0.524,1.222,1.34,1.74,2.213c0.516,0.877,0.915,1.813,1.142,2.546C367.626,163.783,367.683,164.313,367.683,164.313z"/>
			<path fill="#FFFFFF" d="M374.459,150.016c0,0-0.29-0.313-0.604-0.815c-0.322-0.5-0.676-1.187-0.97-1.894
				c-0.288-0.71-0.523-1.439-0.659-2.013c-0.143-0.568-0.183-0.993-0.183-0.993s0.351,0.247,0.729,0.721
				c0.385,0.468,0.792,1.154,1.094,1.881c0.296,0.729,0.489,1.497,0.561,2.093C374.507,149.59,374.459,150.016,374.459,150.016z"/>
			<path fill="#FFFFFF" d="M358.566,210.187c0,0,0.263-0.277,0.752-0.729c0.495-0.443,1.19-1.096,2.078-1.813
				c1.76-1.452,4.228-3.242,6.835-4.816c1.307-0.782,2.633-1.534,3.914-2.165c0.631-0.334,1.259-0.621,1.857-0.888
				c0.593-0.275,1.159-0.524,1.694-0.729c1.054-0.438,1.961-0.732,2.594-0.941c0.632-0.207,0.998-0.312,0.998-0.312
				s-0.331,0.191-0.918,0.502c-0.595,0.292-1.419,0.761-2.413,1.302c-1.987,1.087-4.605,2.571-7.177,4.138
				c-1.297,0.764-2.563,1.578-3.768,2.32c-1.192,0.761-2.306,1.471-3.26,2.079C359.842,209.366,358.566,210.187,358.566,210.187z"/>
		</g>
	</g>
	<g>
		<g>
			<path fill="#0E4F77" d="M341.934,234.447c0,0,7.953-28.94,32.96-53.034c22.92-22.082,47.387-17.296,47.387-17.296
				s-11.18,1.438-25.863,35.121c-8.465,19.416-17.656,37.232-30.464,46.106C349.406,256.812,338.733,248.017,341.934,234.447z"/>
			<path fill="#FFFFFF" d="M349.631,244.088c0,0,0.518-1.541,1.527-4.2c1.029-2.651,2.473-6.454,4.436-10.921
				c1.964-4.465,4.291-9.667,7.107-15.087c2.812-5.42,6.01-11.108,9.592-16.575c1.82-2.713,3.752-5.357,5.8-7.853
				c2.02-2.518,4.299-4.781,6.442-6.917c2.178-2.146,4.408-4.123,6.566-5.909c2.166-1.788,4.3-3.371,6.316-4.765
				c2.043-1.356,3.967-2.524,5.755-3.406c1.764-0.927,3.386-1.565,4.727-2.053c1.351-0.471,2.451-0.709,3.201-0.847
				c0.756-0.119,1.163-0.127,1.163-0.127s-0.406,0.038-1.146,0.212c-0.737,0.185-1.799,0.523-3.11,1.051
				c-1.3,0.556-2.862,1.272-4.553,2.282c-1.713,0.97-3.543,2.231-5.523,3.62c-1.944,1.443-3.998,3.077-6.078,4.915
				c-2.085,1.842-4.177,3.866-6.333,5.997c-2.145,2.185-4.313,4.387-6.272,6.885c-1.981,2.471-3.856,5.099-5.626,7.799
				c-3.597,5.363-6.839,10.977-9.695,16.335c-2.849,5.363-5.438,10.415-7.516,14.815c-2.088,4.395-3.818,8.067-4.967,10.666
				C350.29,242.604,349.631,244.088,349.631,244.088z"/>
		</g>
		<g>
			<path fill="#FFFFFF" d="M357.966,226.117c0,0,0.255-0.379,0.792-0.974c0.538-0.59,1.347-1.406,2.419-2.267
				c0.535-0.431,1.127-0.882,1.774-1.331c0.632-0.473,1.344-0.9,2.071-1.358c0.751-0.415,1.51-0.883,2.32-1.276
				c0.813-0.387,1.624-0.819,2.472-1.166c0.845-0.35,1.683-0.72,2.534-1.013c0.847-0.306,1.677-0.617,2.501-0.85
				c0.818-0.251,1.615-0.478,2.373-0.678c0.763-0.178,1.484-0.346,2.15-0.501c0.661-0.17,1.278-0.281,1.829-0.36
				c0.548-0.089,1.025-0.166,1.419-0.229c0.787-0.114,1.237-0.179,1.237-0.179s-0.434,0.139-1.192,0.38
				c-0.759,0.238-1.852,0.536-3.139,0.966c-0.646,0.207-1.345,0.43-2.084,0.667c-0.729,0.261-1.499,0.536-2.296,0.82
				c-0.806,0.256-1.6,0.621-2.433,0.922c-0.834,0.299-1.65,0.675-2.477,1.028c-0.838,0.328-1.636,0.741-2.439,1.109
				c-0.797,0.382-1.565,0.787-2.315,1.17c-0.722,0.431-1.461,0.782-2.112,1.195c-0.669,0.388-1.282,0.783-1.841,1.162
				c-1.107,0.767-2.037,1.413-2.63,1.937C358.292,225.798,357.966,226.117,357.966,226.117z"/>
			<path fill="#FFFFFF" d="M366.923,209.078c0,0,0.302-0.229,0.86-0.585c0.564-0.344,1.37-0.845,2.378-1.368
				c1.009-0.52,2.203-1.099,3.519-1.632c1.307-0.556,2.737-1.052,4.172-1.533c1.446-0.445,2.903-0.856,4.283-1.181
				c1.385-0.311,2.68-0.576,3.803-0.738c1.115-0.197,2.063-0.263,2.717-0.345c0.658-0.067,1.035-0.092,1.035-0.092
				s-0.361,0.117-0.997,0.295c-0.637,0.171-1.542,0.426-2.625,0.737c-1.081,0.307-2.343,0.663-3.694,1.047
				c-1.342,0.408-2.776,0.826-4.198,1.287c-2.849,0.904-5.662,1.909-7.765,2.707c-1.045,0.41-1.929,0.735-2.532,0.998
				C367.271,208.932,366.923,209.078,366.923,209.078z"/>
			<path fill="#FFFFFF" d="M374.801,196.427c0,0,0.303-0.158,0.849-0.398c0.549-0.229,1.326-0.584,2.284-0.938
				c1.909-0.727,4.509-1.546,7.16-2.172c1.326-0.307,2.659-0.588,3.921-0.787c1.259-0.215,2.443-0.362,3.462-0.451
				c1.017-0.104,1.871-0.122,2.466-0.146c0.596-0.02,0.938-0.016,0.938-0.016s-0.331,0.09-0.911,0.221
				c-0.583,0.113-1.407,0.323-2.397,0.543c-1.98,0.446-4.61,1.04-7.233,1.668c-2.628,0.626-5.256,1.251-7.227,1.721
				C376.125,196.125,374.801,196.427,374.801,196.427z"/>
			<path fill="#FFFFFF" d="M383.809,184.645c0,0,0.266-0.134,0.748-0.325c0.484-0.184,1.175-0.457,2.024-0.717
				c0.846-0.271,1.847-0.535,2.926-0.786c1.08-0.251,2.242-0.466,3.406-0.66c2.334-0.363,4.687-0.578,6.458-0.625
				c0.884-0.043,1.627-0.006,2.143-0.013c0.518,0.007,0.814,0.025,0.814,0.025s-0.289,0.075-0.795,0.18
				c-0.506,0.101-1.229,0.243-2.097,0.414c-0.867,0.16-1.879,0.336-2.963,0.515c-1.083,0.176-2.238,0.364-3.395,0.553
				C388.444,183.925,383.809,184.645,383.809,184.645z"/>
			<path fill="#FFFFFF" d="M394.437,175.315c0,0,0.801-0.438,2.077-0.889c1.271-0.463,3.014-0.937,4.789-1.24
				c0.89-0.143,1.783-0.265,2.626-0.322c0.843-0.066,1.632-0.094,2.31-0.072c0.677,0.005,1.24,0.053,1.635,0.098
				c0.393,0.049,0.617,0.076,0.617,0.076s-0.221,0.049-0.608,0.135c-0.385,0.072-0.935,0.175-1.595,0.299
				c-1.311,0.228-3.059,0.53-4.806,0.833c-1.746,0.291-3.495,0.583-4.819,0.783C395.34,175.218,394.437,175.315,394.437,175.315z"/>
			<path fill="#FFFFFF" d="M355.383,229.449c0,0-0.352-0.528-0.763-1.353c-0.418-0.821-0.899-1.939-1.325-3.076
				c-0.416-1.14-0.778-2.299-1.003-3.191c-0.231-0.89-0.319-1.519-0.319-1.519s0.414,0.483,0.883,1.284
				c0.478,0.797,1.008,1.909,1.436,3.058c0.422,1.151,0.739,2.339,0.904,3.251C355.369,228.813,355.383,229.449,355.383,229.449z"/>
			<path fill="#FFFFFF" d="M360.422,219.497c0,0-0.335-0.674-0.72-1.707c-0.393-1.031-0.843-2.421-1.247-3.817
				c-0.396-1.4-0.751-2.808-1.008-3.87c-0.262-1.072-0.437-1.787-0.437-1.787s0.502,0.571,1.007,1.572
				c0.519,0.992,1.051,2.378,1.458,3.793c0.402,1.417,0.683,2.863,0.815,3.964C360.433,218.743,360.422,219.497,360.422,219.497z"/>
			<path fill="#FFFFFF" d="M367.831,204.535c0,0-0.282-0.514-0.589-1.301c-0.313-0.786-0.66-1.844-0.959-2.908
				c-0.292-1.068-0.542-2.142-0.714-2.96c-0.176-0.813-0.274-1.39-0.274-1.39s0.419,0.417,0.844,1.171
				c0.434,0.747,0.863,1.807,1.167,2.895c0.298,1.091,0.477,2.208,0.529,3.06C367.896,203.951,367.831,204.535,367.831,204.535z"/>
			<path fill="#FFFFFF" d="M375.426,193.21c0,0-0.257-0.465-0.524-1.174c-0.276-0.708-0.568-1.661-0.818-2.616
				c-0.241-0.959-0.443-1.919-0.592-2.646c-0.146-0.724-0.271-1.236-0.271-1.236s0.435,0.329,0.836,1.009
				c0.416,0.667,0.8,1.627,1.055,2.61c0.249,0.986,0.372,1.996,0.386,2.763C375.519,192.686,375.426,193.21,375.426,193.21z"/>
			<path fill="#FFFFFF" d="M385.922,181.372c0,0-0.189-0.381-0.352-0.951c-0.17-0.569-0.317-1.328-0.403-2.089
				c-0.078-0.763-0.101-1.527-0.07-2.116c0.021-0.586,0.102-1.005,0.102-1.005s0.268,0.335,0.498,0.896
				c0.239,0.557,0.439,1.329,0.526,2.111c0.08,0.783,0.052,1.573-0.047,2.166C386.087,180.977,385.922,181.372,385.922,181.372z"/>
			<path fill="#FFFFFF" d="M353.87,234.718c0,0,0.329-0.193,0.925-0.49c0.6-0.287,1.449-0.72,2.501-1.16
				c2.096-0.904,4.965-1.935,7.908-2.719c1.473-0.386,2.956-0.737,4.362-0.986c0.699-0.144,1.383-0.245,2.031-0.334
				c0.646-0.099,1.26-0.18,1.83-0.227c1.135-0.127,2.089-0.155,2.754-0.18c0.665-0.022,1.045-0.021,1.045-0.021
				s-0.371,0.092-1.021,0.226c-0.652,0.114-1.574,0.334-2.681,0.577c-2.212,0.488-5.14,1.184-8.046,1.97
				c-1.459,0.372-2.902,0.801-4.265,1.177c-1.357,0.397-2.625,0.769-3.711,1.087C355.323,234.285,353.87,234.718,353.87,234.718z"/>
		</g>
	</g>
	<g>
		<g>
			<path fill="#62C1C5" d="M348.005,225.382c0,0,15.949-19.203,43.158-28.886c24.938-8.874,41.837,3.141,41.837,3.141
				s-8.964-2.743-31.639,17.745c-13.071,11.81-26.145,22.159-38.892,24.492C346,244.89,340.928,234.566,348.005,225.382z"/>
			<path fill="#FFFFFF" d="M350.532,235.326c0,0,0.921-0.99,2.598-2.66c1.688-1.655,4.087-4.042,7.105-6.754
				c3.019-2.71,6.566-5.854,10.558-8.995c3.989-3.143,8.363-6.356,12.951-9.271c2.31-1.431,4.681-2.773,7.087-3.962
				c2.394-1.215,4.897-2.148,7.254-3.032c2.386-0.88,4.754-1.612,7.001-2.226c2.254-0.612,4.414-1.08,6.42-1.445
				c2.013-0.327,3.871-0.553,5.529-0.608c1.653-0.097,3.102-0.024,4.284,0.065c1.185,0.106,2.101,0.304,2.717,0.456
				c0.613,0.169,0.925,0.303,0.925,0.303s-0.321-0.11-0.941-0.232c-0.622-0.112-1.542-0.22-2.717-0.27
				c-1.175-0.024-2.604-0.018-4.232,0.168c-1.63,0.147-3.449,0.477-5.426,0.85c-1.969,0.427-4.085,0.96-6.291,1.64
				c-2.212,0.681-4.49,1.498-6.854,2.373c-2.375,0.921-4.772,1.846-7.113,3.066c-2.35,1.192-4.671,2.541-6.938,3.981
				c-4.564,2.83-8.946,5.972-12.947,9.054c-3.997,3.086-7.69,6.027-10.774,8.648c-3.089,2.615-5.659,4.804-7.42,6.38
				C351.541,234.428,350.532,235.326,350.532,235.326z"/>
		</g>
		<g>
			<path fill="#FFFFFF" d="M363.01,224.566c0,0,0.323-0.2,0.934-0.467c0.61-0.262,1.502-0.604,2.609-0.888
				c0.554-0.143,1.157-0.282,1.802-0.4c0.641-0.142,1.327-0.222,2.035-0.319c0.712-0.057,1.446-0.151,2.196-0.172
				c0.749-0.014,1.511-0.063,2.271-0.035c0.761,0.024,1.522,0.031,2.269,0.102c0.746,0.058,1.481,0.106,2.187,0.213
				c0.706,0.091,1.387,0.192,2.029,0.301c0.64,0.127,1.244,0.246,1.802,0.357c0.56,0.098,1.065,0.225,1.51,0.354
				c0.445,0.121,0.834,0.227,1.153,0.313c0.636,0.185,1,0.289,1,0.289s-0.377-0.044-1.034-0.12c-0.657-0.08-1.587-0.229-2.71-0.345
				c-0.56-0.065-1.166-0.136-1.808-0.21c-0.643-0.052-1.319-0.107-2.021-0.165c-0.698-0.082-1.426-0.078-2.159-0.136
				c-0.734-0.06-1.482-0.054-2.229-0.07c-0.747-0.038-1.493,0.002-2.229,0.005c-0.735,0.017-1.457,0.06-2.156,0.093
				c-0.694,0.079-1.375,0.092-2.011,0.181c-0.64,0.065-1.239,0.154-1.792,0.251c-1.103,0.2-2.029,0.372-2.658,0.565
				C363.366,224.437,363.01,224.566,363.01,224.566z"/>
			<path fill="#FFFFFF" d="M375.639,214.726c0,0,0.307-0.069,0.853-0.147c0.546-0.067,1.328-0.171,2.271-0.222
				c0.943-0.048,2.047-0.078,3.226-0.03c1.181,0.027,2.436,0.141,3.688,0.269c1.249,0.158,2.493,0.347,3.65,0.573
				c1.155,0.239,2.228,0.483,3.135,0.745c0.913,0.232,1.652,0.508,2.177,0.671c0.521,0.173,0.815,0.284,0.815,0.284
				s-0.313-0.035-0.856-0.118c-0.541-0.088-1.314-0.206-2.242-0.342c-0.924-0.139-2.002-0.3-3.158-0.473
				c-1.157-0.151-2.387-0.326-3.622-0.465c-2.469-0.291-4.945-0.494-6.812-0.61c-0.934-0.048-1.714-0.104-2.262-0.111
				C375.952,214.734,375.639,214.726,375.639,214.726z"/>
			<path fill="#FFFFFF" d="M385.945,207.84c0,0,0.284-0.016,0.78-0.011c0.494,0.015,1.205,0.013,2.052,0.073
				c1.696,0.104,3.947,0.375,6.17,0.809c1.11,0.223,2.217,0.467,3.241,0.748c1.027,0.27,1.976,0.563,2.777,0.846
				c0.807,0.27,1.46,0.549,1.919,0.734c0.458,0.19,0.716,0.311,0.716,0.311s-0.282-0.046-0.767-0.146
				c-0.48-0.113-1.177-0.237-2.002-0.41c-1.654-0.341-3.851-0.792-6.053-1.216c-2.206-0.427-4.412-0.854-6.066-1.174
				C387.053,208.065,385.945,207.84,385.945,207.84z"/>
			<path fill="#FFFFFF" d="M396.811,202.001c0,0,0.248-0.011,0.679,0.01c0.43,0.027,1.047,0.057,1.779,0.15
				c0.734,0.086,1.583,0.229,2.487,0.408s1.857,0.416,2.807,0.668c1.894,0.524,3.75,1.168,5.108,1.74
				c0.685,0.271,1.234,0.554,1.628,0.725c0.39,0.183,0.607,0.299,0.607,0.299s-0.244-0.042-0.664-0.136
				c-0.417-0.098-1.014-0.238-1.729-0.406c-0.713-0.176-1.539-0.389-2.422-0.625c-0.882-0.238-1.821-0.492-2.762-0.746
				C400.57,203.045,396.811,202.001,396.811,202.001z"/>
			<path fill="#FFFFFF" d="M408.063,198.576c0,0,0.758-0.058,1.879,0.038c1.122,0.085,2.604,0.324,4.055,0.702
				c0.723,0.197,1.441,0.411,2.1,0.656c0.661,0.238,1.269,0.489,1.775,0.737c0.511,0.235,0.921,0.465,1.204,0.634
				c0.281,0.172,0.442,0.271,0.442,0.271s-0.185-0.039-0.507-0.107c-0.316-0.077-0.77-0.188-1.312-0.32
				c-1.071-0.277-2.499-0.646-3.928-1.016c-1.422-0.379-2.848-0.757-3.919-1.06C408.781,198.812,408.063,198.576,408.063,198.576z"
				/>
			<path fill="#FFFFFF" d="M359.91,226.205c0,0-0.086-0.521-0.114-1.286c-0.035-0.766-0.017-1.778,0.051-2.785
				c0.075-1.007,0.198-2.009,0.334-2.763c0.13-0.753,0.278-1.26,0.278-1.26s0.148,0.508,0.229,1.276
				c0.089,0.767,0.109,1.792,0.04,2.809c-0.075,1.018-0.242,2.026-0.43,2.773C360.118,225.719,359.91,226.205,359.91,226.205z"/>
			<path fill="#FFFFFF" d="M367.141,220.392c0,0-0.023-0.625,0.039-1.54c0.057-0.916,0.192-2.123,0.364-3.32
				c0.18-1.196,0.394-2.385,0.563-3.277c0.169-0.903,0.281-1.505,0.281-1.505s0.185,0.605,0.225,1.537
				c0.053,0.93-0.02,2.162-0.196,3.374c-0.181,1.212-0.464,2.403-0.74,3.283C367.407,219.824,367.141,220.392,367.141,220.392z"/>
			<path fill="#FFFFFF" d="M377.884,211.595c0,0-0.037-0.486,0.001-1.188c0.031-0.703,0.131-1.623,0.27-2.533
				c0.146-0.908,0.324-1.808,0.474-2.486c0.146-0.677,0.27-1.147,0.27-1.147s0.174,0.46,0.237,1.177
				c0.073,0.715,0.034,1.665-0.108,2.593c-0.147,0.929-0.396,1.837-0.647,2.5C378.135,211.175,377.884,211.595,377.884,211.595z"/>
			<path fill="#FFFFFF" d="M387.522,205.617c0,0-0.036-0.44,0.005-1.069c0.033-0.631,0.139-1.453,0.276-2.263
				c0.146-0.81,0.322-1.606,0.46-2.209c0.137-0.598,0.219-1.028,0.219-1.028s0.216,0.397,0.287,1.05
				c0.086,0.648,0.048,1.508-0.097,2.34c-0.148,0.833-0.401,1.64-0.654,2.226C387.772,205.252,387.522,205.617,387.522,205.617z"/>
			<path fill="#FFFFFF" d="M399.534,200.246c0,0-0.013-0.354,0.06-0.842c0.066-0.489,0.215-1.114,0.411-1.721
				c0.202-0.604,0.447-1.192,0.672-1.628c0.217-0.437,0.422-0.727,0.422-0.727s0.087,0.346,0.07,0.85
				c-0.01,0.504-0.124,1.157-0.325,1.78c-0.208,0.621-0.5,1.21-0.778,1.625C399.795,200.003,399.534,200.246,399.534,200.246z"/>
			<path fill="#FFFFFF" d="M356.957,229.679c0,0,0.315-0.033,0.869-0.055c0.553-0.012,1.345-0.048,2.293-0.021
				c1.897,0.034,4.426,0.237,6.925,0.652c1.248,0.212,2.492,0.454,3.644,0.748c0.579,0.13,1.131,0.288,1.653,0.442
				c0.524,0.147,1.017,0.296,1.464,0.456c0.904,0.293,1.637,0.599,2.148,0.808c0.512,0.211,0.8,0.343,0.8,0.343
				s-0.313-0.058-0.852-0.179c-0.534-0.137-1.308-0.287-2.229-0.482c-1.843-0.388-4.3-0.865-6.771-1.266
				c-1.233-0.218-2.475-0.389-3.636-0.57c-1.165-0.164-2.253-0.317-3.185-0.448C358.206,229.85,356.957,229.679,356.957,229.679z"/>
		</g>
	</g>
</g>
<g>
	<g>
		<path fill="#45ADAD" d="M158.204,106.188c-4.739,0.056-8.627-3.743-8.68-8.482c-0.055-4.739,3.741-8.629,8.482-8.682
			c4.742-0.06,8.627,3.743,8.682,8.485C166.744,102.246,162.946,106.135,158.204,106.188z"/>
	</g>
	<path fill="#45ADAD" d="M206.009,93.036c-0.004-0.375-0.315-0.677-0.696-0.677l-11.234-2.404c-0.327-1.548-0.748-3.05-1.26-4.514
		l8.343-7.898c0.325-0.19,0.43-0.612,0.241-0.939l-4.096-6.906c-0.194-0.325-0.615-0.431-0.94-0.237l-10.945,3.534
		c-1.04-1.165-2.157-2.248-3.34-3.266l3.281-11.026c0.181-0.328,0.068-0.743-0.262-0.934l-7.001-3.934
		c-0.33-0.181-0.746-0.062-0.932,0.263l-7.703,8.529c-1.474-0.481-2.988-0.868-4.537-1.158l-2.669-11.18
		c-0.004-0.377-0.315-0.683-0.694-0.68l-8.03,0.094c-0.376,0.009-0.679,0.321-0.674,0.696l-2.413,11.239
		c-1.542,0.324-3.044,0.743-4.507,1.258l-7.898-8.345c-0.195-0.322-0.612-0.431-0.938-0.237l-6.91,4.093
		c-0.323,0.193-0.429,0.615-0.236,0.94l3.531,10.948c-1.155,1.036-2.248,2.151-3.264,3.334l-11.025-3.275
		c-0.329-0.188-0.743-0.069-0.933,0.262l-3.931,6.997c-0.187,0.334-0.068,0.746,0.262,0.933l8.521,7.705
		c-0.476,1.474-0.865,2.987-1.155,4.539l-11.176,2.666c-0.379,0.003-0.682,0.312-0.677,0.69l0.093,8.033
		c0.003,0.375,0.314,0.677,0.693,0.671l11.233,2.416c0.328,1.542,0.751,3.047,1.262,4.511l-8.342,7.896
		c-0.326,0.19-0.435,0.615-0.244,0.937l4.098,6.909c0.195,0.328,0.612,0.437,0.938,0.241l10.944-3.538
		c1.044,1.158,2.162,2.251,3.342,3.269l-3.278,11.02c-0.188,0.331-0.069,0.752,0.259,0.933l7.002,3.934
		c0.329,0.188,0.744,0.069,0.932-0.259l7.703-8.523c1.474,0.478,2.988,0.862,4.536,1.155l2.67,11.179
		c0.003,0.375,0.315,0.681,0.691,0.674l8.03-0.094c0.377-0.003,0.679-0.312,0.678-0.687l2.408-11.242
		c1.543-0.328,3.047-0.746,4.509-1.258l7.898,8.342c0.194,0.324,0.612,0.434,0.938,0.237l6.907-4.093
		c0.325-0.191,0.432-0.615,0.24-0.94l-3.534-10.945c1.157-1.042,2.251-2.16,3.264-3.34l11.023,3.281
		c0.329,0.184,0.748,0.065,0.934-0.263l3.935-7.002c0.184-0.328,0.065-0.746-0.262-0.93l-8.523-7.702
		c0.479-1.474,0.863-2.988,1.153-4.536l11.18-2.675c0.378-0.003,0.681-0.315,0.677-0.69L206.009,93.036z M158.458,128.116
		c-16.849,0.2-30.669-13.306-30.866-30.157c-0.193-16.852,13.31-30.672,30.16-30.862c16.852-0.197,30.672,13.308,30.868,30.157
		C188.813,114.105,175.311,127.922,158.458,128.116z"/>
	<path fill="none" stroke="#45ADAD" stroke-width="3" stroke-miterlimit="10" d="M158.404,123.359
		c-14.222,0.169-25.888-11.231-26.054-25.455c-0.163-14.225,11.235-25.891,25.458-26.051c14.225-0.167,25.89,11.233,26.055,25.455
		C184.026,111.533,172.628,123.196,158.404,123.359z"/>
</g>
<g>
	<path fill="#D4E1FF" d="M389.522,250.699H54.478c-3.637,0-6.585-2.948-6.585-6.585l0,0c0-3.637,2.948-6.585,6.585-6.585h335.045
		c3.637,0,6.585,2.948,6.585,6.585l0,0C396.107,247.751,393.159,250.699,389.522,250.699z"/>
	<path fill="#D4E1FF" d="M309.399,277.038H72.65c-3.637,0-6.584-2.948-6.584-6.585l0,0c0-3.637,2.948-6.585,6.584-6.585h236.749
		c3.637,0,6.585,2.948,6.585,6.585l0,0C315.984,274.09,313.036,277.038,309.399,277.038z"/>
	<path fill="#D4E1FF" d="M361.134,277.038h-28.398c-3.637,0-6.585-2.948-6.585-6.585l0,0c0-3.637,2.948-6.585,6.585-6.585h28.398
		c3.637,0,6.584,2.948,6.584,6.585l0,0C367.718,274.09,364.771,277.038,361.134,277.038z"/>
	<path fill="#D4E1FF" d="M119.004,257.284c0-3.637,2.948-6.585,6.585-6.585H87.454c3.636,0,6.584,2.948,6.584,6.585
		c0,3.636-2.948,6.584-6.584,6.584h38.135C121.952,263.868,119.004,260.92,119.004,257.284z"/>
	<path fill="#D4E1FF" d="M137.421,303.377h134.345c3.637,0,6.584-2.948,6.584-6.585l0,0c0-3.637-2.947-6.585-6.584-6.585H137.421
		c-3.637,0-6.584,2.948-6.584,6.585l0,0C130.836,300.429,133.784,303.377,137.421,303.377z"/>
	<path fill="#D4E1FF" d="M225.412,283.623c0-3.637-2.948-6.585-6.585-6.585h38.135c-3.637,0-6.585,2.948-6.585,6.585
		s2.948,6.584,6.585,6.584h-38.135C222.464,290.207,225.412,287.26,225.412,283.623z"/>
</g>
<g>
	<path fill="#FFFFFF" d="M296.33,237.529h67.119c3.431,0,6.212-2.78,6.212-6.211v-128.66c0-3.431-2.781-6.212-6.212-6.212H296.33
		c-3.431,0-6.212,2.781-6.212,6.212v128.66C290.118,234.749,292.899,237.529,296.33,237.529z"/>
	<path fill="#62C1C5" d="M290.68,237.529h67.118c3.431,0,6.212-2.78,6.212-6.211v-128.66c0-3.431-2.781-6.212-6.212-6.212H290.68
		c-3.432,0-6.212,2.781-6.212,6.212v128.66C284.468,234.749,287.248,237.529,290.68,237.529z"/>
	<path fill="#0A3C5F" d="M355.075,102.247h-12.441c-1.508,0-2.729,1.222-2.729,2.729l0,0c0,1.256-1.019,2.275-2.274,2.275h-26.782
		c-1.256,0-2.274-1.019-2.274-2.275l0,0c0-1.507-1.223-2.729-2.73-2.729h-12.44c-1.731,0-3.135,1.403-3.135,3.135v123.213
		c0,1.731,1.403,3.135,3.135,3.135h61.673c1.731,0,3.135-1.403,3.135-3.135V105.382C358.21,103.65,356.807,102.247,355.075,102.247z
		"/>
	<path fill="#45ADAD" d="M357.798,96.447h-33.56v141.083h33.56c3.431,0,6.212-2.78,6.212-6.211v-128.66
		C364.01,99.228,361.229,96.447,357.798,96.447z"/>
	<path fill="#0A3C5F" d="M354.111,102.247H341.67c-1.507,0-2.729,1.222-2.729,2.729l0,0c0,1.256-1.019,2.275-2.274,2.275h-13.391
		v124.478h30.836c1.731,0,3.135-1.403,3.135-3.135V105.382C357.246,103.65,355.843,102.247,354.111,102.247z"/>
	<path fill="#0A3C5F" d="M327.577,104.234h-13.108c-0.546,0-0.993-0.447-0.993-0.994l0,0c0-0.546,0.447-0.993,0.993-0.993h13.108
		c0.546,0,0.993,0.447,0.993,0.993l0,0C328.57,103.787,328.123,104.234,327.577,104.234z"/>
	<circle fill="#0A3C5F" cx="331.459" cy="103.24" r="0.976"/>
	<circle fill="#0A3C5F" cx="334.495" cy="103.24" r="0.975"/>
</g>
<g>
	<g>
		<path fill="#FFFFFF" d="M147.669,237.529H80.551c-3.431,0-6.212-2.78-6.212-6.211v-128.66c0-3.431,2.781-6.212,6.212-6.212h67.119
			c3.431,0,6.212,2.781,6.212,6.212v128.66C153.881,234.749,151.1,237.529,147.669,237.529z"/>
		<path fill="#5472D1" d="M153.321,237.529H86.202c-3.431,0-6.212-2.78-6.212-6.211v-128.66c0-3.431,2.781-6.212,6.212-6.212h67.119
			c3.431,0,6.212,2.781,6.212,6.212v128.66C159.533,234.749,156.751,237.529,153.321,237.529z"/>
		<path fill="#E9F0FF" d="M88.925,102.247h12.441c1.508,0,2.73,1.222,2.73,2.729l0,0c0,1.256,1.018,2.275,2.274,2.275h26.782
			c1.256,0,2.274-1.019,2.274-2.275l0,0c0-1.507,1.222-2.729,2.73-2.729h12.441c1.731,0,3.135,1.403,3.135,3.135v123.213
			c0,1.731-1.403,3.135-3.135,3.135H88.925c-1.731,0-3.135-1.403-3.135-3.135V105.382C85.791,103.65,87.194,102.247,88.925,102.247z
			"/>
		<path fill="#3459B7" d="M86.202,96.447h33.56v141.083h-33.56c-3.431,0-6.212-2.78-6.212-6.211v-128.66
			C79.99,99.228,82.771,96.447,86.202,96.447z"/>
		<path fill="#E9F0FF" d="M89.838,102.247h12.441c1.508,0,2.73,1.222,2.73,2.729l0,0c0,1.256,1.019,2.275,2.275,2.275h13.391
			v124.478H89.839c-1.731,0-3.135-1.403-3.135-3.135V105.382C86.704,103.65,88.107,102.247,89.838,102.247z"/>
		<path fill="#0A3C5F" d="M116.423,104.234h13.108c0.546,0,0.994-0.447,0.994-0.994l0,0c0-0.546-0.447-0.993-0.994-0.993h-13.108
			c-0.546,0-0.994,0.447-0.994,0.993l0,0C115.43,103.787,115.877,104.234,116.423,104.234z"/>
		<circle fill="#0A3C5F" cx="112.541" cy="103.24" r="0.975"/>
		<circle fill="#0A3C5F" cx="109.505" cy="103.24" r="0.975"/>
	</g>
	<circle fill="#0E4F77" cx="283.237" cy="193.12" r="2.705"/>
</g>
<g>
	<path fill="#EF9D75" d="M213.295,218.643l3.572-4.18c1.311-1.533,3.616-1.714,5.149-0.403l0,0c1.533,1.311,1.714,3.616,0.403,5.149
		l-3.572,4.18c-1.311,1.533-3.616,1.714-5.149,0.402l0,0C212.165,222.48,211.984,220.176,213.295,218.643z"/>
	<path fill="#F8B690" d="M245.558,202.464l-4.811-16.162c-1.151-3.866-5.219-6.067-9.085-4.917l0,0l6.895,23.163
		c0.576,1.933,2.609,3.033,4.543,2.458l0,0C245.032,206.431,246.133,204.396,245.558,202.464z"/>
	<path fill="#F8B690" d="M221.047,184.545l1.459,4.902c1.745,5.863,7.913,9.201,13.775,7.456l0,0l-4.619-15.519L221.047,184.545z"/>
	<path fill="#EF9D75" d="M224.004,214.083l22.994-6.778l0,0c1.151,3.866-1.05,7.934-4.916,9.084l-15.994,4.695
		c-1.934,0.575-3.967-0.525-4.542-2.459l0,0C220.97,216.692,222.07,214.658,224.004,214.083z"/>
	<path fill="#EF9D75" d="M221.92,207.082l22.995-6.778l2.083,7.001l-22.994,6.778c-1.934,0.575-3.967-0.525-4.542-2.458l0,0
		C218.886,209.691,219.986,207.657,221.92,207.082z"/>
	<path fill="#EF9D75" d="M219.836,200.082l22.995-6.779l2.084,7.001l-22.995,6.778c-1.934,0.575-3.967-0.525-4.542-2.458l0,0
		C216.802,202.69,217.903,200.657,219.836,200.082z"/>
	<path fill="#EF9D75" d="M217.752,193.081l22.995-6.779l2.084,7.001l-22.995,6.779c-1.933,0.575-3.967-0.525-4.542-2.459l0,0
		C214.718,195.689,215.819,193.656,217.752,193.081z"/>
	
		<rect x="243.67" y="184.218" transform="matrix(-0.9585 0.2853 -0.2853 -0.9585 544.0715 311.3425)" fill="#F8B690" width="11.383" height="22.152"/>
	
		<rect x="245.25" y="195.063" transform="matrix(-0.9585 0.2853 -0.2853 -0.9585 548.68 321.2865)" fill="#EF9D75" width="11.383" height="11.076"/>
	
		<rect x="253.699" y="177.125" transform="matrix(-0.9584 0.2853 -0.2853 -0.9584 567.645 300.4071)" fill="#E6E7E8" width="16.485" height="28.849"/>
	
		<rect x="255.756" y="191.25" transform="matrix(-0.9584 0.2853 -0.2853 -0.9584 573.646 313.3581)" fill="#BCBEC0" width="16.485" height="14.425"/>
	<polygon fill="#EFA748" points="358.229,147.115 257.12,177.935 265.352,205.585 358.229,177.274 	"/>
	<polygon fill="#E89234" points="358.229,162.194 261.236,191.76 265.352,205.585 358.229,177.274 	"/>
	
		<rect x="260.976" y="171.834" transform="matrix(-0.9584 0.2853 -0.2853 -0.9584 577.5552 295.815)" fill="#F4BD4E" width="12.511" height="36.282"/>
	<g>
		<path fill="#F8B690" d="M198.492,202.464l4.811-16.162c1.151-3.866,5.218-6.067,9.084-4.917l0,0l-6.895,23.163
			c-0.576,1.933-2.609,3.033-4.542,2.458l0,0C199.017,206.431,197.917,204.396,198.492,202.464z"/>
		<path fill="#F8B690" d="M223.003,184.545l-1.459,4.902c-1.745,5.863-7.913,9.201-13.775,7.456l0,0l4.619-15.519L223.003,184.545z"
			/>
		<path fill="#F8B690" d="M233.968,218.293l-36.917-10.988l0,0c-1.151,3.866,1.051,7.934,4.917,9.084l14.558,4.333l15.359,4.572
			c1.933,0.575,3.967-0.525,4.542-2.459l0,0C237.002,220.902,235.901,218.868,233.968,218.293z"/>
		<path fill="#F8B690" d="M236.052,211.292l-36.917-10.988l-2.084,7.001l36.917,10.988c1.934,0.575,3.967-0.525,4.543-2.458l0,0
			C239.086,213.901,237.985,211.867,236.052,211.292z"/>
		<path fill="#F8B690" d="M238.136,204.291l-36.917-10.988l-2.084,7.001l36.917,10.988c1.934,0.575,3.967-0.525,4.542-2.458l0,0
			C241.17,206.9,240.069,204.867,238.136,204.291z"/>
		<path fill="#F8B690" d="M240.22,197.291l-36.917-10.989l-2.084,7.001l36.917,10.988c1.934,0.576,3.967-0.525,4.542-2.458l0,0
			C243.254,199.899,242.152,197.866,240.22,197.291z"/>
		<g>
			
				<rect x="188.996" y="184.218" transform="matrix(0.9585 0.2853 -0.2853 0.9585 63.7972 -47.4213)" fill="#F8B690" width="11.383" height="22.152"/>
			
				<rect x="187.416" y="195.063" transform="matrix(0.9585 0.2853 -0.2853 0.9585 65.2455 -46.7501)" fill="#EF9D75" width="11.383" height="11.076"/>
			
				<rect x="173.865" y="177.125" transform="matrix(0.9584 0.2853 -0.2853 0.9584 62.2155 -43.9931)" fill="#E6E7E8" width="16.485" height="28.849"/>
			
				<rect x="171.808" y="191.25" transform="matrix(0.9584 0.2853 -0.2853 0.9584 64.1021 -43.1188)" fill="#BCBEC0" width="16.485" height="14.425"/>
			<polygon fill="#5472D1" points="85.791,147.106 85.791,177.266 178.698,205.585 186.929,177.935 			"/>
			<polygon fill="#3459B7" points="85.791,162.186 85.791,177.266 178.698,205.585 182.813,191.76 			"/>
			
				<rect x="170.563" y="171.833" transform="matrix(0.9584 0.2853 -0.2853 0.9584 61.5467 -42.5496)" fill="#6B8BDB" width="12.511" height="36.282"/>
			<g>
				<circle fill="#FBB040" cx="151.079" cy="190.223" r="2.705"/>
				<circle fill="#FBB040" cx="160.813" cy="193.12" r="2.704"/>
			</g>
			<path fill="#F8B690" d="M228.549,186.195l-16.162-4.811c-3.867-1.15-7.934,1.051-9.084,4.917l0,0l23.162,6.895
				c1.934,0.575,3.967-0.525,4.542-2.458l0,0C231.583,188.805,230.482,186.771,228.549,186.195z"/>
			<path fill="#F8B690" d="M200.143,196.918l4.902,1.459c5.863,1.745,12.031-1.593,13.776-7.456l0,0l-15.518-4.619L200.143,196.918z
				"/>
		</g>
		<g>
			<path fill="#F8B690" d="M233.968,218.293l-5.27-1.568c-1.933-0.575-3.967,0.525-4.542,2.458l0,0
				c-0.575,1.934,0.525,3.967,2.459,4.543l5.27,1.568c1.933,0.575,3.967-0.525,4.542-2.459l0,0
				C237.002,220.902,235.901,218.868,233.968,218.293z"/>
			<path fill="#F8B690" d="M236.052,211.292l-5.27-1.568c-1.933-0.575-3.967,0.525-4.542,2.458l0,0
				c-0.575,1.934,0.525,3.968,2.458,4.543l5.27,1.568c1.934,0.575,3.967-0.525,4.543-2.458l0,0
				C239.086,213.901,237.985,211.867,236.052,211.292z"/>
			<path fill="#F8B690" d="M238.136,204.291l-5.27-1.568c-1.934-0.575-3.967,0.525-4.542,2.459l0,0
				c-0.575,1.933,0.525,3.967,2.458,4.542l5.27,1.568c1.934,0.575,3.967-0.525,4.542-2.458l0,0
				C241.17,206.9,240.069,204.867,238.136,204.291z"/>
			<path fill="#F8B690" d="M240.22,197.291l-5.27-1.568c-1.934-0.576-3.967,0.524-4.542,2.458l0,0
				c-0.576,1.934,0.524,3.967,2.458,4.542l5.27,1.568c1.934,0.576,3.967-0.525,4.542-2.458l0,0
				C243.254,199.899,242.152,197.866,240.22,197.291z"/>
		</g>
	</g>
	<path fill="#EF9D75" d="M215.5,186.195l16.162-4.811c3.866-1.15,7.934,1.051,9.085,4.917l0,0l-23.163,6.895
		c-1.933,0.575-3.967-0.525-4.542-2.458l0,0C212.467,188.805,213.567,186.771,215.5,186.195z"/>
	<path fill="#EF9D75" d="M243.907,196.918l-4.902,1.459c-5.863,1.745-12.031-1.593-13.776-7.456l0,0l15.519-4.619L243.907,196.918z"
		/>
	<g>
		<path fill="#EF9D75" d="M206.938,215.029l3.572-4.18c1.311-1.533,3.616-1.713,5.149-0.402l0,0
			c1.533,1.311,1.714,3.615,0.403,5.148l-3.572,4.18c-1.311,1.533-3.616,1.714-5.149,0.403l0,0
			C205.809,218.868,205.628,216.563,206.938,215.029z"/>
		<path fill="#EF9D75" d="M200.117,211.793l3.572-4.179c1.311-1.533,3.616-1.714,5.149-0.403l0,0
			c1.533,1.311,1.714,3.616,0.403,5.149l-3.572,4.179c-1.311,1.533-3.616,1.714-5.149,0.403l0,0
			C198.987,215.632,198.806,213.326,200.117,211.793z"/>
		<path fill="#EF9D75" d="M193.865,207.856l3.572-4.179c1.311-1.533,3.616-1.714,5.149-0.403l0,0
			c1.533,1.311,1.714,3.616,0.403,5.149l-3.573,4.18c-1.311,1.532-3.616,1.713-5.149,0.402l0,0
			C192.735,211.695,192.555,209.39,193.865,207.856z"/>
	</g>
	<path fill="#FED4D5" d="M290.52,194.136c0,0-1.606-0.368-1.827,1.067c-0.221,1.435-0.257,4.378,1.827,4.268
		C291.744,199.407,292.275,194.281,290.52,194.136z"/>
</g>
<g>
	<circle fill="#5472D1" cx="226.086" cy="42.436" r="13.374"/>
	<g>
		<g>
			<circle fill="#FFFFFF" cx="226.086" cy="42.435" r="5.098"/>
		</g>
		<path fill="#5472D1" d="M254.541,39.721c-0.003-0.223-0.188-0.403-0.413-0.403l-6.673-1.427c-0.194-0.92-0.444-1.812-0.749-2.682
			l4.956-4.691c0.193-0.113,0.255-0.363,0.143-0.558l-2.433-4.102c-0.115-0.193-0.365-0.255-0.559-0.141l-6.501,2.099
			c-0.617-0.692-1.281-1.335-1.984-1.94l1.949-6.549c0.107-0.195,0.041-0.441-0.156-0.555l-4.158-2.336
			c-0.195-0.107-0.443-0.037-0.554,0.156l-4.575,5.066c-0.875-0.286-1.775-0.516-2.694-0.688l-1.586-6.641
			c-0.003-0.225-0.188-0.406-0.412-0.404l-4.77,0.056c-0.223,0.005-0.403,0.191-0.4,0.413l-1.434,6.676
			c-0.916,0.193-1.808,0.441-2.677,0.747l-4.691-4.957c-0.116-0.191-0.363-0.256-0.557-0.141l-4.105,2.431
			c-0.192,0.115-0.255,0.365-0.14,0.558l2.097,6.503c-0.687,0.616-1.335,1.278-1.939,1.98l-6.549-1.945
			c-0.196-0.111-0.441-0.041-0.554,0.156l-2.335,4.156c-0.111,0.198-0.041,0.443,0.156,0.554l5.061,4.577
			c-0.283,0.875-0.514,1.775-0.686,2.696l-6.639,1.584c-0.225,0.001-0.405,0.185-0.402,0.41l0.056,4.771
			c0.002,0.223,0.187,0.402,0.412,0.398l6.673,1.435c0.195,0.916,0.446,1.81,0.75,2.68l-4.955,4.69
			c-0.194,0.113-0.259,0.365-0.145,0.556l2.434,4.104c0.116,0.194,0.363,0.259,0.557,0.143l6.5-2.101
			c0.62,0.688,1.284,1.337,1.985,1.942l-1.947,6.546c-0.111,0.196-0.041,0.447,0.154,0.554l4.159,2.336
			c0.196,0.111,0.442,0.041,0.554-0.154l4.576-5.063c0.875,0.284,1.775,0.512,2.694,0.687l1.586,6.64
			c0.002,0.223,0.188,0.404,0.411,0.4l4.77-0.055c0.224-0.002,0.403-0.186,0.402-0.408l1.431-6.678
			c0.917-0.194,1.81-0.443,2.679-0.747l4.691,4.955c0.115,0.192,0.363,0.258,0.557,0.141l4.104-2.431
			c0.192-0.113,0.257-0.365,0.143-0.558l-2.099-6.501c0.687-0.619,1.337-1.283,1.938-1.984l6.548,1.949
			c0.195,0.109,0.444,0.039,0.554-0.156l2.338-4.16c0.109-0.194,0.039-0.443-0.156-0.552l-5.063-4.575
			c0.285-0.875,0.513-1.775,0.686-2.694l6.641-1.589c0.225-0.002,0.404-0.188,0.402-0.41L254.541,39.721z M226.296,60.559
			c-10.008,0.118-18.217-7.904-18.334-17.914c-0.115-10.01,7.906-18.22,17.915-18.333c10.01-0.117,18.22,7.905,18.335,17.914
			C244.327,52.236,236.306,60.443,226.296,60.559z"/>
	</g>
</g>
<g>
	<circle fill="#3459B7" cx="301.982" cy="45.346" r="2.509"/>
	<circle fill="#3459B7" cx="299.474" cy="47.854" r="2.508"/>
	<circle fill="#3459B7" cx="301.716" cy="50.363" r="2.509"/>
	<circle fill="#3459B7" cx="305.598" cy="48.73" r="2.508"/>
	<circle fill="#3459B7" cx="305.821" cy="44.09" r="2.509"/>
	<circle fill="#3459B7" cx="309.747" cy="44.318" r="2.508"/>
	<circle fill="#3459B7" cx="312.693" cy="46.222" r="2.508"/>
	<circle fill="#3459B7" cx="312.94" cy="49.815" r="2.508"/>
	<g>
		<path fill="#F4BD4E" d="M302.897,64.434c0,0-1.394,9.884-3.941,14.396c-2.549,4.512-9.996,1.973-17.257-2.349l1.284-3.586
			c0,0,4.065,2.046,7.663,2.802c4.692,0.985,4.769-6.887,4.769-6.887s0.091-3.833,0.807-5.567
			C297.953,59.049,302.88,60.399,302.897,64.434z"/>
		<path fill="#0A3C5F" d="M307.161,89.717c0,0,1.806,11.272-7.837,8.57c-9.285-2.603-14.245-3.356-15.853,21.188l-4.416-0.352
			c0,0-1.84-23.847,3.906-28.831C288.707,85.309,307.161,89.717,307.161,89.717z"/>
		<path fill="#3459B7" d="M279.57,119.106c0,0-0.858,1.684-1.999,1.743c-1.142,0.059-4.333-0.116-4.587,0.935
			c-0.255,1.05,4.304,1.911,4.931,2.094c0.626,0.183,1.845-1.213,2.428-1.33s0.773,0.305,1.257,0.263
			c0.482-0.042,1.963-0.812,2.006-1.139s-0.6-2.424-0.6-2.424L279.57,119.106z"/>
		<g>
			<polygon fill="#EFA748" points="299.474,88.774 316.676,88.774 317.4,60.692 299.547,60.692 			"/>
			<rect x="295.457" y="88.761" fill="#0A3C5F" width="20.429" height="8.844"/>
			<path fill="#FED4D5" d="M307.731,87.114c-0.438,1.903-1.341-0.838-1.471-2.787c-0.13-1.948,1.492-2.064,3.441-2.194
				c1.947-0.129,1.763-0.596,2.483,1.246C313.129,85.791,308.188,85.138,307.731,87.114z"/>
		</g>
		<path fill="#0E4F77" d="M316.676,88.774c0,0,4.895,10.313-5.118,10.424c-9.644,0.106-14.616,0.773-9.274,24.784l-4.337,0.901
			c0,0-8.221-22.958-4.121-29.364C298.793,87.757,316.676,88.774,316.676,88.774z"/>
		<path fill="#3459B7" d="M298.435,124.722c0,0-0.351,1.857-1.431,2.233c-1.078,0.376-4.19,1.104-4.141,2.183
			c0.051,1.079,4.668,0.627,5.32,0.627s1.431-1.682,1.958-1.958c0.526-0.276,0.828,0.075,1.279-0.1
			c0.452-0.176,1.656-1.33,1.606-1.656c-0.051-0.327-1.255-2.158-1.255-2.158L298.435,124.722z"/>
		<path fill="#45ADAD" d="M301.462,89.719h11.758c0.376,0,0.681-0.305,0.681-0.681v-0.066c0-0.376-0.305-0.681-0.681-0.681h-11.758
			c-0.376,0-0.681,0.305-0.681,0.681v0.066C300.781,89.414,301.086,89.719,301.462,89.719z"/>
		<path fill="#45ADAD" d="M276.924,89.719h24.797c0.649,0,1.177-0.527,1.177-1.176V72.33c0-0.649-0.527-1.176-1.177-1.176h-24.797
			c-0.649,0-1.176,0.526-1.176,1.176v16.213C275.748,89.192,276.274,89.719,276.924,89.719z"/>
		<path fill="#62C1C5" d="M301.721,71.154h-13.574c0.649,0,1.176,0.526,1.176,1.176v16.213c0,0.649-0.526,1.176-1.176,1.176h13.574
			c0.649,0,1.177-0.527,1.177-1.176V72.33C302.897,71.68,302.37,71.154,301.721,71.154z"/>
		<path fill="#45ADAD" d="M301.721,71.154h-0.883c0.649,0,1.176,0.526,1.176,1.176v16.213c0,0.649-0.526,1.176-1.176,1.176h0.883
			c0.649,0,1.177-0.527,1.177-1.176V72.33C302.897,71.68,302.37,71.154,301.721,71.154z"/>
		<path fill="#F4BD4E" d="M320.136,62.051c0,0,5.528,8.311,6.623,13.376s-6.157,8.118-14.454,9.714l-1.424-3.533
			c0,0,4.397-1.173,7.588-3c4.161-2.382-1.014-8.314-1.014-8.314s-2.48-2.924-3.099-4.696
			C312.862,61.314,317.441,59.048,320.136,62.051z"/>
		<path fill="#FED4D5" d="M307.238,62.723L307.238,62.723c-0.782,0-1.417-0.634-1.417-1.417v-2.521h2.833v2.521
			C308.654,62.088,308.021,62.723,307.238,62.723z"/>
		<circle fill="#3459B7" cx="312.065" cy="53.438" r="2.508"/>
		<circle fill="#3459B7" cx="310.881" cy="54.951" r="2.509"/>
		<g>
			<path fill="#FED4D5" d="M301.555,49.942c0,0-0.057,3.956,0.893,7.078c0.828,2.723,3.899,4.229,6.423,2.914
				c0.989-0.515,1.869-1.45,2.283-3.095c0,0,2.283-1.047,2.429-3.025c0.15-2.036-2.07-1.468-2.311-0.094l-1.493-5.148l-2.986-0.062
				l-2.397,1.312L301.555,49.942z"/>
		</g>
		<path fill="#3459B7" d="M311.271,53.721c0,0-1.679-0.758-2.147-2.883c-0.47-2.125-5.989,1.131-8.887-0.442
			s-1.711-4.913,0.552-5.464c0,0-0.396,0.81,0.377,1.214c0.773,0.405,6.514-4.765,9.604-1.95c0,0,1.848,0.129,2.819,2.226
			c0.971,2.098-0.869,6.064-0.869,6.064S311.639,52.491,311.271,53.721z"/>
	</g>
</g>
<g>
	<g>
		<path fill="#0A3C5F" d="M92.728,259.835c0,0,0.352,1.856,1.431,2.233c1.079,0.376,3.053,1.104,3.003,2.183
			c-0.05,1.079-3.53,0.628-4.183,0.628s-3.826-0.513-3.775-0.839c0.05-0.327,0.109-4.625,0.109-4.625L92.728,259.835z"/>
		<path fill="#0A3C5F" d="M95.196,212.554c2.943,18.546-1.979,47.441-1.979,47.441h-4.337c0,0,1.094-27.859-0.746-40.664
			C86.294,206.525,93.834,203.026,95.196,212.554z"/>
		<rect x="81.08" y="212.54" fill="#0A3C5F" width="14.116" height="8.844"/>
		<path fill="#0A3C5F" d="M82.82,259.835c0,0,0.351,1.856,1.43,2.233c1.079,0.376,3.053,1.104,3.003,2.183
			c-0.05,1.079-3.53,0.628-4.182,0.628s-3.826-0.513-3.775-0.839c0.05-0.327,0.109-4.625,0.109-4.625L82.82,259.835z"/>
		<path fill="#0E4F77" d="M87.454,212.554c0.392,17.974-4.145,47.441-4.145,47.441h-4.337c0,0,1.5-22.5-0.431-35.292
			c-1.272-8.427-0.547-12.149-0.547-12.149C80.244,208.863,86.465,205.637,87.454,212.554z"/>
		<g>
			<path fill="#45ADAD" d="M91.772,188.213c0,0,1.393,9.883,3.941,14.396s9.996,1.974,17.256-2.349l-1.284-3.586
				c0,0-4.065,2.047-7.663,2.803c-4.693,0.984-4.769-6.887-4.769-6.887s-0.09-3.833-0.806-5.567
				C96.717,182.827,91.79,184.178,91.772,188.213z"/>
			<g>
				<polygon fill="#62C1C5" points="95.196,212.554 77.994,212.554 77.269,184.472 95.123,184.472 				"/>
				<path fill="#FED4D5" d="M90.636,184.472v1.393c0,1.813-1.471,3.284-3.284,3.284c-1.814,0-3.284-1.471-3.284-3.284v-1.393H90.636
					z"/>
				<path fill="#FED4D5" d="M86.938,210.893c0.438,1.903,1.341-0.838,1.471-2.786s-1.492-2.064-3.441-2.194
					c-1.947-0.129-1.762-0.597-2.483,1.245C81.541,209.57,86.481,208.917,86.938,210.893z"/>
			</g>
			<path fill="#45ADAD" d="M74.534,185.83c0,0-5.528,8.311-6.624,13.376c-1.095,5.065,6.157,8.118,14.454,9.715l1.424-3.533
				c0,0-4.397-1.173-7.588-3c-4.161-2.382,1.014-8.314,1.014-8.314s2.48-2.924,3.098-4.695
				C81.807,185.093,77.228,182.827,74.534,185.83z"/>
			<path fill="#FED4D5" d="M87.432,186.502L87.432,186.502c0.782,0,1.417-0.635,1.417-1.417v-2.521h-2.833v2.521
				C86.015,185.867,86.649,186.502,87.432,186.502z"/>
			<g>
				<path fill="#FED4D5" d="M93.115,173.721c0,0,0.056,3.956-0.894,7.078c-0.828,2.723-3.898,4.229-6.422,2.914
					c-0.989-0.515-1.869-1.45-2.283-3.095c0,0-2.283-1.047-2.429-3.024c-0.15-2.036,2.071-1.468,2.311-0.095l1.493-5.147
					l2.987-0.063l2.397,1.313L93.115,173.721z"/>
			</g>
			<path fill="#E89234" d="M83.398,177.499c0,0,1.678-0.758,2.147-2.883s5.989,1.132,8.887-0.441c6.54-4.16-6.705-9.67-10.533-6.2
				c0,0-1.848,0.129-2.819,2.226c-0.971,2.098,0.869,6.064,0.869,6.064S83.03,176.27,83.398,177.499z"/>
		</g>
	</g>
	
		<rect x="104.91" y="181.798" transform="matrix(-0.9704 -0.2414 0.2414 -0.9704 174.8889 403.9742)" fill="#FFFFFF" width="14.55" height="18.957"/>
	<path fill="#FED4D5" d="M119.682,191.275c0,0,1.149,0.489,0.907,1.848c-0.41,2.29-0.841,3.096-2.104,2.964s-0.564-2.173-0.38-3.038
		C118.289,192.185,118.481,190.606,119.682,191.275z"/>
</g>
<g>
	<g>
		<path fill="#0A3C5F" d="M282.528,259.835c0,0,0.351,1.856,1.431,2.233c1.079,0.376,3.053,1.104,3.003,2.183
			c-0.051,1.079-3.53,0.628-4.183,0.628s-3.826-0.513-3.775-0.839c0.05-0.327,0.109-4.625,0.109-4.625L282.528,259.835z"/>
		<path fill="#0A3C5F" d="M284.996,212.554c2.943,18.546-1.979,47.441-1.979,47.441h-4.337c0,0,1.094-27.859-0.745-40.664
			C276.095,206.525,283.635,203.026,284.996,212.554z"/>
		<rect x="270.881" y="212.54" fill="#0A3C5F" width="14.115" height="8.844"/>
		<path fill="#0A3C5F" d="M272.621,259.835c0,0,0.351,1.856,1.43,2.233c1.079,0.376,3.054,1.104,3.003,2.183
			c-0.05,1.079-3.529,0.628-4.182,0.628s-3.826-0.513-3.775-0.839c0.05-0.327,0.109-4.625,0.109-4.625L272.621,259.835z"/>
		<path fill="#0E4F77" d="M277.938,212.54c0.241,15.114-4.829,47.455-4.829,47.455h-4.337c0,0,1.501-22.5-0.431-35.292
			c-1.272-8.427-0.548-12.149-0.548-12.149C270.045,208.863,276.95,205.622,277.938,212.54z"/>
		<g>
			<g>
				<polygon fill="#5472D1" points="284.996,212.554 267.794,212.554 267.069,184.472 284.924,184.472 				"/>
				<path fill="#0A3C5F" d="M273.948,184.472v1.393c0,1.813,1.47,3.284,3.283,3.284c1.814,0,3.284-1.471,3.284-3.284v-1.393H273.948
					z"/>
			</g>
			<path fill="#FED4D5" d="M277.231,186.502L277.231,186.502c0.783,0,1.417-0.635,1.417-1.417v-2.521h-2.833v2.521
				C275.815,185.867,276.449,186.502,277.231,186.502z"/>
			<g>
				<path fill="#FED4D5" d="M282.916,173.721c0,0,0.056,3.956-0.894,7.078c-0.828,2.723-3.898,4.229-6.423,2.914
					c-0.989-0.515-1.869-1.45-2.283-3.095c0,0-2.282-1.047-2.429-3.024c-0.15-2.036,2.071-1.468,2.311-0.095l1.493-5.147
					l2.986-0.063l2.397,1.313L282.916,173.721z"/>
			</g>
			<path fill="#3459B7" d="M273.198,177.499c0,0,1.679-0.758,2.147-2.883c0.47-2.125,5.989,1.132,8.887-0.441
				c2.898-1.573,1.711-4.913-0.552-5.465c0,0,0.396,0.81-0.377,1.215c-0.772,0.404-6.514-4.766-9.604-1.95
				c0,0-1.848,0.129-2.818,2.226c-0.972,2.098,0.868,6.064,0.868,6.064S272.831,176.27,273.198,177.499z"/>
		</g>
	</g>
	<path fill="#3459B7" d="M266.785,184.438c0,0,4.498-0.039,4.119,5.702c-0.379,5.74-2.362,11.254-1.039,11.465
		c1.323,0.212,7.742-2.196,8.944-2.343c1.202-0.146,3.62,1.644,1.008,3.189c-2.612,1.545-9.349,6.212-12.804,6.447
		s-4.238-4.795-4.327-13.582C262.598,186.53,264.532,184.527,266.785,184.438z"/>
	<path fill="#3459B7" d="M284.924,184.472c0,0,2.92,4.578,3.312,8.878c0.393,4.299-3.402,1.944-3.402,1.944L284.924,184.472z"/>
	<rect x="279.092" y="189.894" fill="#FFFFFF" width="11.423" height="14.945"/>
	<rect x="279.092" y="189.894" fill="#D1D3D4" width="1.329" height="14.945"/>
</g>
<g>
	<g>
		<path fill="#0E4F77" d="M146.093,172.013c0,0-1.876,0.551-1.839,2.979s2.649,9.678,2.134,13.946s9.972,1.361,9.972,1.361
			l4.176-3.232c0,0-0.762-3.492,0.46-7.476C163.199,172.412,154.74,164.837,146.093,172.013z"/>
		<path fill="#0A3C5F" d="M147.188,259.835c0,0-0.352,1.856-1.43,2.233c-1.079,0.376-3.053,1.104-3.003,2.183
			c0.05,1.079,3.53,0.628,4.183,0.628s3.826-0.513,3.775-0.839c-0.05-0.327-0.109-4.625-0.109-4.625L147.188,259.835z"/>
		<path fill="#0E4F77" d="M146.8,210.655c-4.046,18.282-0.101,49.34-0.101,49.34h4.337c0,0-0.41-26.502,2.373-42.678
			C155.603,204.567,148.813,202.241,146.8,210.655z"/>
		<rect x="147.602" y="210.655" fill="#0E4F77" width="11.233" height="8.844"/>
		<path fill="#0A3C5F" d="M157.095,259.835c0,0-0.351,1.856-1.43,2.233c-1.079,0.376-3.053,1.104-3.003,2.183
			s3.53,0.628,4.182,0.628s3.826-0.513,3.775-0.839c-0.05-0.327-0.109-4.625-0.109-4.625L157.095,259.835z"/>
		<path fill="#0E4F77" d="M153.004,210.179c-0.186,19.687,3.602,49.816,3.602,49.816h4.337c0,0-1.5-24.385,0.431-37.177
			c1.272-8.427-1.203-12.149-1.203-12.149C157.922,206.979,153.993,203.261,153.004,210.179z"/>
		<g>
			<path fill="#FED4D5" d="M149.527,190.399c0,0-3.75,7.161-7.694,10.522c-3.945,3.361-9.473-0.488-15.329-6.506l1.66-2.318
				c0,0,3.44,3.281,6.619,5.13c4.148,2.413,7.519-4.524,7.519-4.524s1.403-3.568,2.671-4.95
				C148.041,184.409,151.437,187.307,149.527,190.399z"/>
			<path fill="#E89234" d="M146.8,210.655c0,0,15.05,0.014,13.372,0.014c-1.336-8.999,0.423-13.162,0.861-15.567
				c0.776-4.26,0.331-6.503,0.331-6.503c0.027-1.646-2.085-2.338-3.733-2.338c0,0-9.486,0-10.204,0
				c0.441,3.542-2.683,8.591-0.627,11.42C149.111,200.86,146.8,210.655,146.8,210.655z"/>
			<path fill="#FED4D5" d="M161.764,188.704c0,0,2.427,7.71,2.023,12.877s-7.033,6.365-15.429,6.267l-0.471-2.813
				c0,0,4.752-0.121,8.305-1.067c4.638-1.235,2.103-8.52,2.103-8.52s-1.538-3.512-1.622-5.387
				C156.471,185.528,160.92,185.167,161.764,188.704z"/>
		</g>
		<path fill="#FED4D5" d="M152.484,188.291L152.484,188.291c-0.782,0-1.417-0.635-1.417-1.417v-2.521h2.833v2.521
			C153.901,187.656,153.267,188.291,152.484,188.291z"/>
		<g>
			<path fill="#FED4D5" d="M143.468,209.037c-0.965,1.697-1.044-1.188-0.61-3.091c0.434-1.904,2.021-1.55,3.926-1.116
				c1.903,0.435,1.859-0.065,2.022,1.905C149.018,209.317,144.472,207.275,143.468,209.037z"/>
		</g>
		<path fill="#FED4D5" d="M157.709,178.078c-0.854,0.258-1.112,0.934-1.173,1.143c-0.005,0.023-0.014,0.045-0.019,0.068
			c-6.668,1.076-9.717-3.778-9.717-3.778s-0.056,3.956,0.893,7.077c0.828,2.723,3.899,4.229,6.423,2.915
			c0.989-0.516,1.869-1.45,2.283-3.096c0,0,2.283-1.047,2.429-3.024C158.908,178.299,158.316,177.958,157.709,178.078z"/>
		<path fill="#EFA748" d="M138.555,204.438l-12.954,0.747c-0.435,0.025-0.807-0.307-0.832-0.741l-1.001-17.354
			c-0.025-0.434,0.307-0.807,0.741-0.831l12.954-0.748c0.434-0.024,0.807,0.307,0.832,0.741l1.001,17.354
			C139.321,204.04,138.989,204.412,138.555,204.438z"/>
		<path fill="#FFFFFF" d="M137.214,203.372l-10.404,0.601c-0.435,0.025-0.807-0.307-0.832-0.741l-0.889-15.414
			c-0.025-0.435,0.307-0.807,0.741-0.832l10.404-0.601c0.434-0.024,0.807,0.307,0.832,0.741l0.89,15.415
			C137.98,202.975,137.648,203.348,137.214,203.372z"/>
		
			<rect x="128.352" y="185.305" transform="matrix(0.9983 -0.0575 0.0575 0.9983 -10.4998 7.8435)" fill="#0A3C5F" width="5.228" height="1.926"/>
		
			<rect x="129.419" y="184.677" transform="matrix(0.9983 -0.0575 0.0575 0.9983 -10.4312 7.8246)" fill="#0E4F77" width="2.872" height="1.27"/>
	</g>
	<path fill="#FED4D5" d="M124.744,194.301c0,0-1.336,0.229-1.344,1.612c-0.013,2.334,0.293,3.218,1.68,3.363
		c1.387,0.146,1.039-2.007,1.012-2.895S126.171,193.906,124.744,194.301z"/>
</g>
<g>
	<g>
		<rect x="342.766" y="68.737" fill="#EFA748" width="4.492" height="9.583"/>
		<rect x="350.252" y="64.247" fill="#EFA748" width="4.491" height="14.074"/>
		<rect x="358.637" y="60.652" fill="#EFA748" width="4.492" height="17.668"/>
		<path fill="#EFA748" d="M362.9,55.095l1.313-7.468l-7.469,1.675l2.306,2.169l-6.494,6.751l-3.216-2.885l-8.638,8.86
			c-0.366,0.375-0.358,0.975,0.018,1.34l0,0c0.374,0.365,0.975,0.357,1.34-0.018l7.367-7.56l3.227,2.892l7.775-8.083L362.9,55.095z"
			/>
	</g>
	<rect x="338.175" y="78.32" fill="#EFA748" width="29.099" height="2.082"/>
</g>
<path fill="#45ADAD" d="M259.306,134.721L259.306,134.721c-1.127-1.127-2.954-1.127-4.081,0l-22.592,22.591l-9.227-9.228
	c-1.127-1.127-2.954-1.127-4.081,0l0,0c-1.127,1.127-1.127,2.954,0,4.081l9.227,9.228l4.081,4.081l4.082-4.081l0,0l22.591-22.591
	C260.433,137.675,260.433,135.848,259.306,134.721z"/>
<g>
	<g>
		<g>
			<path fill="none" stroke="#8CB0EA" stroke-width="2" stroke-miterlimit="10" d="M73.167,106.807c0,0-0.656-0.655-1.636-1.885"/>
			<path fill="none" stroke="#8CB0EA" stroke-width="2" stroke-miterlimit="10" stroke-dasharray="4.9364,4.9364" d="
				M68.711,100.878c-4.561-7.467-9.825-21.372-0.911-38.156c18.787-35.373,62.361-28.502,76.453-8.259
				c26.42,37.953,50.512,71.209,87.535,48.471"/>
			<path fill="none" stroke="#8CB0EA" stroke-width="2" stroke-miterlimit="10" d="M233.875,101.602
				c0.683-0.452,1.37-0.923,2.063-1.414"/>
		</g>
	</g>
	<g>
		<g>
			<polygon fill="#D4E1FF" points="245.951,97.83 263.397,76.684 230.043,89.131 			"/>
		</g>
		<g>
			<polygon fill="#A6C0F4" points="236.629,92.733 238.141,99.897 238.609,93.816 263.397,76.684 			"/>
		</g>
		<g>
			<polygon fill="#8CB0EA" points="238.141,99.897 242.477,95.93 238.609,93.816 			"/>
		</g>
	</g>
</g>
<g>
	<path fill="none" stroke="#8CB0EA" stroke-width="2" stroke-miterlimit="10" stroke-dasharray="5" d="M359.778,123.894
		c0,0,58.303-17.705,44.778-61.171c-17.242-55.416-81.374-10.291-118.215-34.49"/>
	<g>
		<g>
			<polygon fill="#D4E1FF" points="278.531,27.77 261.085,6.623 294.439,19.071 			"/>
		</g>
		<g>
			<polygon fill="#A6C0F4" points="287.854,22.673 286.342,29.837 285.873,23.755 261.085,6.623 			"/>
		</g>
		<g>
			<polygon fill="#8CB0EA" points="286.342,29.837 282.006,25.87 285.873,23.755 			"/>
		</g>
	</g>
</g>
<path fill="#FFFFFF" d="M90.87,232.666c-1.689-1.655-4.086-4.042-7.105-6.754c-3.019-2.71-6.566-5.854-10.558-8.995
	c-3.989-3.143-8.363-6.356-12.951-9.271c-2.31-1.431-4.681-2.773-7.087-3.962c-2.394-1.215-4.896-2.148-7.253-3.032
	c-2.387-0.88-4.754-1.612-7.002-2.226c-2.254-0.612-4.414-1.08-6.419-1.445c-2.014-0.327-3.872-0.553-5.529-0.608
	c-1.654-0.097-3.102-0.024-4.285,0.065c-0.134,0.013-0.264-0.123-0.392-0.36l-0.051,0.088c0.148,0.338,0.302,0.536,0.46,0.529
	c1.175-0.024,2.605-0.018,4.232,0.168c1.63,0.147,3.45,0.477,5.426,0.85c1.968,0.427,4.084,0.96,6.291,1.64
	c2.211,0.681,4.49,1.498,6.854,2.373c2.374,0.921,4.772,1.846,7.113,3.066c2.349,1.192,4.67,2.541,6.937,3.981
	c4.565,2.83,8.946,5.972,12.947,9.054c3.997,3.086,7.691,6.027,10.774,8.648c3.089,2.615,5.659,4.804,7.42,6.38
	c1.766,1.573,2.774,2.472,2.774,2.472S92.547,234.336,90.87,232.666z"/>
</svg>
