<?xml version="1.0" encoding="utf-8"?>
<!-- Generator: Adobe Illustrator 16.0.0, SVG Export Plug-In . SVG Version: 6.00 Build 0)  -->
<!DOCTYPE svg PUBLIC "-//W3C//DTD SVG 1.1//EN" "http://www.w3.org/Graphics/SVG/1.1/DTD/svg11.dtd">
<svg version="1.1" id="Layer_1" xmlns="http://www.w3.org/2000/svg" xmlns:xlink="http://www.w3.org/1999/xlink" x="0px" y="0px"
	 width="609.061px" height="507.051px" viewBox="0 0 609.061 507.051" enable-background="new 0 0 609.061 507.051"
	 xml:space="preserve">
<g>
	<path fill-rule="evenodd" clip-rule="evenodd" fill="#00CE9B" d="M49.797,443.407c0-124.055,0-248.109,0-372.164
		c1.486-3.497,2.659-7.17,4.521-10.454c4.671-8.234,12.362-12.504,21.117-15.184c124.055,0,248.108,0,372.163,0
		c0.743,0.295,1.466,0.663,2.23,0.874c13.316,3.69,23.38,16.122,23.382,29.095c0.016,120.693,0.021,241.385-0.004,362.077
		c-0.004,17.266-14.012,31.355-31.208,31.361c-120.279,0.029-240.559,0.023-360.837,0.004c-13.497-0.002-25.338-8.66-29.739-21.533
		C50.949,446.102,50.342,444.764,49.797,443.407z M63.891,144.792c0,1.886,0,3.249,0,4.61
		c-0.002,95.496-0.015,190.993,0.009,286.489c0.003,11.602,7.572,19.055,19.233,19.057c118.922,0.012,237.845,0.012,356.77-0.004
		c11.882,0,19.234-7.459,19.235-19.449c0.012-94.119,0.007-188.236,0.007-282.354c0-2.715,0-5.433,0-8.349
		C327.254,144.792,195.851,144.792,63.891,144.792z M63.934,129.741c131.975,0,263.459,0,395.132,0
		c0-17.731,0.115-35.085-0.068-52.436c-0.057-5.256-2.218-9.861-6.41-13.342c-4.299-3.57-9.372-4.235-14.707-4.233
		c-117.97,0.027-235.94,0.034-353.911,0.044c-12.699,0.001-20,7.275-20.005,19.931c-0.006,14.057-0.021,28.114-0.031,42.171
		C63.933,124.458,63.934,127.037,63.934,129.741z"/>
	<path fill-rule="evenodd" clip-rule="evenodd" fill="#00CE9B" d="M261.313,292.773c-34.321,0-68.641,0.003-102.959-0.003
		c-7.544-0.001-9.907-2.343-9.932-9.846c-0.026-7.718-0.052-15.438-0.01-23.155c0.04-7.199,2.501-9.686,9.727-9.688
		c50.997-0.022,101.994-0.012,152.991-0.008c17.919,0,35.836-0.002,53.754,0.019c7.218,0.008,9.699,2.484,9.724,9.659
		c0.027,7.856,0.054,15.712,0.023,23.569c-0.025,6.888-2.616,9.47-9.533,9.472c-34.595,0.017-69.19,0.008-103.785,0.008
		C261.313,292.791,261.313,292.782,261.313,292.773z M163.108,278.056c65.873,0,131.251,0,196.671,0c0-4.603,0-8.908,0-13.218
		c-65.737,0-131.117,0-196.671,0C163.108,269.317,163.108,273.522,163.108,278.056z"/>
	<path fill-rule="evenodd" clip-rule="evenodd" fill="#00CE9B" d="M261.302,349.124c-34.454,0-68.908,0.01-103.361-0.008
		c-7.268-0.004-9.512-2.344-9.52-9.744c-0.01-7.857-0.024-15.713,0.004-23.568c0.024-6.614,2.401-9.081,8.894-9.084
		c54.298-0.027,108.595-0.029,162.894-0.036c14.883-0.001,29.767,0.022,44.65,0.014c7.44-0.005,9.789,2.36,9.779,9.937
		c-0.01,7.441-0.017,14.885-0.03,22.326c-0.014,7.988-2.119,10.139-9.948,10.139c-34.454,0.004-68.909,0.002-103.361,0.002
		C261.302,349.108,261.302,349.116,261.302,349.124z M163.118,334.69c65.911,0,131.276,0,196.797,0c0-4.623,0-8.967,0-13.492
		c-65.699,0-131.178,0-196.797,0C163.118,325.793,163.118,330.135,163.118,334.69z"/>
	<path fill-rule="evenodd" clip-rule="evenodd" fill="#00CE9B" d="M261.364,419.645c-16.539,0-33.081,0.148-49.619-0.055
		c-10.14-0.123-18.534-7.23-20.435-16.654c-1.943-9.629,2.605-19.262,11.438-23.408c2.664-1.25,5.779-2.146,8.69-2.16
		c33.494-0.15,66.987-0.162,100.479-0.064c10.896,0.031,19.819,9.344,20.194,20.592c0.366,10.967-7.9,21.135-18.66,21.443
		c-17.35,0.5-34.725,0.135-52.088,0.135C261.364,419.53,261.364,419.588,261.364,419.645z M261.531,405.424
		c5.923,0,11.846,0.002,17.769,0c10.47-0.002,20.938,0.055,31.405-0.037c4.165-0.035,6.917-2.715,7.111-6.508
		c0.193-3.758-2.347-6.768-6.322-7.377c-1.079-0.166-2.199-0.102-3.301-0.102c-31.403,0-62.808,0.002-94.213,0.012
		c-5.548,0.002-8.792,2.633-8.771,7.068c0.022,4.541,3.03,6.936,8.801,6.939C229.851,405.43,245.69,405.424,261.531,405.424z"/>
	<path fill-rule="evenodd" clip-rule="evenodd" fill="#00CE9B" d="M261.058,222.103c-34.578,0-69.16-0.128-103.737,0.111
		c-6.767,0.047-10.499-5.628-8.063-10.39c1.743-3.405,4.808-4.075,8.361-4.067c26.176,0.05,52.353,0.007,78.528,0.008
		c42.982,0.001,85.968,0.028,128.952-0.012c3.341-0.002,6.359,0.404,8.289,3.478c3.134,4.995-0.212,10.72-6.527,10.824
		c-10.191,0.167-20.39,0.082-30.583,0.084c-25.074,0.007-50.147,0.002-75.22,0.002C261.058,222.128,261.058,222.116,261.058,222.103
		z"/>
	<path fill-rule="evenodd" clip-rule="evenodd" fill="#00CE9B" d="M261.294,193.804c-22.876,0-45.753-0.02-68.629,0.02
		c-3.521,0.005-6.592-0.567-8.197-4.202c-2.195-4.962,1.295-9.936,7.197-9.971c13.367-0.08,26.735-0.045,40.104-0.046
		c32.247-0.003,64.494,0,96.741,0c0.553,0,1.103-0.006,1.654-0.002c5.764,0.036,9.144,2.747,9.058,7.263
		c-0.084,4.448-3.266,6.969-8.888,6.97c-23.014,0.01-46.026,0.004-69.04,0.004C261.294,193.828,261.294,193.816,261.294,193.804z"/>
	<path fill-rule="evenodd" clip-rule="evenodd" fill="#00CE9B" d="M155.735,73.762c4.402-0.006,8.807-0.039,13.212,0.003
		c4.88,0.047,7.921,2.675,8.01,7.479c0.168,9.217,0.148,18.441-0.02,27.659c-0.08,4.45-2.856,7.188-7.34,7.266
		c-9.216,0.159-18.439,0.179-27.656,0.015c-4.912-0.088-7.571-2.961-7.616-7.865c-0.082-8.807-0.082-17.615,0.012-26.422
		c0.058-5.433,2.785-8.06,8.186-8.118C146.925,73.73,151.331,73.769,155.735,73.762z M162.373,88.311c-4.747,0-9.025,0-13.299,0
		c0,4.677,0,8.987,0,13.297c4.607,0,8.911,0,13.299,0C162.373,97.063,162.373,92.837,162.373,88.311z"/>
	<path fill-rule="evenodd" clip-rule="evenodd" fill="#00CE9B" d="M99.381,73.77c4.401,0,8.804-0.053,13.203,0.014
		c5.033,0.077,7.705,2.532,7.791,7.577c0.156,9.075,0.183,18.155,0.033,27.229c-0.082,4.992-2.729,7.561-7.796,7.636
		c-8.938,0.133-17.88,0.105-26.817-0.03c-5.302-0.08-7.784-2.702-7.819-7.971c-0.059-8.664-0.067-17.329-0.016-25.993
		c0.034-5.931,2.599-8.412,8.632-8.473c4.264-0.044,8.527-0.009,12.79-0.009C99.381,73.757,99.381,73.764,99.381,73.77z
		 M105.797,101.699c0-4.752,0-9.066,0-13.458c-4.63,0-8.937,0-13.394,0c0,4.611,0,8.921,0,13.458
		C96.988,101.699,101.308,101.699,105.797,101.699z"/>
	<path fill-rule="evenodd" clip-rule="evenodd" fill="#00CE9B" d="M233.374,95.228c0,4.402,0.043,8.804-0.011,13.205
		c-0.063,4.921-2.678,7.727-7.622,7.788c-9.076,0.114-18.158,0.111-27.234-0.031c-5.012-0.079-7.51-2.661-7.58-7.792
		c-0.125-8.939-0.132-17.882,0.001-26.82c0.078-5.261,2.754-7.762,8.009-7.794c8.804-0.053,17.608-0.061,26.41,0.002
		c5.36,0.037,7.948,2.756,7.998,8.237c0.039,4.402,0.008,8.803,0.008,13.205C233.359,95.228,233.367,95.228,233.374,95.228z
		 M205.354,101.717c4.67,0,8.996,0,13.47,0c0-4.633,0-9.049,0-13.451c-4.682,0-9.001,0-13.47,0
		C205.354,92.817,205.354,97.047,205.354,101.717z"/>
</g>
<g>
	<circle fill-rule="evenodd" clip-rule="evenodd" fill="#FFFFFF" cx="489.867" cy="285.648" r="78.5"/>
	<path fill="#68DB5C" d="M568.367,285.648h-4.5c-0.002,20.449-8.275,38.92-21.674,52.326
		c-13.406,13.398-31.877,21.672-52.326,21.674c-20.449-0.002-38.92-8.275-52.326-21.674c-13.398-13.406-21.672-31.877-21.674-52.326
		c0.002-20.449,8.275-38.92,21.674-52.326c13.406-13.398,31.877-21.671,52.326-21.674c20.449,0.002,38.92,8.276,52.326,21.674
		c13.398,13.406,21.672,31.877,21.674,52.326H568.367h4.5c0.002-22.905-9.297-43.685-24.311-58.69
		c-15.006-15.013-35.784-24.313-58.689-24.31c-22.905-0.002-43.685,9.297-58.689,24.31c-15.014,15.005-24.313,35.785-24.311,58.69
		c-0.002,22.905,9.297,43.684,24.311,58.689c15.005,15.014,35.783,24.313,58.689,24.311c22.905,0.002,43.684-9.297,58.689-24.311
		c15.014-15.006,24.313-35.784,24.311-58.689H568.367z"/>
</g>
<g>
	<path fill="#68DB5C" d="M495.6,254.525v25.507h24.454v10.998H495.6v25.741h-11.466V291.03H459.68v-10.998h24.454v-25.507H495.6z"/>
</g>
</svg>
