<?xml version="1.0" encoding="utf-8"?>
<!-- Generator: Adobe Illustrator 16.0.0, SVG Export Plug-In . SVG Version: 6.00 Build 0)  -->
<!DOCTYPE svg PUBLIC "-//W3C//DTD SVG 1.1//EN" "http://www.w3.org/Graphics/SVG/1.1/DTD/svg11.dtd">
<svg version="1.1" id="Layer_1" xmlns="http://www.w3.org/2000/svg" xmlns:xlink="http://www.w3.org/1999/xlink" x="0px" y="0px"
	 width="609.061px" height="507.051px" viewBox="0 0 609.061 507.051" enable-background="new 0 0 609.061 507.051"
	 xml:space="preserve">
<g>
	<path fill-rule="evenodd" clip-rule="evenodd" fill="#00CE9B" d="M212.023,126.747c0-9.33-0.024-18.114,0.005-26.898
		c0.057-17.064,4.274-32.866,13.884-47.171c17.975-26.757,52.235-40.366,83.54-32.996c33.023,7.774,57.612,33.978,61.425,66.408
		c1.257,10.7,0.81,21.601,1.111,32.411c0.069,2.487,0.01,4.979,0.01,8.253c2.366,0,4.462,0,6.559,0
		c22.328-0.001,44.656,0.021,66.984-0.011c12.625-0.019,23.099,4.782,29.369,15.689c3.267,5.684,4.912,12.743,5.653,19.364
		c4.743,42.362,8.989,84.781,13.48,127.172c4.807,45.373,9.767,90.73,14.51,136.11c0.928,8.88,2.702,18.06,1.415,26.704
		c-2.688,18.049-16.193,28.381-34.825,28.417c-42.657,0.085-85.314,0.047-127.971,0.049c-79.149,0.003-158.297-0.011-237.446,0.005
		c-19.835,0.004-34.692-11.563-36.295-29.76c-0.734-8.328,0.954-16.902,1.827-25.335c4.203-40.58,8.469-81.154,12.777-121.724
		c3.815-35.933,7.725-71.855,11.574-107.784c1.401-13.081,2.663-26.178,4.142-39.251c1.896-16.747,15.44-29.289,32.377-29.493
		c23.158-0.279,46.321-0.128,69.482-0.16C207.565,126.745,209.521,126.747,212.023,126.747z M212.007,140.94
		c-26.08,0-51.401-0.177-76.717,0.096c-8.935,0.096-16.426,7.652-17.477,16.937c-2.192,19.362-4.116,38.754-6.188,58.131
		c-4.196,39.246-8.436,78.488-12.625,117.735c-3.923,36.764-7.753,73.537-11.735,110.294c-1.201,11.085,6.432,20.99,17.541,22.025
		c4.306,0.401,8.654,0.482,12.982,0.479c96.159-0.077,192.318-0.191,288.477-0.286c23.332-0.022,46.664,0.089,69.995-0.039
		c13.181-0.072,21.635-9.72,20.391-22.859c-0.393-4.146-0.816-8.29-1.252-12.432c-3.492-33.124-6.979-66.25-10.49-99.372
		c-3.159-29.811-6.357-59.616-9.515-89.426c-2.877-27.163-5.86-54.315-8.523-81.499c-1.206-12.301-8.741-19.79-21.198-19.833
		c-23.165-0.079-46.33-0.037-69.495-0.023c-1.273,0-2.546,0.204-4.197,0.346c0,13.946,0.038,27.579-0.021,41.211
		c-0.021,4.912-2.84,8.147-6.857,8.202c-4.032,0.055-7.018-3.174-7.085-8.044c-0.11-7.998-0.034-15.998-0.035-23.997
		c0-5.775,0-11.551,0-17.32c-44.316,0-88.019,0-132.027,0c0,2.39,0,4.372,0,6.355c0.004,11.832,0.033,23.665-0.001,35.497
		c-0.012,4.323-2.359,6.928-6.534,7.488c-3.688,0.495-7.005-2.94-7.354-7.248c-0.134-1.657-0.059-3.331-0.06-4.998
		C212.005,166.063,212.007,153.768,212.007,140.94z M224.791,126.358c45.254,0,89.065,0,133.195,0
		c0-10.312,0.215-20.294-0.039-30.265c-0.91-35.854-29.236-63.757-65.073-64.277c-30.126-0.438-57.265,19.147-63.985,48.573
		C225.532,95.089,226.06,110.676,224.791,126.358z"/>
</g>
<g>
	<circle fill-rule="evenodd" clip-rule="evenodd" fill="#FFFFFF" cx="496.568" cy="302.031" r="78.5"/>
	<path fill="#68DB5C" d="M575.068,302.031h-4.5c-0.002,20.449-8.275,38.92-21.674,52.326
		c-13.406,13.398-31.877,21.672-52.326,21.674c-20.449-0.002-38.92-8.275-52.326-21.674c-13.398-13.406-21.672-31.877-21.674-52.326
		c0.002-20.449,8.275-38.92,21.674-52.326c13.406-13.398,31.877-21.672,52.326-21.674c20.449,0.002,38.92,8.275,52.326,21.674
		c13.398,13.406,21.672,31.877,21.674,52.326H575.068h4.5c0.002-22.905-9.297-43.685-24.311-58.689
		c-15.006-15.014-35.784-24.313-58.689-24.311c-22.905-0.002-43.685,9.297-58.689,24.311
		c-15.014,15.005-24.313,35.784-24.311,58.689c-0.002,22.905,9.297,43.684,24.311,58.689c15.005,15.014,35.783,24.313,58.689,24.311
		c22.905,0.002,43.684-9.297,58.689-24.311c15.014-15.006,24.313-35.784,24.311-58.689H575.068z"/>
</g>
<path fill-rule="evenodd" clip-rule="evenodd" fill="#68DB5C" d="M482.255,335.651c-2.708,0-5.008,0.035-7.306-0.01
	c-2.397-0.047-3.835-1.334-3.816-3.314c0.018-1.943,1.502-3.276,3.866-3.338c2.301-0.061,4.605-0.014,7.086-0.014
	c0-19.879,0-39.638,0-59.785c-2.163,0-4.43,0.019-6.697-0.004c-2.683-0.028-4.276-1.332-4.252-3.434
	c0.023-2.025,1.515-3.216,4.126-3.261c2.066-0.035,4.134-0.037,6.201-0.064c0.148-0.002,0.296-0.081,0.803-0.229
	c0-2.161-0.017-4.43,0.004-6.699c0.024-2.681,1.333-4.353,3.361-4.345c2.025,0.008,3.294,1.663,3.316,4.373
	c0.019,2.212,0.004,4.423,0.004,6.796c4.46,0,8.704,0,13.268,0c0-2.409-0.029-4.767,0.008-7.124c0.038-2.476,1.428-4.102,3.38-4.045
	c1.896,0.056,3.226,1.605,3.28,3.967c0.054,2.374,0.012,4.75,0.012,7.238c9.178,1.361,15.727,6.007,18.122,15.038
	c2.354,8.87-0.928,16.043-8.049,21.64c7.301,5.872,10.521,13.217,7.789,22.365c-2.567,8.601-8.812,13.07-17.859,14.346
	c0,2.329,0.024,4.691-0.007,7.052c-0.033,2.545-1.296,4.14-3.262,4.202c-2.086,0.065-3.392-1.534-3.418-4.238
	c-0.021-2.223-0.004-4.445-0.004-6.888c-4.417,0-8.716,0-13.264,0c0,2.439,0.024,4.806-0.007,7.172
	c-0.031,2.38-1.284,3.896-3.204,3.962c-2.012,0.07-3.431-1.514-3.471-3.967C482.225,340.677,482.255,338.308,482.255,335.651z
	 M489.062,328.956c6.2,0,12.287,0.007,18.374-0.007c0.871-0.002,1.755-0.023,2.611-0.169c6.381-1.082,10.927-6.536,10.945-13.087
	c0.017-6.415-4.505-12.421-10.729-12.901c-6.996-0.54-14.066-0.124-21.2-0.124C489.062,311.466,489.062,320.081,489.062,328.956z
	 M489.064,295.561c6.468,0,12.656,0.016,18.845-0.004c6.808-0.021,12.475-5.13,13.037-11.717c0.611-7.174-3.93-13.759-10.902-14.38
	c-6.903-0.615-13.904-0.135-20.98-0.135C489.064,278.069,489.064,286.68,489.064,295.561z"/>
</svg>
