<?xml version="1.0" encoding="utf-8"?>
<!-- Generator: Adobe Illustrator 16.0.0, SVG Export Plug-In . SVG Version: 6.00 Build 0)  -->
<!DOCTYPE svg PUBLIC "-//W3C//DTD SVG 1.1//EN" "http://www.w3.org/Graphics/SVG/1.1/DTD/svg11.dtd">
<svg version="1.1" id="Layer_1" xmlns="http://www.w3.org/2000/svg" xmlns:xlink="http://www.w3.org/1999/xlink" x="0px" y="0px"
	 width="609.061px" height="507.051px" viewBox="0 0 609.061 507.051" enable-background="new 0 0 609.061 507.051"
	 xml:space="preserve">
<g>
	<path fill-rule="evenodd" clip-rule="evenodd" fill="#00CE9B" d="M269.707,461.149c-70.833-0.001-141.666,0.003-212.498-0.003
		c-17.4-0.002-26.942-9.5-26.943-26.826c-0.005-120.831-0.005-241.662,0-362.493c0-17.007,9.608-26.562,26.695-26.563
		c45.999-0.007,91.999,0.065,137.998-0.093c5.473-0.019,8.91,1.824,11.768,6.521c10.909,17.923,22.235,35.593,33.191,53.488
		c1.896,3.098,3.924,4.168,7.526,4.162c78.166-0.112,156.331-0.166,234.496,0.058c5.609,0.016,11.783,1.143,16.693,3.687
		c8.341,4.321,11.561,12.32,11.551,21.742c-0.063,55.999-0.022,111.998-0.021,167.997c0,43.999-0.004,87.998-0.013,131.997
		c-0.003,16.602-9.771,26.324-26.446,26.325C412.371,461.151,341.039,461.149,269.707,461.149z M414.15,445.263
		c23.056,0,45.371,0.005,67.686-0.001c10.498-0.003,12.428-1.953,12.428-12.57c0.002-73.826,0.001-147.653,0-221.48
		c0-25.498,0.014-50.995-0.014-76.493c-0.007-6.547-2.885-9.413-9.393-9.545c-1.5-0.031-3-0.022-4.5-0.022
		c-142.82-0.001-285.641-0.002-428.461-0.002c-1.773,0-3.547,0-5.538,0c-0.09,1.737-0.201,2.871-0.201,4.006
		c-0.007,102.157-0.011,204.314,0.008,306.473c0.001,6.759,2.945,9.613,9.833,9.623c22.165,0.029,44.33,0.016,66.494,0.001
		c1.116-0.001,2.232-0.166,3.757-0.288c0-12.59-0.001-24.884,0-37.178c0.001-7.803,2.706-10.538,10.446-10.537
		c88.826,0.002,177.651,0.007,266.476,0.016c8.522,0.001,10.971,2.456,10.978,10.979C414.158,420.375,414.15,432.509,414.15,445.263
		z M398.062,413.458c-85.507,0-170.515,0-255.575,0c0,10.7,0,21.087,0,31.502c85.349,0,170.361,0,255.575,0
		C398.062,434.393,398.062,424.127,398.062,413.458z M46.161,108.964c59.329,0,118.012,0,177.113,0
		c-0.415-0.974-0.587-1.588-0.911-2.108c-8.977-14.409-17.895-28.856-27.077-43.134c-0.896-1.393-3.43-2.434-5.213-2.447
		c-21.986-0.171-43.975-0.121-65.962-0.124c-22.82-0.003-45.641-0.022-68.462,0.013c-5.862,0.009-9.362,2.787-9.43,7.976
		C46.046,82.275,46.161,95.416,46.161,108.964z"/>
	<path fill-rule="evenodd" clip-rule="evenodd" fill="#00CE9B" d="M89.915,77.315c1.493,0.004,3.028-0.222,4.47,0.047
		c4.256,0.792,6.838,3.296,6.873,7.8c0.034,4.51-2.481,7.203-6.775,7.825c-2.926,0.425-5.979,0.322-8.941,0.064
		c-4.354-0.38-7.488-3.908-7.22-8.038c0.284-4.385,2.813-6.974,7.121-7.664C86.897,77.116,88.422,77.313,89.915,77.315z"/>
	<path fill-rule="evenodd" clip-rule="evenodd" fill="#00CE9B" d="M162.75,93.118c-1.493,0-3.003,0.144-4.477-0.026
		c-4.364-0.503-7.275-3.813-7.127-8.091c0.156-4.51,2.726-7.038,7.028-7.628c2.445-0.336,4.973-0.18,7.458-0.088
		c5.108,0.188,8.46,3.343,8.497,7.862c0.036,4.5-3.348,7.732-8.392,7.988c-0.993,0.05-1.991,0.007-2.987,0.007
		C162.75,93.135,162.75,93.127,162.75,93.118z"/>
	<path fill-rule="evenodd" clip-rule="evenodd" fill="#00CE9B" d="M125.892,93.092c-1.332,0-2.687,0.159-3.992-0.029
		c-4.392-0.635-6.844-3.295-7.136-7.672c-0.276-4.136,2.907-7.634,7.266-8.043c2.477-0.232,4.997-0.169,7.489-0.052
		c4.779,0.226,8.06,3.395,8.168,7.722c0.113,4.51-3.28,7.845-8.298,8.114c-1.163,0.063-2.332,0.01-3.498,0.01
		C125.892,93.125,125.892,93.108,125.892,93.092z"/>
</g>
<g>
	<circle fill-rule="evenodd" clip-rule="evenodd" fill="#FFFFFF" cx="509.707" cy="296.705" r="78.5"/>
	<path fill="#68DB5C" d="M588.207,296.705h-4.5c-0.002,20.449-8.275,38.92-21.674,52.326
		c-13.406,13.398-31.877,21.672-52.326,21.674c-20.449-0.002-38.92-8.275-52.326-21.674c-13.398-13.406-21.672-31.877-21.674-52.326
		c0.002-20.449,8.275-38.92,21.674-52.326c13.406-13.398,31.877-21.671,52.326-21.674c20.449,0.002,38.92,8.276,52.326,21.674
		c13.398,13.406,21.672,31.877,21.674,52.326H588.207h4.5c0.002-22.905-9.297-43.685-24.311-58.69
		c-15.006-15.013-35.784-24.313-58.689-24.31c-22.905-0.002-43.685,9.297-58.689,24.31c-15.014,15.005-24.313,35.785-24.311,58.69
		c-0.002,22.905,9.297,43.684,24.311,58.689c15.005,15.014,35.783,24.313,58.689,24.311c22.905,0.002,43.684-9.297,58.689-24.311
		c15.014-15.006,24.313-35.784,24.311-58.689H588.207z"/>
</g>
<g>
	<path fill-rule="evenodd" clip-rule="evenodd" fill="#68DB5C" d="M549.236,267.776c-1.039,1.77-1.925,3.652-3.141,5.291
		c-12.634,17.037-25.3,34.053-38.034,51.015c-1.014,1.352-2.604,2.269-3.927,3.388c-0.619,0-1.238,0-1.856,0
		c-1.253-0.867-2.688-1.554-3.726-2.628c-7.578-7.843-15.105-15.737-22.584-23.676c-2.098-2.226-4.606-4.147-5.793-7.125
		c0-0.795,0-1.592,0-2.388c2.949-4.639,6.01-4.938,9.838-0.932c7.265,7.604,14.517,15.22,21.771,22.834
		c0.208,0.218,0.379,0.471,0.656,0.817c2.148-2.875,4.186-5.59,6.212-8.312c9.947-13.364,19.896-26.726,29.828-40.1
		c1.237-1.665,2.662-3.05,4.654-3.757c0.707,0,1.415,0,2.122,0c2.049,0.737,3.321,2.202,3.979,4.245
		C549.236,266.893,549.236,267.334,549.236,267.776z"/>
</g>
<path fill-rule="evenodd" clip-rule="evenodd" fill="#00CE9B" d="M206.504,204.717c-34.578,0-69.16-0.127-103.737,0.111
	c-6.767,0.047-10.499-5.629-8.063-10.391c1.743-3.404,4.808-4.074,8.361-4.066c26.176,0.049,52.353,0.006,78.528,0.008
	c42.983,0,85.967,0.027,128.952-0.013c3.342-0.003,6.359,0.403,8.289,3.478c3.135,4.996-0.211,10.721-6.527,10.824
	c-10.191,0.168-20.389,0.082-30.582,0.085c-25.074,0.007-50.148,0.003-75.22,0.003C206.504,204.743,206.504,204.731,206.504,204.717
	z"/>
<path fill-rule="evenodd" clip-rule="evenodd" fill="#00CE9B" d="M171.444,176.419c-22.876,0-45.753-0.02-68.629,0.021
	c-3.521,0.005-6.592-0.567-8.197-4.202c-2.195-4.962,1.295-9.936,7.197-9.971c13.367-0.08,26.735-0.046,40.104-0.046
	c32.247-0.004,64.494,0,96.742,0c0.553,0,1.102-0.006,1.654-0.003c5.764,0.036,9.143,2.747,9.057,7.263
	c-0.084,4.448-3.266,6.969-8.887,6.97c-23.014,0.01-46.027,0.005-69.041,0.005C171.444,176.443,171.444,176.432,171.444,176.419z"/>
<path fill-rule="evenodd" clip-rule="evenodd" fill="#00CE9B" d="M211.004,287.213c-34.578,0-69.16-0.127-103.737,0.111
	c-6.767,0.047-10.499-5.629-8.063-10.391c1.743-3.404,4.808-4.074,8.361-4.066c26.176,0.049,52.353,0.006,78.528,0.008
	c42.983,0,85.968,0.027,128.952-0.013c3.342-0.003,6.359,0.403,8.289,3.478c3.135,4.996-0.211,10.721-6.527,10.824
	c-10.191,0.168-20.389,0.082-30.582,0.085c-25.075,0.007-50.149,0.003-75.221,0.003
	C211.004,287.238,211.004,287.227,211.004,287.213z"/>
<path fill-rule="evenodd" clip-rule="evenodd" fill="#00CE9B" d="M175.944,258.915c-22.876,0-45.753-0.02-68.629,0.021
	c-3.521,0.005-6.592-0.567-8.197-4.202c-2.195-4.962,1.295-9.936,7.197-9.971c13.367-0.08,26.735-0.046,40.104-0.046
	c32.247-0.004,64.494,0,96.742,0c0.553,0,1.102-0.006,1.654-0.003c5.764,0.036,9.143,2.747,9.057,7.263
	c-0.084,4.448-3.266,6.969-8.887,6.97c-23.014,0.01-46.027,0.005-69.041,0.005C175.944,258.938,175.944,258.928,175.944,258.915z"/>
<path fill-rule="evenodd" clip-rule="evenodd" fill="#00CE9B" d="M214.004,360.709c-34.578,0-69.16-0.127-103.737,0.111
	c-6.767,0.047-10.499-5.629-8.063-10.391c1.743-3.404,4.808-4.074,8.361-4.066c26.176,0.049,52.353,0.006,78.528,0.008
	c42.983,0,85.968,0.027,128.952-0.013c3.342-0.003,6.359,0.403,8.289,3.478c3.135,4.996-0.211,10.721-6.527,10.824
	c-10.191,0.168-20.389,0.082-30.582,0.085c-25.075,0.007-50.149,0.003-75.221,0.003
	C214.004,360.734,214.004,360.723,214.004,360.709z"/>
<path fill-rule="evenodd" clip-rule="evenodd" fill="#00CE9B" d="M178.944,332.411c-22.876,0-45.753-0.02-68.629,0.021
	c-3.521,0.005-6.592-0.567-8.197-4.202c-2.195-4.962,1.295-9.936,7.197-9.971c13.367-0.08,26.735-0.046,40.104-0.046
	c32.247-0.004,64.494,0,96.742,0c0.553,0,1.102-0.006,1.654-0.003c5.764,0.036,9.143,2.747,9.057,7.263
	c-0.084,4.448-3.266,6.969-8.887,6.97c-23.014,0.01-46.027,0.005-69.041,0.005C178.944,332.435,178.944,332.424,178.944,332.411z"/>
</svg>
