<?xml version="1.0" encoding="utf-8"?>
<!-- Generator: Adobe Illustrator 16.0.0, SVG Export Plug-In . SVG Version: 6.00 Build 0)  -->
<!DOCTYPE svg PUBLIC "-//W3C//DTD SVG 1.1//EN" "http://www.w3.org/Graphics/SVG/1.1/DTD/svg11.dtd">
<svg version="1.1" id="Layer_1" xmlns="http://www.w3.org/2000/svg" xmlns:xlink="http://www.w3.org/1999/xlink" x="0px" y="0px"
	 width="549px" height="551px" viewBox="0 0 549 551" enable-background="new 0 0 549 551" xml:space="preserve">
<g>
	<linearGradient id="SVGID_1_" gradientUnits="userSpaceOnUse" x1="77.165" y1="272" x2="460.8594" y2="272">
		<stop  offset="0" style="stop-color:#0D945D"/>
		<stop  offset="1" style="stop-color:#2CB77F"/>
	</linearGradient>
	<path fill-rule="evenodd" clip-rule="evenodd" fill="url(#SVGID_1_)" d="M279,16c8.783,1.688,17.688,2.902,26.329,5.14
		c55.789,14.449,99.65,63.91,106.108,121.068c2.085,18.45,1.075,37.255,1.377,55.898c0.138,8.464,0.023,16.932,0.023,25.565
		c5.287,0.464,10.277,0.477,15.094,1.398c18.814,3.603,32.871,20.649,32.886,39.839c0.054,74.141,0.054,148.281,0.013,222.422
		c-0.01,18.172-13.256,34.771-31.15,39.411c-1.252,0.324-2.455,0.834-3.68,1.258c-104.666,0-209.334,0-314,0
		c-0.896-0.37-1.764-0.865-2.695-1.092c-19.083-4.638-32.126-21.05-32.129-40.566c-0.013-73.637-0.016-147.273,0.001-220.909
		c0.005-22.883,18.338-41.177,41.271-41.261c1.98-0.008,3.961-0.001,6.723-0.001c0-2.08,0-3.834,0-5.589
		c0-19.492-0.059-38.984,0.011-58.477c0.25-70.535,52.727-131.36,122.602-142.183c3.749-0.58,7.479-1.279,11.218-1.923
		C265.666,16,272.334,16,279,16z M445.166,295.242c-8.032,5.321-15.58,8.584-24.189,8.585
		c-101.125,0.004-202.252,0.107-303.376-0.238c-6.649-0.022-13.306-3.432-19.917-5.407c-1.479-0.442-2.779-1.482-4.607-2.494
		c-0.104,2.108-0.236,3.566-0.237,5.025c-0.01,62.309-0.029,124.616,0.007,186.924c0.01,15.232,9.363,24.495,24.725,24.5
		c101.125,0.03,202.251,0.033,303.376,0.017c14.819-0.002,24.208-9.549,24.212-24.523c0.016-62.141,0.008-124.282,0.008-186.423
		C445.166,299.58,445.166,297.953,445.166,295.242z M348.931,223.946c0.087-1.3,0.207-2.261,0.208-3.222
		c0.004-21.663,0.076-43.326-0.08-64.987c-0.029-4.126-0.652-8.314-1.536-12.356c-8.656-39.596-39.712-63.865-81.116-63.525
		c-40.682,0.335-75.523,32.962-77.275,73.579c-0.998,23.116-0.168,46.311-0.139,69.47c0,0.275,0.3,0.55,0.586,1.042
		C242.409,223.946,295.354,223.946,348.931,223.946z M141.65,197.951c-0.273,0.001-0.546,0.001-0.819,0.002
		c0,15.163-0.024,30.327,0.01,45.49c0.02,8.946,4.481,13.176,13.309,12.793c1.829-0.08,3.666-0.092,5.494-0.013
		c9.122,0.396,13.52-3.813,13.522-13.056c0.01-26.994-0.129-53.989,0.095-80.981c0.058-6.952,0.677-14,1.979-20.824
		C186.3,83.456,249.803,48.976,304.16,71.2c36.504,14.925,60.506,50.337,60.658,89.747c0.107,27.493,0.018,54.987,0.036,82.481
		c0.007,8.912,4.513,13.218,13.276,12.831c1.993-0.088,3.998-0.082,5.991,0.004c8.397,0.363,13.034-4.048,13.04-12.583
		c0.02-28.493,0.303-56.992-0.158-85.479c-0.156-9.744-1.27-19.683-3.54-29.149c-17.177-71.615-88.818-111.651-159.116-92.62
		c-51.378,13.908-87.049,55.783-92.424,109.105C140.18,162.843,141.65,180.471,141.65,197.951z M348.738,240.162
		c-53.378,0-106.428,0-159.433,0c-2.802,21.042-12.917,31.599-30.147,31.752c-21.559,0.191-30.959-8.401-34.591-32.078
		c-2.695,0-5.481-0.04-8.267,0.007c-14.088,0.234-23.504,9.997-23.467,24.306c0.035,14.234,9.53,23.988,23.744,23.994
		c101.443,0.039,202.887,0.014,304.33,0.005c10.033-0.001,18.037-3.844,22.052-13.331c4.034-9.532,3.4-19.042-3.519-27.209
		c-7.055-8.325-16.585-8.475-26.373-7.384c-1.27,19.35-12.251,31.316-28.674,31.676
		C361.808,272.395,351.465,263.287,348.738,240.162z"/>
	<linearGradient id="SVGID_2_" gradientUnits="userSpaceOnUse" x1="221.2949" y1="408.1621" x2="316.9932" y2="408.1621">
		<stop  offset="0" style="stop-color:#0D945D"/>
		<stop  offset="1" style="stop-color:#2CB77F"/>
	</linearGradient>
	<path fill-rule="evenodd" clip-rule="evenodd" fill="url(#SVGID_2_)" d="M237.166,446.924c0.004-7.824,0.164-15.655-0.104-23.471
		c-0.07-2.081-0.967-4.528-2.307-6.111c-13.174-15.571-17.37-33.135-9.488-52.029c7.783-18.658,23.383-28.111,43.166-28.816
		c20.35-0.726,34.844,9.941,43.596,27.855c9.112,18.654,5.176,35.958-7.7,51.462c-2.546,3.065-3.613,5.877-3.562,9.765
		c0.193,14.647,0.103,29.301,0.064,43.951c-0.02,7.556-2.703,10.278-10.174,10.301c-14.484,0.043-28.969,0.044-43.453,0.005
		c-7.184-0.02-10.016-2.862-10.038-9.936C237.143,462.241,237.162,454.583,237.166,446.924z M252.83,463.807
		c11.16,0,21.553,0,32.34,0c0-15.145,0.114-29.93-0.068-44.711c-0.055-4.538,1.354-7.781,4.891-10.761
		c13.787-11.611,15.105-33.477,3.059-46.385c-12.227-13.102-34.467-13.694-46.623-1.242c-13.648,13.979-13.229,34.93,1.271,47.338
		c3.806,3.256,5.294,6.709,5.216,11.619C252.681,434.274,252.83,448.891,252.83,463.807z"/>
</g>
</svg>
