<?xml version="1.0" encoding="utf-8"?>
<!-- Generator: Adobe Illustrator 16.0.0, SVG Export Plug-In . SVG Version: 6.00 Build 0)  -->
<!DOCTYPE svg PUBLIC "-//W3C//DTD SVG 1.1//EN" "http://www.w3.org/Graphics/SVG/1.1/DTD/svg11.dtd">
<svg version="1.1" id="Layer_1" xmlns="http://www.w3.org/2000/svg" xmlns:xlink="http://www.w3.org/1999/xlink" x="0px" y="0px"
	 width="241.333px" height="49.333px" viewBox="0 0 241.333 49.333" enable-background="new 0 0 241.333 49.333"
	 xml:space="preserve">
<g>
	<path fill="#68DB5C" d="M17.196,13.847H4.13l2.197-8.994h34.98l-2.227,8.994H26.425l-7.617,30.527H9.462L17.196,13.847z"/>
	<path fill="#68DB5C" d="M44.179,11.386c1.718-4.354,4.727-6.533,9.023-6.533c0.019,0,0.048,0,0.088,0c0.195,0,1.226,0,3.091,0
		c1.865,0,4.058,0,6.577,0s4.814,0,6.885,0c2.07,0,3.32,0,3.75,0c2.89,0,5.244,1.025,7.061,3.076
		c1.816,2.032,2.441,4.386,1.875,7.061l-0.645,2.666c-0.489,2.013-1.094,4.488-1.816,7.428c-0.723,2.939-1.382,5.649-1.978,8.129
		c-0.596,2.48-0.972,4.024-1.128,4.629c-1.543,4.355-4.541,6.533-8.994,6.533c-0.196,0-1.221,0-3.076,0c-1.856,0-4.039,0-6.548,0
		c-2.51,0-4.8,0-6.87,0c-2.07,0-3.321,0-3.75,0c-2.969,0-5.361-1.025-7.178-3.076c-1.797-2.031-2.432-4.384-1.904-7.061
		c1.035-4.296,1.899-7.865,2.593-10.707c0.693-2.842,1.323-5.43,1.89-7.764C43.69,13.433,44.042,11.972,44.179,11.386z
		 M66.239,35.322c0.605,0,1.015-0.322,1.23-0.967c0.859-3.593,1.582-6.572,2.168-8.936c0.586-2.362,1.113-4.521,1.582-6.475
		c0.469-1.952,0.762-3.173,0.879-3.662c0.059-0.37-0.02-0.692-0.234-0.967c-0.215-0.272-0.547-0.41-0.996-0.41
		c-0.02,0-0.049,0-0.088,0c-0.157,0-0.958,0-2.402,0c-1.446,0-3.149,0-5.112,0s-3.75,0-5.361,0s-2.603,0-2.974,0
		c-0.625,0-1.036,0.322-1.23,0.967c-0.02,0.099-0.245,1.021-0.674,2.77c-0.43,1.748-0.933,3.804-1.509,6.166
		c-0.576,2.364-1.099,4.522-1.567,6.475c-0.469,1.953-0.772,3.175-0.908,3.662c-0.059,0.371,0.039,0.693,0.293,0.967
		c0.273,0.274,0.596,0.41,0.967,0.41c0.136,0,0.933,0,2.388,0c1.455,0,3.168,0,5.142,0c1.972,0,3.774,0,5.405,0
		C64.867,35.322,65.868,35.322,66.239,35.322z"/>
	<path fill="#68DB5C" d="M91.581,32.773l-2.754,11.572h-9.375l7.939-32.959c1.66-4.354,4.434-6.533,8.32-6.533h2.49l-2.666,11.25
		l12.92-11.25h13.242l-23.35,20.713l13.594,18.809h-12.07L91.581,32.773z"/>
	<path fill="#68DB5C" d="M122.167,11.386c1.542-4.354,4.258-6.533,8.145-6.533h28.74l-9.58,39.521h-9.346l2.666-10.898l4.746-19.57
		h-15.879c-0.215,0-0.43,0.088-0.645,0.264c-0.234,0.176-0.391,0.41-0.469,0.703l-2.314,9.551h14.033l-2.227,9.082h-14.004
		l-2.637,10.869h-9.287L122.167,11.386z"/>
	<path fill="#68DB5C" d="M171.532,13.906c-0.274,0-0.508,0.079-0.703,0.234c-0.195,0.176-0.333,0.372-0.41,0.586
		c-0.176,0.703-0.318,1.289-0.425,1.758c-0.107,0.469-0.21,0.904-0.308,1.305c-0.098,0.4-0.166,0.679-0.205,0.834
		c-0.059,0.372,0.019,0.694,0.234,0.967c0.215,0.274,0.498,0.41,0.85,0.41c0.136,0,0.854,0,2.153,0c1.298,0,2.836,0,4.614,0
		c1.777,0,3.398,0,4.863,0s2.363,0,2.695,0c2.637,0,4.746,1.036,6.328,3.105c1.582,2.051,2.07,4.414,1.465,7.09
		c0,0.02-0.01,0.049-0.029,0.088c0,0.04-0.083,0.396-0.249,1.07c-0.167,0.674-0.362,1.469-0.586,2.387
		c-0.225,0.919-0.435,1.769-0.63,2.549c-0.196,0.781-0.313,1.289-0.352,1.523c-0.527,1.934-1.553,3.516-3.076,4.746
		c-1.523,1.212-3.301,1.816-5.332,1.816c-0.02,0-0.049,0-0.088,0c-0.274,0-1.724,0-4.351,0c-2.627,0-5.718,0-9.272,0
		c-3.555,0-6.782,0-9.683,0s-4.624,0-5.171,0c0.391-1.68,0.723-3.08,0.996-4.203c0.274-1.123,0.523-2.158,0.747-3.105
		c0.225-0.947,0.366-1.568,0.425-1.861c0.234,0,1.509,0,3.823,0s5.039,0,8.174,0s5.981,0,8.54,0c2.558,0,4.082,0,4.57,0
		c0.546,0,0.927-0.282,1.143-0.85c0.176-0.703,0.317-1.289,0.425-1.758c0.107-0.469,0.209-0.902,0.308-1.303
		c0.097-0.4,0.166-0.679,0.205-0.836c0.136-0.352,0.097-0.674-0.117-0.967c-0.215-0.293-0.498-0.439-0.85-0.439h0.029
		c-0.02,0-0.049,0-0.088,0c-0.137,0-0.864,0-2.183,0s-2.867,0-4.644,0c-1.777,0-3.398,0-4.863,0s-2.354,0-2.666,0
		c-2.656,0-4.775-1.006-6.357-3.018c-1.602-2.011-2.09-4.384-1.465-7.119c0-0.019,0-0.048,0-0.088l0.059-0.264
		c0.117-0.448,0.308-1.201,0.571-2.256s0.517-2.084,0.762-3.09c0.244-1.006,0.405-1.665,0.483-1.979
		c1.66-4.257,4.443-6.387,8.35-6.387c0.019,0,0.048,0,0.088,0c0.273,0,1.729,0,4.365,0s5.728,0,9.272,0s6.772,0,9.683,0
		c2.91,0,4.638,0,5.186,0c-0.391,1.661-0.723,3.043-0.996,4.146c-0.274,1.104-0.523,2.123-0.747,3.061
		c-0.225,0.938-0.366,1.553-0.425,1.846c-0.234,0-1.514,0-3.838,0c-2.325,0-5.054,0-8.188,0s-5.982,0-8.54,0
		C173.543,13.906,172.02,13.906,171.532,13.906z"/>
	<path fill="#68DB5C" d="M201.122,11.386c1.66-4.354,4.424-6.533,8.291-6.533h2.52l-2.783,12.07L208.417,20h14.971
		c0.488,0,0.927-0.146,1.318-0.439c0.41-0.312,0.674-0.712,0.791-1.201l0.352-1.494h0.029l2.783-12.012h9.58l-8.174,32.988
		c-1.543,4.355-4.317,6.533-8.32,6.533h-2.52l2.783-11.631l0.879-3.516h-14.941c-1.133,0-1.885,0.547-2.256,1.641l-0.264,1.113
		l-2.988,12.393h-9.375L201.122,11.386z"/>
</g>
</svg>
