<?xml version="1.0" encoding="utf-8"?>
<!-- Generator: Adobe Illustrator 16.0.0, SVG Export Plug-In . SVG Version: 6.00 Build 0)  -->
<!DOCTYPE svg PUBLIC "-//W3C//DTD SVG 1.1//EN" "http://www.w3.org/Graphics/SVG/1.1/DTD/svg11.dtd">
<svg version="1.1" id="Layer_1" xmlns="http://www.w3.org/2000/svg" xmlns:xlink="http://www.w3.org/1999/xlink" x="0px" y="0px"
	 width="35px" height="35px" viewBox="0 0 35 35" enable-background="new 0 0 35 35" xml:space="preserve">
<g>
	<path fill-rule="evenodd" clip-rule="evenodd" fill="#FFFFFF" d="M32.028,10.611c-0.051,1.829-0.024,3.663-0.168,5.484
		c-0.339,4.296-1.934,8.11-4.65,11.452c-1.587,1.953-3.473,3.563-5.616,4.877c-1.23,0.755-2.449,1.531-3.662,2.315
		c-0.529,0.342-1.022,0.353-1.551,0.004c-1.988-1.316-4.077-2.501-5.958-3.955c-4.215-3.259-6.761-7.592-7.757-12.831
		c-0.338-1.781-0.378-3.582-0.374-5.386c0.005-2.201,0.016-4.402,0.024-6.604C2.32,4.995,2.725,4.563,3.68,4.475
		c4.114-0.377,7.997-1.531,11.648-3.464c0.328-0.174,0.663-0.336,0.977-0.533c0.565-0.354,1.1-0.336,1.68-0.007
		c2.266,1.284,4.639,2.321,7.159,3.002c1.808,0.488,3.635,0.856,5.502,1.007c0.913,0.073,1.333,0.525,1.335,1.437
		c0.004,1.564,0.002,3.13,0.002,4.694C31.998,10.61,32.014,10.611,32.028,10.611z M29.646,11.348c-0.016,0-0.03-0.001-0.045-0.001
		c0-1.299,0-2.599-0.001-3.898c0-0.667,0.001-0.671-0.682-0.764c-4.021-0.546-7.804-1.813-11.365-3.746
		c-0.313-0.17-0.531-0.149-0.828,0.014c-3.643,1.99-7.532,3.229-11.648,3.75C4.771,6.741,4.69,6.859,4.692,7.155
		c0.012,2.107-0.025,4.217,0.019,6.324c0.028,1.309,0.054,2.636,0.286,3.918C5.932,22.57,8.579,26.686,12.9,29.69
		c1.305,0.908,2.679,1.712,4.012,2.578c0.194,0.126,0.319,0.096,0.494-0.017c1.003-0.644,2.009-1.284,3.022-1.911
		c2.413-1.492,4.442-3.385,6.013-5.753c1.705-2.574,2.772-5.393,3.04-8.473C29.62,14.533,29.597,12.937,29.646,11.348z"/>
	<path fill-rule="evenodd" clip-rule="evenodd" fill="#FFFFFF" d="M15.141,18.988c0.09-0.151,0.144-0.299,0.245-0.4
		c2.413-2.422,4.833-4.837,7.246-7.258c0.371-0.371,0.774-0.594,1.314-0.431c0.823,0.249,1.132,1.153,0.62,1.847
		c-0.093,0.126-0.212,0.237-0.323,0.349c-2.708,2.708-5.415,5.417-8.123,8.124c-0.757,0.756-1.363,0.758-2.114,0.008
		c-1.34-1.34-2.687-2.673-4.012-4.027c-0.212-0.216-0.399-0.508-0.474-0.797c-0.13-0.501,0.146-1.019,0.565-1.251
		c0.43-0.237,1.012-0.175,1.403,0.193c0.511,0.481,0.999,0.987,1.495,1.483C13.667,17.511,14.349,18.195,15.141,18.988z"/>
</g>
</svg>
