<?xml version="1.0" encoding="utf-8"?>
<!-- Generator: Adobe Illustrator 16.0.0, SVG Export Plug-In . SVG Version: 6.00 Build 0)  -->
<!DOCTYPE svg PUBLIC "-//W3C//DTD SVG 1.1//EN" "http://www.w3.org/Graphics/SVG/1.1/DTD/svg11.dtd">
<svg version="1.1" id="Layer_1" xmlns="http://www.w3.org/2000/svg" xmlns:xlink="http://www.w3.org/1999/xlink" x="0px" y="0px"
	 width="549px" height="551px" viewBox="0 0 549 551" enable-background="new 0 0 549 551" xml:space="preserve">
<g>
	<linearGradient id="SVGID_1_" gradientUnits="userSpaceOnUse" x1="87.2402" y1="259.9678" x2="503.0024" y2="259.9678">
		<stop  offset="0" style="stop-color:#0D945D"/>
		<stop  offset="1" style="stop-color:#2CB77F"/>
	</linearGradient>
	<path fill-rule="evenodd" clip-rule="evenodd" fill="url(#SVGID_1_)" d="M166.951,429.147c0,5.789,0,11.075,0,16.689
		c-26.703,0-53.078,0-79.711,0c0-79.794,0-159.385,0-239.341c26.468,0,52.846,0,79.657,0c0,4.938,0,9.71,0,15.129
		c9.197,0,17.982,0.139,26.755-0.133c1.508-0.046,3.32-1.546,4.383-2.865c9.813-12.188,19.536-24.449,29.195-36.761
		c9.889-12.601,12.18-27.908,14.621-43c2.23-13.788,3.814-27.693,5.269-41.59c1.663-15.901,17.011-26.928,32.878-22.658
		c18.885,5.082,29.428,18.799,34.778,36.641c2.462,8.207,3.69,16.939,4.301,25.518c2.032,28.548,2.528,57.014-10.896,84.88
		c2.897,0,4.931,0,6.962,0c50.828,0.004,101.657-0.064,152.485,0.047c19.712,0.043,35.841,16.24,35.364,35.071
		c-0.363,14.371-12.27,28.5-27.113,32.178c-1.254,0.311-2.506,0.633-4.307,1.089c5.554,9.728,7.281,19.524,2.838,29.819
		c-4.25,9.845-11.698,16.362-21.411,20.509c16.163,24.387-1.121,50.073-25.019,54c0.379,0.918,0.651,1.815,1.092,2.619
		c13.336,24.317-9.172,49.331-30.086,49.253c-60.491-0.224-120.984-0.058-181.477-0.142c-2.049-0.003-4.236-0.758-6.12-1.66
		c-7.954-3.808-16.069-7.381-23.641-11.858C181.264,428.745,174.606,428.667,166.951,429.147z M365.172,273.836
		c9.377,0,18.198,0,27.02,0c25.156-0.002,50.313,0.041,75.469-0.029c9.943-0.027,15.95-3.939,18.359-11.581
		c4.354-13.813-3.716-24.541-18.559-24.547c-59.983-0.021-119.967-0.008-179.95-0.007c-1.937,0-3.872,0-6.748,0
		c2.437-4.044,4.328-7.288,6.321-10.469c7.963-12.707,14.551-26.313,15.4-41.245c1.086-19.043,0.509-38.229-0.302-57.313
		c-0.487-11.486-4.806-22.067-12.608-30.885c-4.492-5.078-9.775-8.42-16.955-7.978c-7.042,0.433-8.529,1.842-9.381,8.874
		c-1.68,13.876-3.505,27.734-5.274,41.6c-2.901,22.734-10.202,43.646-25.227,61.422c-9.028,10.683-17.984,21.43-26.813,32.278
		c-2.342,2.878-4.933,3.874-8.6,3.787c-9.941-0.236-19.891-0.081-29.891-0.081c0,58.736,0,116.909,0,175.862
		c13.23-3.338,23.752,2.543,34.343,8.272c3.949,2.137,7.918,4.315,12.084,5.946c3.156,1.236,6.636,2.278,9.979,2.304
		c24.324,0.19,48.652,0.104,72.979,0.101c34.323-0.004,68.647,0.063,102.971-0.063c10.339-0.038,16.902-6.715,17.23-16.823
		c0.358-11.066-5.505-18.153-16.043-19.048c-3.972-0.338-7.991-0.141-11.989-0.148c-7.949-0.016-15.897-0.005-23.911-0.005
		c0-5.628,0-10.66,0-16.015c2.041,0,3.686-0.001,5.33,0c18.161,0.011,36.322,0.024,54.482,0.03
		c7.156,0.003,13.165-2.268,16.572-9.011c6.684-13.23-1.582-26.945-16.348-27.065c-14.662-0.119-29.324-0.028-43.987-0.029
		c-5.292,0-10.584,0-16.106,0c0-5.56,0-10.59,0-16.012c8.828,0,17.295-0.002,25.763,0.001c17.328,0.006,34.657,0.098,51.983-0.008
		c10.358-0.063,16.97-5.93,18.08-15.636c1.104-9.642-3.633-17.579-12.223-19.717c-3.17-0.789-6.601-0.712-9.914-0.72
		c-21.993-0.051-43.987-0.017-65.98-0.011c-2.445,0.001-4.889,0-7.557,0C365.172,284.31,365.172,279.386,365.172,273.836z
		 M150.747,429.928c0-69.473,0-138.348,0-207.443c-15.96,0-31.663,0-47.413,0c0,69.336,0,138.341,0,207.443
		C119.264,429.928,134.853,429.928,150.747,429.928z"/>
	<linearGradient id="SVGID_2_" gradientUnits="userSpaceOnUse" x1="119.252" y1="406.2085" x2="134.6523" y2="406.2085">
		<stop  offset="0" style="stop-color:#0D945D"/>
		<stop  offset="1" style="stop-color:#2CB77F"/>
	</linearGradient>
	<path fill-rule="evenodd" clip-rule="evenodd" fill="url(#SVGID_2_)" d="M119.252,413.867c0-5.099,0-10.002,0-15.317
		c4.994,0,10.012,0,15.4,0c0,4.984,0,9.991,0,15.317C129.553,413.867,124.539,413.867,119.252,413.867z"/>
</g>
</svg>
