<?xml version="1.0" encoding="utf-8"?>
<!-- Generator: Adobe Illustrator 16.0.0, SVG Export Plug-In . SVG Version: 6.00 Build 0)  -->
<!DOCTYPE svg PUBLIC "-//W3C//DTD SVG 1.1//EN" "http://www.w3.org/Graphics/SVG/1.1/DTD/svg11.dtd">
<svg version="1.1" id="Layer_1" xmlns="http://www.w3.org/2000/svg" xmlns:xlink="http://www.w3.org/1999/xlink" x="0px" y="0px"
	 width="78.25px" height="111.625px" viewBox="0 0 78.25 111.625" enable-background="new 0 0 78.25 111.625" xml:space="preserve">
<g>
	<path fill="#4C4C4C" d="M49.913,57.863c-3.035-1.177-6.013-0.656-7.847,1.707c-1.625,2.099-2.97,4.447-4.208,6.808
		c-1.279,2.442-2.987,4.425-5.206,6.009c-0.026,0.02-0.049,0.045-0.078,0.053c-0.544,0.179-1.09,0.353-1.635,0.525
		c-0.162-0.554-0.462-1.107-0.465-1.662c-0.042-7.824-0.042-15.649-0.053-23.474c0-0.346,0-0.692,0-1.03
		c-0.087-0.03-0.169-0.084-0.195-0.064c-2.98,2.269-5.979,4.515-8.925,6.829c-1.657,1.301-2.216,3.185-2.636,5.183
		c-1.717,8.169-3.509,16.323-5.276,24.481c-0.404,1.869-1.125,3.596-2.223,5.174c-2.537,3.649-5.047,7.32-7.569,10.979
		c-0.107,0.156-0.217,0.312-0.342,0.452c-0.362,0.414-0.759,0.538-1.227,0.146C1.572,99.6,1.705,99.21,2.012,98.832
		c0.854-1.053,1.692-2.121,2.581-3.145c4.834-5.565,7.408-12.143,8.796-19.291c1.261-6.494,2.632-12.967,4-19.44
		c0.395-1.871,1.356-3.435,2.915-4.619c2.862-2.175,5.679-4.41,8.555-6.567c1.107-0.83,1.614-1.824,1.609-3.214
		c-0.036-11.517-0.037-23.033-0.046-34.55c-0.003-4.468,2.555-6.981,7.007-6.927c4.667,0.056,9.334,0.105,14.002,0.124
		c5.174,0.021,10.35,0.004,15.522,0.005c1.448,0,2.899-0.042,4.347,0.016c3.264,0.13,5.311,2.177,5.506,5.445
		c0.02,0.314,0.022,0.63,0.022,0.946c0.001,23.886,0.001,47.772-0.003,71.658c0,0.598-0.002,1.207-0.104,1.791
		c-0.553,3.136-2.646,4.756-6.168,4.761c-8.584,0.012-17.166,0.004-25.748,0.004c-1.996,0-2.523,0.356-3.209,2.25
		c-2.186,6.022-6.199,10.201-12.283,12.364c-4.4,1.565-7.428,4.632-9.345,8.848c-0.247,0.544-0.476,1.115-0.833,1.582
		c-0.186,0.243-0.633,0.285-0.961,0.419c-0.118-0.376-0.401-0.793-0.318-1.118c0.168-0.66,0.526-1.275,0.82-1.902
		c2.114-4.5,5.511-7.666,10.152-9.381c7.248-2.678,11.341-7.813,12.287-15.438c0.771-6.229,2.73-12.084,5.375-17.736
		c0.906-1.938,1.904-3.837,2.804-5.78C49.594,59.303,49.707,58.583,49.913,57.863z M32.312,15.655c0,0.438,0,0.782,0,1.125
		c0,6.845,0,13.688,0,20.534c0,10.44,0.013,20.881-0.025,31.322c-0.002,0.813,0.297,1.073,0.983,1.292
		c0.739,0.235,0.858-0.287,1.094-0.707c1.462-2.611,2.836-5.275,4.411-7.815c0.9-1.454,1.97-2.88,3.237-4.009
		c2.1-1.87,4.668-2.26,7.361-1.439c1.842,0.562,2.496,1.979,1.833,3.777c-0.108,0.297-0.25,0.578-0.39,0.86
		c-1.148,2.347-2.319,4.687-3.444,7.044c-0.55,1.152-1.019,2.344-1.554,3.588c9.865,0,19.56,0,29.246,0c0-18.558,0-37.052,0-55.573
		C60.809,15.655,46.623,15.655,32.312,15.655z M75.113,13.771c0-2.609,0.104-5.159-0.039-7.695c-0.088-1.57-1.098-2.67-2.663-3.077
		c-0.69-0.18-1.433-0.235-2.149-0.238c-5.709-0.018-11.416-0.01-17.123-0.01c-5.455,0-10.91-0.016-16.367,0.006
		C33.6,2.77,32.396,3.942,32.208,7.089c-0.007,0.126-0.035,0.251-0.036,0.377c-0.002,2.097-0.001,4.194-0.001,6.305
		C46.637,13.771,60.906,13.771,75.113,13.771z M42.527,84.198c1.757,0,3.393,0.002,5.029,0c7.918-0.011,15.836-0.021,23.754-0.032
		c2.313-0.003,3.545-1.072,3.662-3.383c0.104-2.075,0.035-4.159,0.041-6.239c0.002-1.426-0.002-1.452-1.481-1.457
		c-8.958-0.028-17.917-0.049-26.875-0.062c-1.273-0.002-1.935,0.531-2.196,1.774C43.813,77.881,43.189,80.967,42.527,84.198z"/>
	<path fill="#4C4C4C" d="M55.249,78.689c-0.019,0.857-0.712,1.522-1.589,1.521c-0.91-0.003-1.651-0.741-1.616-1.61
		c0.032-0.789,0.832-1.563,1.614-1.563C54.492,77.036,55.266,77.841,55.249,78.689z"/>
</g>
</svg>
