<?xml version="1.0" encoding="utf-8"?>
<!-- Generator: Adobe Illustrator 16.0.0, SVG Export Plug-In . SVG Version: 6.00 Build 0)  -->
<!DOCTYPE svg PUBLIC "-//W3C//DTD SVG 1.1//EN" "http://www.w3.org/Graphics/SVG/1.1/DTD/svg11.dtd">
<svg version="1.1" id="Layer_1" xmlns="http://www.w3.org/2000/svg" xmlns:xlink="http://www.w3.org/1999/xlink" x="0px" y="0px"
	 width="768px" height="768px" viewBox="0 0 768 768" enable-background="new 0 0 768 768" xml:space="preserve">
<path fill="#2058E5" d="M384,0C172.218,0,0,172.219,0,384c0,211.783,172.218,384,384,384c212.558,0,384-171.441,384-384
	C768,171.443,596.558,0,384,0z"/>
<path fill="#FFFFFF" d="M429.77,203.249l21.722-44.994c0-0.775,0.775-0.775,1.552-0.775h44.218c5.431,0,8.533,5.43,6.206,10.084
	l-21.722,44.994c0,0.776-0.775,0.776-1.551,0.776h-44.219C431.321,213.334,427.442,207.903,429.77,203.249z"/>
<path fill="#FFFFFF" d="M310.303,565.527l-21.721,44.994c0,0.775-0.776,0.775-1.552,0.775h-44.219c-5.43,0-8.533-5.43-6.205-10.084
	l21.721-44.994c0-0.775,0.775-0.775,1.552-0.775h44.218C308.752,554.668,312.63,560.098,310.303,565.527z"/>
<path fill="#FFFFFF" d="M520.533,366.158l-60.509,123.346c-10.86,22.496-34.134,37.236-58.958,37.236H203.249
	c-5.431,0-8.533-5.43-6.207-10.086l21.722-44.994c0-0.775,0.776-0.775,1.552-0.775h187.733c3.103,0,6.206-1.551,7.757-4.654
	l52.752-109.381c0-0.776,0.775-0.776,1.552-0.776h44.218C518.981,356.073,522.86,361.503,520.533,366.158z"/>
<path fill="#FFFFFF" d="M332.8,401.844l21.722-44.995c0-0.776,0.775-0.776,1.551-0.776h72.146c5.431,0,8.534,5.431,6.206,10.085
	l-20.945,44.995c0,0.775-0.775,0.775-1.551,0.775h-72.146C334.352,412.703,330.473,406.498,332.8,401.844z"/>
<path fill="#FFFFFF" d="M571.733,252.122l-21.722,44.994c0,0.776-0.775,0.776-1.551,0.776H360.728c-3.104,0-6.206,1.551-7.758,4.654
	l-52.752,107.831c0,0.775-0.775,0.775-1.551,0.775h-44.219c-5.43,0-8.533-5.432-6.206-10.086l59.733-121.793
	c10.86-22.497,34.134-37.237,58.958-37.237h197.818C570.958,242.037,574.061,247.467,571.733,252.122z"/>
</svg>
