<?xml version="1.0" encoding="utf-8"?>
<!-- Generator: Adobe Illustrator 16.0.0, SVG Export Plug-In . SVG Version: 6.00 Build 0)  -->
<!DOCTYPE svg PUBLIC "-//W3C//DTD SVG 1.1//EN" "http://www.w3.org/Graphics/SVG/1.1/DTD/svg11.dtd">
<svg version="1.1" id="Layer_1" xmlns="http://www.w3.org/2000/svg" xmlns:xlink="http://www.w3.org/1999/xlink" x="0px" y="0px"
	 width="549px" height="551px" viewBox="0 0 549 551" enable-background="new 0 0 549 551" xml:space="preserve">
<g>
	<linearGradient id="SVGID_1_" gradientUnits="userSpaceOnUse" x1="23" y1="271.0806" x2="535" y2="271.0806">
		<stop  offset="0" style="stop-color:#0D945D"/>
		<stop  offset="1" style="stop-color:#2CB77F"/>
	</linearGradient>
	<path fill-rule="evenodd" clip-rule="evenodd" fill="url(#SVGID_1_)" d="M535,253c0,38.667,0,77.333,0,116
		c-3.186,7.219-10.045,5.581-16.17,6.044c0,2.318,0,4.129,0,5.94c0,26.496,0,52.993,0,79.489
		c-0.001,24.279-18.014,42.355-42.209,42.356c-137.482,0.005-274.963,0.012-412.444,0.014c-18.51,0-35.237-13.086-39.919-31.163
		c-0.324-1.252-0.834-2.455-1.258-3.681c0-120.667,0-241.333,0-362c0.313-0.568,0.767-1.103,0.92-1.711
		c5.29-20.95,20.784-33.116,42.231-33.118c55.632-0.006,111.265,0.017,166.896-0.082c2.898-0.005,5.968-0.596,8.665-1.658
		c24.133-9.506,48.193-19.191,72.288-28.793c7.267-2.896,10.753-1.126,13.159,6.273c2.602,8.003,5.379,15.948,8.172,24.192
		c13.137-4.484,25.712-8.771,38.283-13.067c13.58-4.64,13.938-4.603,19.209,8.911c1.352,3.467,3.227,4.321,6.652,4.287
		c15.322-0.151,30.647-0.088,45.971-0.059c22.967,0.044,41.293,18.274,41.378,41.144c0.028,7.81,0.005,15.62,0.005,23.344
		c1.103,0.487,1.844,0.868,2.622,1.15c19.257,6.985,29.374,21.335,29.377,41.694c0.003,20.82,0.001,41.641,0.001,62.461
		c0,1.937,0,3.873,0,6.07C525.335,247.226,531.805,246.044,535,253z M503.152,374.83c-3.072,0-5.389,0-7.705,0
		c-19.163-0.002-38.328,0.189-57.488-0.048c-34.08-0.423-63.483-30.976-62.799-64.979c0.673-33.49,30.156-62.524,63.693-62.64
		c19.496-0.067,38.992-0.01,58.488-0.008c1.777,0,3.557,0,5.816,0c0-2.36,0-4.156,0-5.952c0.004-21.329,0.012-42.658,0.011-63.987
		c-0.002-17.634-8.815-26.385-26.394-26.383c-135.139,0.012-270.276-0.058-405.414,0.107c-11.291,0.015-21.888-1.247-31.372-7.8
		c-0.154-0.106-0.583,0.184-1.141,0.38c0,1.239,0,2.563,0,3.887c-0.006,104.979-0.028,209.956,0.001,314.935
		c0.004,15.664,9.206,24.808,24.943,24.81c138.137,0.022,276.275,0.018,414.412-0.018c15.773-0.004,24.889-9.092,24.928-24.774
		c0.066-25.828,0.02-51.656,0.02-77.483C503.152,381.744,503.152,378.612,503.152,374.83z M314.193,57.298
		c-64.564,25.83-128.252,51.309-191.939,76.786c0.107,0.233,0.213,0.466,0.319,0.698c72.323,0,144.647,0,217.479,0
		C331.387,108.818,322.891,83.357,314.193,57.298z M518.912,262.833c-27.256,0-53.9-0.046-80.544,0.014
		c-27.007,0.06-47.462,20.521-47.534,47.431c-0.075,28.162,19.911,48.765,47.589,48.871c25.317,0.097,50.635,0.025,75.952,0.01
		c1.447-0.001,2.895-0.17,4.537-0.273C518.912,326.843,518.912,295.119,518.912,262.833z M195.671,87.923
		c-0.074-0.358-0.148-0.716-0.223-1.074c-19.303,0-38.605,0.001-57.908,0c-25.147-0.002-50.296-0.1-75.443,0.034
		c-11.911,0.063-20.352,7.129-22.78,18.486c-2.477,11.59,2.465,23.307,12.346,27.337c9.665,3.942,20.104,4.351,29.734,0.76
		c23.359-8.709,46.385-18.313,69.537-27.577C165.854,99.919,180.759,93.913,195.671,87.923z M401.493,86.899
		c0.208,1.213,0.209,1.896,0.444,2.485c5.713,14.364,11.359,28.758,17.334,43.013c0.572,1.369,3.208,2.628,4.904,2.652
		c14.318,0.209,28.641,0.13,42.963,0.1c1.26-0.003,2.518-0.274,4.031-0.45c0-1.84,0.004-3.324-0.001-4.809
		c-0.023-7.327,0.28-14.673-0.151-21.976c-0.675-11.432-9.6-20.578-21.036-20.901C434.024,86.562,418.045,86.899,401.493,86.899z
		 M340.845,85.725c0,1.079-0.126,1.604,0.019,2.039c4.958,14.968,9.9,29.941,15.01,44.857c0.365,1.065,1.977,2.417,3.021,2.429
		c14.592,0.159,29.186,0.108,44.588,0.108c-8.461-21.123-16.643-41.547-24.984-62.373C365.67,77.193,353.191,81.481,340.845,85.725z
		"/>
	<linearGradient id="SVGID_2_" gradientUnits="userSpaceOnUse" x1="55.1904" y1="175.022" x2="86.8096" y2="175.022">
		<stop  offset="0" style="stop-color:#0D945D"/>
		<stop  offset="1" style="stop-color:#2CB77F"/>
	</linearGradient>
	<path fill-rule="evenodd" clip-rule="evenodd" fill="url(#SVGID_2_)" d="M71.014,167.177c2.659-0.007,5.328-0.152,7.975,0.025
		c4.653,0.312,7.968,3.838,7.816,8.072c-0.146,4.089-3.323,7.326-7.844,7.495c-5.311,0.2-10.642,0.223-15.951,0.011
		c-4.653-0.187-7.966-3.821-7.814-8.056c0.146-4.091,3.322-7.229,7.843-7.51C65.688,167.05,68.354,167.185,71.014,167.177z"/>
	<linearGradient id="SVGID_3_" gradientUnits="userSpaceOnUse" x1="119.1929" y1="174.9854" x2="150.8052" y2="174.9854">
		<stop  offset="0" style="stop-color:#0D945D"/>
		<stop  offset="1" style="stop-color:#2CB77F"/>
	</linearGradient>
	<path fill-rule="evenodd" clip-rule="evenodd" fill="url(#SVGID_3_)" d="M134.486,182.81c-2.492,0.004-4.992,0.136-7.474-0.025
		c-4.464-0.29-7.675-3.481-7.815-7.548c-0.139-4.004,3.018-7.74,7.355-7.956c5.634-0.28,11.304-0.29,16.936,0.004
		c4.321,0.227,7.646,4.031,7.291,7.985c-0.395,4.361-2.994,7.014-7.329,7.477C140.494,183.062,137.477,182.807,134.486,182.81z"/>
	<linearGradient id="SVGID_4_" gradientUnits="userSpaceOnUse" x1="183.1958" y1="174.9902" x2="214.8057" y2="174.9902">
		<stop  offset="0" style="stop-color:#0D945D"/>
		<stop  offset="1" style="stop-color:#2CB77F"/>
	</linearGradient>
	<path fill-rule="evenodd" clip-rule="evenodd" fill="url(#SVGID_4_)" d="M198.879,182.825c-2.326,0.001-4.653,0.066-6.977-0.013
		c-5.188-0.176-8.617-3.235-8.705-7.677c-0.091-4.563,3.525-7.843,8.946-7.944c4.649-0.088,9.304-0.103,13.952,0.005
		c5.146,0.119,8.64,3.282,8.709,7.669c0.068,4.402-3.398,7.715-8.452,7.94C203.865,182.916,201.37,182.824,198.879,182.825z"/>
	<linearGradient id="SVGID_5_" gradientUnits="userSpaceOnUse" x1="247.1963" y1="174.9697" x2="278.8027" y2="174.9697">
		<stop  offset="0" style="stop-color:#0D945D"/>
		<stop  offset="1" style="stop-color:#2CB77F"/>
	</linearGradient>
	<path fill-rule="evenodd" clip-rule="evenodd" fill="url(#SVGID_5_)" d="M262.741,182.8c-2.657,0-5.328,0.171-7.97-0.038
		c-4.417-0.35-7.595-3.734-7.575-7.767c0.02-4.059,3.169-7.537,7.595-7.737c5.471-0.246,10.968-0.245,16.438,0.001
		c4.438,0.2,7.576,3.676,7.574,7.743c-0.002,4.041-3.191,7.319-7.591,7.795c-0.329,0.036-0.664,0.026-0.996,0.026
		c-2.491,0.002-4.983,0.001-7.475,0.001C262.741,182.816,262.741,182.808,262.741,182.8z"/>
	<linearGradient id="SVGID_6_" gradientUnits="userSpaceOnUse" x1="311.1768" y1="174.9727" x2="342.8062" y2="174.9727">
		<stop  offset="0" style="stop-color:#0D945D"/>
		<stop  offset="1" style="stop-color:#2CB77F"/>
	</linearGradient>
	<path fill-rule="evenodd" clip-rule="evenodd" fill="url(#SVGID_6_)" d="M327.436,182.814c-2.824-0.003-5.66,0.155-8.471-0.039
		c-4.469-0.309-7.671-3.553-7.785-7.593c-0.119-4.176,3.266-7.797,7.904-7.97c5.308-0.197,10.636-0.185,15.943,0.022
		c4.449,0.175,7.658,3.509,7.775,7.568c0.121,4.201-3.229,7.678-7.895,7.983C332.428,182.95,329.927,182.816,327.436,182.814z"/>
	<linearGradient id="SVGID_7_" gradientUnits="userSpaceOnUse" x1="375.1953" y1="174.9746" x2="406.8047" y2="174.9746">
		<stop  offset="0" style="stop-color:#0D945D"/>
		<stop  offset="1" style="stop-color:#2CB77F"/>
	</linearGradient>
	<path fill-rule="evenodd" clip-rule="evenodd" fill="url(#SVGID_7_)" d="M390.752,182.811c-2.66,0.007-5.332,0.176-7.975-0.03
		c-4.38-0.343-7.572-3.75-7.582-7.791c-0.01-4.07,3.144-7.543,7.579-7.736c5.474-0.239,10.975-0.252,16.448-0.013
		c4.379,0.191,7.571,3.731,7.582,7.77c0.011,4.066-3.149,7.431-7.58,7.755C396.414,182.97,393.576,182.803,390.752,182.811z"/>
	<linearGradient id="SVGID_8_" gradientUnits="userSpaceOnUse" x1="439.1968" y1="174.9785" x2="470.8208" y2="174.9785">
		<stop  offset="0" style="stop-color:#0D945D"/>
		<stop  offset="1" style="stop-color:#2CB77F"/>
	</linearGradient>
	<path fill-rule="evenodd" clip-rule="evenodd" fill="url(#SVGID_8_)" d="M454.805,182.805c-2.658,0-5.328,0.155-7.972-0.035
		c-4.403-0.316-7.602-3.664-7.636-7.714c-0.035-4.033,3.139-7.59,7.535-7.793c5.471-0.253,10.969-0.251,16.44-0.009
		c4.423,0.196,7.615,3.678,7.647,7.702c0.035,4.192-3.359,7.591-8.043,7.854c-2.65,0.149-5.314,0.027-7.973,0.027
		C454.805,182.826,454.805,182.815,454.805,182.805z"/>
	<linearGradient id="SVGID_9_" gradientUnits="userSpaceOnUse" x1="55.1948" y1="462.9736" x2="86.8066" y2="462.9736">
		<stop  offset="0" style="stop-color:#0D945D"/>
		<stop  offset="1" style="stop-color:#2CB77F"/>
	</linearGradient>
	<path fill-rule="evenodd" clip-rule="evenodd" fill="url(#SVGID_9_)" d="M70.584,470.817c-2.49,0-4.99,0.132-7.473-0.028
		c-4.72-0.305-8.014-3.699-7.914-7.947c0.096-4.06,3.285-7.415,7.747-7.6c5.306-0.22,10.634-0.213,15.942-0.013
		c4.695,0.178,8.031,3.723,7.917,7.93c-0.11,4.067-3.288,7.24-7.75,7.632c-1.484,0.13-2.987,0.049-4.482,0.057
		c-1.329,0.006-2.657,0.001-3.987,0.001C70.584,470.838,70.584,470.828,70.584,470.817z"/>
	<linearGradient id="SVGID_10_" gradientUnits="userSpaceOnUse" x1="119.1934" y1="462.959" x2="150.7822" y2="462.959">
		<stop  offset="0" style="stop-color:#0D945D"/>
		<stop  offset="1" style="stop-color:#2CB77F"/>
	</linearGradient>
	<path fill-rule="evenodd" clip-rule="evenodd" fill="url(#SVGID_10_)" d="M134.938,470.81c-2.658,0-5.325,0.148-7.971-0.033
		c-4.478-0.308-7.676-3.536-7.771-7.585c-0.094-4.035,3.035-7.699,7.4-7.914c5.633-0.277,11.309-0.334,16.932,0.026
		c4.346,0.277,6.908,3.121,7.236,7.505c0.299,3.996-3.012,7.562-7.359,7.937c-2.803,0.241-5.644,0.045-8.467,0.045
		C134.938,470.797,134.938,470.804,134.938,470.81z"/>
	<linearGradient id="SVGID_11_" gradientUnits="userSpaceOnUse" x1="183.1797" y1="463.0215" x2="214.8032" y2="463.0215">
		<stop  offset="0" style="stop-color:#0D945D"/>
		<stop  offset="1" style="stop-color:#2CB77F"/>
	</linearGradient>
	<path fill-rule="evenodd" clip-rule="evenodd" fill="url(#SVGID_11_)" d="M199.195,455.195c2.658,0,5.328-0.155,7.972,0.035
		c4.399,0.316,7.602,3.667,7.636,7.714c0.035,4.03-3.143,7.59-7.537,7.793c-5.471,0.253-10.969,0.252-16.439,0.009
		c-4.426-0.197-7.615-3.677-7.646-7.703c-0.033-4.196,3.355-7.59,8.043-7.854c2.65-0.149,5.314-0.027,7.973-0.027
		C199.195,455.174,199.195,455.185,199.195,455.195z"/>
	<linearGradient id="SVGID_12_" gradientUnits="userSpaceOnUse" x1="247.1934" y1="462.9746" x2="278.8066" y2="462.9746">
		<stop  offset="0" style="stop-color:#0D945D"/>
		<stop  offset="1" style="stop-color:#2CB77F"/>
	</linearGradient>
	<path fill-rule="evenodd" clip-rule="evenodd" fill="url(#SVGID_12_)" d="M262.891,470.839c-2.492,0-4.99,0.1-7.478-0.021
		c-4.754-0.232-8.12-3.446-8.218-7.688c-0.097-4.236,3.227-7.735,7.937-7.904c5.312-0.191,10.642-0.216,15.951,0.002
		c4.425,0.182,7.628,3.584,7.722,7.644c0.098,4.231-3.233,7.645-7.938,7.921c-2.65,0.156-5.316,0.028-7.977,0.028
		C262.891,470.826,262.891,470.832,262.891,470.839z"/>
	<linearGradient id="SVGID_13_" gradientUnits="userSpaceOnUse" x1="311.2212" y1="462.9653" x2="342.8223" y2="462.9653">
		<stop  offset="0" style="stop-color:#0D945D"/>
		<stop  offset="1" style="stop-color:#2CB77F"/>
	</linearGradient>
	<path fill-rule="evenodd" clip-rule="evenodd" fill="url(#SVGID_13_)" d="M326.603,470.795c-2.657,0-5.331,0.179-7.97-0.041
		c-4.341-0.36-7.673-3.889-7.396-7.896c0.304-4.388,2.872-7.253,7.202-7.547c5.623-0.383,11.3-0.312,16.934-0.036
		c4.376,0.213,7.536,3.874,7.447,7.883c-0.088,4.035-3.316,7.335-7.748,7.634c-2.811,0.189-5.646,0.035-8.47,0.035
		C326.603,470.815,326.603,470.806,326.603,470.795z"/>
	<linearGradient id="SVGID_14_" gradientUnits="userSpaceOnUse" x1="375.1953" y1="463.0264" x2="406.8057" y2="463.0264">
		<stop  offset="0" style="stop-color:#0D945D"/>
		<stop  offset="1" style="stop-color:#2CB77F"/>
	</linearGradient>
	<path fill-rule="evenodd" clip-rule="evenodd" fill="url(#SVGID_14_)" d="M391.105,455.181c2.491-0.002,4.988-0.104,7.473,0.021
		c4.791,0.24,8.152,3.431,8.227,7.649c0.074,4.222-3.248,7.742-7.941,7.921c-5.307,0.201-10.635,0.208-15.941-0.016
		c-4.492-0.19-7.636-3.515-7.725-7.606c-0.092-4.206,3.258-7.649,7.938-7.938C385.781,455.049,388.447,455.182,391.105,455.181z"/>
	<linearGradient id="SVGID_15_" gradientUnits="userSpaceOnUse" x1="439.1943" y1="462.9731" x2="470.8047" y2="462.9731">
		<stop  offset="0" style="stop-color:#0D945D"/>
		<stop  offset="1" style="stop-color:#2CB77F"/>
	</linearGradient>
	<path fill-rule="evenodd" clip-rule="evenodd" fill="url(#SVGID_15_)" d="M454.895,470.819c-2.491,0.002-4.988,0.104-7.473-0.021
		c-4.793-0.24-8.152-3.429-8.227-7.649c-0.074-4.224,3.246-7.741,7.939-7.92c5.307-0.203,10.635-0.209,15.941,0.015
		c4.492,0.189,7.637,3.513,7.727,7.604c0.093,4.202-3.262,7.652-7.937,7.939C460.219,470.951,457.553,470.818,454.895,470.819z"/>
	<linearGradient id="SVGID_16_" gradientUnits="userSpaceOnUse" x1="407.1758" y1="311.0015" x2="470.8252" y2="311.0015">
		<stop  offset="0" style="stop-color:#0D945D"/>
		<stop  offset="1" style="stop-color:#2CB77F"/>
	</linearGradient>
	<path fill-rule="evenodd" clip-rule="evenodd" fill="url(#SVGID_16_)" d="M470.824,310.912
		c0.124,16.198-15.396,31.864-31.614,31.914c-16.368,0.05-31.833-15.155-32.032-31.494c-0.202-16.525,15.3-32.172,31.855-32.155
		C455.343,279.194,470.7,294.524,470.824,310.912z M439.008,294.835c-10.031-0.002-16.174,6.141-16.173,16.171
		c0.002,10.078,6.089,16.155,16.167,16.139c10.123-0.017,16.126-6.019,16.143-16.141
		C455.162,300.925,449.086,294.837,439.008,294.835z"/>
</g>
</svg>
