<?xml version="1.0" encoding="utf-8"?>
<!-- Generator: Adobe Illustrator 16.0.0, SVG Export Plug-In . SVG Version: 6.00 Build 0)  -->
<!DOCTYPE svg PUBLIC "-//W3C//DTD SVG 1.1//EN" "http://www.w3.org/Graphics/SVG/1.1/DTD/svg11.dtd">
<svg version="1.1" id="Layer_1" xmlns="http://www.w3.org/2000/svg" xmlns:xlink="http://www.w3.org/1999/xlink" x="0px" y="0px"
	 width="35px" height="35px" viewBox="0 0 35 35" enable-background="new 0 0 35 35" xml:space="preserve">
<circle fill-rule="evenodd" clip-rule="evenodd" fill="#BBFCE9" cx="17.203" cy="17.5" r="16.203"/>
<g>
	<path fill-rule="evenodd" clip-rule="evenodd" fill="#30AE01" d="M16.822,20.592c-0.03-0.273-0.055-0.548-0.045-0.824
		c0.007-0.092,0.007-0.183,0.013-0.273c0.027-0.372,0.099-0.734,0.213-1.086c0.013-0.033,0.027-0.07-0.02-0.078
		c-0.047-0.009-0.087-0.084-0.139-0.004c-0.116,0.175-0.23,0.35-0.334,0.533c-0.316,0.561-0.563,1.145-0.652,1.787
		c-0.031,0.225-0.023,0.447,0.013,0.669c0.022,0.138,0.024,0.274,0.008,0.41c-0.015,0.136-0.064,0.261-0.108,0.39l0,0
		c-0.016,0.012-0.022,0.031-0.027,0.052l0,0c-0.022,0.026-0.045,0.056-0.052,0.091l0,0c-0.026,0.027-0.052,0.055-0.064,0.092l0,0
		c-0.005,0.005-0.01,0.01-0.012,0.015l0,0c-0.022,0.011-0.037,0.026-0.042,0.052l0,0c-0.047,0.039-0.093,0.082-0.131,0.131l0,0
		c-0.024,0.006-0.039,0.02-0.052,0.039l0,0c-0.006,0.006-0.008,0.011-0.013,0.013l0,0c-0.005,0.005-0.01,0.011-0.016,0.014l0,0
		c-0.017,0.002-0.029,0.011-0.039,0.026l0,0c-0.005,0.005-0.01,0.009-0.015,0.014c-0.003-0.002-0.007,0-0.01,0.002
		c-0.005,0.004-0.01,0.008-0.012,0.012l0,0c-0.006,0.004-0.011,0.008-0.015,0.012l0,0c-0.037,0.012-0.07,0.033-0.093,0.065l0,0
		c-0.031,0.011-0.059,0.026-0.079,0.054l0,0c-0.017,0-0.031,0.01-0.039,0.025V22.82c-0.017,0.004-0.032,0.011-0.04,0.027l0,0
		c-0.017,0.002-0.031,0.011-0.039,0.026l0,0c-0.036,0.009-0.064,0.03-0.091,0.054l0,0c-0.047,0.02-0.092,0.047-0.131,0.078l0,0
		c-0.037,0.008-0.063,0.029-0.092,0.053l0,0c-0.036,0.008-0.063,0.029-0.094,0.053l0.002-0.002
		c-0.039,0.013-0.073,0.029-0.105,0.055l0,0c-0.02,0.002-0.04,0.01-0.052,0.026v-0.002c-0.02,0.004-0.04,0.011-0.052,0.028l0,0
		c-0.021,0.002-0.04,0.01-0.055,0.025l0,0c-0.081,0.027-0.16,0.062-0.234,0.105l0,0c-0.046,0.01-0.092,0.023-0.131,0.053v-0.002
		c-0.052,0.009-0.101,0.027-0.146,0.054V23.45c-0.118,0.035-0.236,0.071-0.355,0.102c-0.239,0.06-0.481,0.081-0.729,0.05
		c-0.12-0.017-0.239-0.05-0.357-0.072l0,0c-0.045-0.021-0.094-0.042-0.144-0.051l0,0c-0.034-0.028-0.076-0.041-0.118-0.053l0,0
		c-0.066-0.035-0.131-0.07-0.197-0.106v0.002c-0.021-0.026-0.047-0.042-0.079-0.054l0,0c-0.02-0.024-0.047-0.041-0.076-0.053v0.002
		c-0.006-0.006-0.011-0.011-0.015-0.014l0,0c-0.006-0.004-0.011-0.008-0.013-0.012l-0.002-0.001
		c-0.043-0.036-0.077-0.083-0.129-0.104l0,0c-0.006-0.006-0.01-0.011-0.015-0.016l0.002,0.002c-0.004-0.004-0.01-0.01-0.015-0.014
		l0,0c-0.005-0.004-0.008-0.01-0.012-0.013l0,0c-0.006-0.005-0.011-0.011-0.015-0.015l0,0c-0.004-0.003-0.008-0.008-0.013-0.013l0,0
		c-0.006-0.003-0.008-0.007-0.013-0.013l0,0c-0.005-0.004-0.01-0.01-0.015-0.012h0.003c-0.006-0.006-0.011-0.01-0.015-0.016l0,0
		c-0.006-0.003-0.009-0.007-0.013-0.012l0,0c-0.035-0.061-0.087-0.106-0.131-0.158l0,0c-0.006-0.004-0.011-0.008-0.013-0.012l0,0
		c-0.013-0.037-0.039-0.064-0.066-0.092h-0.002c-0.004-0.005-0.008-0.009-0.013-0.014l0,0c-0.003-0.004-0.008-0.009-0.013-0.014l0,0
		c-0.016-0.051-0.047-0.09-0.079-0.131l0,0c-0.005-0.004-0.008-0.008-0.012-0.014l0,0c-0.006-0.025-0.019-0.049-0.04-0.064l0,0
		c-0.003-0.021-0.01-0.04-0.024-0.053l0,0c-0.002-0.021-0.01-0.039-0.027-0.053l0,0c-0.003-0.021-0.01-0.039-0.027-0.053l0,0
		c-0.003-0.02-0.01-0.037-0.024-0.053l0,0c-0.03-0.113-0.087-0.218-0.111-0.333c-0.015-0.057-0.034-0.11-0.052-0.168
		c-0.02-0.167-0.042-0.338-0.063-0.506c0-0.02,0.004-0.04,0-0.06c-0.004-0.254,0.016-0.504,0.05-0.755
		c0.022-0.147,0.054-0.295,0.085-0.442c0.007-0.029,0.004-0.041-0.031-0.044c-0.07-0.005-0.143-0.015-0.214-0.024
		c-0.286-0.035-0.563-0.113-0.822-0.239c-0.297-0.142-0.55-0.341-0.774-0.581c-0.16-0.172-0.297-0.359-0.405-0.568
		c-0.058-0.112-0.097-0.233-0.153-0.346c-0.017-0.117-0.054-0.229-0.071-0.346c-0.041-0.293-0.026-0.583,0.036-0.872
		c0.149-0.668,0.534-1.18,1.067-1.586c0.556-0.423,1.191-0.678,1.858-0.864c0.61-0.17,1.229-0.259,1.862-0.293
		c0.354-0.02,0.71-0.031,1.065-0.011c0.286,0.017,0.573,0.042,0.854,0.087c0.052,0.008,0.095,0.005,0.139-0.031
		c1.034-0.808,2.136-1.511,3.323-2.073c0.647-0.307,1.312-0.574,2.002-0.768c0.561-0.158,1.132-0.262,1.717-0.268
		c0.422-0.004,0.829,0.062,1.199,0.272c0.414,0.235,0.711,0.575,0.876,1.023c0.148,0.397,0.143,0.804,0.064,1.214
		c-0.013,0.053-0.021,0.107-0.032,0.16c-0.062,0.211-0.126,0.421-0.203,0.628c-0.23,0.619-0.513,1.217-0.774,1.824
		c-0.278,0.643-0.543,1.29-0.743,1.961c-0.064,0.209-0.113,0.419-0.155,0.634c-0.005,0.024-0.021,0.06,0.022,0.067
		c0.108,0.021,0.205,0.076,0.303,0.121c0.176,0.115,0.339,0.244,0.472,0.408c0.286,0.359,0.457,0.762,0.444,1.227
		c-0.002,0.174-0.039,0.342-0.091,0.506c-0.01,0.033-0.027,0.065-0.027,0.1c-0.009,0.021-0.021,0.039-0.032,0.059
		c-0.202,0.515-0.53,0.939-0.948,1.297c-0.295,0.254-0.623,0.461-0.982,0.62c-0.38,0.169-0.776,0.269-1.191,0.294
		c-0.417,0.023-0.829-0.025-1.234-0.137c-0.646-0.18-1.207-0.498-1.654-1.007c-0.349-0.397-0.587-0.852-0.735-1.357
		C16.891,20.92,16.863,20.755,16.822,20.592z M14.817,16.412c-0.02,0.041-0.047,0.058-0.071,0.08
		c-0.484,0.464-0.941,0.955-1.351,1.488c-0.422,0.551-0.782,1.135-1.04,1.782c-0.179,0.462-0.285,0.937-0.266,1.432
		c0.013,0.325,0.105,0.624,0.338,0.864c0.2,0.21,0.437,0.296,0.724,0.215c0.511-0.143,0.971-0.391,1.399-0.699
		c0.032-0.024,0.026-0.051,0.022-0.081c-0.055-0.282-0.059-0.569-0.032-0.854c0.052-0.572,0.215-1.118,0.439-1.644
		c0.351-0.821,0.845-1.553,1.407-2.242c0.022-0.03,0.044-0.037,0.081-0.024c0.185,0.062,0.368,0.126,0.549,0.197
		c0.339,0.131,0.667,0.28,0.995,0.435c0.021,0.009,0.039,0.029,0.064,0.005c0.146-0.15,0.232-0.353,0.096-0.57
		c-0.079-0.126-0.194-0.21-0.318-0.284c-0.266-0.159-0.553-0.272-0.841-0.376c-0.055-0.02-0.052-0.033-0.015-0.07
		c0.149-0.155,0.301-0.311,0.459-0.459c0.577-0.553,1.202-1.044,1.883-1.466c0.586-0.361,1.192-0.667,1.861-0.84
		c0.312-0.081,0.625-0.131,0.945-0.117c0.2,0.008,0.252,0.092,0.178,0.278c-0.06,0.15-0.153,0.28-0.251,0.404
		c-0.312,0.393-0.665,0.749-1.018,1.104c-0.585,0.589-1.16,1.188-1.676,1.84c-0.371,0.47-0.689,0.972-0.94,1.517
		c-0.321,0.697-0.438,1.418-0.295,2.176c0.083,0.443,0.272,0.834,0.588,1.157c0.257,0.262,0.57,0.421,0.921,0.515
		c0.383,0.104,0.768,0.141,1.16,0.052c0.464-0.106,0.856-0.341,1.195-0.671c0.214-0.207,0.387-0.445,0.478-0.732
		c0.025-0.07,0.048-0.143,0.031-0.219c-0.033-0.143-0.104-0.262-0.216-0.357c-0.029-0.027-0.057-0.031-0.094-0.016
		c-0.155,0.061-0.313,0.09-0.481,0.064c-0.225-0.03-0.385-0.141-0.464-0.358c-0.076-0.209-0.06-0.423-0.045-0.636
		c0.033-0.52,0.149-1.023,0.299-1.521c0.188-0.619,0.43-1.217,0.685-1.812c0.259-0.612,0.545-1.214,0.785-1.835
		c0.113-0.293,0.225-0.587,0.251-0.905c0.032-0.351-0.157-0.626-0.5-0.71c-0.266-0.064-0.531-0.038-0.795-0.009
		c-0.447,0.05-0.882,0.16-1.307,0.302c-0.81,0.272-1.582,0.628-2.327,1.043c-0.937,0.524-1.812,1.14-2.636,1.824
		c-0.034,0.029-0.064,0.04-0.11,0.03c-0.507-0.106-1.018-0.178-1.534-0.184c-0.604-0.007-1.206,0.035-1.799,0.153
		c-0.572,0.113-1.123,0.285-1.629,0.576c-0.302,0.174-0.567,0.388-0.733,0.704c-0.144,0.273-0.193,0.561-0.092,0.858
		c0.087,0.252,0.258,0.438,0.467,0.588c0.302,0.215,0.645,0.267,1.005,0.233c0.079-0.007,0.156-0.044,0.217-0.1
		c0.048-0.042,0.064-0.082,0.035-0.147c-0.102-0.231-0.153-0.473-0.104-0.728c0.068-0.37,0.278-0.637,0.592-0.833
		c0.336-0.213,0.716-0.308,1.102-0.38C13.659,16.341,14.234,16.383,14.817,16.412z"/>
	<path fill-rule="evenodd" clip-rule="evenodd" fill="#02674E" d="M24.112,29.619c-0.59,0.351-1.21,0.635-1.854,0.874
		c-0.756,0.279-1.53,0.485-2.325,0.616c-0.814,0.135-1.635,0.188-2.461,0.171c-0.917-0.022-1.818-0.146-2.709-0.357
		c-1.713-0.405-3.271-1.142-4.692-2.173c-1.324-0.96-2.419-2.133-3.312-3.5c-0.732-1.123-1.285-2.328-1.651-3.619
		c-0.199-0.705-0.338-1.422-0.421-2.15c-0.075-0.649-0.104-1.303-0.085-1.957c0.037-1.417,0.301-2.792,0.782-4.125
		c0.486-1.354,1.165-2.604,2.054-3.737c0.804-1.024,1.738-1.905,2.793-2.666c0.868-0.627,1.807-1.128,2.801-1.522
		c0.866-0.343,1.763-0.585,2.685-0.743c0.947-0.164,1.903-0.204,2.866-0.155c1.446,0.074,2.839,0.385,4.182,0.926
		c1.155,0.465,2.219,1.09,3.187,1.877c0.197,0.161,0.393,0.328,0.583,0.499c0.081,0.073,0.158,0.152,0.236,0.229
		c-0.008,0.005-0.015,0.012-0.022,0.018c-0.214-0.169-0.432-0.333-0.653-0.489c-1.199-0.843-2.503-1.474-3.908-1.891
		c-0.74-0.22-1.495-0.368-2.264-0.452C19.084,5.2,18.247,5.188,17.408,5.26c-1.668,0.146-3.257,0.584-4.75,1.346
		c-1.25,0.638-2.375,1.448-3.353,2.457c-1.207,1.246-2.138,2.673-2.772,4.291C6.22,14.159,5.99,14.988,5.85,15.843
		c-0.17,1.029-0.225,2.066-0.148,3.108c0.136,1.831,0.659,3.547,1.531,5.158c0.708,1.313,1.639,2.451,2.752,3.443
		c1.212,1.079,2.585,1.887,4.104,2.448c0.82,0.302,1.661,0.524,2.525,0.646c1.009,0.145,2.023,0.195,3.04,0.108
		c1.22-0.104,2.401-0.364,3.55-0.79c0.299-0.111,0.593-0.232,0.884-0.36C24.098,29.607,24.107,29.607,24.112,29.619z"/>
	<path fill-rule="evenodd" clip-rule="evenodd" fill="#032E24" d="M16.822,20.592c0.041,0.163,0.068,0.328,0.114,0.489
		c0.148,0.506,0.387,0.96,0.735,1.357c0.447,0.509,1.008,0.827,1.654,1.007c0.405,0.111,0.817,0.16,1.234,0.137
		c0.415-0.025,0.812-0.125,1.191-0.294c0.359-0.159,0.688-0.366,0.982-0.62c0.418-0.357,0.746-0.782,0.948-1.297
		c0.011-0.02,0.023-0.038,0.032-0.059c0.21,0.496,0.158,0.982-0.055,1.462c-0.301,0.68-0.795,1.186-1.418,1.575
		c-0.413,0.256-0.857,0.43-1.339,0.506c-0.656,0.104-1.296,0.021-1.915-0.213c-0.884-0.333-1.501-0.945-1.879-1.805
		c-0.204-0.463-0.298-0.955-0.317-1.461C16.782,21.115,16.79,20.853,16.822,20.592z"/>
	<path fill-rule="evenodd" clip-rule="evenodd" fill="#032D24" d="M15.299,22.654c0.003-0.002,0.007-0.004,0.01-0.002
		c0.005-0.005,0.01-0.009,0.015-0.014l0,0c0.021,0.001,0.039,0.002,0.039-0.026l0,0c0.006-0.003,0.011-0.009,0.016-0.014l0,0
		c0.005-0.002,0.007-0.007,0.013-0.013l0,0c0.029,0.002,0.052-0.004,0.052-0.039l0,0c0.059-0.011,0.121-0.071,0.131-0.131l0,0
		c0.034-0.001,0.042-0.023,0.042-0.052l0,0c0.002-0.005,0.007-0.01,0.012-0.015l0,0c0.049-0.01,0.069-0.042,0.064-0.092l0,0
		c0.044-0.014,0.055-0.049,0.052-0.091l0,0c0.037-0.003,0.024-0.032,0.027-0.052l0,0c0.025,0,0.025-0.02,0.032-0.035
		c0.029-0.051,0.034-0.113,0.071-0.162c-0.024,0.218-0.034,0.437,0.003,0.654c0.019,0.108,0.031,0.219,0.026,0.33
		c-0.017,0.425-0.197,0.768-0.535,1.02c-0.544,0.405-1.138,0.715-1.79,0.914c-0.856,0.261-1.708-0.063-2.219-0.711
		c-0.407-0.514-0.573-1.101-0.57-1.743c0-0.2,0.013-0.397,0.042-0.594c0.013,0.11,0.052,0.214,0.092,0.317
		c0.017,0.052,0.022,0.115,0.076,0.152l0,0c0,0.021-0.013,0.05,0.024,0.053l0,0c0.003,0.021-0.01,0.049,0.027,0.053l0,0
		c0.003,0.021-0.01,0.049,0.027,0.053l0,0c0,0.02-0.013,0.05,0.024,0.053l0,0c0,0.029-0.005,0.063,0.04,0.064l0,0
		c0.004,0.006,0.007,0.01,0.012,0.014l0,0c0.003,0.059,0.027,0.104,0.079,0.131l0,0c0.005,0.005,0.01,0.01,0.013,0.014l0,0
		c0.005,0.005,0.009,0.009,0.013,0.014h0.002c-0.002,0.049,0.015,0.082,0.066,0.092l0,0c0.002,0.004,0.007,0.008,0.013,0.012l0,0
		c0.015,0.076,0.061,0.127,0.131,0.158l0,0c0.004,0.005,0.007,0.009,0.013,0.012l0,0c0.004,0.006,0.009,0.01,0.015,0.016h-0.003
		c0.005,0.002,0.01,0.008,0.015,0.012l0,0c0.005,0.006,0.007,0.01,0.013,0.013l0,0c0.005,0.005,0.009,0.01,0.013,0.013l0,0
		c0.004,0.004,0.009,0.01,0.015,0.015l0,0c0.004,0.003,0.007,0.009,0.012,0.013l0,0c0.005,0.004,0.011,0.01,0.015,0.014
		l-0.002-0.002c0.005,0.005,0.009,0.01,0.015,0.016l0,0c0.024,0.057,0.059,0.103,0.129,0.104l0.002,0.001
		c0.002,0.004,0.007,0.008,0.013,0.012l0,0c0.004,0.003,0.009,0.008,0.015,0.014v-0.002c0.004,0.049,0.037,0.056,0.076,0.053l0,0
		c0.007,0.05,0.04,0.057,0.079,0.054v-0.002c0.05,0.069,0.116,0.102,0.197,0.106l0,0c0.027,0.047,0.069,0.056,0.118,0.053l0,0
		c0.032,0.056,0.09,0.054,0.144,0.051l0,0c0,0.016,0.007,0.022,0.022,0.027c0.115,0.045,0.237,0.063,0.355,0.074
		c0.199,0.02,0.405,0.016,0.603-0.025c0.128-0.025,0.254-0.064,0.38-0.104c0.027-0.009,0.068-0.009,0.081-0.051v0.002
		c0.057,0.003,0.108-0.004,0.146-0.054V23.4c0.05,0.001,0.102,0.001,0.131-0.053l0,0c0.089-0.012,0.17-0.037,0.234-0.105l0,0
		c0.022-0.002,0.05,0.01,0.055-0.025l0,0c0.02-0.004,0.047,0.01,0.052-0.028v0.002c0.021-0.003,0.05,0.009,0.052-0.026l0,0
		c0.045,0.002,0.089-0.002,0.105-0.055l-0.002,0.002c0.045,0.002,0.079-0.009,0.094-0.053l0,0c0.043,0.002,0.077-0.008,0.092-0.053
		l0,0c0.057-0.004,0.106-0.021,0.131-0.078l0,0c0.042,0.002,0.078-0.008,0.091-0.054l0,0c0.021,0.001,0.039,0.003,0.039-0.026l0,0
		c0.021,0.002,0.04,0.004,0.04-0.027v0.002c0.021,0.002,0.039,0.002,0.039-0.025l0,0c0.037-0.003,0.072-0.006,0.079-0.054l0,0
		c0.045-0.003,0.08-0.019,0.093-0.065l0,0c0.004-0.004,0.009-0.008,0.015-0.012l0,0C15.289,22.662,15.294,22.658,15.299,22.654z"/>
	<path fill-rule="evenodd" clip-rule="evenodd" fill="#032E24" d="M8.508,18.191c0.057,0.112,0.096,0.233,0.153,0.346
		c0.108,0.209,0.245,0.396,0.405,0.568c0.225,0.24,0.478,0.439,0.774,0.581c0.26,0.126,0.536,0.204,0.822,0.239
		c0.071,0.01,0.144,0.02,0.214,0.024c0.035,0.003,0.038,0.015,0.031,0.044c-0.031,0.147-0.063,0.295-0.085,0.442
		c-0.034,0.251-0.054,0.501-0.05,0.755c0.004,0.02,0,0.04,0,0.06c-0.656-0.066-1.213-0.328-1.67-0.807
		c-0.312-0.329-0.531-0.706-0.627-1.15C8.397,18.924,8.419,18.556,8.508,18.191z"/>
	<path fill-rule="evenodd" clip-rule="evenodd" fill="#032E23" d="M22.917,19.072c-0.098-0.045-0.194-0.1-0.303-0.121
		c-0.044-0.008-0.027-0.043-0.022-0.067c0.042-0.215,0.091-0.425,0.155-0.634c0.2-0.672,0.465-1.319,0.743-1.961
		c0.262-0.607,0.544-1.205,0.774-1.824c0.077-0.207,0.142-0.417,0.203-0.628c0.084,0.243,0.108,0.493,0.096,0.748
		c-0.026,0.479-0.179,0.926-0.353,1.367c-0.232,0.589-0.498,1.162-0.748,1.742C23.269,18.146,23.081,18.605,22.917,19.072z"/>
	<path fill-rule="evenodd" clip-rule="evenodd" fill="#032F21" d="M15.874,21.918c-0.037,0.049-0.042,0.111-0.071,0.162
		c-0.007,0.016-0.007,0.035-0.032,0.035c0.044-0.129,0.094-0.254,0.108-0.39c0.017-0.136,0.015-0.272-0.008-0.41
		c-0.036-0.222-0.044-0.444-0.013-0.669c0.09-0.643,0.336-1.227,0.652-1.787c0.104-0.184,0.218-0.358,0.334-0.533
		c0.052-0.08,0.092-0.005,0.139,0.004c0.047,0.008,0.032,0.045,0.02,0.078c-0.114,0.352-0.186,0.714-0.213,1.086
		c-0.006,0.091-0.006,0.182-0.013,0.273c-0.146,0.203-0.267,0.418-0.38,0.64c-0.22,0.417-0.39,0.854-0.487,1.318
		C15.896,21.789,15.887,21.854,15.874,21.918z"/>
	<path fill-rule="evenodd" clip-rule="evenodd" fill="#032F21" d="M10.999,22.258c-0.054-0.037-0.06-0.101-0.076-0.152
		c-0.04-0.104-0.079-0.207-0.092-0.317c0.002-0.011,0.005-0.021,0.005-0.031c0.018,0.058,0.037,0.111,0.052,0.168
		C10.912,22.04,10.969,22.145,10.999,22.258z"/>
	<path fill-rule="evenodd" clip-rule="evenodd" fill="#42786B" d="M24.112,29.619c-0.005-0.012-0.015-0.012-0.024-0.015
		c0.066-0.033,0.133-0.065,0.202-0.099c0.002,0.005,0.006,0.01,0.008,0.015C24.235,29.555,24.182,29.598,24.112,29.619z"/>
	<path fill-rule="evenodd" clip-rule="evenodd" fill="#357162" d="M26.748,8.124c0.008-0.006,0.015-0.013,0.022-0.018
		c0.048,0.043,0.097,0.086,0.144,0.13c-0.005,0.004-0.008,0.008-0.01,0.012C26.848,8.212,26.798,8.167,26.748,8.124z"/>
	<path fill-rule="evenodd" clip-rule="evenodd" fill="#032F21" d="M13.803,23.45c-0.013,0.042-0.054,0.042-0.081,0.051
		c-0.126,0.04-0.252,0.079-0.38,0.104c-0.197,0.041-0.403,0.045-0.603,0.025c-0.118-0.012-0.24-0.029-0.355-0.074
		c-0.016-0.005-0.022-0.012-0.022-0.027c0.118,0.022,0.237,0.056,0.357,0.072c0.247,0.031,0.489,0.01,0.729-0.05
		C13.566,23.521,13.685,23.485,13.803,23.45z"/>
	<path fill-rule="evenodd" clip-rule="evenodd" fill="#032F21" d="M14.313,23.242c-0.064,0.068-0.146,0.094-0.234,0.105
		C14.153,23.304,14.232,23.27,14.313,23.242z"/>
	<path fill-rule="evenodd" clip-rule="evenodd" fill="#032F21" d="M12.1,23.426c-0.081-0.005-0.147-0.037-0.197-0.106
		C11.969,23.355,12.033,23.391,12.1,23.426z"/>
	<path fill-rule="evenodd" clip-rule="evenodd" fill="#032F21" d="M11.471,22.967c-0.07-0.031-0.116-0.082-0.131-0.158
		C11.384,22.86,11.436,22.906,11.471,22.967z"/>
	<path fill-rule="evenodd" clip-rule="evenodd" fill="#032F21" d="M15.573,22.416c-0.01,0.06-0.072,0.12-0.131,0.131
		C15.48,22.498,15.526,22.455,15.573,22.416z"/>
	<path fill-rule="evenodd" clip-rule="evenodd" fill="#032F21" d="M11.718,23.19c-0.07-0.002-0.104-0.048-0.129-0.104
		C11.641,23.107,11.675,23.154,11.718,23.19z"/>
	<path fill-rule="evenodd" clip-rule="evenodd" fill="#032F21" d="M14.892,22.928c-0.024,0.058-0.074,0.074-0.131,0.078
		C14.8,22.975,14.845,22.947,14.892,22.928z"/>
	<path fill-rule="evenodd" clip-rule="evenodd" fill="#032F21" d="M11.233,22.678c-0.052-0.027-0.076-0.072-0.079-0.131
		C11.187,22.588,11.218,22.627,11.233,22.678z"/>
	<path fill-rule="evenodd" clip-rule="evenodd" fill="#032F21" d="M12.361,23.529c-0.054,0.003-0.111,0.005-0.144-0.051
		C12.268,23.487,12.316,23.508,12.361,23.529z"/>
	<path fill-rule="evenodd" clip-rule="evenodd" fill="#032F21" d="M14.079,23.348c-0.029,0.054-0.081,0.054-0.131,0.053
		C13.987,23.371,14.033,23.357,14.079,23.348z"/>
	<path fill-rule="evenodd" clip-rule="evenodd" fill="#032F21" d="M13.948,23.398c-0.037,0.05-0.089,0.057-0.146,0.054
		C13.848,23.426,13.896,23.407,13.948,23.398z"/>
	<path fill-rule="evenodd" clip-rule="evenodd" fill="#032F21" d="M15.691,22.258c0.005,0.05-0.016,0.082-0.064,0.092
		C15.64,22.313,15.665,22.285,15.691,22.258z"/>
	<path fill-rule="evenodd" clip-rule="evenodd" fill="#032F21" d="M12.218,23.479c-0.049,0.003-0.091-0.006-0.118-0.053
		C12.142,23.438,12.184,23.45,12.218,23.479z"/>
	<path fill-rule="evenodd" clip-rule="evenodd" fill="#032F21" d="M11.327,22.797c-0.052-0.01-0.068-0.043-0.066-0.092
		C11.288,22.732,11.314,22.76,11.327,22.797z"/>
	<path fill-rule="evenodd" clip-rule="evenodd" fill="#032F21" d="M14.577,23.109c-0.017,0.053-0.061,0.057-0.105,0.055
		C14.504,23.139,14.538,23.122,14.577,23.109z"/>
	<path fill-rule="evenodd" clip-rule="evenodd" fill="#032F21" d="M15.272,22.678c-0.013,0.047-0.048,0.063-0.093,0.065
		C15.202,22.711,15.235,22.689,15.272,22.678z"/>
	<path fill-rule="evenodd" clip-rule="evenodd" fill="#032F21" d="M15.743,22.167c0.003,0.042-0.008,0.077-0.052,0.091
		C15.698,22.223,15.721,22.193,15.743,22.167z"/>
	<path fill-rule="evenodd" clip-rule="evenodd" fill="#032F21" d="M11.823,23.268c-0.039,0.003-0.072-0.004-0.076-0.053
		C11.776,23.227,11.804,23.243,11.823,23.268z"/>
	<path fill-rule="evenodd" clip-rule="evenodd" fill="#032F21" d="M14.982,22.874c-0.013,0.046-0.049,0.056-0.091,0.054
		C14.918,22.904,14.946,22.883,14.982,22.874z"/>
	<path fill-rule="evenodd" clip-rule="evenodd" fill="#032F21" d="M14.669,23.059c-0.015,0.044-0.049,0.055-0.094,0.053
		C14.605,23.088,14.633,23.066,14.669,23.059z"/>
	<path fill-rule="evenodd" clip-rule="evenodd" fill="#032F21" d="M14.761,23.006c-0.015,0.045-0.049,0.055-0.092,0.053
		C14.697,23.035,14.724,23.014,14.761,23.006z"/>
	<path fill-rule="evenodd" clip-rule="evenodd" fill="#032F21" d="M11.902,23.321c-0.039,0.003-0.072-0.004-0.079-0.054
		C11.855,23.279,11.882,23.295,11.902,23.321z"/>
	<path fill-rule="evenodd" clip-rule="evenodd" fill="#032F21" d="M15.18,22.743c-0.007,0.048-0.042,0.051-0.079,0.054
		C15.121,22.77,15.148,22.754,15.18,22.743z"/>
	<path fill-rule="evenodd" clip-rule="evenodd" fill="#032F21" d="M11.143,22.533c-0.045-0.001-0.04-0.035-0.04-0.064
		C11.124,22.484,11.137,22.508,11.143,22.533z"/>
	<path fill-rule="evenodd" clip-rule="evenodd" fill="#032F21" d="M15.615,22.364c0,0.028-0.008,0.051-0.042,0.052
		C15.578,22.391,15.593,22.375,15.615,22.364z"/>
	<path fill-rule="evenodd" clip-rule="evenodd" fill="#032F21" d="M15.442,22.547c0,0.035-0.022,0.041-0.052,0.039
		C15.403,22.566,15.418,22.553,15.442,22.547z"/>
	<path fill-rule="evenodd" clip-rule="evenodd" fill="#032F21" d="M11.078,22.416c-0.037-0.004-0.024-0.032-0.027-0.053
		C11.068,22.377,11.076,22.396,11.078,22.416z"/>
	<path fill-rule="evenodd" clip-rule="evenodd" fill="#032F21" d="M14.472,23.164c-0.002,0.035-0.031,0.023-0.052,0.026
		C14.432,23.174,14.452,23.166,14.472,23.164z"/>
	<path fill-rule="evenodd" clip-rule="evenodd" fill="#032F21" d="M11.051,22.363c-0.037-0.004-0.024-0.031-0.027-0.053
		C11.041,22.324,11.048,22.342,11.051,22.363z"/>
	<path fill-rule="evenodd" clip-rule="evenodd" fill="#032F21" d="M14.42,23.188c-0.005,0.038-0.032,0.024-0.052,0.028
		C14.38,23.199,14.4,23.192,14.42,23.188z"/>
	<path fill-rule="evenodd" clip-rule="evenodd" fill="#032F21" d="M11.023,22.311c-0.037-0.003-0.024-0.031-0.024-0.053
		C11.014,22.273,11.021,22.291,11.023,22.311z"/>
	<path fill-rule="evenodd" clip-rule="evenodd" fill="#032F21" d="M14.368,23.217c-0.005,0.035-0.032,0.023-0.055,0.025
		C14.328,23.227,14.347,23.219,14.368,23.217z"/>
	<path fill-rule="evenodd" clip-rule="evenodd" fill="#032F21" d="M11.103,22.469c-0.037-0.003-0.024-0.033-0.024-0.053
		C11.093,22.429,11.1,22.448,11.103,22.469z"/>
	<path fill-rule="evenodd" clip-rule="evenodd" fill="#032F21" d="M15.771,22.115c-0.003,0.02,0.01,0.049-0.027,0.052
		C15.748,22.146,15.755,22.127,15.771,22.115z"/>
	<path fill-rule="evenodd" clip-rule="evenodd" fill="#032F21" d="M15.062,22.82c0,0.031-0.02,0.029-0.04,0.027
		C15.029,22.831,15.045,22.824,15.062,22.82z"/>
	<path fill-rule="evenodd" clip-rule="evenodd" fill="#032F21" d="M15.362,22.612c0,0.028-0.019,0.027-0.039,0.026
		C15.333,22.623,15.346,22.614,15.362,22.612z"/>
	<path fill-rule="evenodd" clip-rule="evenodd" fill="#032F21" d="M15.101,22.797c0,0.027-0.019,0.027-0.039,0.025
		C15.069,22.807,15.084,22.797,15.101,22.797z"/>
	<path fill-rule="evenodd" clip-rule="evenodd" fill="#032F21" d="M15.021,22.848c0,0.029-0.019,0.027-0.039,0.026
		C14.99,22.858,15.005,22.85,15.021,22.848z"/>
	<path fill-rule="evenodd" clip-rule="evenodd" fill="#032F21" d="M11.576,23.072c-0.004-0.004-0.01-0.01-0.015-0.014
		C11.566,23.063,11.572,23.068,11.576,23.072z"/>
	<path fill-rule="evenodd" clip-rule="evenodd" fill="#032F21" d="M11.154,22.547c-0.005-0.004-0.008-0.008-0.012-0.014
		C11.146,22.539,11.149,22.543,11.154,22.547z"/>
	<path fill-rule="evenodd" clip-rule="evenodd" fill="#032F21" d="M15.391,22.586c-0.006,0.006-0.008,0.011-0.013,0.013
		C15.383,22.597,15.385,22.592,15.391,22.586z"/>
	<path fill-rule="evenodd" clip-rule="evenodd" fill="#032F21" d="M15.378,22.599c-0.005,0.005-0.01,0.011-0.016,0.014
		C15.368,22.609,15.373,22.604,15.378,22.599z"/>
	<path fill-rule="evenodd" clip-rule="evenodd" fill="#032F21" d="M15.323,22.639c-0.005,0.005-0.01,0.009-0.015,0.014
		C15.313,22.647,15.318,22.644,15.323,22.639z"/>
	<path fill-rule="evenodd" clip-rule="evenodd" fill="#032F21" d="M15.299,22.654c-0.005,0.004-0.01,0.008-0.012,0.012
		C15.289,22.662,15.294,22.658,15.299,22.654z"/>
	<path fill-rule="evenodd" clip-rule="evenodd" fill="#032F21" d="M15.287,22.666c-0.006,0.004-0.011,0.008-0.015,0.012
		C15.276,22.674,15.281,22.67,15.287,22.666z"/>
	<path fill-rule="evenodd" clip-rule="evenodd" fill="#032F21" d="M11.246,22.691c-0.003-0.004-0.008-0.009-0.013-0.014
		C11.238,22.683,11.243,22.688,11.246,22.691z"/>
	<path fill-rule="evenodd" clip-rule="evenodd" fill="#032F21" d="M11.747,23.217c-0.006-0.006-0.011-0.011-0.015-0.014
		C11.736,23.206,11.741,23.211,11.747,23.217z"/>
	<path fill-rule="evenodd" clip-rule="evenodd" fill="#032F21" d="M11.483,22.979c-0.006-0.003-0.009-0.007-0.013-0.012
		C11.475,22.972,11.478,22.976,11.483,22.979z"/>
	<path fill-rule="evenodd" clip-rule="evenodd" fill="#032F21" d="M11.498,22.994c-0.006-0.006-0.011-0.01-0.015-0.016
		C11.487,22.984,11.492,22.988,11.498,22.994z"/>
	<path fill-rule="evenodd" clip-rule="evenodd" fill="#032F21" d="M11.34,22.809c-0.006-0.004-0.011-0.008-0.013-0.012
		C11.329,22.801,11.334,22.805,11.34,22.809z"/>
	<path fill-rule="evenodd" clip-rule="evenodd" fill="#032F21" d="M11.51,23.006c-0.005-0.004-0.01-0.01-0.015-0.012
		C11.5,22.996,11.505,23.002,11.51,23.006z"/>
	<path fill-rule="evenodd" clip-rule="evenodd" fill="#032F21" d="M11.732,23.203c-0.006-0.004-0.011-0.008-0.013-0.012
		C11.722,23.195,11.727,23.199,11.732,23.203z"/>
	<path fill-rule="evenodd" clip-rule="evenodd" fill="#032F21" d="M11.522,23.019c-0.006-0.003-0.008-0.007-0.013-0.013
		C11.515,23.012,11.517,23.016,11.522,23.019z"/>
	<path fill-rule="evenodd" clip-rule="evenodd" fill="#032F21" d="M15.627,22.35c-0.005,0.005-0.01,0.01-0.012,0.015
		C15.617,22.359,15.622,22.354,15.627,22.35z"/>
	<path fill-rule="evenodd" clip-rule="evenodd" fill="#032F21" d="M11.535,23.031c-0.004-0.003-0.008-0.008-0.013-0.013
		C11.527,23.023,11.531,23.028,11.535,23.031z"/>
	<path fill-rule="evenodd" clip-rule="evenodd" fill="#032F21" d="M11.55,23.046c-0.006-0.005-0.011-0.011-0.015-0.015
		C11.539,23.035,11.544,23.041,11.55,23.046z"/>
	<path fill-rule="evenodd" clip-rule="evenodd" fill="#032F21" d="M11.562,23.059c-0.005-0.004-0.008-0.01-0.012-0.013
		C11.554,23.049,11.557,23.055,11.562,23.059z"/>
	<path fill-rule="evenodd" clip-rule="evenodd" fill="#032F21" d="M11.259,22.705c-0.004-0.005-0.008-0.009-0.013-0.014
		C11.251,22.696,11.255,22.7,11.259,22.705z"/>
	<path fill-rule="evenodd" clip-rule="evenodd" fill="#032F21" d="M11.589,23.086c-0.006-0.006-0.01-0.011-0.015-0.016
		C11.579,23.075,11.583,23.08,11.589,23.086z"/>
</g>
</svg>
