<?xml version="1.0" encoding="utf-8"?>
<!-- Generator: Adobe Illustrator 16.0.0, SVG Export Plug-In . SVG Version: 6.00 Build 0)  -->
<!DOCTYPE svg PUBLIC "-//W3C//DTD SVG 1.1//EN" "http://www.w3.org/Graphics/SVG/1.1/DTD/svg11.dtd">
<svg version="1.1" id="Layer_1" xmlns="http://www.w3.org/2000/svg" xmlns:xlink="http://www.w3.org/1999/xlink" x="0px" y="0px"
	 width="32px" height="32px" viewBox="0 0 32 32" enable-background="new 0 0 32 32" xml:space="preserve">
<g>
	<path fill="#CD0124" d="M19.045,16.723c0-0.207,0-0.309-0.206-0.414c-0.724-0.517-1.552-1.033-2.274-1.549
		c-0.157-0.105-0.359-0.105-0.517,0l-2.275,1.653c-0.192,0.098-0.313,0.299-0.311,0.516c-0.004,0.223-0.076,0.439-0.205,0.619
		c-0.104,0.158-0.104,0.361,0,0.518c0.826,1.656,1.549,3.309,2.377,4.963c0.31,0.516,0.517,1.137,0.826,1.756
		c0.104-0.104,0.104-0.207,0.207-0.311c0.93-2.066,1.757-4.135,2.688-6.201c0.104-0.207,0.104-0.309-0.103-0.414
		C19.015,17.531,18.939,17.113,19.045,16.723z"/>
	<path fill="#CD0124" d="M15.529,14.034c-2.067-1.445-4.133-2.893-6.098-4.237L9.328,9.901c0.103,0.207,0.103,0.311,0.207,0.516
		l2.17,4.651c0.208,0.414,0.309,0.828,0.93,0.931c0.178,0.016,0.357-0.021,0.518-0.103c0.619-0.519,1.344-0.93,1.965-1.447
		L15.529,14.034z"/>
	<path fill="#CD0124" d="M16.15,0.495C7.587,0.495,0.646,7.437,0.646,16S7.587,31.504,16.15,31.504
		c8.563,0,15.505-6.941,15.505-15.504S24.713,0.495,16.15,0.495z M24.523,9.487c-0.207,0-0.312,0.104-0.414,0.309
		c-0.827,2.067-1.755,4.136-2.583,6.203v0.414c0.316,0.672,0.028,1.471-0.644,1.79c-0.058,0.027-0.121,0.053-0.185,0.07
		c-0.103,0-0.207,0.104-0.31,0.309c-0.93,2.07-1.86,4.24-2.688,6.307c-0.104,0.158-0.104,0.361,0,0.518
		c0.402,0.551,0.311,1.314-0.206,1.758c-0.448,0.441-1.154,0.486-1.653,0.102c-0.541-0.369-0.684-1.109-0.312-1.65v-0.002
		c0.104-0.193,0.104-0.428,0-0.621c-1.032-2.066-1.962-4.133-2.996-6.203c-0.097-0.213-0.288-0.365-0.519-0.412
		c-0.719-0.119-1.206-0.801-1.087-1.523c0.025-0.152,0.08-0.305,0.159-0.44c0.103-0.157,0.103-0.359,0-0.517
		c-0.932-2.068-1.862-4.033-2.896-6.101c0-0.102-0.102-0.205-0.414-0.205C7.151,9.502,6.674,8.982,6.642,8.35
		c0.039-0.585,0.395-1.101,0.93-1.343c0.573-0.222,1.225-0.006,1.549,0.517c0.103,0.207,0.207,0.207,0.517,0.207h13.127
		c0.207,0,0.414,0,0.517-0.31c0.292-0.504,0.902-0.723,1.446-0.518c0.526,0.199,0.889,0.683,0.93,1.241
		C25.669,8.812,25.183,9.384,24.523,9.487z"/>
	<path fill="#CD0124" d="M16.15,13.311c0.157,0.105,0.359,0.105,0.517,0c1.965-1.447,3.929-2.791,5.789-4.238
		c0.103-0.103,0.207-0.103,0.207-0.205V8.763H9.638C9.756,8.806,9.862,8.877,9.947,8.97L16.15,13.311z"/>
	<path fill="#CD0124" d="M17.183,14.034c0.828,0.621,1.656,1.141,2.483,1.656c0.207,0.103,0.516,0,0.825,0
		c0.104,0,0.207-0.207,0.207-0.312c0.723-1.651,1.449-3.41,2.172-5.063c0-0.103,0.103-0.207,0.103-0.312H22.87
		C21.112,11.246,19.147,12.588,17.183,14.034z"/>
</g>
</svg>
