<?xml version="1.0" encoding="utf-8"?>
<!-- Generator: Adobe Illustrator 16.0.0, SVG Export Plug-In . SVG Version: 6.00 Build 0)  -->
<!DOCTYPE svg PUBLIC "-//W3C//DTD SVG 1.1//EN" "http://www.w3.org/Graphics/SVG/1.1/DTD/svg11.dtd">
<svg version="1.1" id="Layer_1" xmlns="http://www.w3.org/2000/svg" xmlns:xlink="http://www.w3.org/1999/xlink" x="0px" y="0px"
	 width="32px" height="32px" viewBox="0 0 32 32" enable-background="new 0 0 32 32" xml:space="preserve">
<g id="Layer_x0020_1">
	<path fill="#F5AC37" d="M15.925,0.481c8.451,0,15.3,6.851,15.3,15.3c0,8.451-6.849,15.3-15.3,15.3c-8.449,0-15.3-6.85-15.3-15.3
		C0.625,7.333,7.476,0.481,15.925,0.481z"/>
	<path fill="#FEFEFD" d="M16.488,16.861h5.813c0.125,0,0.183,0,0.192-0.162c0.047-0.592,0.047-1.188,0-1.779
		c0-0.114-0.058-0.163-0.182-0.163H10.742c-0.143,0-0.182,0.048-0.182,0.181v1.703c0,0.22,0,0.22,0.229,0.22H16.488L16.488,16.861z
		 M21.844,12.769c0.017-0.043,0.017-0.091,0-0.133c-0.097-0.212-0.211-0.414-0.345-0.603c-0.202-0.323-0.438-0.622-0.708-0.889
		c-0.128-0.163-0.274-0.308-0.439-0.432c-0.828-0.704-1.813-1.202-2.869-1.453c-0.534-0.12-1.079-0.176-1.626-0.171h-5.135
		c-0.143,0-0.162,0.057-0.162,0.182v3.394c0,0.143,0,0.181,0.182,0.181h11.035c0,0,0.097-0.019,0.115-0.076H21.844L21.844,12.769z
		 M21.844,18.851c-0.162-0.019-0.326-0.019-0.488,0H10.751c-0.143,0-0.192,0-0.192,0.191v3.319c0,0.151,0,0.19,0.192,0.19h4.896
		c0.234,0.018,0.468,0.001,0.697-0.047c0.711-0.052,1.41-0.206,2.076-0.46c0.242-0.083,0.477-0.193,0.698-0.323h0.067
		c1.146-0.599,2.079-1.536,2.666-2.688C21.852,19.033,21.919,18.89,21.844,18.851L21.844,18.851z M8.638,24.273v-0.059v-2.228
		v-0.756v-2.247c0-0.123,0-0.144-0.153-0.144H6.41c-0.115,0-0.162,0-0.162-0.152v-1.816h2.218c0.124,0,0.172,0,0.172-0.163v-1.797
		c0-0.115,0-0.143-0.153-0.143H6.41c-0.115,0-0.162,0-0.162-0.153v-1.683c0-0.106,0-0.133,0.153-0.133h2.056
		c0.143,0,0.181,0,0.181-0.182V7.463c0-0.153,0-0.192,0.191-0.192h7.171c0.521,0.021,1.038,0.078,1.549,0.173
		c1.055,0.195,2.066,0.571,2.994,1.109c0.613,0.362,1.179,0.798,1.682,1.301c0.379,0.393,0.72,0.818,1.023,1.271
		c0.301,0.459,0.551,0.95,0.746,1.463c0.025,0.134,0.153,0.224,0.286,0.201h1.712c0.22,0,0.22,0,0.229,0.21v1.569
		c0,0.152-0.057,0.191-0.211,0.191h-1.32c-0.134,0-0.171,0-0.162,0.172c0.053,0.583,0.053,1.167,0,1.75c0,0.162,0,0.182,0.183,0.182
		h1.51c0.067,0.087,0,0.173,0,0.259c0.01,0.11,0.01,0.224,0,0.335v1.157c0,0.162-0.046,0.21-0.19,0.21h-1.808
		c-0.126-0.024-0.249,0.057-0.277,0.182c-0.432,1.119-1.119,2.122-2.01,2.926c-0.324,0.293-0.666,0.568-1.021,0.823
		c-0.384,0.22-0.757,0.449-1.149,0.631c-0.721,0.326-1.479,0.565-2.256,0.716c-0.738,0.133-1.487,0.192-2.237,0.183H8.636v-0.009
		L8.638,24.273z"/>
</g>
</svg>
