<?xml version="1.0" encoding="utf-8"?>
<!-- Generator: Adobe Illustrator 16.0.0, SVG Export Plug-In . SVG Version: 6.00 Build 0)  -->
<!DOCTYPE svg PUBLIC "-//W3C//DTD SVG 1.1//EN" "http://www.w3.org/Graphics/SVG/1.1/DTD/svg11.dtd">
<svg version="1.1" id="Layer_1" xmlns="http://www.w3.org/2000/svg" xmlns:xlink="http://www.w3.org/1999/xlink" x="0px" y="0px"
	 width="45px" height="45px" viewBox="0 0 45 45" enable-background="new 0 0 45 45" xml:space="preserve">
<title>polkadot</title>
<circle fill="#1E1E1E" cx="22.335" cy="22.453" r="20.665"/>
<g>
	<path fill="#FFFFFF" d="M22.476,8.538c-5.813,0.023-10.52,4.73-10.543,10.543c0,1.165,0.188,2.321,0.557,3.424
		c0.274,0.752,1.089,1.156,1.854,0.924c0.74-0.283,1.132-1.092,0.896-1.848c-0.313-0.86-0.451-1.773-0.411-2.688
		c0.127-4.198,3.633-7.5,7.831-7.373c4.199,0.126,7.5,3.632,7.373,7.83c-0.118,3.931-3.214,7.124-7.14,7.362
		c0,0-1.48,0.091-2.216,0.18c-0.272,0.04-0.542,0.094-0.807,0.161c-0.037,0.038-0.099,0.038-0.138,0.001l-0.001-0.001
		c-0.027-0.034-0.027-0.083,0-0.117l0.229-1.25l1.39-6.251c0.167-0.78-0.33-1.549-1.11-1.715c-0.78-0.167-1.549,0.33-1.716,1.11
		c0,0-3.306,15.302-3.306,15.44c-0.188,0.744,0.26,1.501,1.004,1.688c0.008,0.003,0.017,0.006,0.024,0.007h0.076
		c0.743,0.191,1.501-0.255,1.693-0.998c0.002-0.013,0.006-0.024,0.009-0.037c-0.002-0.024-0.002-0.048,0-0.069
		c0.041-0.18,0.458-2.217,0.458-2.217c0.316-1.536,1.555-2.714,3.105-2.952c0.319-0.048,1.659-0.139,1.659-0.139
		c5.79-0.576,10.018-5.739,9.439-11.53C32.158,12.742,27.782,8.676,22.476,8.538z"/>
	<path fill="#E6007A" d="M23.114,32.847c-0.95-0.197-1.88,0.412-2.077,1.362c-0.003,0.01-0.004,0.018-0.007,0.026
		c-0.205,0.944,0.393,1.877,1.338,2.083c0.001,0,0.002,0,0.004,0h0.049c0.925,0.224,1.856-0.346,2.078-1.27
		c0.002-0.006,0.004-0.015,0.005-0.021v-0.097C24.668,33.978,24.058,33.063,23.114,32.847z"/>
</g>
</svg>
