<?xml version="1.0" encoding="utf-8"?>
<!-- Generator: Adobe Illustrator 16.0.0, SVG Export Plug-In . SVG Version: 6.00 Build 0)  -->
<!DOCTYPE svg PUBLIC "-//W3C//DTD SVG 1.1//EN" "http://www.w3.org/Graphics/SVG/1.1/DTD/svg11.dtd">
<svg version="1.1" id="Layer_1" xmlns="http://www.w3.org/2000/svg" xmlns:xlink="http://www.w3.org/1999/xlink" x="0px" y="0px"
	 width="35px" height="35px" viewBox="288.501 288.501 35 35" enable-background="new 288.501 288.501 35 35" xml:space="preserve">
<g>
	<circle fill="#BE47E1" cx="305.938" cy="305.938" r="16.688"/>
	<g>
		<g>
			<g>
				<path fill="#FFFFFF" d="M302.384,311.577v-4.727h8.51v-1.953h-8.51v-4.386c0-2.352,1.94-4.228,4.297-4.228
					c2.354,0,4.297,1.9,4.297,4.32h1.95c0-3.513-2.815-6.271-6.247-6.271c-3.433,0-6.248,2.751-6.248,6.179v4.386h-1.484v1.953
					h1.484v4.727c0,2.207-0.938,3.325-1.484,3.799v2.021l0.074,0.148h13.822v-1.952h-11.467
					C301.952,314.656,302.384,313.361,302.384,311.577z"/>
			</g>
		</g>
	</g>
</g>
</svg>
