<?xml version="1.0" encoding="utf-8"?>
<!-- Generator: Adobe Illustrator 16.0.0, SVG Export Plug-In . SVG Version: 6.00 Build 0)  -->
<!DOCTYPE svg PUBLIC "-//W3C//DTD SVG 1.1//EN" "http://www.w3.org/Graphics/SVG/1.1/DTD/svg11.dtd">
<svg version="1.1" id="Layer_1" xmlns="http://www.w3.org/2000/svg" xmlns:xlink="http://www.w3.org/1999/xlink" x="0px" y="0px"
	 width="32px" height="32px" viewBox="0 0 32 32" enable-background="new 0 0 32 32" xml:space="preserve">
<circle fill="#6747ED" cx="16" cy="16.19" r="15.524"/>
<g id="Symbols">
	<g transform="translate(-88.000000, -52.000000)">
		<path id="Fill-19" fill="#FFFFFF" d="M103.773,70.195c-2.295,0-4.139-1.843-4.139-4.14c0-2.295,1.844-4.139,4.139-4.139
			c2.297,0,4.141,1.844,4.141,4.139C107.914,68.352,106.07,70.195,103.773,70.195 M103.773,59.845c3.43,0,6.209,2.782,6.209,6.21
			c0,3.429-2.779,6.209-6.209,6.209c-3.428,0-6.208-2.78-6.208-6.209C97.565,62.627,100.346,59.845,103.773,59.845z M109.693,72.589
			c0.42,0.42,0.42,1.066,0,1.455l-4.141,4.14c-0.422,0.42-1.067,0.42-1.456,0c-0.42-0.42-0.42-1.066,0-1.455l4.139-4.14
			C108.625,72.168,109.305,72.168,109.693,72.589z M112.086,60.881c0,0.582-0.453,1.035-1.035,1.035s-1.035-0.453-1.035-1.035
			c0-0.583,0.453-1.036,1.035-1.036C111.602,59.845,112.086,60.298,112.086,60.881z"/>
	</g>
</g>
</svg>
