<?xml version="1.0" encoding="utf-8"?>
<!-- Generator: Adobe Illustrator 16.0.0, SVG Export Plug-In . SVG Version: 6.00 Build 0)  -->
<!DOCTYPE svg PUBLIC "-//W3C//DTD SVG 1.1//EN" "http://www.w3.org/Graphics/SVG/1.1/DTD/svg11.dtd">
<svg version="1.1" id="Layer_1" xmlns="http://www.w3.org/2000/svg" xmlns:xlink="http://www.w3.org/1999/xlink" x="0px" y="0px"
	 width="35px" height="35px" viewBox="0 0 35 35" enable-background="new 0 0 35 35" xml:space="preserve">
<g>
	<circle fill="#F7931A" cx="17.668" cy="17.501" r="16.333"/>
</g>
<g>
	<path fill-rule="evenodd" clip-rule="evenodd" fill="#FFFFFF" d="M21.826,28.146c-1.078,0-2.155,0-3.234,0
		c-0.012-0.016-0.02-0.031-0.032-0.047c-1.005-1.256-2.01-2.512-3.015-3.77c-1.387-1.734-2.774-3.467-4.162-5.199
		c-0.032-0.039-0.045-0.078-0.045-0.129c0.001-0.543,0-1.086,0-1.629c0-0.021,0-0.045,0-0.068c0.021-0.002,0.037-0.002,0.051-0.002
		c0.246,0,0.491,0.002,0.736,0c0.6-0.006,1.202,0.02,1.803-0.032c0.478-0.042,0.948-0.122,1.406-0.265
		c0.638-0.197,1.222-0.497,1.707-0.965c0.557-0.537,0.895-1.185,0.978-1.958c0.009-0.083,0.009-0.165,0.013-0.254
		c-2.463,0-4.916,0-7.376,0c0.017-0.025,0.027-0.042,0.039-0.06c0.393-0.59,0.786-1.181,1.177-1.772
		c0.031-0.046,0.062-0.064,0.119-0.064c1.905,0.002,3.811,0.001,5.717,0.001c0.024,0,0.05-0.002,0.081-0.003
		c-0.009-0.022-0.014-0.036-0.02-0.05c-0.238-0.515-0.593-0.928-1.074-1.229c-0.481-0.301-1.013-0.458-1.565-0.557
		c-0.579-0.103-1.165-0.139-1.751-0.145c-0.884-0.008-1.77-0.004-2.653-0.005c-0.021,0-0.043,0-0.072,0
		c0.017-0.027,0.027-0.043,0.037-0.059c0.396-0.594,0.791-1.188,1.185-1.782c0.013-0.018,0.021-0.039,0.031-0.059
		c4.13,0,8.26,0,12.393,0c-0.01,0.015-0.019,0.029-0.027,0.043c-0.399,0.6-0.799,1.2-1.197,1.801
		c-0.027,0.041-0.054,0.057-0.104,0.057c-1.052-0.001-2.104-0.001-3.154-0.001c-0.022,0-0.044,0-0.075,0
		c0.024,0.031,0.041,0.049,0.056,0.067c0.018,0.021,0.035,0.042,0.052,0.062c0.423,0.522,0.683,1.12,0.828,1.771
		c0.021,0.088,0.019,0.089,0.104,0.089c1.146,0,2.29,0,3.435,0c0.023,0,0.048,0,0.084,0c-0.021,0.03-0.031,0.049-0.044,0.067
		c-0.396,0.594-0.79,1.187-1.185,1.782c-0.025,0.038-0.052,0.05-0.097,0.05c-0.656-0.001-1.313-0.001-1.97-0.001
		c-0.078,0-0.155,0.001-0.233,0c-0.032-0.001-0.047,0.009-0.05,0.044c-0.004,0.045-0.014,0.09-0.021,0.135
		c-0.133,0.771-0.429,1.475-0.892,2.107c-0.534,0.73-1.22,1.285-2.014,1.71c-1.037,0.553-2.149,0.84-3.316,0.924
		c-0.05,0.004-0.1,0.01-0.158,0.014c0.022,0.027,0.037,0.047,0.052,0.066c0.646,0.807,1.293,1.613,1.939,2.422
		c1.545,1.93,3.09,3.861,4.636,5.791C21.24,27.412,21.532,27.779,21.826,28.146z"/>
</g>
</svg>
