<?xml version="1.0" encoding="utf-8"?>
<!-- Generator: Adobe Illustrator 16.0.0, SVG Export Plug-In . SVG Version: 6.00 Build 0)  -->
<!DOCTYPE svg PUBLIC "-//W3C//DTD SVG 1.1//EN" "http://www.w3.org/Graphics/SVG/1.1/DTD/svg11.dtd">
<svg version="1.1" id="Layer_1" xmlns="http://www.w3.org/2000/svg" xmlns:xlink="http://www.w3.org/1999/xlink" x="0px" y="0px"
	 width="35px" height="35px" viewBox="257.5 257.5 35 35" enable-background="new 257.5 257.5 35 35" xml:space="preserve">
<path fill="#2775CA" d="M275,291.75c9.282,0,16.75-7.467,16.75-16.75c0-9.282-7.468-16.75-16.75-16.75s-16.75,7.468-16.75,16.75
	C258.25,284.283,265.718,291.75,275,291.75z"/>
<path fill="#FFFFFF" d="M279.606,277.652c0-2.443-1.466-3.28-4.397-3.629c-2.094-0.279-2.513-0.837-2.513-1.814
	c0-0.978,0.698-1.605,2.094-1.605c1.256,0,1.954,0.419,2.303,1.466c0.069,0.209,0.279,0.349,0.489,0.349h1.115
	c0.279,0,0.489-0.209,0.489-0.488v-0.07c-0.279-1.536-1.536-2.722-3.141-2.861v-1.675c0-0.279-0.21-0.489-0.558-0.559h-1.047
	c-0.279,0-0.489,0.209-0.559,0.559v1.605c-2.094,0.279-3.42,1.675-3.42,3.42c0,2.303,1.396,3.21,4.327,3.558
	c1.954,0.35,2.583,0.768,2.583,1.887c0,1.115-0.977,1.883-2.303,1.883c-1.814,0-2.443-0.768-2.652-1.814
	c-0.069-0.279-0.279-0.418-0.488-0.418h-1.187c-0.279,0-0.488,0.209-0.488,0.488V278c0.279,1.746,1.396,3.002,3.699,3.352v1.676
	c0,0.277,0.209,0.488,0.558,0.557h1.047c0.278,0,0.488-0.209,0.558-0.557v-1.676C278.21,281.002,279.606,279.537,279.606,277.652
	L279.606,277.652z"/>
<path fill="#FFFFFF" d="M271.44,284.98c-5.443-1.953-8.235-8.027-6.211-13.4c1.047-2.931,3.35-5.165,6.211-6.211
	c0.279-0.139,0.419-0.349,0.419-0.698v-0.977c0-0.279-0.14-0.489-0.419-0.558c-0.07,0-0.209,0-0.279,0.069
	c-6.63,2.094-10.26,9.143-8.166,15.773c1.256,3.908,4.257,6.91,8.166,8.166c0.279,0.139,0.558,0,0.628-0.279
	c0.07-0.07,0.07-0.141,0.07-0.279v-0.977C271.859,285.398,271.65,285.121,271.44,284.98z M278.838,263.205
	c-0.278-0.14-0.558,0-0.628,0.279c-0.069,0.07-0.069,0.14-0.069,0.279v0.977c0,0.279,0.21,0.558,0.419,0.698
	c5.443,1.954,8.235,8.026,6.211,13.401c-1.047,2.93-3.35,5.164-6.211,6.211c-0.279,0.139-0.419,0.348-0.419,0.697v0.977
	c0,0.279,0.14,0.49,0.419,0.559c0.07,0,0.209,0,0.278-0.068c6.631-2.094,10.261-9.145,8.167-15.774
	C285.748,267.462,282.677,264.461,278.838,263.205L278.838,263.205z"/>
</svg>
