<?xml version="1.0" encoding="utf-8"?>
<!-- Generator: Adobe Illustrator 16.0.0, SVG Export Plug-In . SVG Version: 6.00 Build 0)  -->
<!DOCTYPE svg PUBLIC "-//W3C//DTD SVG 1.1//EN" "http://www.w3.org/Graphics/SVG/1.1/DTD/svg11.dtd">
<svg version="1.1" id="Layer_1" xmlns="http://www.w3.org/2000/svg" xmlns:xlink="http://www.w3.org/1999/xlink" x="0px" y="0px"
	 width="32px" height="32px" viewBox="0 0 32 32" enable-background="new 0 0 32 32" xml:space="preserve">
<g id="Layer_2">
	<g id="Layer_1-2">
		<g id="Page-1">
			<g id="wbtc_colour">
				<path id="Shape" fill="#5A5564" d="M25.721,7.057l-0.846,0.846c4.186,4.578,4.186,11.594,0,16.171l0.846,0.847
					c4.658-5.053,4.658-12.832,0-17.883V7.057z"/>
				<path id="Shape-2" fill="#5A5564" d="M7.923,7.13c4.578-4.186,11.593-4.186,16.171,0l0.846-0.846
					c-5.051-4.657-12.831-4.657-17.883,0L7.923,7.13z"/>
				<path id="Shape-3" fill="#5A5564" d="M7.13,24.083c-4.18-4.577-4.18-11.586,0-16.162L6.284,7.074
					c-4.657,5.051-4.657,12.832,0,17.884L7.13,24.083z"/>
				<path id="Shape-4" fill="#5A5564" d="M24.082,24.864c-4.576,4.186-11.593,4.186-16.17,0L7.065,25.71
					c5.052,4.658,12.832,4.658,17.882,0L24.082,24.864z"/>
				<path id="Shape-5" fill="#F09242" d="M21.344,13.176c-0.17-1.766-1.693-2.358-3.621-2.539V8.206h-1.489v2.386
					c-0.393,0-0.792,0-1.19,0V8.206h-1.479v2.448h-3.021v1.594c0,0,1.1-0.02,1.083,0c0.413-0.045,0.787,0.244,0.847,0.655v6.703
					c-0.008,0.142-0.074,0.272-0.181,0.364c-0.104,0.093-0.243,0.141-0.384,0.13c0.02,0.018-1.083,0-1.083,0l-0.282,1.78h2.993
					v2.488h1.489v-2.452h1.19v2.44h1.493v-2.46c2.518-0.152,4.271-0.773,4.492-3.129c0.178-1.896-0.715-2.742-2.139-3.083
					C20.928,15.258,21.465,14.468,21.344,13.176z M19.256,18.474c0,1.852-3.171,1.64-4.182,1.64V16.83
					C16.084,16.832,19.256,16.542,19.256,18.474z M18.564,13.848c0,1.693-2.647,1.487-3.487,1.487V12.35
					C15.917,12.35,18.564,12.084,18.564,13.848z"/>
				<path id="Shape-6" fill="#282138" d="M15.998,31.412C7.485,31.41,0.586,24.509,0.588,15.998
					C0.59,7.486,7.491,0.586,16.002,0.588c8.509,0.002,15.408,6.899,15.41,15.409c0.002,8.511-6.896,15.413-15.41,15.415
					C16,31.412,16,31.412,15.998,31.412z M15.998,1.79C8.154,1.796,1.8,8.16,1.807,16.003c0.006,7.842,6.37,14.197,14.213,14.19
					c7.837-0.006,14.187-6.359,14.191-14.196C30.213,8.154,23.857,1.793,16.014,1.79C16.008,1.79,16.002,1.79,15.998,1.79z"/>
			</g>
		</g>
	</g>
</g>
</svg>
