<?xml version="1.0" encoding="utf-8"?>
<!-- Generator: Adobe Illustrator 16.0.0, SVG Export Plug-In . SVG Version: 6.00 Build 0)  -->
<!DOCTYPE svg PUBLIC "-//W3C//DTD SVG 1.1//EN" "http://www.w3.org/Graphics/SVG/1.1/DTD/svg11.dtd">
<svg version="1.1" id="Layer_1" xmlns="http://www.w3.org/2000/svg" xmlns:xlink="http://www.w3.org/1999/xlink" x="0px" y="0px"
	 width="32px" height="32px" viewBox="0 0 32 32" enable-background="new 0 0 32 32" xml:space="preserve">
<g>
	<g>
		<circle fill="#EDF0F2" cx="16.087" cy="15.998" r="15.498"/>
		
			<linearGradient id="SVGID_1_" gradientUnits="userSpaceOnUse" x1="455.5742" y1="484.9395" x2="463.8655" y2="530.9087" gradientTransform="matrix(0.5859 0 0 0.5859 -255.2227 -281.9414)">
			<stop  offset="0" style="stop-color:#27D3A2"/>
			<stop  offset="1" style="stop-color:#9388FD"/>
		</linearGradient>
		<path fill="url(#SVGID_1_)" d="M25.926,27.959c-2.362,1.95-5.259,3.149-8.313,3.438c-4.083,0.401-8.167-0.834-11.353-3.438
			C3.084,25.353,1.074,21.596,0.661,17.5c-0.303-3.053,0.304-6.118,1.745-8.821s3.659-4.92,6.362-6.361
			c2.702-1.442,5.768-2.06,8.821-1.758c3.052,0.303,5.938,1.491,8.313,3.441l-3.127,3.818c-1.611-1.322-3.587-2.146-5.671-2.339
			c-2.083-0.207-4.167,0.218-6.009,1.2C9.252,7.661,7.75,9.175,6.756,11.018c-0.981,1.841-1.393,3.938-1.187,6.01
			c0.277,2.786,1.647,5.355,3.816,7.125c2.17,1.781,4.957,2.616,7.745,2.338c2.083-0.205,4.047-1.029,5.658-2.351L25.926,27.959z"/>
		<path fill="#FFFFFF" d="M16.134,28.686c6.992,0,12.652-5.671,12.652-12.652c0-6.991-5.66-12.662-12.652-12.662
			c-6.991,0-12.662,5.671-12.662,12.662C3.473,23.025,9.144,28.686,16.134,28.686z"/>
	</g>
	
		<linearGradient id="SVGID_2_" gradientUnits="userSpaceOnUse" x1="463.2227" y1="498.3672" x2="463.2227" y2="518.1418" gradientTransform="matrix(0.5859 0 0 0.5859 -255.2227 -281.9414)">
		<stop  offset="0" style="stop-color:#283947"/>
		<stop  offset="1" style="stop-color:#657786"/>
	</linearGradient>
	<path fill="url(#SVGID_2_)" d="M21.649,14.397h-1.176c-0.643-1.793-2.377-3.016-4.666-3.016h-3.755v3.016h-1.309v1.079h1.309v1.14
		h-1.309v1.078h1.309v2.981h3.755c2.256,0,3.974-1.214,4.642-2.981h1.2v-1.078h-0.935c0.023-0.195,0.036-0.388,0.036-0.583V16.01
		c0-0.183-0.013-0.352-0.023-0.521h0.922V14.397L21.649,14.397z M13.106,12.351h2.702c1.672,0,2.921,0.823,3.503,2.047h-6.205
		V12.351L13.106,12.351z M15.808,19.705h-2.702v-2.011h6.205C18.729,18.906,17.479,19.705,15.808,19.705z M19.66,16.058
		c0,0.195-0.012,0.377-0.035,0.559h-6.519v-1.14h6.519c0.023,0.182,0.035,0.363,0.035,0.545V16.058z"/>
</g>
</svg>
