<?xml version="1.0" encoding="utf-8"?>
<!-- Generator: Adobe Illustrator 16.0.0, SVG Export Plug-In . SVG Version: 6.00 Build 0)  -->
<!DOCTYPE svg PUBLIC "-//W3C//DTD SVG 1.1//EN" "http://www.w3.org/Graphics/SVG/1.1/DTD/svg11.dtd">
<svg version="1.1" id="Layer_1" xmlns="http://www.w3.org/2000/svg" xmlns:xlink="http://www.w3.org/1999/xlink" x="0px" y="0px"
	 width="32px" height="32px" viewBox="0 0 32 32" enable-background="new 0 0 32 32" xml:space="preserve">
<g>
	<g>
		<circle fill="#EDF0F2" cx="15.789" cy="15.802" r="15.37"/>
		
			<linearGradient id="SVGID_1_" gradientUnits="userSpaceOnUse" x1="455.1309" y1="484.7988" x2="463.354" y2="530.3904" gradientTransform="matrix(0.5859 0 0 0.5859 -255.2227 -281.9414)">
			<stop  offset="0" style="stop-color:#27D3A2"/>
			<stop  offset="1" style="stop-color:#9388FD"/>
		</linearGradient>
		<path fill="url(#SVGID_1_)" d="M25.548,27.663c-2.345,1.935-5.215,3.124-8.245,3.412c-4.048,0.397-8.098-0.829-11.258-3.412
			c-3.149-2.584-5.144-6.31-5.552-10.372c-0.301-3.028,0.3-6.068,1.73-8.748c1.43-2.68,3.629-4.88,6.309-6.309
			c2.68-1.43,5.72-2.043,8.749-1.743c3.027,0.301,5.889,1.478,8.244,3.414L22.423,7.69c-1.597-1.31-3.557-2.127-5.623-2.319
			c-2.066-0.205-4.135,0.216-5.961,1.189c-1.827,0.974-3.317,2.475-4.302,4.302c-0.974,1.827-1.382,3.905-1.178,5.961
			c0.276,2.765,1.635,5.311,3.786,7.065c2.151,1.767,4.915,2.597,7.679,2.319c2.065-0.203,4.016-1.021,5.613-2.331L25.548,27.663z"
			/>
		<path fill="#FFFFFF" d="M15.838,28.384c6.934,0,12.547-5.624,12.547-12.547c0-6.933-5.613-12.558-12.547-12.558
			S3.28,8.904,3.28,15.837C3.28,22.771,8.904,28.384,15.838,28.384z"/>
	</g>
	<g>
		<path fill="#AAB8C1" d="M15.922,18.168l3.976-2.306l-4.721-2.429L15.922,18.168z"/>
		<path fill="#AAB8C1" d="M11.957,15.873l3.977,2.308v-4.254L11.957,15.873z"/>
		<path fill="#283947" d="M15.922,9.396l-3.978,6.478l5.202-2.318L15.922,9.396z"/>
		<path fill="#657786" d="M15.922,9.396v4.7l3.976,1.778L15.922,9.396z"/>
		<path fill="#283947" d="M15.922,22.111l0.516-2.909l-4.481-2.596L15.922,22.111z"/>
		<path fill="#657786" d="M15.922,18.914v3.197l3.976-5.505L15.922,18.914z"/>
	</g>
</g>
</svg>
