<?xml version="1.0" encoding="utf-8"?>
<!-- Generator: Adobe Illustrator 16.0.0, SVG Export Plug-In . SVG Version: 6.00 Build 0)  -->
<!DOCTYPE svg PUBLIC "-//W3C//DTD SVG 1.1//EN" "http://www.w3.org/Graphics/SVG/1.1/DTD/svg11.dtd">
<svg version="1.1" id="Layer_1" xmlns="http://www.w3.org/2000/svg" xmlns:xlink="http://www.w3.org/1999/xlink" x="0px" y="0px"
	 width="1024px" height="1024px" viewBox="0 0 1024 1024" enable-background="new 0 0 1024 1024" xml:space="preserve">
<circle fill="#2AB34B" cx="512.666" cy="512.484" r="493.672"/>
<g>
	<path fill="#FFFFFF" d="M409.563,629.358c-10.675,5.521-34.234,11.044-64.051,11.044c-78.776,0-126.63-49.327-126.63-124.79
		c0-81.721,56.689-131.047,132.52-131.047c29.817,0,51.167,6.258,60.37,11.043l-9.939,36.075
		c-11.78-5.154-27.977-9.571-48.591-9.571c-50.431,0-86.874,31.657-86.874,91.291c0,54.48,32.025,89.451,86.506,89.451
		c18.406,0,37.547-3.681,49.327-9.202L409.563,629.358z"/>
	<path fill="#FFFFFF" d="M448.217,388.614h45.278v210.191h101.966v37.915H448.217V388.614z"/>
	<path fill="#FFFFFF" d="M629.696,391.927c16.196-2.945,38.651-5.154,69.204-5.154c33.131,0,57.426,6.994,73.255,20.246
		c14.724,12.148,24.295,31.658,24.295,54.849c0,23.559-7.362,43.069-21.351,56.321c-18.037,18.037-46.382,26.504-78.407,26.504
		c-8.467,0-16.197-0.368-22.087-1.473v93.5h-44.909V391.927z M674.605,507.514c5.521,1.473,12.884,1.841,22.087,1.841
		c33.866,0,54.48-16.565,54.48-45.646c0-27.608-19.142-42.333-50.432-42.333c-12.516,0-21.351,1.104-26.136,2.208V507.514z"/>
</g>
</svg>
