<?xml version="1.0" encoding="utf-8"?>
<!-- Generator: Adobe Illustrator 16.0.0, SVG Export Plug-In . SVG Version: 6.00 Build 0)  -->
<!DOCTYPE svg PUBLIC "-//W3C//DTD SVG 1.1//EN" "http://www.w3.org/Graphics/SVG/1.1/DTD/svg11.dtd">
<svg version="1.1" id="Layer_1" xmlns="http://www.w3.org/2000/svg" xmlns:xlink="http://www.w3.org/1999/xlink" x="0px" y="0px"
	 width="32px" height="32px" viewBox="0 0 32 32" enable-background="new 0 0 32 32" xml:space="preserve">
<path fill="#070A0E" d="M16.001,30.949c8.439,0,15.282-6.843,15.282-15.283c0-8.441-6.843-15.284-15.282-15.284
	c-8.442,0-15.284,6.842-15.284,15.284C0.717,24.106,7.559,30.949,16.001,30.949z"/>
<path fill="#00D395" d="M9.545,20.792c-0.457-0.281-0.735-0.778-0.735-1.313v-2.986c0-0.354,0.287-0.641,0.642-0.639
	c0.113,0,0.224,0.029,0.323,0.086l6.738,3.927c0.396,0.232,0.637,0.654,0.637,1.11v3.093c0.002,0.426-0.343,0.771-0.766,0.771
	c-0.144,0-0.283-0.04-0.404-0.114L9.545,20.792z M19.592,15.123c0.393,0.229,0.634,0.653,0.637,1.106v6.279
	c0,0.186-0.1,0.358-0.263,0.445l-1.475,0.832c-0.019,0.011-0.039,0.017-0.06,0.024v-3.486c0-0.451-0.237-0.871-0.626-1.102
	l-5.917-3.541v-3.935c0-0.354,0.29-0.641,0.643-0.641c0.113,0,0.226,0.031,0.323,0.089L19.592,15.123z M22.541,10.484
	c0.396,0.23,0.639,0.653,0.639,1.109v9.171c-0.002,0.189-0.107,0.36-0.272,0.452l-1.397,0.752v-6.382
	c0-0.45-0.236-0.869-0.623-1.101l-6.049-3.628V7.125c0-0.111,0.031-0.224,0.087-0.32c0.178-0.306,0.57-0.411,0.876-0.233
	L22.541,10.484z"/>
</svg>
