<?xml version="1.0" encoding="utf-8"?>
<!-- Generator: Adobe Illustrator 16.0.0, SVG Export Plug-In . SVG Version: 6.00 Build 0)  -->
<!DOCTYPE svg PUBLIC "-//W3C//DTD SVG 1.1//EN" "http://www.w3.org/Graphics/SVG/1.1/DTD/svg11.dtd">
<svg version="1.1" id="Layer_1" xmlns="http://www.w3.org/2000/svg" xmlns:xlink="http://www.w3.org/1999/xlink" x="0px" y="0px"
	 width="32px" height="32px" viewBox="0 0 32 32" enable-background="new 0 0 32 32" xml:space="preserve">
<g>
	<g>
		<circle fill="#EDF0F2" cx="16.144" cy="16.027" r="15.344"/>
		
			<linearGradient id="SVGID_1_" gradientUnits="userSpaceOnUse" x1="455.7451" y1="485.2217" x2="463.9544" y2="530.736" gradientTransform="matrix(0.5859 0 0 0.5859 -255.2227 -281.9414)">
			<stop  offset="0" style="stop-color:#27D3A2"/>
			<stop  offset="1" style="stop-color:#9388FD"/>
		</linearGradient>
		<path fill="url(#SVGID_1_)" d="M25.886,27.868c-2.34,1.932-5.207,3.118-8.23,3.406c-4.043,0.397-8.086-0.827-11.242-3.406
			c-3.143-2.579-5.135-6.299-5.542-10.354c-0.3-3.024,0.3-6.059,1.728-8.734s3.623-4.87,6.298-6.299
			c2.675-1.428,5.71-2.039,8.735-1.739c3.023,0.3,5.878,1.475,8.229,3.408l-3.096,3.778c-1.596-1.308-3.55-2.123-5.613-2.315
			C15.087,5.41,13.024,5.829,11.2,6.801c-1.823,0.972-3.311,2.471-4.294,4.295c-0.972,1.823-1.379,3.9-1.176,5.951
			c0.276,2.759,1.632,5.303,3.779,7.054c2.147,1.764,4.907,2.591,7.666,2.316c2.064-0.204,4.007-1.021,5.603-2.328L25.886,27.868z"
			/>
		<path fill="#FFFFFF" d="M16.191,28.589c6.922,0,12.525-5.616,12.525-12.527c0-6.921-5.604-12.536-12.525-12.536
			c-6.922,0-12.538,5.615-12.538,12.536C3.654,22.985,9.269,28.589,16.191,28.589z"/>
	</g>
	<g>
		<path fill="#283947" d="M18.279,17.06c0-1.178-0.721-1.573-2.124-1.753c-1.032-0.144-1.236-0.383-1.236-0.864
			c0-0.479,0.349-0.768,1.02-0.768c0.612,0,0.96,0.204,1.105,0.695c0.011,0.048,0.048,0.097,0.095,0.132
			c0.049,0.036,0.096,0.048,0.156,0.048h0.541c0.034,0,0.07-0.012,0.094-0.024c0.037-0.012,0.062-0.036,0.085-0.06
			c0.023-0.024,0.036-0.061,0.048-0.084c0.012-0.035,0.012-0.071,0-0.108c-0.168-0.767-0.695-1.223-1.512-1.368v-0.804
			c0-0.071-0.024-0.131-0.072-0.179c-0.048-0.048-0.108-0.072-0.178-0.072h-0.518c-0.072,0-0.13,0.024-0.18,0.072
			c-0.048,0.048-0.071,0.108-0.071,0.179v0.78c-1.02,0.145-1.668,0.804-1.668,1.656c0,1.104,0.684,1.523,2.099,1.716
			c0.973,0.156,1.248,0.36,1.248,0.899c0,0.54-0.468,0.9-1.127,0.9c-0.888,0-1.188-0.384-1.297-0.875
			c-0.01-0.061-0.047-0.108-0.083-0.145c-0.048-0.037-0.108-0.061-0.156-0.061H13.96c-0.036,0-0.072,0.012-0.096,0.023
			c-0.036,0.013-0.06,0.037-0.084,0.062c-0.024,0.023-0.036,0.06-0.048,0.083c-0.012,0.037-0.012,0.072,0,0.097
			c0.145,0.84,0.696,1.451,1.812,1.595v0.792c0,0.073,0.025,0.132,0.071,0.18c0.048,0.048,0.108,0.071,0.18,0.071h0.516
			c0.072,0,0.132-0.023,0.18-0.071s0.072-0.106,0.072-0.18v-0.792C17.606,18.667,18.279,17.958,18.279,17.06z"/>
		<path fill="#657786" d="M14.404,20.657c-0.973-0.348-1.811-0.996-2.412-1.834c-0.599-0.84-0.912-1.849-0.912-2.869
			c0-1.02,0.324-2.028,0.912-2.868c0.601-0.84,1.439-1.487,2.412-1.835c0.06-0.024,0.12-0.072,0.156-0.132S14.62,11,14.62,10.928
			v-0.468c0-0.035,0-0.084-0.024-0.119c-0.012-0.036-0.048-0.072-0.084-0.096c-0.036-0.024-0.072-0.036-0.12-0.048
			c-0.048-0.012-0.084,0-0.12,0.023c-1.223,0.384-2.292,1.152-3.06,2.184c-0.756,1.032-1.163,2.267-1.163,3.551
			c0,1.273,0.407,2.52,1.163,3.551c0.756,1.032,1.824,1.787,3.06,2.184c0.036,0.013,0.084,0.024,0.12,0.024
			c0.036,0,0.084-0.024,0.12-0.048c0.036-0.024,0.06-0.061,0.084-0.097c0.012-0.036,0.024-0.083,0.024-0.12v-0.467
			c0-0.072-0.024-0.132-0.061-0.193C14.523,20.729,14.476,20.682,14.404,20.657L14.404,20.657z"/>
		<path fill="#657786" d="M17.883,10.232c-0.036-0.012-0.083-0.024-0.12-0.024c-0.035,0-0.083,0.024-0.119,0.048
			c-0.037,0.024-0.061,0.06-0.085,0.095c-0.012,0.036-0.023,0.084-0.023,0.12v0.468c0,0.072,0.023,0.132,0.06,0.193
			c0.037,0.06,0.097,0.096,0.156,0.132c0.972,0.347,1.812,0.995,2.411,1.834c0.602,0.84,0.911,1.848,0.911,2.867
			c0,1.02-0.323,2.029-0.911,2.868c-0.6,0.841-1.439,1.488-2.411,1.835c-0.06,0.025-0.119,0.073-0.156,0.12
			c-0.036,0.062-0.06,0.121-0.06,0.193v0.467c0,0.037,0,0.084,0.023,0.12c0.013,0.036,0.048,0.072,0.085,0.097
			c0.036,0.023,0.071,0.036,0.119,0.048c0.037,0,0.084,0,0.12-0.024c1.225-0.385,2.292-1.151,3.06-2.184
			c0.755-1.031,1.164-2.267,1.164-3.551c0-1.271-0.409-2.519-1.164-3.551C20.175,11.383,19.107,10.616,17.883,10.232L17.883,10.232z
			"/>
	</g>
</g>
</svg>
