<?xml version="1.0" encoding="utf-8"?>
<!-- Generator: Adobe Illustrator 24.0.1, SVG Export Plug-In . SVG Version: 6.00 Build 0)  -->
<svg version="1.1" id="Livello_1" xmlns="http://www.w3.org/2000/svg" xmlns:xlink="http://www.w3.org/1999/xlink" x="0px" y="0px"
	 viewBox="0 0 99 99" style="enable-background:new 0 0 99 99;" xml:space="preserve">
<style type="text/css">
	.st0{fill:#2058E5;}
</style>
<path class="st0" d="M289.4,0c-27.3,0-49.5,22.2-49.5,49.5S262.1,99,289.4,99c27.3,0,49.5-22.2,49.5-49.5S316.8,0,289.4,0z
	 M295.3,26.2l2.8-5.8c0-0.1,0.1-0.1,0.2-0.1h5.7c0.7,0,1.1,0.7,0.8,1.3l-2.8,5.8c0,0.1-0.1,0.1-0.2,0.1h-5.7
	C295.5,27.5,295,26.8,295.3,26.2z M279.9,72.9l-2.8,5.8c0,0.1-0.1,0.1-0.2,0.1h-5.7c-0.7,0-1.1-0.7-0.8-1.3l2.8-5.8
	c0-0.1,0.1-0.1,0.2-0.1h5.7C279.7,71.5,280.2,72.2,279.9,72.9z M307,47.2l-7.8,15.9c-1.4,2.9-4.4,4.8-7.6,4.8H266
	c-0.7,0-1.1-0.7-0.8-1.3l2.8-5.8c0-0.1,0.1-0.1,0.2-0.1h24.2c0.4,0,0.8-0.2,1-0.6l6.8-13.9c0-0.1,0.1-0.1,0.2-0.1h5.7
	C306.8,45.9,307.3,46.6,307,47.2z M282.8,51.8l2.8-5.8c0-0.1,0.1-0.1,0.2-0.1h9.3c0.7,0,1.1,0.7,0.8,1.3l-2.8,5.8
	c0,0.1-0.1,0.1-0.2,0.1h-9.3C283,53.2,282.5,52.4,282.8,51.8z M313.6,32.5l-2.8,5.8c0,0.1-0.1,0.1-0.2,0.1h-24.2
	c-0.4,0-0.8,0.2-1,0.6l-6.8,13.9c0,0.1-0.1,0.1-0.2,0.1h-5.7c-0.7,0-1.1-0.7-0.8-1.3l7.7-15.9c1.4-2.9,4.4-4.8,7.6-4.8h25.5
	C313.5,31.2,313.9,31.9,313.6,32.5z"/>
<path class="st0" d="M49.5,0C22.2,0,0,22.2,0,49.5S22.2,99,49.5,99S99,76.9,99,49.5S76.9,0,49.5,0z M24.6,51.8l2.8-5.8
	c0-0.1,0.1-0.1,0.2-0.1h5.7c0.7,0,1.1,0.7,0.8,1.3L31.3,53c0,0.1-0.1,0.1-0.2,0.1h-5.7C24.7,53.2,24.3,52.4,24.6,51.8z M74.5,32.5
	l-2.8,5.8c0,0.1-0.1,0.1-0.2,0.1H50c-0.4,0-0.8,0.2-1,0.6l-9.7,19.9c-0.4,0.8,0.2,1.6,1,1.6h22.2c0.7,0,1.1,0.7,0.8,1.3l-2.8,5.8
	c0,0.1-0.1,0.1-0.2,0.1H35c-3.4,0-5.6-3.5-4.1-6.6l12.4-25.4c1.4-2.9,4.4-4.8,7.6-4.8h22.8C74.3,31.2,74.8,31.9,74.5,32.5z
	 M63.3,47.2L60.4,53c0,0.1-0.1,0.1-0.2,0.1h-13c-0.7,0-1.1-0.7-0.8-1.3l2.8-5.8c0-0.1,0.1-0.1,0.2-0.1h13
	C63.1,45.9,63.6,46.6,63.3,47.2z"/>
<path class="st0" d="M166.2,0c-27.3,0-49.5,22.2-49.5,49.5S138.9,99,166.2,99s49.5-22.2,49.5-49.5S193.6,0,166.2,0z M146.2,51.8
	l2.8-5.8c0-0.1,0.1-0.1,0.2-0.1h5.7c0.7,0,1.1,0.7,0.8,1.3l-2.8,5.8c0,0.1-0.1,0.1-0.2,0.1H147C146.4,53.2,145.9,52.4,146.2,51.8z
	 M186.2,61.9l-2.8,5.8c0,0.1-0.1,0.1-0.2,0.1h-32.4c-0.7,0-1.1-0.7-0.8-1.3l14.9-30.6c1.4-2.9,4.4-4.8,7.6-4.8h12.2
	c0.7,0,1.1,0.7,0.8,1.3l-2.8,5.8c0,0.1-0.1,0.1-0.2,0.1h-10.8c-0.4,0-0.8,0.2-1,0.6l-10.3,21.2c-0.1,0.2,0,0.3,0.2,0.3h24.9
	C186.1,60.6,186.5,61.3,186.2,61.9z M178.3,47.2l-2.8,5.8c0,0.1-0.1,0.1-0.2,0.1h-6.4c-0.7,0-1.1-0.7-0.8-1.3l2.8-5.8
	c0-0.1,0.1-0.1,0.2-0.1h6.4C178.2,45.9,178.6,46.6,178.3,47.2z"/>
</svg>
