<?xml version="1.0" encoding="utf-8"?>
<!-- Generator: Adobe Illustrator 24.0.1, SVG Export Plug-In . SVG Version: 6.00 Build 0)  -->
<svg version="1.1" id="Livello_1" xmlns="http://www.w3.org/2000/svg" xmlns:xlink="http://www.w3.org/1999/xlink" x="0px" y="0px"
	 viewBox="0 0 99 99" style="enable-background:new 0 0 99 99;" xml:space="preserve">
<style type="text/css">
	.st0{fill:#2058E5;}
</style>
<path class="st0" d="M172.7,0c-27.3,0-49.5,22.2-49.5,49.5S145.4,99,172.7,99c27.3,0,49.5-22.2,49.5-49.5S200.1,0,172.7,0z
	 M178.6,26.2l2.8-5.8c0-0.1,0.1-0.1,0.2-0.1h5.7c0.7,0,1.1,0.7,0.8,1.3l-2.8,5.8c0,0.1-0.1,0.1-0.2,0.1h-5.7
	C178.8,27.5,178.3,26.8,178.6,26.2z M163.2,72.9l-2.8,5.8c0,0.1-0.1,0.1-0.2,0.1h-5.7c-0.7,0-1.1-0.7-0.8-1.3l2.8-5.8
	c0-0.1,0.1-0.1,0.2-0.1h5.7C163,71.5,163.5,72.2,163.2,72.9z M190.3,47.2l-7.8,15.9c-1.4,2.9-4.4,4.8-7.6,4.8h-25.5
	c-0.7,0-1.1-0.7-0.8-1.3l2.8-5.8c0-0.1,0.1-0.1,0.2-0.1h24.2c0.4,0,0.8-0.2,1-0.6l6.8-13.9c0-0.1,0.1-0.1,0.2-0.1h5.7
	C190.1,45.9,190.6,46.6,190.3,47.2z M166.1,51.8L169,46c0-0.1,0.1-0.1,0.2-0.1h9.3c0.7,0,1.1,0.7,0.8,1.3l-2.8,5.8
	c0,0.1-0.1,0.1-0.2,0.1H167C166.3,53.2,165.8,52.4,166.1,51.8z M196.9,32.5l-2.8,5.8c0,0.1-0.1,0.1-0.2,0.1h-24.2
	c-0.4,0-0.8,0.2-1,0.6l-6.8,13.9c0,0.1-0.1,0.1-0.2,0.1H156c-0.7,0-1.1-0.7-0.8-1.3l7.7-15.9c1.4-2.9,4.4-4.8,7.6-4.8h25.5
	C196.8,31.2,197.2,31.9,196.9,32.5z"/>
<path class="st0" d="M-67.2,0c-27.3,0-49.5,22.2-49.5,49.5S-94.5,99-67.2,99s49.5-22.2,49.5-49.5S-39.8,0-67.2,0z M-92.2,51.8
	l2.8-5.8c0-0.1,0.1-0.1,0.2-0.1h5.7c0.7,0,1.1,0.7,0.8,1.3l-2.8,5.8c0,0.1-0.1,0.1-0.2,0.1h-5.7C-92,53.2-92.4,52.4-92.2,51.8z
	 M-42.2,32.5l-2.8,5.8c0,0.1-0.1,0.1-0.2,0.1h-21.4c-0.4,0-0.8,0.2-1,0.6l-9.7,19.9c-0.4,0.8,0.2,1.6,1,1.6h22.2
	c0.7,0,1.1,0.7,0.8,1.3l-2.8,5.8c0,0.1-0.1,0.1-0.2,0.1h-25.4c-3.4,0-5.6-3.5-4.1-6.6l12.4-25.4c1.4-2.9,4.4-4.8,7.6-4.8H-43
	C-42.4,31.2-41.9,31.9-42.2,32.5z M-53.4,47.2l-2.8,5.8c0,0.1-0.1,0.1-0.2,0.1h-13c-0.7,0-1.1-0.7-0.8-1.3l2.8-5.8
	c0-0.1,0.1-0.1,0.2-0.1h13C-53.6,45.9-53.1,46.6-53.4,47.2z"/>
<path class="st0" d="M49.5,0C22.2,0,0,22.2,0,49.5S22.2,99,49.5,99S99,76.9,99,49.5S76.9,0,49.5,0z M29.5,51.8l2.8-5.8
	c0-0.1,0.1-0.1,0.2-0.1h5.7c0.7,0,1.1,0.7,0.8,1.3L36.2,53c0,0.1-0.1,0.1-0.2,0.1h-5.7C29.7,53.2,29.2,52.4,29.5,51.8z M69.5,61.9
	l-2.8,5.8c0,0.1-0.1,0.1-0.2,0.1H34.1c-0.7,0-1.1-0.7-0.8-1.3l14.9-30.6c1.4-2.9,4.4-4.8,7.6-4.8H68c0.7,0,1.1,0.7,0.8,1.3L66,38.3
	c0,0.1-0.1,0.1-0.2,0.1H55c-0.4,0-0.8,0.2-1,0.6L43.6,60.2c-0.1,0.2,0,0.3,0.2,0.3h24.9C69.4,60.6,69.8,61.3,69.5,61.9z M61.6,47.2
	L58.8,53c0,0.1-0.1,0.1-0.2,0.1h-6.4c-0.7,0-1.1-0.7-0.8-1.3l2.8-5.8c0-0.1,0.1-0.1,0.2-0.1h6.4C61.5,45.9,61.9,46.6,61.6,47.2z"/>
</svg>
