<?xml version="1.0" encoding="utf-8"?>
<!-- Generator: Adobe Illustrator 24.0.1, SVG Export Plug-In . SVG Version: 6.00 Build 0)  -->
<svg version="1.1" id="Layer_1" xmlns="http://www.w3.org/2000/svg" xmlns:xlink="http://www.w3.org/1999/xlink" x="0px" y="0px"
	 viewBox="0 0 103.2 102.3" style="enable-background:new 0 0 103.2 102.3;" xml:space="preserve">
<style type="text/css">
	.st0{fill:#2058E5;}
	.st1{fill:#FFFFFF;}
</style>
<ellipse transform="matrix(0.3827 -0.9239 0.9239 0.3827 -15.3486 79.1748)" class="st0" cx="51.6" cy="51.1" rx="49.5" ry="49.5"/>
<path class="st0" d="M56.5,26.7l2.8-5.8c0-0.1,0.1-0.1,0.2-0.1h5.7c0.7,0,1.1,0.7,0.8,1.3l-2.8,5.8c0,0.1-0.1,0.1-0.2,0.1h-5.7
	C56.6,28.1,56.2,27.3,56.5,26.7z"/>
<path class="st0" d="M41,73.4l-2.8,5.8c0,0.1-0.1,0.1-0.2,0.1h-5.7c-0.7,0-1.1-0.7-0.8-1.3l2.8-5.8c0-0.1,0.1-0.1,0.2-0.1h5.7
	C40.9,72.1,41.3,72.8,41,73.4z"/>
<path class="st0" d="M68.1,47.7l-7.8,15.9c-1.4,2.9-4.4,4.8-7.6,4.8H27.2c-0.7,0-1.1-0.7-0.8-1.3l2.8-5.8c0-0.1,0.1-0.1,0.2-0.1
	h24.2c0.4,0,0.8-0.2,1-0.6l6.8-13.9c0-0.1,0.1-0.1,0.2-0.1h5.7C68,46.4,68.4,47.1,68.1,47.7z"/>
<path class="st0" d="M44,52.4l2.8-5.8c0-0.1,0.1-0.1,0.2-0.1h9.3c0.7,0,1.1,0.7,0.8,1.3l-2.8,5.8c0,0.1-0.1,0.1-0.2,0.1h-9.3
	C44.1,53.7,43.7,53,44,52.4z"/>
<path class="st0" d="M74.8,33.1l-2.8,5.8c0,0.1-0.1,0.1-0.2,0.1H47.6c-0.4,0-0.8,0.2-1,0.6l-6.8,13.9c0,0.1-0.1,0.1-0.2,0.1h-5.7
	c-0.7,0-1.1-0.7-0.8-1.3l7.7-15.9c1.4-2.9,4.4-4.8,7.6-4.8h25.5C74.6,31.8,75.1,32.5,74.8,33.1z"/>
<path class="st1" d="M51.5,47h3.4c0,0,0.1,0,0.1,0l6-5.2c0.3-0.3,0.1-0.8-0.3-0.8h-3.4c0,0-0.1,0-0.1,0l-6,5.2
	C50.9,46.5,51.1,47,51.5,47z M33.1,41h-3.2c-0.1,0-0.1,0-0.1,0.1l-9.5,19.4c-0.2,0.3,0.1,0.7,0.4,0.7h3.2c0.1,0,0.1,0,0.1-0.1
	l9.5-19.4C33.7,41.4,33.4,41,33.1,41z M73.2,39h3.1c0,0,0.1,0,0.1-0.1l1.6-3.2c0.2-0.3-0.1-0.7-0.5-0.7h-3.1c0,0-0.1,0-0.1,0.1
	l-1.6,3.2C72.6,38.6,72.9,39,73.2,39z M47.1,41H44c-0.1,0-0.1,0-0.1,0.1l-3.9,8H32c-0.1,0-0.1,0-0.1,0.1l-1.6,3.3
	c-0.2,0.3,0.1,0.7,0.4,0.7H38l-3.6,7.4c-0.2,0.3,0.1,0.7,0.4,0.7H38c0.1,0,0.1,0,0.1-0.1l9.5-19.4C47.7,41.4,47.5,41,47.1,41z
	 M82.4,41h-14c-1.8,0-3.4,1-4.2,2.6l-4.3,8.7c-0.2,0.3,0.1,0.7,0.5,0.7h3.1c0,0,0.1,0,0.1-0.1l3.7-7.7c0.1-0.2,0.3-0.4,0.6-0.4h13.3
	c0,0,0.1,0,0.1-0.1l1.6-3.2C83,41.4,82.7,41,82.4,41z M78.7,49.1h-3.1c0,0-0.1,0-0.1,0.1l-3.7,7.7c-0.1,0.2-0.3,0.4-0.6,0.4H57.9
	c0,0-0.1,0-0.1,0.1l-1.6,3.2c-0.2,0.3,0.1,0.7,0.5,0.7h14c1.8,0,3.4-1,4.2-2.6l4.3-8.7C79.3,49.5,79.1,49.1,78.7,49.1z M71.5,53.1
	c0,0,0.1,0,0.1-0.1l1.6-3.2c0.2-0.3-0.1-0.7-0.5-0.7h-5.1c0,0-0.1,0-0.1,0.1l-1.6,3.2c-0.2,0.3,0.1,0.7,0.5,0.7H71.5z M63.8,63.2
	h-3.1c0,0-0.1,0-0.1,0.1L59,66.5c-0.2,0.3,0.1,0.7,0.5,0.7h3.1c0,0,0.1,0,0.1-0.1l1.6-3.2C64.4,63.6,64.2,63.2,63.8,63.2z
	 M57.2,49.1H46c-0.1,0-0.1,0-0.1,0.1l-1.6,3.3c-0.2,0.3,0.1,0.7,0.4,0.7h7c0.1,0,0.2,0.1,0.1,0.2l-3.5,7.2c-0.2,0.3,0.1,0.7,0.4,0.7
	H52c0.1,0,0.1,0,0.1-0.1l5.5-11.4C57.8,49.4,57.6,49.1,57.2,49.1z"/>
</svg>
