<?xml version="1.0" encoding="utf-8"?>
<!-- Generator: Adobe Illustrator 16.0.0, SVG Export Plug-In . SVG Version: 6.00 Build 0)  -->
<!DOCTYPE svg PUBLIC "-//W3C//DTD SVG 1.1//EN" "http://www.w3.org/Graphics/SVG/1.1/DTD/svg11.dtd">
<svg version="1.1" id="Layer_1" xmlns="http://www.w3.org/2000/svg" xmlns:xlink="http://www.w3.org/1999/xlink" x="0px" y="0px"
	 width="32px" height="32px" viewBox="0 0 32 32" enable-background="new 0 0 32 32" xml:space="preserve">
<circle fill="#007F88" cx="16.194" cy="16.112" r="15.524"/>
<g id="Layer_2">
	<g id="Layer_1-2">
		<path fill="#FFFFFF" d="M7.847,9.774C7.58,9.794,7.375,9.836,7.386,9.868c0.107,0.253,0.765,1.745,0.774,1.754
			c0.009,0.009,0.162,0.019,0.341,0.027c0.797,0.03,1.429,0.186,2.11,0.523c0.491,0.241,0.854,0.5,1.231,0.876
			c0.556,0.555,0.918,1.17,1.131,1.924c0.024,0.087,0.044,0.165,0.044,0.177c0,0.016-0.122,0.02-0.659,0.02
			c-0.361,0-0.673,0.005-0.694,0.013c-0.028,0.01-0.103,0.172-0.415,0.887c-0.21,0.48-0.383,0.886-0.387,0.898
			c-0.01,0.04,0.115,0.074,0.43,0.12c0.065,0.012,0.452,0.021,0.908,0.027l0.796,0.009l-0.047,0.165
			c-0.537,1.819-2.202,3.092-4.241,3.244c-0.115,0.008-0.267,0.015-0.337,0.015H8.244l-0.392,0.904
			c-0.338,0.771-0.39,0.904-0.369,0.911c0.103,0.038,0.33,0.052,0.858,0.052c0.674,0,1.002-0.03,1.558-0.145
			c2.271-0.466,4.158-1.911,5.012-3.841c0.165-0.371,0.358-0.983,0.392-1.239l0.011-0.073h1.704l0.006,0.033
			c0.122,0.603,0.256,1.008,0.486,1.488c0.695,1.444,1.996,2.624,3.606,3.271c0.979,0.391,2.025,0.579,3.079,0.553
			c0.44-0.014,0.792-0.063,0.774-0.11c-0.017-0.038-0.762-1.751-0.767-1.756s-0.159-0.01-0.346-0.018
			c-0.526-0.021-0.922-0.083-1.368-0.211c-0.688-0.197-1.369-0.556-1.89-0.993c-0.657-0.553-1.133-1.24-1.384-2.003
			c-0.028-0.088-0.058-0.179-0.062-0.206l-0.011-0.048l0.643-0.004c0.351-0.004,0.65-0.011,0.663-0.018
			c0.02-0.01,0.786-1.75,0.786-1.785c0-0.022-0.193-0.079-0.368-0.108c-0.129-0.02-0.293-0.026-0.943-0.03l-0.79-0.008l0.029-0.106
			c0.438-1.549,1.781-2.78,3.512-3.216c0.383-0.096,0.753-0.146,1.236-0.165c0.287-0.012,0.323-0.016,0.342-0.041
			c0.011-0.016,0.188-0.414,0.392-0.882c0.251-0.574,0.366-0.856,0.356-0.865c-0.034-0.018-0.243-0.055-0.408-0.072
			c-0.239-0.025-0.94-0.02-1.248,0.007c-1.766,0.157-3.356,0.869-4.55,2.032c-0.728,0.711-1.24,1.508-1.554,2.427
			c-0.082,0.233-0.179,0.598-0.208,0.775l-0.019,0.11H15.34l-0.007-0.035c-0.004-0.018-0.021-0.103-0.039-0.19
			c-0.248-1.229-0.946-2.424-1.932-3.303C12.24,10.638,10.84,10.01,9.3,9.819C8.838,9.763,8.24,9.743,7.847,9.774z"/>
	</g>
</g>
</svg>
