<?xml version="1.0" encoding="utf-8"?>
<!-- Generator: Adobe Illustrator 16.0.0, SVG Export Plug-In . SVG Version: 6.00 Build 0)  -->
<!DOCTYPE svg PUBLIC "-//W3C//DTD SVG 1.1//EN" "http://www.w3.org/Graphics/SVG/1.1/DTD/svg11.dtd">
<svg version="1.1" id="Layer_1" xmlns="http://www.w3.org/2000/svg" xmlns:xlink="http://www.w3.org/1999/xlink" x="0px" y="0px"
	 width="32px" height="32px" viewBox="0 0 32 32" enable-background="new 0 0 32 32" xml:space="preserve">
<g>
	<path fill-rule="evenodd" clip-rule="evenodd" fill="#FCAF08" d="M6.499,20.355c0-1.806,0.026-3.612-0.009-5.417
		c-0.024-1.221-0.067-2.441-0.034-3.662c0.006-0.242,0.094-0.358,0.283-0.204c0.63,0.515,1.105,0.055,1.596-0.228
		c2.192-1.261,4.377-2.535,6.564-3.804c0.027-0.015,0.054-0.029,0.079-0.046c0.217-0.152,0.44-0.468,0.694-0.322
		c0.211,0.12,0.084,0.48,0.084,0.731c0.004,2.801,0.008,5.601-0.006,8.402c-0.002,0.348,0.09,0.575,0.414,0.726
		c0.357,0.164,0.705,0.352,1.037,0.561c0.344,0.214,0.424,0.077,0.422-0.255c-0.004-0.934-0.004-1.867-0.004-2.8
		c0-2.036-0.012-4.071,0.01-6.107c0.004-0.318-0.146-0.48-0.371-0.549c-0.488-0.147-0.809-0.555-1.27-0.74
		c-0.238-0.095-0.107-0.223,0.051-0.314c1.258-0.73,2.557-1.398,3.752-2.22c0.803-0.552,1.453-0.546,2.178,0.026
		c0.193,0.155,0.561,0.213,0.561,0.466c0,0.286-0.367,0.337-0.594,0.468c-1.193,0.687-2.387,1.376-3.578,2.066
		C18.332,7.148,18.32,7.185,18.295,7.2c-0.654,0.397-0.656,0.401-0.006,0.809c0.178,0.113,0.225,0.263,0.225,0.462
		c-0.002,2.632,0,5.264,0.004,7.896c0,0.213,0.051,0.436,0.012,0.642c-0.143,0.765,0.289,1.147,0.9,1.433
		c0.207,0.096,0.4,0.218,0.6,0.326c0.287,0.155,0.264,0.282-0.012,0.439c-1.275,0.727-2.549,1.46-3.818,2.197
		c-1.31,0.761-2.621,1.522-3.919,2.305c-0.183,0.11-0.291,0.089-0.449-0.002c-0.406-0.234-0.819-0.46-1.234-0.679
		c-0.426-0.225-0.451-0.206-0.453,0.306c-0.002,1.531,0.003,3.061-0.006,4.591c-0.002,0.171,0.149,0.473-0.146,0.484
		c-0.298,0.012-0.598-0.154-0.683-0.485c-0.053-0.201-0.017-0.426-0.017-0.641c0.001-1.514,0.005-3.029,0.002-4.546
		c-0.001-0.305-0.009-0.568,0.393-0.269c0.349,0.26,0.668,0.176,1.026-0.031c2.227-1.298,4.464-2.576,6.697-3.863
		c0.262-0.151,0.52-0.311,0.771-0.476c0.197-0.126,0.223-0.234,0.006-0.41c-0.348-0.28-0.627-0.296-1.029-0.06
		c-2.253,1.313-4.521,2.601-6.741,3.97c-0.078,0.047-0.165,0.084-0.231,0.144c-0.811,0.729-1.482,0.209-2.163-0.237
		c-0.063-0.042-0.131-0.08-0.189-0.128c-0.123-0.102-0.269-0.196-0.414-0.12c-0.135,0.07-0.088,0.249-0.088,0.381
		c-0.007,1.468-0.007,2.939-0.008,4.407c0,0.046,0.018,0.1,0.001,0.136c-0.085,0.191,0.179,0.586-0.212,0.565
		c-0.307-0.017-0.606-0.192-0.6-0.651c0.021-1.744,0.005-3.49,0.003-5.235c0-0.168,0-0.336,0-0.504
		C6.51,20.355,6.504,20.355,6.499,20.355z"/>
	<path fill-rule="evenodd" clip-rule="evenodd" fill="#FCAF08" d="M29.17,16.354c0,2.403-0.006,4.805,0.006,7.205
		c0.002,0.396-0.1,0.61-0.504,0.794c-1.5,0.686-2.877,1.606-4.309,2.422c-2.002,1.14-3.988,2.307-5.982,3.463
		c-0.721,0.417-1.438,0.843-2.162,1.254c-0.42,0.239-0.494,0.191-0.494-0.274c-0.002-1.576,0.004-3.152-0.008-4.729
		c-0.004-0.357,0.104-0.555,0.43-0.755c2.27-1.407,4.623-2.662,6.91-4.034c0.248-0.147,0.5-0.287,0.744-0.441
		c0.207-0.129,0.25-0.303,0-0.4c-0.561-0.215-0.57-0.647-0.568-1.146c0.016-2.738,0.008-5.477,0.008-8.216
		c0-0.494,0.063-0.532,0.521-0.277c0.215,0.12,0.391,0.131,0.621-0.006c1.434-0.847,2.879-1.671,4.318-2.509
		c0.426-0.247,0.477-0.23,0.477,0.261c0.002,2.463,0.002,4.927,0.002,7.39C29.176,16.354,29.174,16.354,29.17,16.354z"/>
	<path fill-rule="evenodd" clip-rule="evenodd" fill="#FCAF08" d="M4.602,9.842c-0.107,0.176-0.061,0.363-0.061,0.539
		c-0.003,4.745-0.001,9.489-0.006,14.235c0,0.197,0.104,0.541-0.113,0.56c-0.237,0.021-0.517-0.17-0.704-0.377
		c-0.058-0.063-0.041-0.203-0.041-0.308c-0.009-4.884-0.024-9.766-0.01-14.648c0.002-0.494-0.125-0.79-0.581-0.983
		c-0.317-0.134-0.6-0.347-0.901-0.52C1.927,8.19,1.944,8.085,2.202,7.938c1.755-1.012,3.51-2.025,5.253-3.057
		c1.186-0.701,2.37-1.408,3.563-2.089c1.341-0.766,2.664-1.564,4.009-2.323c0.258-0.146,0.471-0.133,0.715,0.029
		c0.352,0.235,0.711,0.46,1.086,0.661c0.33,0.176,0.281,0.29-0.008,0.455c-1.459,0.838-2.915,1.685-4.37,2.53
		c-2.157,1.254-4.313,2.512-6.47,3.767c-0.549,0.32-1.102,0.633-1.649,0.957c-0.216,0.128-0.547,0.28-0.327,0.571
		c0.169,0.225,0.5,0.336,0.82,0.156C5.208,9.379,5.596,9.171,5.976,8.95c3.928-2.29,7.856-4.578,11.78-6.877
		c0.227-0.134,0.387-0.16,0.615-0.005c0.35,0.236,0.729,0.428,1.098,0.636c0.387,0.22,0.393,0.304,0.01,0.544
		c-1.221,0.768-2.486,1.461-3.736,2.178c-2.272,1.303-4.53,2.628-6.796,3.939c-0.785,0.454-1.581,0.891-2.364,1.347
		c-0.153,0.09-0.253,0.031-0.375-0.035C5.678,10.394,5.179,10.052,4.602,9.842z"/>
	<path fill-rule="evenodd" clip-rule="evenodd" fill="#FCAF08" d="M12.069,26.824c0-0.826,0-1.651,0-2.478
		c0-0.289,0.011-0.521,0.394-0.253c0.323,0.228,0.586,0.188,0.984-0.036c2.414-1.357,4.818-2.731,7.175-4.181
		c0.66-0.406,1.043-0.14,1.535,0.104c0.107,0.054,0.201,0.132,0.307,0.192c0.596,0.352,0.598,0.452,0.014,0.792
		c-2.094,1.213-4.197,2.41-6.254,3.685c-0.256,0.159-0.563,0.247-0.791,0.437c-0.471,0.397-0.879,0.239-1.311-0.047
		c-0.239-0.157-0.504-0.273-0.745-0.43c-0.325-0.21-0.423-0.105-0.421,0.25c0.006,1.543,0.01,3.089-0.009,4.634
		c-0.002,0.185,0.186,0.497-0.18,0.563c-0.239,0.045-0.689-0.402-0.692-0.664c-0.005-0.857-0.001-1.712-0.001-2.569
		C12.072,26.824,12.07,26.824,12.069,26.824z"/>
	<path fill-rule="evenodd" clip-rule="evenodd" fill="#FCAF08" d="M20.426,14.147c0-1.423-0.002-2.847,0-4.27
		c0-0.586,0.031-0.609,0.506-0.323c0.225,0.134,0.404,0.133,0.633-0.002c1.371-0.81,2.758-1.593,4.125-2.41
		c0.455-0.272,0.859-0.47,1.35-0.071c0.256,0.208,0.578,0.33,0.859,0.508c0.348,0.219,0.336,0.378-0.035,0.555
		c-0.984,0.47-1.893,1.074-2.846,1.599c-0.541,0.3-1.086,0.599-1.611,0.924c-0.188,0.115-0.313,0.113-0.494-0.001
		c-0.398-0.251-0.832-0.446-1.215-0.717c-0.365-0.26-0.41-0.061-0.414,0.231c-0.006,0.781,0.002,1.562,0.002,2.342
		c0.002,2.082,0.006,4.163-0.002,6.246c0,0.178,0.146,0.465-0.205,0.498c-0.252,0.026-0.65-0.326-0.65-0.563
		c-0.006-0.841-0.002-1.683-0.002-2.524C20.426,15.494,20.426,14.82,20.426,14.147z"/>
	<path fill-rule="evenodd" clip-rule="evenodd" fill="#FCAF08" d="M23.625,5.203c0.164,0,0.27,0.05,0.377,0.118
		c0.357,0.223,0.713,0.455,1.088,0.646c0.348,0.178,0.348,0.324,0.021,0.513c-0.99,0.572-1.982,1.148-2.975,1.721
		c-0.471,0.271-0.953,0.527-1.416,0.812c-0.225,0.137-0.4,0.139-0.625-0.004c-0.381-0.243-0.785-0.453-1.18-0.675
		c-0.258-0.145-0.275-0.296-0.012-0.45c1.486-0.861,2.973-1.722,4.459-2.579C23.453,5.252,23.559,5.228,23.625,5.203z"/>
</g>
</svg>
