<?xml version="1.0" encoding="utf-8"?>
<!-- Generator: Adobe Illustrator 16.0.0, SVG Export Plug-In . SVG Version: 6.00 Build 0)  -->
<!DOCTYPE svg PUBLIC "-//W3C//DTD SVG 1.1//EN" "http://www.w3.org/Graphics/SVG/1.1/DTD/svg11.dtd">
<svg version="1.1" id="Layer_1" xmlns="http://www.w3.org/2000/svg" xmlns:xlink="http://www.w3.org/1999/xlink" x="0px" y="0px"
	 width="32px" height="32px" viewBox="0 0 32 32" enable-background="new 0 0 32 32" xml:space="preserve">
<circle fill="#D6D6D6" cx="16.152" cy="15.767" r="15.524"/>
<g id="Path-raw">
	<circle id="Oval" fill="#88BDF3" cx="16.151" cy="9.26" r="5.385"/>
	<circle id="Oval-Copy" fill="#3075EE" cx="16.151" cy="22.274" r="5.385"/>
	<circle id="Oval-Copy-2" fill="#5795F1" cx="22.658" cy="15.767" r="5.386"/>
	<path id="Oval-Copy-3" fill="#205FEC" d="M9.646,10.38c2.973,0,5.384,2.414,5.384,5.387c0,2.974-2.411,5.386-5.384,5.386
		c-2.977,0-5.387-2.412-5.387-5.386C4.259,12.794,6.669,10.38,9.646,10.38z"/>
	<path id="Combined-Shape" fill="#134BEF" d="M14.884,14.5c-1.957-0.477-3.483-2.005-3.962-3.962
		C12.876,11.021,14.401,12.546,14.884,14.5z"/>
	<path id="Combined-Shape-2" fill="#0932E8" d="M10.912,21.005c0.475-1.956,2.002-3.483,3.959-3.958
		C14.389,18.998,12.865,20.523,10.912,21.005z"/>
	<path id="Combined-Shape-3" fill="#164BEA" d="M17.42,17.034c1.955,0.479,3.483,2.006,3.961,3.962
		C19.427,20.513,17.902,18.987,17.42,17.034z"/>
	<path id="Combined-Shape-4" fill="#3170F1" d="M21.39,10.528c-0.474,1.957-2.002,3.484-3.958,3.959
		C17.914,12.537,19.436,11.011,21.39,10.528z"/>
</g>
</svg>
