<?xml version="1.0" encoding="utf-8"?>
<!-- Generator: Adobe Illustrator 16.0.0, SVG Export Plug-In . SVG Version: 6.00 Build 0)  -->
<!DOCTYPE svg PUBLIC "-//W3C//DTD SVG 1.1//EN" "http://www.w3.org/Graphics/SVG/1.1/DTD/svg11.dtd">
<svg version="1.1" id="Layer_1" xmlns="http://www.w3.org/2000/svg" xmlns:xlink="http://www.w3.org/1999/xlink" x="0px" y="0px"
	 width="32px" height="32px" viewBox="0 0 32 32" enable-background="new 0 0 32 32" xml:space="preserve">
<circle fill="#FF007A" cx="16" cy="15.892" r="15.524"/>
<g>
	<path fill="#FFFFFF" d="M14.02,10.133c-0.229-0.032-0.24-0.043-0.131-0.055c0.208-0.031,0.687,0.012,1.025,0.088
		c0.784,0.185,1.492,0.664,2.245,1.503l0.195,0.229l0.283-0.043c1.209-0.196,2.451-0.043,3.485,0.436
		c0.284,0.132,0.731,0.394,0.785,0.458c0.021,0.021,0.055,0.163,0.076,0.304c0.077,0.513,0.043,0.894-0.12,1.188
		c-0.087,0.164-0.087,0.208-0.03,0.349c0.042,0.108,0.173,0.186,0.293,0.186c0.261,0,0.533-0.415,0.663-0.991l0.056-0.229
		l0.098,0.11c0.556,0.621,0.992,1.481,1.058,2.09l0.021,0.163l-0.097-0.142c-0.164-0.249-0.317-0.412-0.523-0.554
		c-0.372-0.251-0.764-0.327-1.798-0.383c-0.938-0.053-1.471-0.129-1.994-0.305c-0.893-0.294-1.351-0.676-2.407-2.081
		c-0.468-0.621-0.764-0.959-1.058-1.242C15.501,10.59,14.858,10.264,14.02,10.133z"/>
	<path fill="#FFFFFF" d="M22.137,11.516c0.022-0.413,0.077-0.686,0.196-0.937c0.043-0.097,0.087-0.185,0.097-0.185
		c0.012,0-0.01,0.077-0.043,0.163c-0.087,0.24-0.099,0.578-0.044,0.959c0.077,0.491,0.11,0.556,0.633,1.091
		c0.24,0.25,0.522,0.565,0.631,0.697l0.187,0.239l-0.187-0.174c-0.228-0.219-0.751-0.633-0.871-0.686
		c-0.076-0.045-0.088-0.045-0.141,0.01c-0.046,0.043-0.055,0.109-0.055,0.424c-0.012,0.491-0.077,0.796-0.24,1.112
		c-0.086,0.163-0.098,0.13-0.021-0.055c0.055-0.142,0.064-0.207,0.064-0.676c0-0.947-0.107-1.175-0.774-1.557
		c-0.162-0.098-0.446-0.239-0.608-0.316c-0.176-0.077-0.305-0.142-0.296-0.142c0.023-0.021,0.665,0.164,0.916,0.271
		c0.382,0.153,0.446,0.163,0.492,0.153C22.103,11.876,22.126,11.789,22.137,11.516z"/>
	<path fill="#FFFFFF" d="M14.465,13.139c-0.458-0.631-0.751-1.611-0.686-2.342l0.022-0.228l0.11,0.021
		c0.194,0.033,0.533,0.163,0.696,0.262c0.436,0.261,0.632,0.621,0.817,1.515c0.055,0.262,0.131,0.567,0.164,0.665
		c0.055,0.163,0.263,0.544,0.436,0.784c0.12,0.175,0.043,0.262-0.228,0.239C15.381,14.012,14.825,13.631,14.465,13.139z"/>
	<path fill="#FFFFFF" d="M21.58,17.879c-2.157-0.871-2.92-1.624-2.92-2.898c0-0.185,0.012-0.336,0.012-0.336
		c0.01,0,0.087,0.065,0.186,0.142c0.435,0.348,0.926,0.501,2.287,0.697c0.796,0.12,1.254,0.207,1.668,0.348
		c1.319,0.435,2.135,1.327,2.331,2.538c0.055,0.35,0.021,1.014-0.065,1.361c-0.077,0.273-0.294,0.775-0.35,0.785
		c-0.01,0-0.031-0.055-0.031-0.141c-0.022-0.459-0.251-0.895-0.633-1.232C23.606,18.75,23.019,18.457,21.58,17.879z"/>
	<path fill="#FFFFFF" d="M20.056,18.238c-0.021-0.162-0.077-0.369-0.11-0.457l-0.054-0.164l0.098,0.121
		c0.143,0.162,0.252,0.359,0.349,0.631c0.077,0.207,0.077,0.273,0.077,0.611c0,0.326-0.012,0.402-0.077,0.588
		c-0.107,0.295-0.239,0.5-0.457,0.73c-0.393,0.402-0.904,0.619-1.635,0.719c-0.13,0.012-0.502,0.043-0.828,0.066
		c-0.816,0.043-1.361,0.129-1.852,0.305c-0.065,0.021-0.13,0.043-0.142,0.031c-0.021-0.021,0.316-0.217,0.589-0.348
		c0.382-0.186,0.772-0.283,1.633-0.436c0.427-0.064,0.86-0.152,0.971-0.197C19.696,20.102,20.23,19.264,20.056,18.238z"/>
	<path fill="#FFFFFF" d="M21.046,19.992c-0.282-0.619-0.348-1.209-0.196-1.764c0.023-0.055,0.045-0.109,0.067-0.109
		c0.021,0,0.086,0.031,0.151,0.076c0.131,0.086,0.402,0.24,1.1,0.621c0.885,0.479,1.385,0.85,1.733,1.275
		c0.305,0.369,0.491,0.795,0.577,1.318c0.056,0.295,0.022,1.002-0.054,1.297c-0.24,0.926-0.785,1.666-1.58,2.09
		c-0.12,0.066-0.219,0.111-0.229,0.111c-0.011,0,0.031-0.111,0.098-0.24c0.262-0.557,0.293-1.09,0.099-1.689
		c-0.119-0.369-0.371-0.818-0.872-1.568C21.341,20.537,21.199,20.309,21.046,19.992z"/>
	<path fill="#FFFFFF" d="M12.93,23.328c0.806-0.676,1.797-1.156,2.712-1.309c0.393-0.066,1.045-0.045,1.404,0.055
		c0.578,0.152,1.102,0.479,1.374,0.883c0.261,0.393,0.381,0.73,0.502,1.482c0.042,0.293,0.098,0.598,0.109,0.664
		c0.086,0.393,0.26,0.697,0.478,0.859c0.339,0.252,0.927,0.264,1.505,0.045c0.099-0.033,0.185-0.066,0.185-0.055
		c0.022,0.021-0.272,0.217-0.47,0.316c-0.271,0.141-0.488,0.186-0.784,0.186c-0.522,0-0.969-0.273-1.328-0.818
		c-0.076-0.107-0.229-0.424-0.359-0.719c-0.381-0.883-0.578-1.145-1.023-1.439c-0.393-0.248-0.895-0.305-1.275-0.119
		c-0.501,0.24-0.632,0.883-0.283,1.275c0.141,0.162,0.402,0.295,0.621,0.326c0.402,0.055,0.75-0.262,0.75-0.664
		c0-0.262-0.096-0.414-0.359-0.533c-0.348-0.152-0.729,0.021-0.718,0.359c0,0.141,0.066,0.229,0.208,0.293
		c0.087,0.043,0.087,0.043,0.022,0.035c-0.317-0.066-0.394-0.459-0.143-0.711c0.306-0.305,0.948-0.174,1.166,0.252
		c0.086,0.174,0.098,0.523,0.021,0.74c-0.186,0.48-0.707,0.73-1.242,0.588c-0.359-0.098-0.512-0.195-0.947-0.643
		c-0.763-0.785-1.057-0.938-2.148-1.1l-0.207-0.033L12.93,23.328z"/>
	<path fill="#FFFFFF" d="M7.199,5.796c2.538,3.085,6.45,7.878,6.646,8.139c0.163,0.218,0.098,0.425-0.173,0.578
		c-0.153,0.087-0.469,0.175-0.621,0.175c-0.175,0-0.383-0.088-0.524-0.229c-0.098-0.098-0.522-0.719-1.481-2.211
		c-0.729-1.144-1.35-2.093-1.362-2.103c-0.043-0.021-0.043-0.021,1.286,2.353c0.838,1.493,1.111,2.027,1.111,2.092
		c0,0.142-0.043,0.219-0.218,0.415c-0.295,0.326-0.424,0.696-0.523,1.469c-0.108,0.861-0.403,1.472-1.242,2.507
		c-0.491,0.609-0.565,0.719-0.685,0.969c-0.153,0.305-0.197,0.48-0.219,0.871c-0.021,0.414,0.021,0.676,0.142,1.068
		c0.108,0.35,0.228,0.578,0.522,1.025c0.25,0.393,0.402,0.686,0.402,0.795c0,0.086,0.022,0.086,0.415,0
		c0.937-0.219,1.709-0.59,2.136-1.045c0.262-0.285,0.326-0.438,0.326-0.83c0-0.25-0.011-0.305-0.077-0.457
		c-0.108-0.24-0.316-0.436-0.763-0.74c-0.587-0.404-0.839-0.73-0.903-1.166c-0.055-0.371,0.01-0.621,0.337-1.309
		c0.338-0.707,0.425-1.004,0.479-1.721c0.032-0.457,0.086-0.644,0.217-0.785c0.143-0.151,0.263-0.206,0.6-0.249
		c0.556-0.077,0.916-0.219,1.198-0.491c0.251-0.229,0.359-0.458,0.372-0.796l0.01-0.25l-0.142-0.153
		c-0.511-0.588-7.604-8.39-7.637-8.39C6.817,5.328,6.992,5.535,7.199,5.796z M10.543,21.289c0.12-0.205,0.055-0.469-0.142-0.6
		c-0.185-0.117-0.468-0.063-0.468,0.1c0,0.043,0.021,0.086,0.087,0.109c0.098,0.055,0.109,0.109,0.033,0.229
		s-0.077,0.229,0.021,0.305C10.227,21.553,10.435,21.486,10.543,21.289z"/>
	<path fill="#FFFFFF" d="M14.957,15.558c-0.262,0.076-0.513,0.359-0.589,0.643c-0.043,0.175-0.022,0.491,0.055,0.588
		c0.12,0.154,0.229,0.197,0.535,0.197c0.599,0,1.109-0.262,1.166-0.578c0.054-0.262-0.176-0.621-0.49-0.784
		C15.468,15.537,15.131,15.505,14.957,15.558z M15.654,16.104c0.087-0.131,0.054-0.272-0.109-0.371
		c-0.293-0.186-0.741-0.033-0.741,0.251c0,0.143,0.229,0.294,0.448,0.294C15.392,16.278,15.588,16.19,15.654,16.104z"/>
</g>
</svg>
