<?xml version="1.0" encoding="utf-8"?>
<!-- Generator: Adobe Illustrator 16.0.0, SVG Export Plug-In . SVG Version: 6.00 Build 0)  -->
<!DOCTYPE svg PUBLIC "-//W3C//DTD SVG 1.1//EN" "http://www.w3.org/Graphics/SVG/1.1/DTD/svg11.dtd">
<svg version="1.1" id="Layer_1" xmlns="http://www.w3.org/2000/svg" xmlns:xlink="http://www.w3.org/1999/xlink" x="0px" y="0px"
	 width="32px" height="32px" viewBox="0 0 32 32" enable-background="new 0 0 32 32" xml:space="preserve">
<path fill="#2775CA" d="M15.833,31.167c8.428,0,15.209-6.78,15.209-15.209c0-8.428-6.781-15.208-15.209-15.208
	S0.625,7.53,0.625,15.958C0.625,24.387,7.405,31.167,15.833,31.167z"/>
<path fill="#FFFFFF" d="M20.016,18.366c0-2.218-1.33-2.978-3.993-3.295c-1.9-0.254-2.28-0.761-2.28-1.648s0.634-1.458,1.901-1.458
	c1.141,0,1.774,0.38,2.09,1.331c0.064,0.19,0.254,0.317,0.445,0.317h1.012c0.254,0,0.445-0.19,0.445-0.443v-0.064
	c-0.254-1.394-1.395-2.471-2.852-2.598V8.988c0-0.253-0.189-0.444-0.507-0.507h-0.951c-0.254,0-0.444,0.19-0.507,0.507v1.458
	c-1.902,0.253-3.105,1.521-3.105,3.104c0,2.091,1.267,2.916,3.929,3.231c1.774,0.317,2.344,0.697,2.344,1.712
	c0,1.014-0.887,1.712-2.09,1.712c-1.648,0-2.219-0.698-2.409-1.649c-0.064-0.252-0.253-0.38-0.443-0.38h-1.077
	c-0.254,0-0.444,0.19-0.444,0.444v0.063c0.253,1.583,1.268,2.724,3.358,3.042v1.52c0,0.253,0.19,0.444,0.507,0.507h0.951
	c0.255,0,0.445-0.189,0.507-0.507v-1.52C18.75,21.407,20.016,20.077,20.016,18.366L20.016,18.366z"/>
<path fill="#FFFFFF" d="M12.602,25.019c-4.943-1.773-7.478-7.286-5.64-12.166c0.95-2.661,3.042-4.689,5.64-5.639
	c0.254-0.127,0.38-0.317,0.38-0.634V5.692c0-0.253-0.126-0.443-0.38-0.507c-0.063,0-0.19,0-0.253,0.064
	c-6.021,1.9-9.315,8.3-7.415,14.321c1.141,3.548,3.865,6.273,7.415,7.414c0.253,0.126,0.507,0,0.57-0.254
	c0.063-0.062,0.063-0.127,0.063-0.252v-0.888C12.982,25.4,12.792,25.147,12.602,25.019z M19.32,5.25
	c-0.254-0.127-0.508,0-0.57,0.252c-0.064,0.063-0.064,0.127-0.064,0.253v0.888c0,0.253,0.189,0.506,0.381,0.633
	c4.941,1.774,7.479,7.288,5.639,12.168c-0.951,2.661-3.041,4.688-5.639,5.64c-0.254,0.127-0.381,0.316-0.381,0.633v0.887
	c0,0.255,0.127,0.445,0.381,0.507c0.063,0,0.189,0,0.254-0.062c6.02-1.901,9.314-8.303,7.414-14.322
	C25.592,9.114,22.805,6.389,19.32,5.25z"/>
<linearGradient id="SVGID_1_" gradientUnits="userSpaceOnUse" x1="722.7871" y1="-790.8394" x2="843.8164" y2="-790.8394" gradientTransform="matrix(1 0 0 -1 -231 -288)">
	<stop  offset="0" style="stop-color:#9D4ABE"/>
	<stop  offset="0.03" style="stop-color:#9055C4"/>
	<stop  offset="0.15" style="stop-color:#6B74D6"/>
	<stop  offset="0.26" style="stop-color:#4C8FE5"/>
	<stop  offset="0.39" style="stop-color:#34A3F0"/>
	<stop  offset="0.52" style="stop-color:#22B2F9"/>
	<stop  offset="0.66" style="stop-color:#18BAFD"/>
	<stop  offset="0.83" style="stop-color:#15BDFF"/>
	<stop  offset="1" style="stop-color:#28BAD5"/>
</linearGradient>
<path fill="url(#SVGID_1_)" d="M543.818,554.821l-51.766-105.438c-0.842-1.685,0.422-3.671,2.288-3.671h17.937
	c0.963,0,1.866,0.545,2.288,1.384l37.801,76.491c3.37,6.86,13.122,6.86,16.493,0l37.68-76.431c0.424-0.843,1.324-1.384,2.288-1.384
	h2.227c1.324,0,2.167,1.384,1.564,2.527l-52.307,106.521C556.941,561.681,547.189,561.681,543.818,554.821z"/>
<g transform="translate(0-70)">
	<path opacity="0.1" fill="#FFFFFF" enable-background="new    " d="M543.818,554.821l-29.253-107.664
		c-0.421-0.899-1.385-1.384-2.167-1.384H494.4c-1.986,0-3.13,1.985-2.348,3.671L543.818,554.821z"/>
	<path opacity="0.1" fill="#FFFFFF" enable-background="new    " d="M552.366,523.646l-60.313-74.263
		c-0.722-1.745,0.361-3.489,2.047-3.671h18.239c1.022,0.061,1.806,0.722,2.167,1.384L552.366,523.646z"/>
</g>
</svg>
