<?xml version="1.0" encoding="utf-8"?>
<!-- Generator: Adobe Illustrator 24.0.1, SVG Export Plug-In . SVG Version: 6.00 Build 0)  -->
<svg version="1.1" id="Livello_1" xmlns="http://www.w3.org/2000/svg" xmlns:xlink="http://www.w3.org/1999/xlink" x="0px" y="0px"
	 viewBox="0 0 99 99" style="enable-background:new 0 0 99 99;" xml:space="preserve">
<style type="text/css">
	.st0{fill:#2058E5;}
</style>
<path class="st0" d="M49.5,0C22.2,0,0,22.2,0,49.5S22.2,99,49.5,99C76.9,99,99,76.9,99,49.5S76.9,0,49.5,0z M55.4,26.2l2.8-5.8
	c0-0.1,0.1-0.1,0.2-0.1h5.7c0.7,0,1.1,0.7,0.8,1.3l-2.8,5.8c0,0.1-0.1,0.1-0.2,0.1h-5.7C55.6,27.5,55.1,26.8,55.4,26.2z M40,72.9
	l-2.8,5.8c0,0.1-0.1,0.1-0.2,0.1h-5.7c-0.7,0-1.1-0.7-0.8-1.3l2.8-5.8c0-0.1,0.1-0.1,0.2-0.1h5.7C39.8,71.5,40.3,72.2,40,72.9z
	 M67.1,47.2l-7.8,15.9c-1.4,2.9-4.4,4.8-7.6,4.8H26.2c-0.7,0-1.1-0.7-0.8-1.3l2.8-5.8c0-0.1,0.1-0.1,0.2-0.1h24.2
	c0.4,0,0.8-0.2,1-0.6L60.4,46c0-0.1,0.1-0.1,0.2-0.1h5.7C66.9,45.9,67.4,46.6,67.1,47.2z M42.9,51.8l2.8-5.8c0-0.1,0.1-0.1,0.2-0.1
	h9.3c0.7,0,1.1,0.7,0.8,1.3L53.3,53c0,0.1-0.1,0.1-0.2,0.1h-9.3C43.1,53.2,42.6,52.4,42.9,51.8z M73.7,32.5l-2.8,5.8
	c0,0.1-0.1,0.1-0.2,0.1H46.5c-0.4,0-0.8,0.2-1,0.6l-6.8,13.9c0,0.1-0.1,0.1-0.2,0.1h-5.7c-0.7,0-1.1-0.7-0.8-1.3L39.7,36
	c1.4-2.9,4.4-4.8,7.6-4.8h25.5C73.6,31.2,74,31.9,73.7,32.5z"/>
<path class="st0" d="M-190.4,0c-27.3,0-49.5,22.2-49.5,49.5S-217.7,99-190.4,99s49.5-22.2,49.5-49.5S-163,0-190.4,0z M-215.3,51.8
	l2.8-5.8c0-0.1,0.1-0.1,0.2-0.1h5.7c0.7,0,1.1,0.7,0.8,1.3l-2.8,5.8c0,0.1-0.1,0.1-0.2,0.1h-5.7C-215.2,53.2-215.6,52.4-215.3,51.8z
	 M-165.4,32.5l-2.8,5.8c0,0.1-0.1,0.1-0.2,0.1h-21.4c-0.4,0-0.8,0.2-1,0.6l-9.7,19.9c-0.4,0.8,0.2,1.6,1,1.6h22.2
	c0.7,0,1.1,0.7,0.8,1.3l-2.8,5.8c0,0.1-0.1,0.1-0.2,0.1h-25.4c-3.4,0-5.6-3.5-4.1-6.6l12.4-25.4c1.4-2.9,4.4-4.8,7.6-4.8h22.8
	C-165.6,31.2-165.1,31.9-165.4,32.5z M-176.6,47.2l-2.8,5.8c0,0.1-0.1,0.1-0.2,0.1h-13c-0.7,0-1.1-0.7-0.8-1.3l2.8-5.8
	c0-0.1,0.1-0.1,0.2-0.1h13C-176.8,45.9-176.3,46.6-176.6,47.2z"/>
<path class="st0" d="M-73.7,0c-27.3,0-49.5,22.2-49.5,49.5S-101,99-73.7,99s49.5-22.2,49.5-49.5S-46.3,0-73.7,0z M-93.7,51.8
	l2.8-5.8c0-0.1,0.1-0.1,0.2-0.1h5.7c0.7,0,1.1,0.7,0.8,1.3L-87,53c0,0.1-0.1,0.1-0.2,0.1h-5.7C-93.5,53.2-94,52.4-93.7,51.8z
	 M-53.7,61.9l-2.8,5.8c0,0.1-0.1,0.1-0.2,0.1h-32.4c-0.7,0-1.1-0.7-0.8-1.3L-75,35.9c1.4-2.9,4.4-4.8,7.6-4.8h12.2
	c0.7,0,1.1,0.7,0.8,1.3l-2.8,5.8c0,0.1-0.1,0.1-0.2,0.1h-10.8c-0.4,0-0.8,0.2-1,0.6l-10.3,21.2c-0.1,0.2,0,0.3,0.2,0.3h24.9
	C-53.8,60.6-53.4,61.3-53.7,61.9z M-61.6,47.2l-2.8,5.8c0,0.1-0.1,0.1-0.2,0.1H-71c-0.7,0-1.1-0.7-0.8-1.3L-69,46
	c0-0.1,0.1-0.1,0.2-0.1h6.4C-61.7,45.9-61.3,46.6-61.6,47.2z"/>
</svg>
