<?xml version="1.0" encoding="utf-8"?>
<!-- Generator: Adobe Illustrator 16.0.0, SVG Export Plug-In . SVG Version: 6.00 Build 0)  -->
<!DOCTYPE svg PUBLIC "-//W3C//DTD SVG 1.1//EN" "http://www.w3.org/Graphics/SVG/1.1/DTD/svg11.dtd">
<svg version="1.1" id="Layer_1" xmlns="http://www.w3.org/2000/svg" xmlns:xlink="http://www.w3.org/1999/xlink" x="0px" y="0px"
	 width="32px" height="32px" viewBox="0 0 32 32" enable-background="new 0 0 32 32" xml:space="preserve">
<g>
	<path fill-rule="evenodd" clip-rule="evenodd" fill="#030406" d="M6.128,4.61C6.42,4.932,6.731,5.229,6.986,5.568
		C7.43,6.16,7.787,6.155,8.408,5.69c4.556-3.417,10.753-3.372,15.325,0.079c0.416,0.314,0.638,0.362,1.032-0.045
		c1.189-1.233,1.203-1.204,2.39,0.074c0.224,0.24,0.234,0.364,0.003,0.598c-0.434,0.44-1.186,0.811-1.186,1.365
		c0,0.495,0.626,0.978,0.945,1.484c2.833,4.5,2.571,10.21-0.695,14.522c-0.37,0.488-0.337,0.729,0.093,1.141
		c1.097,1.045,1.056,1.055-0.021,2.18c-0.352,0.367-0.553,0.361-0.875-0.008c-0.342-0.396-0.698-0.928-1.144-1.045
		c-0.478-0.129-0.857,0.492-1.294,0.764c-4.712,2.949-10.255,2.754-14.722-0.57c-0.429-0.32-0.64-0.344-1.024,0.059
		c-1.145,1.193-1.155,1.162-2.335-0.023c-0.284-0.285-0.291-0.438,0-0.705c0.423-0.387,1.072-0.789,1.126-1.244
		c0.051-0.434-0.543-0.939-0.844-1.42C2.3,18.291,2.491,12.75,5.714,8.362c0.334-0.456,0.339-0.695-0.072-1.09
		C4.383,6.059,4.414,5.876,5.821,4.827C5.898,4.77,5.978,4.716,6.128,4.61z M5.144,15.911c-0.129,5.75,4.711,10.798,10.505,10.955
		c6.063,0.162,11.096-4.627,11.224-10.682c0.125-5.933-4.681-10.877-10.726-11.038C10.268,4.99,5.281,9.869,5.144,15.911z"/>
	<path fill-rule="evenodd" clip-rule="evenodd" fill="#101010" d="M16.004,0.822c3.33,0.024,6.336,0.979,8.998,2.961
		c0.175,0.129,0.588,0.205,0.244,0.604c-0.26,0.301-0.443,0.242-0.735,0.038C19.117,0.664,12.788,0.669,7.466,4.44
		C7.152,4.664,6.928,4.754,6.668,4.399C6.367,3.987,6.809,3.93,6.977,3.803C9.655,1.794,12.684,0.839,16.004,0.822z"/>
	<path fill-rule="evenodd" clip-rule="evenodd" fill="#101010" d="M31.182,15.978c-0.015,3.336-0.969,6.366-2.979,9.045
		c-0.125,0.168-0.179,0.613-0.594,0.316c-0.352-0.254-0.275-0.477-0.05-0.797c3.774-5.338,3.782-11.67,0.024-17.045
		c-0.201-0.287-0.275-0.476,0.027-0.738c0.39-0.337,0.474,0.057,0.608,0.238C30.2,9.661,31.156,12.665,31.182,15.978z"/>
	<path fill-rule="evenodd" clip-rule="evenodd" fill="#101010" d="M0.818,15.963C0.84,12.717,1.77,9.752,3.696,7.117
		c0.131-0.18,0.196-0.652,0.648-0.289c0.395,0.316,0.161,0.527-0.03,0.793c-3.617,5.056-3.604,11.757,0.04,16.816
		c0.223,0.311,0.423,0.561-0.012,0.844c-0.469,0.307-0.504-0.203-0.633-0.379C1.758,22.25,0.829,19.26,0.818,15.963z"/>
	<path fill-rule="evenodd" clip-rule="evenodd" fill="#101010" d="M14.679,31.178c-2.018-0.016-5.023-0.971-7.688-2.955
		c-0.178-0.133-0.576-0.211-0.234-0.605c0.267-0.309,0.453-0.227,0.737-0.027c5.32,3.723,11.697,3.748,16.93,0.059
		c0.325-0.229,0.534-0.301,0.788,0.055c0.294,0.412-0.14,0.465-0.308,0.594C22.488,30.154,19.277,31.182,14.679,31.178z"/>
	<path fill-rule="evenodd" clip-rule="evenodd" fill="#0689F4" d="M5.144,15.911C5.281,9.869,10.268,4.99,16.147,5.146
		c6.045,0.16,10.851,5.105,10.726,11.038c-0.128,6.055-5.161,10.844-11.224,10.682C9.855,26.709,5.015,21.66,5.144,15.911z
		 M15.367,14.559c-0.063,0.394-0.119,0.591-0.121,0.789c-0.009,0.73-0.394,0.856-1.027,0.713c-0.561-0.126-1.137-0.188-1.708-0.271
		c-0.324-0.048-0.646-0.137-0.689,0.39c-0.037,0.453,0.212,0.488,0.54,0.515c0.249,0.02,0.495,0.076,0.743,0.111
		c1.916,0.268,1.924,0.27,1.472,2.164c-0.32,1.34-0.623,2.693-1.354,3.885c-0.597,0.973-1.246,0.957-1.857,0.002
		c-0.054-0.084-0.104-0.176-0.174-0.244c-0.268-0.26-0.593-0.469-0.925-0.182c-0.386,0.336-0.086,0.635,0.167,0.881
		c0.735,0.719,1.874,0.863,2.781,0.332c1.038-0.605,1.697-1.537,2.142-2.631c0.408-1.002,0.658-2.053,0.887-3.104
		c0.118-0.547,0.342-0.682,0.876-0.557c0.682,0.156,1.383,0.229,2.076,0.336c0.27,0.041,0.539,0.15,0.608-0.293
		c0.068-0.426-0.064-0.576-0.49-0.611c-0.622-0.055-1.236-0.215-1.859-0.25c-0.672-0.033-0.954-0.285-0.755-0.963
		c0.043-0.144,0.079-0.295,0.083-0.442c0.013-0.451,0.247-0.524,0.645-0.451c0.69,0.126,1.387,0.212,2.08,0.316
		c0.305,0.046,0.599,0.127,0.649-0.349c0.043-0.395-0.094-0.524-0.479-0.56c-0.672-0.064-1.336-0.216-2.008-0.276
		c-0.547-0.048-0.669-0.285-0.526-0.785c0.186-0.649,0.301-1.32,0.493-1.968c0.257-0.864,0.522-1.734,1.181-2.403
		c0.6-0.606,1.131-0.543,1.583,0.177c0.091,0.147,0.169,0.314,0.293,0.43c0.259,0.238,0.575,0.377,0.858,0.068
		c0.261-0.284,0.083-0.558-0.133-0.793c-0.604-0.657-1.718-0.889-2.569-0.539c-0.573,0.235-1.015,0.63-1.413,1.092
		c-0.952,1.101-1.358,2.44-1.675,3.814c-0.102,0.44-0.243,0.641-0.753,0.526c-0.731-0.165-1.484-0.234-2.226-0.352
		c-0.299-0.048-0.531-0.069-0.577,0.349c-0.043,0.396,0.084,0.528,0.472,0.564c0.722,0.069,1.439,0.194,2.159,0.292
		C15.118,14.321,15.419,14.33,15.367,14.559z M11.626,10.023c0.069,0.005,0.139,0.01,0.209,0.015
		c0.068,0.315,0.129,0.634,0.208,0.947c0.062,0.248,0.006,0.588,0.424,0.589c0.36,0,0.357-0.294,0.423-0.521
		c0.174-0.602,0.343-1.204,0.497-1.811c0.041-0.163,0.244-0.396-0.083-0.489c-0.279-0.081-0.404,0.084-0.465,0.344
		c-0.096,0.417-0.213,0.829-0.322,1.242c-0.222-0.424-0.312-0.832-0.396-1.24c-0.045-0.216-0.129-0.361-0.389-0.368
		c-0.262-0.006-0.333,0.137-0.396,0.351c-0.117,0.396-0.076,0.835-0.378,1.329C10.839,9.9,10.737,9.497,10.649,9.09
		c-0.058-0.266-0.211-0.403-0.478-0.349c-0.346,0.07-0.152,0.315-0.109,0.474c0.173,0.652,0.372,1.299,0.555,1.949
		c0.064,0.229,0.131,0.434,0.435,0.412c0.275-0.019,0.296-0.229,0.338-0.421C11.473,10.778,11.548,10.4,11.626,10.023z"/>
	<path fill-rule="evenodd" clip-rule="evenodd" fill="#00070C" d="M15.367,14.559c0.052-0.229-0.249-0.238-0.53-0.276
		c-0.72-0.098-1.437-0.223-2.159-0.292c-0.387-0.037-0.515-0.168-0.472-0.564c0.046-0.418,0.277-0.396,0.577-0.349
		c0.742,0.118,1.495,0.188,2.226,0.352c0.51,0.115,0.651-0.086,0.753-0.526c0.316-1.374,0.723-2.714,1.675-3.814
		c0.398-0.462,0.84-0.857,1.413-1.092c0.852-0.35,1.966-0.118,2.569,0.539c0.216,0.235,0.394,0.509,0.133,0.793
		c-0.283,0.309-0.6,0.17-0.858-0.068c-0.124-0.115-0.202-0.282-0.293-0.43c-0.452-0.721-0.983-0.784-1.583-0.177
		c-0.658,0.669-0.924,1.539-1.181,2.403c-0.192,0.647-0.308,1.318-0.493,1.968c-0.143,0.5-0.021,0.736,0.526,0.785
		c0.672,0.06,1.336,0.212,2.008,0.276c0.385,0.035,0.521,0.165,0.479,0.56c-0.051,0.476-0.345,0.395-0.649,0.349
		c-0.693-0.104-1.39-0.19-2.08-0.316c-0.397-0.073-0.632,0-0.645,0.451c-0.004,0.147-0.04,0.299-0.083,0.442
		c-0.199,0.679,0.083,0.93,0.755,0.963c0.623,0.035,1.237,0.195,1.859,0.25c0.426,0.035,0.559,0.186,0.49,0.611
		c-0.069,0.443-0.339,0.334-0.608,0.293c-0.693-0.107-1.395-0.18-2.076-0.336c-0.534-0.125-0.758,0.01-0.876,0.557
		c-0.229,1.051-0.479,2.102-0.887,3.104c-0.445,1.094-1.104,2.025-2.142,2.631c-0.907,0.531-2.046,0.387-2.781-0.332
		c-0.253-0.246-0.553-0.545-0.167-0.881c0.333-0.287,0.657-0.078,0.925,0.182c0.07,0.068,0.12,0.16,0.174,0.244
		c0.611,0.955,1.26,0.971,1.857-0.002c0.73-1.191,1.033-2.545,1.354-3.885c0.452-1.895,0.443-1.896-1.472-2.164
		c-0.248-0.035-0.494-0.092-0.743-0.111c-0.327-0.027-0.577-0.063-0.54-0.515c0.043-0.526,0.366-0.438,0.689-0.39
		c0.57,0.083,1.147,0.145,1.708,0.271c0.634,0.144,1.019,0.018,1.027-0.713C15.248,15.15,15.305,14.953,15.367,14.559z"/>
	<path fill-rule="evenodd" clip-rule="evenodd" fill="#010F1B" d="M11.626,10.023c-0.078,0.377-0.153,0.755-0.236,1.131
		c-0.042,0.193-0.063,0.402-0.338,0.421c-0.304,0.021-0.371-0.184-0.435-0.412c-0.184-0.65-0.382-1.296-0.555-1.949
		c-0.042-0.159-0.236-0.404,0.109-0.474c0.267-0.054,0.42,0.083,0.478,0.349c0.088,0.407,0.19,0.811,0.311,1.322
		c0.302-0.494,0.261-0.932,0.378-1.329c0.063-0.213,0.134-0.357,0.396-0.351c0.26,0.006,0.344,0.152,0.389,0.368
		c0.084,0.408,0.173,0.815,0.396,1.24c0.108-0.414,0.226-0.826,0.322-1.242c0.061-0.26,0.186-0.425,0.465-0.344
		c0.326,0.094,0.124,0.326,0.083,0.489c-0.154,0.606-0.323,1.209-0.497,1.811c-0.066,0.227-0.063,0.521-0.423,0.521
		c-0.418,0-0.362-0.341-0.424-0.589c-0.078-0.313-0.139-0.632-0.208-0.947C11.765,10.033,11.695,10.028,11.626,10.023z"/>
</g>
</svg>
